G04*
G04 #@! TF.GenerationSoftware,Altium Limited,Altium Designer,18.1.7 (191)*
G04*
G04 Layer_Color=8388736*
%FSLAX25Y25*%
%MOIN*%
G70*
G01*
G75*
%ADD14C,0.01000*%
%ADD51R,0.02362X0.04528*%
%ADD52R,0.01181X0.04528*%
%ADD68R,0.03740X0.03150*%
%ADD69R,0.03740X0.03150*%
%ADD70R,0.15377X0.15059*%
%ADD71R,0.03150X0.03740*%
%ADD72R,0.15059X0.15377*%
%ADD73C,0.01221*%
%ADD74R,0.02717X0.04331*%
%ADD75R,0.02717X0.05315*%
%ADD76R,0.01378X0.02992*%
%ADD77R,0.02677X0.04646*%
%ADD78O,0.03661X0.01299*%
%ADD79R,0.02677X0.05630*%
%ADD80R,0.05433X0.01890*%
%ADD81R,0.04252X0.01890*%
%ADD82R,0.10158X0.01693*%
%ADD83R,0.01299X0.02677*%
%ADD84R,0.08189X0.04252*%
%ADD85R,0.04449X0.07205*%
%ADD86R,0.06024X0.04055*%
%ADD87R,0.04252X0.03465*%
%ADD88R,0.02559X0.02756*%
%ADD89R,0.06299X0.16299*%
%ADD90R,0.04842X0.03661*%
G04:AMPARAMS|DCode=91|XSize=34.65mil|YSize=34.65mil|CornerRadius=5.51mil|HoleSize=0mil|Usage=FLASHONLY|Rotation=180.000|XOffset=0mil|YOffset=0mil|HoleType=Round|Shape=RoundedRectangle|*
%AMROUNDEDRECTD91*
21,1,0.03465,0.02362,0,0,180.0*
21,1,0.02362,0.03465,0,0,180.0*
1,1,0.01102,-0.01181,0.01181*
1,1,0.01102,0.01181,0.01181*
1,1,0.01102,0.01181,-0.01181*
1,1,0.01102,-0.01181,-0.01181*
%
%ADD91ROUNDEDRECTD91*%
%ADD92R,0.06614X0.04252*%
%ADD93R,0.04606X0.07165*%
%ADD94R,0.04055X0.04252*%
%ADD95R,0.08976X0.08268*%
G04:AMPARAMS|DCode=96|XSize=50.39mil|YSize=46.46mil|CornerRadius=0mil|HoleSize=0mil|Usage=FLASHONLY|Rotation=230.000|XOffset=0mil|YOffset=0mil|HoleType=Round|Shape=Rectangle|*
%AMROTATEDRECTD96*
4,1,4,-0.00160,0.03423,0.03399,0.00437,0.00160,-0.03423,-0.03399,-0.00437,-0.00160,0.03423,0.0*
%
%ADD96ROTATEDRECTD96*%

%ADD97R,0.06811X0.05433*%
%ADD98O,0.02480X0.06811*%
%ADD99O,0.06811X0.02480*%
%ADD100R,0.29685X0.25787*%
%ADD101R,0.04252X0.04055*%
G04:AMPARAMS|DCode=102|XSize=42.52mil|YSize=40.55mil|CornerRadius=0mil|HoleSize=0mil|Usage=FLASHONLY|Rotation=140.000|XOffset=0mil|YOffset=0mil|HoleType=Round|Shape=Rectangle|*
%AMROTATEDRECTD102*
4,1,4,0.02932,0.00187,0.00325,-0.02920,-0.02932,-0.00187,-0.00325,0.02920,0.02932,0.00187,0.0*
%
%ADD102ROTATEDRECTD102*%

G04:AMPARAMS|DCode=103|XSize=42.52mil|YSize=40.55mil|CornerRadius=0mil|HoleSize=0mil|Usage=FLASHONLY|Rotation=50.000|XOffset=0mil|YOffset=0mil|HoleType=Round|Shape=Rectangle|*
%AMROTATEDRECTD103*
4,1,4,0.00187,-0.02932,-0.02920,-0.00325,-0.00187,0.02932,0.02920,0.00325,0.00187,-0.02932,0.0*
%
%ADD103ROTATEDRECTD103*%

%ADD104R,0.05433X0.06811*%
%ADD105R,0.07165X0.04606*%
%ADD106R,0.04331X0.02717*%
%ADD107R,0.05315X0.02717*%
%ADD108R,0.03465X0.04252*%
%ADD109R,0.02756X0.02559*%
%ADD110C,0.28400*%
%ADD111C,0.02900*%
%ADD112R,0.06221X0.06221*%
%ADD113C,0.06221*%
%ADD114C,0.02559*%
%ADD115C,0.06315*%
%ADD116C,0.13898*%
%ADD117C,0.09724*%
%ADD118C,0.02306*%
%ADD119C,0.02606*%
D14*
X28500Y-500D02*
Y448500D01*
Y-500D02*
X28800D01*
X311500D01*
X311500Y448500D02*
X311500Y-500D01*
X28500Y448500D02*
X311500D01*
D51*
X253650Y26932D02*
D03*
X250500D02*
D03*
X231594D02*
D03*
X228445D02*
D03*
D52*
X247942D02*
D03*
X245974D02*
D03*
X244005D02*
D03*
X242037D02*
D03*
X240069D02*
D03*
X238100D02*
D03*
X236132D02*
D03*
X234154D02*
D03*
D68*
X248547Y406728D02*
D03*
D69*
X229570Y406675D02*
D03*
D70*
X238988Y411207D02*
D03*
D71*
X233728Y425453D02*
D03*
X233675Y444430D02*
D03*
D72*
X238207Y435011D02*
D03*
D73*
X176075Y63776D02*
D03*
X174500Y63776D02*
D03*
X172925Y63776D02*
D03*
X171350Y63776D02*
D03*
X176075Y65350D02*
D03*
X174500D02*
D03*
X172925Y65350D02*
D03*
X171350Y65350D02*
D03*
X176075Y66925D02*
D03*
X174500Y66925D02*
D03*
X172925Y66925D02*
D03*
X171350Y66925D02*
D03*
X176075Y68500D02*
D03*
X174500Y68500D02*
D03*
X172925Y68500D02*
D03*
X171350D02*
D03*
X176075Y70075D02*
D03*
X174500Y70075D02*
D03*
X172925Y70075D02*
D03*
X171350Y70075D02*
D03*
D74*
X246480Y419484D02*
D03*
X241559Y419484D02*
D03*
X236539Y419484D02*
D03*
X231520Y419484D02*
D03*
D75*
X231520Y397969D02*
D03*
X246480D02*
D03*
X236539Y397969D02*
D03*
X241559Y397969D02*
D03*
D76*
X208968Y408665D02*
D03*
X207000Y408665D02*
D03*
X205031Y408665D02*
D03*
Y414335D02*
D03*
X207000Y414335D02*
D03*
X208968Y414335D02*
D03*
D77*
X136697Y34012D02*
D03*
X144177Y34012D02*
D03*
X144177Y24563D02*
D03*
X140437Y24563D02*
D03*
X136697Y24563D02*
D03*
D78*
X176260Y38543D02*
D03*
X176260Y40314D02*
D03*
X176260Y42086D02*
D03*
Y43857D02*
D03*
X183740Y43857D02*
D03*
X183740Y42086D02*
D03*
X183740Y40314D02*
D03*
Y38543D02*
D03*
D79*
X180000Y41200D02*
D03*
D80*
X115138Y79642D02*
D03*
D81*
X120453D02*
D03*
D82*
X117500Y81709D02*
D03*
D83*
X120453Y85311D02*
D03*
X118484Y85311D02*
D03*
X116516Y85311D02*
D03*
X114547Y85311D02*
D03*
D84*
X155500Y343000D02*
D03*
X155500Y350874D02*
D03*
X155500Y358748D02*
D03*
Y366622D02*
D03*
X155500Y374496D02*
D03*
X155500Y382370D02*
D03*
X155500Y390244D02*
D03*
X155500Y398118D02*
D03*
X101957Y343000D02*
D03*
X101957Y398118D02*
D03*
X101957Y390244D02*
D03*
X101957Y382370D02*
D03*
X101957Y374496D02*
D03*
X101957Y366622D02*
D03*
X101957Y358748D02*
D03*
Y350874D02*
D03*
D85*
X185906Y21500D02*
D03*
X174094D02*
D03*
D86*
X151600Y96663D02*
D03*
Y104537D02*
D03*
D87*
X162000Y41954D02*
D03*
Y48647D02*
D03*
X145500Y314347D02*
D03*
X145500Y307653D02*
D03*
X121500Y273346D02*
D03*
Y266653D02*
D03*
X119000Y98614D02*
D03*
X119000Y91921D02*
D03*
X216000Y408654D02*
D03*
X216000Y415346D02*
D03*
X113319Y91921D02*
D03*
X113319Y98614D02*
D03*
X92200Y105646D02*
D03*
X92200Y98954D02*
D03*
X192500Y31807D02*
D03*
Y38500D02*
D03*
X168000Y31807D02*
D03*
Y38500D02*
D03*
X157100Y48646D02*
D03*
Y41954D02*
D03*
D88*
X183740Y48400D02*
D03*
X179961D02*
D03*
X170500Y288000D02*
D03*
X174279Y288000D02*
D03*
X170500Y292000D02*
D03*
X174279Y292000D02*
D03*
X165110Y351319D02*
D03*
X168890Y351319D02*
D03*
X165110Y358819D02*
D03*
X168890D02*
D03*
X165110Y366819D02*
D03*
X168890D02*
D03*
X165110Y374819D02*
D03*
X168890Y374819D02*
D03*
X122071Y293000D02*
D03*
X118291Y293000D02*
D03*
X122071Y289000D02*
D03*
X118291Y289000D02*
D03*
X238610Y36500D02*
D03*
X242390D02*
D03*
D89*
X101000Y434642D02*
D03*
X81000D02*
D03*
X91000D02*
D03*
D90*
X135150Y14500D02*
D03*
X128850D02*
D03*
D91*
X92353Y112300D02*
D03*
X99046Y112300D02*
D03*
X151953Y111800D02*
D03*
X158647Y111800D02*
D03*
D92*
X303500Y52658D02*
D03*
Y62500D02*
D03*
Y72342D02*
D03*
X294051D02*
D03*
Y62500D02*
D03*
Y52658D02*
D03*
D93*
X135484Y80768D02*
D03*
X128516Y80768D02*
D03*
D94*
X99850Y63268D02*
D03*
X106150Y63268D02*
D03*
X203350Y399500D02*
D03*
X209650D02*
D03*
X115650Y281000D02*
D03*
X109350Y281000D02*
D03*
X158850Y94500D02*
D03*
X165150Y94500D02*
D03*
D95*
X263301Y10318D02*
D03*
X218947D02*
D03*
X219045Y24590D02*
D03*
X263202D02*
D03*
D96*
X107778Y272543D02*
D03*
X103476Y267416D02*
D03*
X112000Y269000D02*
D03*
X107698Y263873D02*
D03*
D97*
X163700Y56513D02*
D03*
Y63600D02*
D03*
X163900Y78587D02*
D03*
X163900Y71500D02*
D03*
D98*
X135976Y296535D02*
D03*
X139126Y296535D02*
D03*
X142276Y296535D02*
D03*
X145425Y296535D02*
D03*
X148575Y296535D02*
D03*
X151724Y296535D02*
D03*
X154874Y296535D02*
D03*
X158024Y296535D02*
D03*
X158024Y263465D02*
D03*
X154874Y263465D02*
D03*
X151724D02*
D03*
X148575Y263465D02*
D03*
X145425Y263465D02*
D03*
X142276Y263465D02*
D03*
X139126D02*
D03*
X135976D02*
D03*
D99*
X163535Y291024D02*
D03*
X163535Y287874D02*
D03*
X163535Y284724D02*
D03*
X163535Y281575D02*
D03*
X163535Y278425D02*
D03*
X163535Y275276D02*
D03*
X163535Y272126D02*
D03*
X163535Y268976D02*
D03*
X130465Y268976D02*
D03*
Y272126D02*
D03*
X130465Y275276D02*
D03*
X130465Y278425D02*
D03*
X130465Y281575D02*
D03*
X130465Y284724D02*
D03*
Y287874D02*
D03*
X130465Y291024D02*
D03*
D100*
X237004Y62508D02*
D03*
X237004Y374870D02*
D03*
D101*
X93000Y372650D02*
D03*
Y366350D02*
D03*
X87500Y372650D02*
D03*
Y366350D02*
D03*
X130177Y30811D02*
D03*
X130177Y24512D02*
D03*
X150602Y31012D02*
D03*
X150602Y24713D02*
D03*
X108000Y83350D02*
D03*
X108000Y89650D02*
D03*
X124500Y92118D02*
D03*
X124500Y98417D02*
D03*
X81772Y359850D02*
D03*
Y366150D02*
D03*
X94500Y148150D02*
D03*
X94500Y154450D02*
D03*
X124177Y30811D02*
D03*
X124177Y24512D02*
D03*
X203102Y30512D02*
D03*
X203102Y24213D02*
D03*
D102*
X102024Y276913D02*
D03*
X97975Y272087D02*
D03*
D103*
X103413Y257976D02*
D03*
X98587Y262024D02*
D03*
D104*
X165000Y87000D02*
D03*
X157913Y87000D02*
D03*
X113504Y63315D02*
D03*
X120590D02*
D03*
X113547Y71815D02*
D03*
X120634Y71815D02*
D03*
X136043Y63268D02*
D03*
X128957Y63268D02*
D03*
X136043Y71768D02*
D03*
X128957Y71768D02*
D03*
D105*
X154900Y64016D02*
D03*
X154900Y70984D02*
D03*
D106*
X246484Y427520D02*
D03*
Y432441D02*
D03*
Y437461D02*
D03*
Y442480D02*
D03*
D107*
X224969D02*
D03*
Y427520D02*
D03*
Y437461D02*
D03*
Y432441D02*
D03*
D108*
X178874Y275500D02*
D03*
X172181Y275500D02*
D03*
X143154Y14500D02*
D03*
X149846Y14500D02*
D03*
X136846Y39000D02*
D03*
X130154Y39000D02*
D03*
D109*
X140500Y304610D02*
D03*
X140500Y308390D02*
D03*
X136500Y304610D02*
D03*
X136500Y308390D02*
D03*
X132500Y304610D02*
D03*
Y308390D02*
D03*
X134500Y256071D02*
D03*
X134500Y252291D02*
D03*
X138500Y256071D02*
D03*
Y252291D02*
D03*
X142500Y256071D02*
D03*
Y252291D02*
D03*
X146500Y256071D02*
D03*
Y252291D02*
D03*
D110*
X292406Y17000D02*
D03*
X49000D02*
D03*
X292656Y428000D02*
D03*
X49000D02*
D03*
D111*
X283812Y22469D02*
D03*
X296000Y26531D02*
D03*
X301000Y22469D02*
D03*
X302562Y17000D02*
D03*
X301000Y11531D02*
D03*
X296000Y7469D02*
D03*
X288812D02*
D03*
X283812Y11531D02*
D03*
X282250Y17000D02*
D03*
X288812Y26531D02*
D03*
X40406Y22469D02*
D03*
X52594Y26531D02*
D03*
X57594Y22469D02*
D03*
X59156Y17000D02*
D03*
X57594Y11531D02*
D03*
X52594Y7469D02*
D03*
X45406D02*
D03*
X40406Y11531D02*
D03*
X38844Y17000D02*
D03*
X45406Y26531D02*
D03*
X284063Y433469D02*
D03*
X296250Y437531D02*
D03*
X301250Y433469D02*
D03*
X302813Y428000D02*
D03*
X301250Y422531D02*
D03*
X296250Y418469D02*
D03*
X289062D02*
D03*
X284063Y422531D02*
D03*
X282500Y428000D02*
D03*
X289062Y437531D02*
D03*
X40406Y433469D02*
D03*
X52594Y437531D02*
D03*
X57594Y433469D02*
D03*
X59156Y428000D02*
D03*
X57594Y422531D02*
D03*
X52594Y418469D02*
D03*
X45406D02*
D03*
X40406Y422531D02*
D03*
X38844Y428000D02*
D03*
X45406Y437531D02*
D03*
D112*
X179500Y196500D02*
D03*
D113*
X169500D02*
D03*
X179500Y206500D02*
D03*
X169500D02*
D03*
X179500Y216500D02*
D03*
X169500D02*
D03*
D114*
X229745Y22700D02*
D03*
X252500D02*
D03*
D115*
X104449Y139100D02*
D03*
X94567D02*
D03*
X84685D02*
D03*
X64882D02*
D03*
X74764D02*
D03*
X55000D02*
D03*
D116*
X205508Y327823D02*
D03*
X268500Y110500D02*
D03*
D117*
X268500Y360185D02*
D03*
D118*
X298500Y409000D02*
D03*
X291000Y394000D02*
D03*
X298500Y379000D02*
D03*
X291000Y364000D02*
D03*
X298500Y349000D02*
D03*
X291000Y334000D02*
D03*
X298500Y319000D02*
D03*
X291000Y304000D02*
D03*
X298500Y289000D02*
D03*
X291000Y274000D02*
D03*
X298500Y259000D02*
D03*
X291000Y244000D02*
D03*
X298500Y229000D02*
D03*
X291000Y214000D02*
D03*
X298500Y199000D02*
D03*
X291000Y184000D02*
D03*
X298500Y169000D02*
D03*
X291000Y154000D02*
D03*
X298500Y139000D02*
D03*
X291000Y124000D02*
D03*
X298500Y109000D02*
D03*
X291000Y94000D02*
D03*
X298500Y79000D02*
D03*
X291000Y34000D02*
D03*
X276000Y424000D02*
D03*
X283500Y409000D02*
D03*
X276000Y394000D02*
D03*
X283500Y379000D02*
D03*
X276000Y364000D02*
D03*
X283500Y349000D02*
D03*
X276000Y334000D02*
D03*
X283500Y319000D02*
D03*
X276000Y304000D02*
D03*
X283500Y289000D02*
D03*
X276000Y274000D02*
D03*
X283500Y259000D02*
D03*
X276000Y244000D02*
D03*
X283500Y229000D02*
D03*
X276000Y214000D02*
D03*
X283500Y199000D02*
D03*
X276000Y184000D02*
D03*
X283500Y169000D02*
D03*
X276000Y154000D02*
D03*
X283500Y139000D02*
D03*
X276000Y124000D02*
D03*
X283500Y109000D02*
D03*
X276000Y94000D02*
D03*
X283500Y79000D02*
D03*
X276000Y34000D02*
D03*
Y4000D02*
D03*
X268500Y439000D02*
D03*
X261000Y424000D02*
D03*
X268500Y409000D02*
D03*
X261000Y394000D02*
D03*
X268500Y379000D02*
D03*
X261000Y364000D02*
D03*
X268500Y349000D02*
D03*
X261000Y334000D02*
D03*
X268500Y319000D02*
D03*
X261000Y304000D02*
D03*
X268500Y289000D02*
D03*
X261000Y274000D02*
D03*
X268500Y259000D02*
D03*
X261000Y244000D02*
D03*
X268500Y229000D02*
D03*
X261000Y214000D02*
D03*
X268500Y199000D02*
D03*
X261000Y184000D02*
D03*
X268500Y169000D02*
D03*
X261000Y154000D02*
D03*
X268500Y139000D02*
D03*
X261000Y124000D02*
D03*
Y94000D02*
D03*
X268500Y79000D02*
D03*
X261000Y34000D02*
D03*
Y4000D02*
D03*
X253500Y439000D02*
D03*
Y409000D02*
D03*
Y349000D02*
D03*
X246000Y334000D02*
D03*
X253500Y319000D02*
D03*
X246000Y304000D02*
D03*
X253500Y289000D02*
D03*
X246000Y274000D02*
D03*
X253500Y259000D02*
D03*
X246000Y244000D02*
D03*
X253500Y229000D02*
D03*
X246000Y214000D02*
D03*
X253500Y199000D02*
D03*
X246000Y184000D02*
D03*
X253500Y169000D02*
D03*
X246000Y154000D02*
D03*
X253500Y139000D02*
D03*
X246000Y124000D02*
D03*
X253500Y109000D02*
D03*
X246000Y94000D02*
D03*
X253500Y79000D02*
D03*
X246000Y34000D02*
D03*
X253500Y19000D02*
D03*
X246000Y4000D02*
D03*
X231000Y334000D02*
D03*
Y304000D02*
D03*
Y274000D02*
D03*
Y244000D02*
D03*
Y214000D02*
D03*
Y184000D02*
D03*
Y154000D02*
D03*
Y124000D02*
D03*
Y94000D02*
D03*
Y4000D02*
D03*
X216000Y364000D02*
D03*
Y334000D02*
D03*
X223500Y319000D02*
D03*
X216000Y304000D02*
D03*
X223500Y289000D02*
D03*
X216000Y274000D02*
D03*
X223500Y259000D02*
D03*
X216000Y244000D02*
D03*
X223500Y229000D02*
D03*
X216000Y214000D02*
D03*
X223500Y199000D02*
D03*
X216000Y184000D02*
D03*
X223500Y169000D02*
D03*
X216000Y154000D02*
D03*
X223500Y139000D02*
D03*
X216000Y124000D02*
D03*
X223500Y109000D02*
D03*
X216000Y94000D02*
D03*
X223500Y79000D02*
D03*
X216000Y34000D02*
D03*
Y4000D02*
D03*
X208500Y439000D02*
D03*
X201000Y364000D02*
D03*
X208500Y319000D02*
D03*
X201000Y304000D02*
D03*
X208500Y289000D02*
D03*
Y259000D02*
D03*
Y229000D02*
D03*
Y199000D02*
D03*
X201000Y184000D02*
D03*
X208500Y169000D02*
D03*
X201000Y154000D02*
D03*
X208500Y139000D02*
D03*
X201000Y124000D02*
D03*
X208500Y109000D02*
D03*
X201000Y94000D02*
D03*
X208500Y79000D02*
D03*
X201000Y64000D02*
D03*
Y4000D02*
D03*
X193500Y439000D02*
D03*
X186000Y424000D02*
D03*
X193500Y409000D02*
D03*
X186000Y394000D02*
D03*
X193500Y379000D02*
D03*
X186000Y364000D02*
D03*
X193500Y349000D02*
D03*
X186000Y334000D02*
D03*
X193500Y319000D02*
D03*
X186000Y304000D02*
D03*
Y244000D02*
D03*
X193500Y229000D02*
D03*
Y199000D02*
D03*
Y169000D02*
D03*
X186000Y154000D02*
D03*
X193500Y139000D02*
D03*
X186000Y124000D02*
D03*
X193500Y109000D02*
D03*
X186000Y94000D02*
D03*
X193500Y79000D02*
D03*
X178500Y439000D02*
D03*
X171000Y424000D02*
D03*
X178500Y409000D02*
D03*
X171000Y394000D02*
D03*
Y184000D02*
D03*
X178500Y169000D02*
D03*
X171000Y154000D02*
D03*
X178500Y139000D02*
D03*
X171000Y124000D02*
D03*
X178500Y109000D02*
D03*
X163500Y439000D02*
D03*
X156000Y424000D02*
D03*
X163500Y409000D02*
D03*
Y379000D02*
D03*
Y169000D02*
D03*
Y139000D02*
D03*
Y109000D02*
D03*
X156000Y34000D02*
D03*
X148500Y439000D02*
D03*
X141000Y424000D02*
D03*
X148500Y409000D02*
D03*
X141000Y394000D02*
D03*
Y364000D02*
D03*
X148500Y349000D02*
D03*
X141000Y334000D02*
D03*
X148500Y289000D02*
D03*
Y169000D02*
D03*
X141000Y154000D02*
D03*
Y124000D02*
D03*
X148500Y109000D02*
D03*
X141000Y94000D02*
D03*
X148500Y19000D02*
D03*
X133500Y439000D02*
D03*
X126000Y424000D02*
D03*
X133500Y409000D02*
D03*
X126000Y394000D02*
D03*
X133500Y379000D02*
D03*
X126000Y364000D02*
D03*
Y334000D02*
D03*
Y304000D02*
D03*
X133500Y229000D02*
D03*
X126000Y214000D02*
D03*
Y184000D02*
D03*
Y124000D02*
D03*
X133500Y109000D02*
D03*
Y19000D02*
D03*
X118500Y439000D02*
D03*
X111000Y424000D02*
D03*
X118500Y409000D02*
D03*
Y379000D02*
D03*
X111000Y364000D02*
D03*
Y334000D02*
D03*
Y304000D02*
D03*
X118500Y259000D02*
D03*
Y229000D02*
D03*
X111000Y214000D02*
D03*
Y184000D02*
D03*
Y124000D02*
D03*
X118500Y109000D02*
D03*
X111000Y4000D02*
D03*
X96000Y334000D02*
D03*
X103500Y289000D02*
D03*
Y229000D02*
D03*
X96000Y184000D02*
D03*
Y124000D02*
D03*
X103500Y109000D02*
D03*
X96000Y94000D02*
D03*
Y34000D02*
D03*
X103500Y19000D02*
D03*
X96000Y4000D02*
D03*
X81000Y394000D02*
D03*
X88500Y349000D02*
D03*
Y319000D02*
D03*
X81000Y304000D02*
D03*
Y274000D02*
D03*
Y244000D02*
D03*
X88500Y229000D02*
D03*
X81000Y214000D02*
D03*
X88500Y199000D02*
D03*
X81000Y124000D02*
D03*
Y94000D02*
D03*
X88500Y79000D02*
D03*
X81000Y64000D02*
D03*
Y34000D02*
D03*
X88500Y19000D02*
D03*
X81000Y4000D02*
D03*
X73500Y439000D02*
D03*
X66000Y424000D02*
D03*
X73500Y409000D02*
D03*
X66000Y394000D02*
D03*
Y364000D02*
D03*
Y334000D02*
D03*
X73500Y229000D02*
D03*
X66000Y214000D02*
D03*
X73500Y199000D02*
D03*
X66000Y184000D02*
D03*
X73500Y169000D02*
D03*
X66000Y154000D02*
D03*
Y124000D02*
D03*
X73500Y109000D02*
D03*
X66000Y94000D02*
D03*
X73500Y79000D02*
D03*
X66000Y64000D02*
D03*
X73500Y49000D02*
D03*
X66000Y34000D02*
D03*
X73500Y19000D02*
D03*
X66000Y4000D02*
D03*
X58500Y409000D02*
D03*
X51000Y394000D02*
D03*
X58500Y379000D02*
D03*
X51000Y364000D02*
D03*
X58500Y349000D02*
D03*
X51000Y334000D02*
D03*
Y304000D02*
D03*
Y274000D02*
D03*
Y244000D02*
D03*
Y214000D02*
D03*
Y184000D02*
D03*
X58500Y169000D02*
D03*
X51000Y154000D02*
D03*
Y124000D02*
D03*
X58500Y109000D02*
D03*
X51000Y94000D02*
D03*
X58500Y79000D02*
D03*
X51000Y64000D02*
D03*
X58500Y49000D02*
D03*
X51000Y34000D02*
D03*
X43500Y409000D02*
D03*
X36000Y394000D02*
D03*
X43500Y379000D02*
D03*
X36000Y364000D02*
D03*
X43500Y349000D02*
D03*
X36000Y334000D02*
D03*
X43500Y319000D02*
D03*
X36000Y304000D02*
D03*
X43500Y289000D02*
D03*
X36000Y274000D02*
D03*
X43500Y259000D02*
D03*
X36000Y244000D02*
D03*
X43500Y229000D02*
D03*
X36000Y214000D02*
D03*
X43500Y199000D02*
D03*
X36000Y184000D02*
D03*
X43500Y169000D02*
D03*
X36000Y154000D02*
D03*
X43500Y139000D02*
D03*
X36000Y124000D02*
D03*
X43500Y109000D02*
D03*
X36000Y94000D02*
D03*
X43500Y79000D02*
D03*
X36000Y64000D02*
D03*
X43500Y49000D02*
D03*
X36000Y34000D02*
D03*
Y4000D02*
D03*
X116700Y267663D02*
D03*
X140500Y311000D02*
D03*
X115225Y281025D02*
D03*
X209400Y387000D02*
D03*
X209700Y393800D02*
D03*
X202716Y421400D02*
D03*
X151700Y270400D02*
D03*
X158200Y270000D02*
D03*
X236100Y22400D02*
D03*
X242087Y22429D02*
D03*
X124100Y88400D02*
D03*
X116600Y88600D02*
D03*
X136700Y312276D02*
D03*
X140900Y65400D02*
D03*
X169200Y68900D02*
D03*
X169167Y64911D02*
D03*
X156600Y64000D02*
D03*
X153700D02*
D03*
X156400Y70984D02*
D03*
X153100Y70900D02*
D03*
X144200Y88900D02*
D03*
X150200Y80400D02*
D03*
X96100Y79600D02*
D03*
X107600Y95600D02*
D03*
X176200Y49500D02*
D03*
X180300Y34900D02*
D03*
X269800Y7800D02*
D03*
Y13100D02*
D03*
X212900Y13800D02*
D03*
X211000Y6600D02*
D03*
X228900Y36700D02*
D03*
X253600Y37800D02*
D03*
X266200Y18000D02*
D03*
X260200Y18100D02*
D03*
X221200Y17800D02*
D03*
X217800Y18300D02*
D03*
X220400Y414300D02*
D03*
X219200Y442100D02*
D03*
X218500Y437200D02*
D03*
X218600Y432200D02*
D03*
X148900Y403100D02*
D03*
X145900Y398800D02*
D03*
X155300Y403400D02*
D03*
X161700Y402200D02*
D03*
X163000Y397100D02*
D03*
X162800Y338200D02*
D03*
X155900Y336700D02*
D03*
X162300Y343800D02*
D03*
X93700Y377800D02*
D03*
X86800Y377400D02*
D03*
X81500Y372200D02*
D03*
X115100Y259700D02*
D03*
X94800Y257600D02*
D03*
X93100Y275000D02*
D03*
X93700Y266800D02*
D03*
X164300Y263500D02*
D03*
X129760Y295253D02*
D03*
X163100Y297100D02*
D03*
X144600Y280900D02*
D03*
X144400Y287500D02*
D03*
X148600Y282700D02*
D03*
X119800Y285300D02*
D03*
X130500Y44300D02*
D03*
X129900Y34900D02*
D03*
X150400Y35500D02*
D03*
X154400Y31200D02*
D03*
X154900Y268900D02*
D03*
X115500Y28600D02*
D03*
X112800Y14100D02*
D03*
X170200Y282300D02*
D03*
X191200Y283100D02*
D03*
X200000D02*
D03*
X150200Y180900D02*
D03*
X171200Y43500D02*
D03*
X197200Y42800D02*
D03*
X174400Y8100D02*
D03*
X153872Y14772D02*
D03*
X188600Y44300D02*
D03*
X179500Y250000D02*
D03*
Y240000D02*
D03*
X154500Y254000D02*
D03*
X156000Y244500D02*
D03*
X191500Y266000D02*
D03*
X168150Y272350D02*
D03*
X176500Y298500D02*
D03*
X178000Y292000D02*
D03*
X178500Y288000D02*
D03*
X182000Y275500D02*
D03*
X172681Y374819D02*
D03*
X156500Y240500D02*
D03*
X157000Y217000D02*
D03*
X144500Y321500D02*
D03*
X133500Y246500D02*
D03*
X130000Y238500D02*
D03*
X81772Y327394D02*
D03*
X91000Y282000D02*
D03*
X112000Y171500D02*
D03*
X91500D02*
D03*
X59000Y327500D02*
D03*
X65000Y314500D02*
D03*
Y282000D02*
D03*
X173894Y366606D02*
D03*
X172000Y358500D02*
D03*
X169000Y347500D02*
D03*
X219500Y390000D02*
D03*
X203350Y392350D02*
D03*
X185000Y54000D02*
D03*
X169000D02*
D03*
X172000D02*
D03*
X178500D02*
D03*
X175500D02*
D03*
X277000Y52500D02*
D03*
X264000D02*
D03*
X269000Y52658D02*
D03*
X284500D02*
D03*
X141000Y82000D02*
D03*
Y76000D02*
D03*
Y69750D02*
D03*
Y61000D02*
D03*
X181500Y54000D02*
D03*
X281000Y52658D02*
D03*
X273000D02*
D03*
X135484Y80768D02*
D03*
X125350Y281150D02*
D03*
X224000Y419000D02*
D03*
D119*
X107150Y409294D02*
D03*
X112315Y403220D02*
D03*
X109978Y406465D02*
D03*
X102575Y419721D02*
D03*
Y423721D02*
D03*
X104321Y412122D02*
D03*
X102575Y415721D02*
D03*
X113422Y399376D02*
D03*
X113187Y395382D02*
D03*
X108802Y388836D02*
D03*
X111570Y391724D02*
D03*
X80473Y404356D02*
D03*
X91172Y392534D02*
D03*
X94023Y389728D02*
D03*
X82699Y401032D02*
D03*
X88343Y395363D02*
D03*
X85515Y398191D02*
D03*
X79425Y424230D02*
D03*
Y420230D02*
D03*
Y416230D02*
D03*
Y412230D02*
D03*
X79481Y408230D02*
D03*
M02*
