G04*
G04 #@! TF.GenerationSoftware,Altium Limited,Altium Designer,18.1.7 (191)*
G04*
G04 Layer_Color=16711935*
%FSLAX25Y25*%
%MOIN*%
G70*
G01*
G75*
%ADD14C,0.01000*%
%ADD142C,0.00394*%
%ADD143C,0.00400*%
D14*
X28500Y-500D02*
Y448500D01*
Y-500D02*
X28800D01*
X311500D01*
X311500Y448500D02*
X311500Y-500D01*
X28500Y448500D02*
X311500D01*
D142*
X239000Y408500D02*
X236501D01*
X237334Y409333D01*
X236501Y410166D01*
X239000D01*
Y412665D02*
Y410999D01*
X237334Y412665D01*
X236917D01*
X236501Y412249D01*
Y411416D01*
X236917Y410999D01*
X209499Y411500D02*
X207417D01*
X207000Y411084D01*
Y410250D01*
X207417Y409834D01*
X209499D01*
Y409001D02*
Y407335D01*
X209083D01*
X207417Y409001D01*
X207000D01*
X137938Y29287D02*
X140021D01*
X140437Y29704D01*
Y30537D01*
X140021Y30953D01*
X137938D01*
X138354Y31787D02*
X137938Y32203D01*
Y33036D01*
X138354Y33453D01*
X138771D01*
X139187Y33036D01*
Y32620D01*
Y33036D01*
X139604Y33453D01*
X140021D01*
X140437Y33036D01*
Y32203D01*
X140021Y31787D01*
X180000Y38701D02*
Y40784D01*
X179584Y41200D01*
X178750D01*
X178334Y40784D01*
Y38701D01*
X177501Y39117D02*
X177084Y38701D01*
X176251D01*
X175835Y39117D01*
Y39534D01*
X176251Y39950D01*
X175835Y40367D01*
Y40784D01*
X176251Y41200D01*
X177084D01*
X177501Y40784D01*
Y40367D01*
X177084Y39950D01*
X177501Y39534D01*
Y39117D01*
X177084Y39950D02*
X176251D01*
X180000Y21500D02*
Y19001D01*
X178750D01*
X178334Y19417D01*
Y20250D01*
X178750Y20667D01*
X180000D01*
X179167D02*
X178334Y21500D01*
X177501Y19417D02*
X177084Y19001D01*
X176251D01*
X175835Y19417D01*
Y19834D01*
X176251Y20250D01*
X176668D01*
X176251D01*
X175835Y20667D01*
Y21083D01*
X176251Y21500D01*
X177084D01*
X177501Y21083D01*
X175002Y19417D02*
X174585Y19001D01*
X173752D01*
X173336Y19417D01*
Y21083D01*
X173752Y21500D01*
X174585D01*
X175002Y21083D01*
Y19417D01*
X151600Y100600D02*
X154099D01*
Y99350D01*
X153683Y98934D01*
X152850D01*
X152433Y99350D01*
Y100600D01*
Y99767D02*
X151600Y98934D01*
Y98101D02*
Y97268D01*
Y97684D01*
X154099D01*
X153683Y98101D01*
X152016Y96018D02*
X151600Y95602D01*
Y94769D01*
X152016Y94352D01*
X153683D01*
X154099Y94769D01*
Y95602D01*
X153683Y96018D01*
X153266D01*
X152850Y95602D01*
Y94352D01*
X162000Y45300D02*
X159501D01*
Y46550D01*
X159917Y46966D01*
X160750D01*
X161167Y46550D01*
Y45300D01*
Y46133D02*
X162000Y46966D01*
X159917Y47799D02*
X159501Y48216D01*
Y49049D01*
X159917Y49465D01*
X160334D01*
X160750Y49049D01*
Y48632D01*
Y49049D01*
X161167Y49465D01*
X161583D01*
X162000Y49049D01*
Y48216D01*
X161583Y47799D01*
X162000Y51548D02*
X159501D01*
X160750Y50298D01*
Y51964D01*
X181850Y48400D02*
Y50899D01*
X183100D01*
X183517Y50483D01*
Y49650D01*
X183100Y49233D01*
X181850D01*
X182684D02*
X183517Y48400D01*
X184350Y50483D02*
X184766Y50899D01*
X185599D01*
X186016Y50483D01*
Y50066D01*
X185599Y49650D01*
X185183D01*
X185599D01*
X186016Y49233D01*
Y48816D01*
X185599Y48400D01*
X184766D01*
X184350Y48816D01*
X188515Y48400D02*
X186849D01*
X188515Y50066D01*
Y50483D01*
X188098Y50899D01*
X187265D01*
X186849Y50483D01*
X92666Y445999D02*
X91833D01*
X92250D01*
Y443917D01*
X91833Y443500D01*
X91417D01*
X91000Y443917D01*
X93499Y443500D02*
X94332D01*
X93916D01*
Y445999D01*
X93499Y445583D01*
X132000Y12001D02*
Y14500D01*
X130750D01*
X130334Y14084D01*
Y12417D01*
X130750Y12001D01*
X132000D01*
X129501Y14500D02*
X128668D01*
X129084D01*
Y12001D01*
X129501Y12417D01*
X101334Y60769D02*
X103000D01*
Y62018D01*
X102167D01*
X103000D01*
Y63268D01*
X100501Y60769D02*
Y63268D01*
X99251D01*
X98835Y62851D01*
Y62435D01*
X99251Y62018D01*
X100501D01*
X99251D01*
X98835Y61602D01*
Y61185D01*
X99251Y60769D01*
X100501D01*
X98002D02*
X96336D01*
Y61185D01*
X98002Y62851D01*
Y63268D01*
X161617Y61723D02*
X161201Y61306D01*
Y60473D01*
X161617Y60057D01*
X163284D01*
X163700Y60473D01*
Y61306D01*
X163284Y61723D01*
X163700Y62556D02*
Y63389D01*
Y62972D01*
X161201D01*
X161617Y62556D01*
Y64639D02*
X161201Y65055D01*
Y65888D01*
X161617Y66305D01*
X163284D01*
X163700Y65888D01*
Y65055D01*
X163284Y64639D01*
X161617D01*
X204834Y397417D02*
X205250Y397001D01*
X206083D01*
X206500Y397417D01*
Y399083D01*
X206083Y399500D01*
X205250D01*
X204834Y399083D01*
X204001Y399500D02*
X203168D01*
X203584D01*
Y397001D01*
X204001Y397417D01*
X201918Y399083D02*
X201502Y399500D01*
X200669D01*
X200252Y399083D01*
Y397417D01*
X200669Y397001D01*
X201502D01*
X201918Y397417D01*
Y397834D01*
X201502Y398250D01*
X200252D01*
X235205Y200808D02*
X236871D01*
X237204Y201141D01*
Y201807D01*
X236871Y202141D01*
X235205D01*
Y204140D02*
Y202807D01*
X236204D01*
X235871Y203474D01*
Y203807D01*
X236204Y204140D01*
X236871D01*
X237204Y203807D01*
Y203140D01*
X236871Y202807D01*
X90917Y371166D02*
X90501Y370750D01*
Y369917D01*
X90917Y369500D01*
X92584D01*
X93000Y369917D01*
Y370750D01*
X92584Y371166D01*
X93000Y371999D02*
Y372832D01*
Y372416D01*
X90501D01*
X90917Y371999D01*
X85417Y371166D02*
X85001Y370750D01*
Y369917D01*
X85417Y369500D01*
X87084D01*
X87500Y369917D01*
Y370750D01*
X87084Y371166D01*
X87500Y373665D02*
Y371999D01*
X85834Y373665D01*
X85417D01*
X85001Y373249D01*
Y372416D01*
X85417Y371999D01*
X99476Y277115D02*
X98889Y277064D01*
X98353Y276426D01*
X98405Y275839D01*
X99681Y274768D01*
X100268Y274819D01*
X100803Y275457D01*
X100752Y276044D01*
X100763Y279297D02*
X100547Y278391D01*
X100649Y277218D01*
X101287Y276682D01*
X101874Y276734D01*
X102410Y277372D01*
X102358Y277959D01*
X102039Y278226D01*
X101452Y278175D01*
X100649Y277218D01*
X103615Y260524D02*
X103564Y261111D01*
X102926Y261647D01*
X102339Y261595D01*
X101268Y260319D01*
X101319Y259732D01*
X101957Y259197D01*
X102544Y259248D01*
X104521Y260308D02*
X105797Y259237D01*
X105529Y258918D01*
X103182Y258713D01*
X102915Y258394D01*
X128094Y29328D02*
X127678Y28911D01*
Y28078D01*
X128094Y27661D01*
X129761D01*
X130177Y28078D01*
Y28911D01*
X129761Y29328D01*
X128094Y30161D02*
X127678Y30577D01*
Y31410D01*
X128094Y31827D01*
X128511D01*
X128928Y31410D01*
X129344Y31827D01*
X129761D01*
X130177Y31410D01*
Y30577D01*
X129761Y30161D01*
X129344D01*
X128928Y30577D01*
X128511Y30161D01*
X128094D01*
X128928Y30577D02*
Y31410D01*
X148520Y29528D02*
X148103Y29112D01*
Y28279D01*
X148520Y27862D01*
X150186D01*
X150602Y28279D01*
Y29112D01*
X150186Y29528D01*
Y30361D02*
X150602Y30778D01*
Y31611D01*
X150186Y32028D01*
X148520D01*
X148103Y31611D01*
Y30778D01*
X148520Y30361D01*
X148936D01*
X149353Y30778D01*
Y32028D01*
X165983Y73377D02*
X166399Y73794D01*
Y74627D01*
X165983Y75043D01*
X164316D01*
X163900Y74627D01*
Y73794D01*
X164316Y73377D01*
X163900Y72544D02*
Y71711D01*
Y72128D01*
X166399D01*
X165983Y72544D01*
X163900Y70461D02*
Y69628D01*
Y70045D01*
X166399D01*
X165983Y70461D01*
X159791Y84917D02*
X160207Y84501D01*
X161040D01*
X161457Y84917D01*
Y86584D01*
X161040Y87000D01*
X160207D01*
X159791Y86584D01*
X158958Y87000D02*
X158124D01*
X158541D01*
Y84501D01*
X158958Y84917D01*
X155209Y87000D02*
X156875D01*
X155209Y85334D01*
Y84917D01*
X155625Y84501D01*
X156458D01*
X156875Y84917D01*
X110083Y84834D02*
X110499Y85250D01*
Y86084D01*
X110083Y86500D01*
X108416D01*
X108000Y86084D01*
Y85250D01*
X108416Y84834D01*
X108000Y84001D02*
Y83168D01*
Y83584D01*
X110499D01*
X110083Y84001D01*
Y81918D02*
X110499Y81502D01*
Y80669D01*
X110083Y80252D01*
X109666D01*
X109250Y80669D01*
Y81085D01*
Y80669D01*
X108833Y80252D01*
X108416D01*
X108000Y80669D01*
Y81502D01*
X108416Y81918D01*
X118713Y65398D02*
X118297Y65814D01*
X117464D01*
X117047Y65398D01*
Y63731D01*
X117464Y63315D01*
X118297D01*
X118713Y63731D01*
X119546Y63315D02*
X120379D01*
X119963D01*
Y65814D01*
X119546Y65398D01*
X122879Y63315D02*
Y65814D01*
X121629Y64565D01*
X123295D01*
X118757Y73898D02*
X118340Y74314D01*
X117507D01*
X117090Y73898D01*
Y72232D01*
X117507Y71815D01*
X118340D01*
X118757Y72232D01*
X119590Y71815D02*
X120423D01*
X120006D01*
Y74314D01*
X119590Y73898D01*
X123338Y74314D02*
X121672D01*
Y73065D01*
X122505Y73481D01*
X122922D01*
X123338Y73065D01*
Y72232D01*
X122922Y71815D01*
X122089D01*
X121672Y72232D01*
X126583Y93602D02*
X126999Y94018D01*
Y94851D01*
X126583Y95268D01*
X124917D01*
X124500Y94851D01*
Y94018D01*
X124917Y93602D01*
X124500Y92769D02*
Y91935D01*
Y92352D01*
X126999D01*
X126583Y92769D01*
X126999Y89020D02*
X126583Y89853D01*
X125750Y90686D01*
X124917D01*
X124500Y90269D01*
Y89436D01*
X124917Y89020D01*
X125333D01*
X125750Y89436D01*
Y90686D01*
X130834Y61185D02*
X131250Y60769D01*
X132083D01*
X132500Y61185D01*
Y62851D01*
X132083Y63268D01*
X131250D01*
X130834Y62851D01*
X130001Y63268D02*
X129168D01*
X129584D01*
Y60769D01*
X130001Y61185D01*
X127918Y60769D02*
X126252D01*
Y61185D01*
X127918Y62851D01*
Y63268D01*
X130834Y69685D02*
X131250Y69269D01*
X132083D01*
X132500Y69685D01*
Y71351D01*
X132083Y71768D01*
X131250D01*
X130834Y71351D01*
X130001Y71768D02*
X129168D01*
X129584D01*
Y69269D01*
X130001Y69685D01*
X127918D02*
X127502Y69269D01*
X126669D01*
X126252Y69685D01*
Y70102D01*
X126669Y70518D01*
X126252Y70935D01*
Y71351D01*
X126669Y71768D01*
X127502D01*
X127918Y71351D01*
Y70935D01*
X127502Y70518D01*
X127918Y70102D01*
Y69685D01*
X127502Y70518D02*
X126669D01*
X114166Y283499D02*
X112500D01*
Y282250D01*
X113333D01*
X112500D01*
Y281000D01*
X114999Y283499D02*
Y281000D01*
X116249D01*
X116665Y281417D01*
Y281833D01*
X116249Y282250D01*
X114999D01*
X116249D01*
X116665Y282666D01*
Y283083D01*
X116249Y283499D01*
X114999D01*
X117498Y281000D02*
X118331D01*
X117915D01*
Y283499D01*
X117498Y283083D01*
X84271Y361334D02*
Y363000D01*
X83021D01*
Y362167D01*
Y363000D01*
X81772D01*
X84271Y360501D02*
X81772D01*
Y359251D01*
X82188Y358835D01*
X82605D01*
X83021Y359251D01*
Y360501D01*
Y359251D01*
X83438Y358835D01*
X83854D01*
X84271Y359251D01*
Y360501D01*
X81772Y356335D02*
Y358002D01*
X83438Y356335D01*
X83854D01*
X84271Y356752D01*
Y357585D01*
X83854Y358002D01*
X96999Y149634D02*
Y151300D01*
X95750D01*
Y150467D01*
Y151300D01*
X94500D01*
X96999Y148801D02*
X94500D01*
Y147551D01*
X94916Y147135D01*
X95333D01*
X95750Y147551D01*
Y148801D01*
Y147551D01*
X96166Y147135D01*
X96583D01*
X96999Y147551D01*
Y148801D01*
X96583Y146302D02*
X96999Y145885D01*
Y145052D01*
X96583Y144635D01*
X96166D01*
X95750Y145052D01*
Y145469D01*
Y145052D01*
X95333Y144635D01*
X94916D01*
X94500Y145052D01*
Y145885D01*
X94916Y146302D01*
X121678Y29327D02*
Y27661D01*
X122928D01*
Y28495D01*
Y27661D01*
X124177D01*
X121678Y30161D02*
X124177D01*
Y31410D01*
X123761Y31827D01*
X123344D01*
X122928Y31410D01*
Y30161D01*
Y31410D01*
X122511Y31827D01*
X122095D01*
X121678Y31410D01*
Y30161D01*
X124177Y33909D02*
X121678D01*
X122928Y32660D01*
Y34326D01*
X200603Y29028D02*
Y27362D01*
X201853D01*
Y28195D01*
Y27362D01*
X203102D01*
X200603Y29861D02*
X203102D01*
Y31111D01*
X202686Y31528D01*
X202269D01*
X201853Y31111D01*
Y29861D01*
Y31111D01*
X201436Y31528D01*
X201020D01*
X200603Y31111D01*
Y29861D01*
Y34027D02*
Y32361D01*
X201853D01*
X201436Y33194D01*
Y33610D01*
X201853Y34027D01*
X202686D01*
X203102Y33610D01*
Y32777D01*
X202686Y32361D01*
X160334Y92001D02*
X162000D01*
Y93250D01*
X161167D01*
X162000D01*
Y94500D01*
X159501Y92001D02*
Y94500D01*
X158251D01*
X157835Y94083D01*
Y93667D01*
X158251Y93250D01*
X159501D01*
X158251D01*
X157835Y92834D01*
Y92417D01*
X158251Y92001D01*
X159501D01*
X155335D02*
X156169Y92417D01*
X157002Y93250D01*
Y94083D01*
X156585Y94500D01*
X155752D01*
X155335Y94083D01*
Y93667D01*
X155752Y93250D01*
X157002D01*
X235500Y435000D02*
Y437499D01*
X236333Y436666D01*
X237166Y437499D01*
Y435000D01*
X237999D02*
X238832D01*
X238416D01*
Y437499D01*
X237999Y437083D01*
X175528Y275500D02*
Y273001D01*
X174278D01*
X173861Y273417D01*
Y274250D01*
X174278Y274667D01*
X175528D01*
X174695D02*
X173861Y275500D01*
X173028D02*
X172195D01*
X172612D01*
Y273001D01*
X173028Y273417D01*
X172390Y288000D02*
Y285501D01*
X171140D01*
X170724Y285917D01*
Y286750D01*
X171140Y287167D01*
X172390D01*
X171557D02*
X170724Y288000D01*
X168224D02*
X169891D01*
X168224Y286334D01*
Y285917D01*
X168641Y285501D01*
X169474D01*
X169891Y285917D01*
X172390Y292000D02*
Y289501D01*
X171140D01*
X170724Y289917D01*
Y290750D01*
X171140Y291167D01*
X172390D01*
X171557D02*
X170724Y292000D01*
X169891Y289917D02*
X169474Y289501D01*
X168641D01*
X168224Y289917D01*
Y290334D01*
X168641Y290750D01*
X169058D01*
X168641D01*
X168224Y291167D01*
Y291583D01*
X168641Y292000D01*
X169474D01*
X169891Y291583D01*
X145500Y311000D02*
X147999D01*
Y309750D01*
X147583Y309334D01*
X146750D01*
X146333Y309750D01*
Y311000D01*
Y310167D02*
X145500Y309334D01*
Y307251D02*
X147999D01*
X146750Y308501D01*
Y306835D01*
X167000Y351319D02*
Y348820D01*
X165750D01*
X165334Y349236D01*
Y350069D01*
X165750Y350486D01*
X167000D01*
X166167D02*
X165334Y351319D01*
X162835Y348820D02*
X164501D01*
Y350069D01*
X163668Y349653D01*
X163251D01*
X162835Y350069D01*
Y350902D01*
X163251Y351319D01*
X164084D01*
X164501Y350902D01*
X167000Y358819D02*
Y356320D01*
X165750D01*
X165334Y356736D01*
Y357569D01*
X165750Y357986D01*
X167000D01*
X166167D02*
X165334Y358819D01*
X162835Y356320D02*
X163668Y356736D01*
X164501Y357569D01*
Y358402D01*
X164084Y358819D01*
X163251D01*
X162835Y358402D01*
Y357986D01*
X163251Y357569D01*
X164501D01*
X167000Y366819D02*
Y364320D01*
X165750D01*
X165334Y364736D01*
Y365569D01*
X165750Y365986D01*
X167000D01*
X166167D02*
X165334Y366819D01*
X164501Y364320D02*
X162835D01*
Y364736D01*
X164501Y366402D01*
Y366819D01*
X167000Y374819D02*
Y372320D01*
X165750D01*
X165334Y372736D01*
Y373569D01*
X165750Y373986D01*
X167000D01*
X166167D02*
X165334Y374819D01*
X164501Y372736D02*
X164084Y372320D01*
X163251D01*
X162835Y372736D01*
Y373153D01*
X163251Y373569D01*
X162835Y373986D01*
Y374402D01*
X163251Y374819D01*
X164084D01*
X164501Y374402D01*
Y373986D01*
X164084Y373569D01*
X164501Y373153D01*
Y372736D01*
X164084Y373569D02*
X163251D01*
X140500Y306500D02*
X142999D01*
Y305250D01*
X142583Y304834D01*
X141750D01*
X141333Y305250D01*
Y306500D01*
Y305667D02*
X140500Y304834D01*
X140917Y304001D02*
X140500Y303584D01*
Y302751D01*
X140917Y302335D01*
X142583D01*
X142999Y302751D01*
Y303584D01*
X142583Y304001D01*
X142166D01*
X141750Y303584D01*
Y302335D01*
X136500Y306500D02*
X138999D01*
Y305250D01*
X138583Y304834D01*
X137750D01*
X137333Y305250D01*
Y306500D01*
Y305667D02*
X136500Y304834D01*
Y304001D02*
Y303168D01*
Y303584D01*
X138999D01*
X138583Y304001D01*
Y301918D02*
X138999Y301502D01*
Y300669D01*
X138583Y300252D01*
X136917D01*
X136500Y300669D01*
Y301502D01*
X136917Y301918D01*
X138583D01*
X132500Y306500D02*
X134999D01*
Y305250D01*
X134583Y304834D01*
X133750D01*
X133333Y305250D01*
Y306500D01*
Y305667D02*
X132500Y304834D01*
Y304001D02*
Y303168D01*
Y303584D01*
X134999D01*
X134583Y304001D01*
X132500Y301918D02*
Y301085D01*
Y301502D01*
X134999D01*
X134583Y301918D01*
X120181Y293000D02*
Y295499D01*
X121431D01*
X121847Y295083D01*
Y294250D01*
X121431Y293833D01*
X120181D01*
X121014D02*
X121847Y293000D01*
X122680D02*
X123513D01*
X123097D01*
Y295499D01*
X122680Y295083D01*
X126429Y293000D02*
X124763D01*
X126429Y294666D01*
Y295083D01*
X126013Y295499D01*
X125180D01*
X124763Y295083D01*
X120181Y289000D02*
Y291499D01*
X121431D01*
X121847Y291083D01*
Y290250D01*
X121431Y289833D01*
X120181D01*
X121014D02*
X121847Y289000D01*
X122680D02*
X123513D01*
X123097D01*
Y291499D01*
X122680Y291083D01*
X124763D02*
X125180Y291499D01*
X126013D01*
X126429Y291083D01*
Y290666D01*
X126013Y290250D01*
X125596D01*
X126013D01*
X126429Y289833D01*
Y289417D01*
X126013Y289000D01*
X125180D01*
X124763Y289417D01*
X134500Y254181D02*
X132001D01*
Y255431D01*
X132417Y255847D01*
X133250D01*
X133667Y255431D01*
Y254181D01*
Y255014D02*
X134500Y255847D01*
Y256680D02*
Y257513D01*
Y257097D01*
X132001D01*
X132417Y256680D01*
X134500Y260013D02*
X132001D01*
X133250Y258763D01*
Y260429D01*
X138500Y254181D02*
X136001D01*
Y255431D01*
X136417Y255847D01*
X137250D01*
X137667Y255431D01*
Y254181D01*
Y255014D02*
X138500Y255847D01*
Y256680D02*
Y257513D01*
Y257097D01*
X136001D01*
X136417Y256680D01*
X136001Y260429D02*
Y258763D01*
X137250D01*
X136834Y259596D01*
Y260013D01*
X137250Y260429D01*
X138084D01*
X138500Y260013D01*
Y259179D01*
X138084Y258763D01*
X142500Y254181D02*
X140001D01*
Y255431D01*
X140417Y255847D01*
X141250D01*
X141667Y255431D01*
Y254181D01*
Y255014D02*
X142500Y255847D01*
Y256680D02*
Y257513D01*
Y257097D01*
X140001D01*
X140417Y256680D01*
X140001Y260429D02*
X140417Y259596D01*
X141250Y258763D01*
X142084D01*
X142500Y259179D01*
Y260013D01*
X142084Y260429D01*
X141667D01*
X141250Y260013D01*
Y258763D01*
X146500Y254181D02*
X144001D01*
Y255431D01*
X144417Y255847D01*
X145250D01*
X145667Y255431D01*
Y254181D01*
Y255014D02*
X146500Y255847D01*
Y256680D02*
Y257513D01*
Y257097D01*
X144001D01*
X144417Y256680D01*
X144001Y258763D02*
Y260429D01*
X144417D01*
X146083Y258763D01*
X146500D01*
X121500Y270000D02*
X123999D01*
Y268750D01*
X123583Y268334D01*
X122750D01*
X122333Y268750D01*
Y270000D01*
Y269167D02*
X121500Y268334D01*
Y267501D02*
Y266668D01*
Y267084D01*
X123999D01*
X123583Y267501D01*
Y265418D02*
X123999Y265002D01*
Y264169D01*
X123583Y263752D01*
X123166D01*
X122750Y264169D01*
X122333Y263752D01*
X121916D01*
X121500Y264169D01*
Y265002D01*
X121916Y265418D01*
X122333D01*
X122750Y265002D01*
X123166Y265418D01*
X123583D01*
X122750Y265002D02*
Y264169D01*
X146500Y14500D02*
Y16999D01*
X147750D01*
X148166Y16583D01*
Y15750D01*
X147750Y15333D01*
X146500D01*
X147333D02*
X148166Y14500D01*
X150665D02*
X148999D01*
X150665Y16166D01*
Y16583D01*
X150249Y16999D01*
X149416D01*
X148999Y16583D01*
X151498D02*
X151915Y16999D01*
X152748D01*
X153165Y16583D01*
Y14917D01*
X152748Y14500D01*
X151915D01*
X151498Y14917D01*
Y16583D01*
X119000Y95268D02*
X121499D01*
Y94018D01*
X121083Y93602D01*
X120250D01*
X119833Y94018D01*
Y95268D01*
Y94435D02*
X119000Y93602D01*
Y91102D02*
Y92769D01*
X120666Y91102D01*
X121083D01*
X121499Y91519D01*
Y92352D01*
X121083Y92769D01*
X119000Y88603D02*
Y90269D01*
X120666Y88603D01*
X121083D01*
X121499Y89020D01*
Y89853D01*
X121083Y90269D01*
X216000Y412000D02*
X213501D01*
Y413250D01*
X213917Y413666D01*
X214750D01*
X215167Y413250D01*
Y412000D01*
Y412833D02*
X216000Y413666D01*
Y416165D02*
Y414499D01*
X214334Y416165D01*
X213917D01*
X213501Y415749D01*
Y414916D01*
X213917Y414499D01*
Y416998D02*
X213501Y417415D01*
Y418248D01*
X213917Y418665D01*
X214334D01*
X214750Y418248D01*
Y417831D01*
Y418248D01*
X215167Y418665D01*
X215583D01*
X216000Y418248D01*
Y417415D01*
X215583Y416998D01*
X113319Y95268D02*
X110820D01*
Y96517D01*
X111236Y96934D01*
X112069D01*
X112486Y96517D01*
Y95268D01*
Y96101D02*
X113319Y96934D01*
Y99433D02*
Y97767D01*
X111653Y99433D01*
X111236D01*
X110820Y99016D01*
Y98183D01*
X111236Y97767D01*
X113319Y101516D02*
X110820D01*
X112069Y100266D01*
Y101932D01*
X92200Y102300D02*
X94699D01*
Y101050D01*
X94283Y100634D01*
X93450D01*
X93033Y101050D01*
Y102300D01*
Y101467D02*
X92200Y100634D01*
Y98135D02*
Y99801D01*
X93866Y98135D01*
X94283D01*
X94699Y98551D01*
Y99384D01*
X94283Y99801D01*
X94699Y95635D02*
Y97302D01*
X93450D01*
X93866Y96469D01*
Y96052D01*
X93450Y95635D01*
X92616D01*
X92200Y96052D01*
Y96885D01*
X92616Y97302D01*
X240500Y36500D02*
Y34001D01*
X239250D01*
X238834Y34417D01*
Y35250D01*
X239250Y35667D01*
X240500D01*
X239667D02*
X238834Y36500D01*
X236335D02*
X238001D01*
X236335Y34834D01*
Y34417D01*
X236751Y34001D01*
X237584D01*
X238001Y34417D01*
X235502Y34001D02*
X233836D01*
Y34417D01*
X235502Y36083D01*
Y36500D01*
X133500Y39000D02*
Y36501D01*
X132250D01*
X131834Y36917D01*
Y37750D01*
X132250Y38167D01*
X133500D01*
X132667D02*
X131834Y39000D01*
X129335D02*
X131001D01*
X129335Y37334D01*
Y36917D01*
X129751Y36501D01*
X130584D01*
X131001Y36917D01*
X126836Y36501D02*
X127669Y36917D01*
X128502Y37750D01*
Y38583D01*
X128085Y39000D01*
X127252D01*
X126836Y38583D01*
Y38167D01*
X127252Y37750D01*
X128502D01*
X192500Y35153D02*
X190001D01*
Y36403D01*
X190417Y36820D01*
X191250D01*
X191667Y36403D01*
Y35153D01*
Y35987D02*
X192500Y36820D01*
Y39319D02*
Y37653D01*
X190834Y39319D01*
X190417D01*
X190001Y38902D01*
Y38069D01*
X190417Y37653D01*
Y40152D02*
X190001Y40569D01*
Y41401D01*
X190417Y41818D01*
X190834D01*
X191250Y41401D01*
X191667Y41818D01*
X192084D01*
X192500Y41401D01*
Y40569D01*
X192084Y40152D01*
X191667D01*
X191250Y40569D01*
X190834Y40152D01*
X190417D01*
X191250Y40569D02*
Y41401D01*
X168000Y35153D02*
X165501D01*
Y36403D01*
X165917Y36820D01*
X166750D01*
X167167Y36403D01*
Y35153D01*
Y35987D02*
X168000Y36820D01*
X165917Y37653D02*
X165501Y38069D01*
Y38902D01*
X165917Y39319D01*
X166334D01*
X166750Y38902D01*
Y38486D01*
Y38902D01*
X167167Y39319D01*
X167584D01*
X168000Y38902D01*
Y38069D01*
X167584Y37653D01*
X168000Y40152D02*
Y40985D01*
Y40569D01*
X165501D01*
X165917Y40152D01*
X157100Y45300D02*
X159599D01*
Y44050D01*
X159183Y43634D01*
X158350D01*
X157933Y44050D01*
Y45300D01*
Y44467D02*
X157100Y43634D01*
X159183Y42801D02*
X159599Y42384D01*
Y41551D01*
X159183Y41135D01*
X158766D01*
X158350Y41551D01*
Y41968D01*
Y41551D01*
X157933Y41135D01*
X157517D01*
X157100Y41551D01*
Y42384D01*
X157517Y42801D01*
X159183Y40302D02*
X159599Y39885D01*
Y39052D01*
X159183Y38636D01*
X158766D01*
X158350Y39052D01*
Y39469D01*
Y39052D01*
X157933Y38636D01*
X157517D01*
X157100Y39052D01*
Y39885D01*
X157517Y40302D01*
D143*
X134500Y79268D02*
Y81768D01*
X132834D01*
X130335D02*
X132001D01*
X130335Y80102D01*
Y79685D01*
X130751Y79268D01*
X131584D01*
X132001Y79685D01*
X233261Y13231D02*
X232428D01*
X232844D01*
Y11149D01*
X232428Y10732D01*
X232011D01*
X231594Y11149D01*
X235760Y10732D02*
X234094D01*
X235760Y12398D01*
Y12815D01*
X235343Y13231D01*
X234510D01*
X234094Y12815D01*
X153401Y65000D02*
X155900D01*
Y66666D01*
Y67499D02*
Y68332D01*
Y67916D01*
X153401D01*
X153817Y67499D01*
M02*
