G04*
G04 #@! TF.GenerationSoftware,Altium Limited,Altium Designer,18.1.7 (191)*
G04*
G04 Layer_Physical_Order=1*
G04 Layer_Color=255*
%FSLAX25Y25*%
%MOIN*%
G70*
G01*
G75*
%ADD14C,0.01000*%
%ADD29C,0.00906*%
%ADD30R,0.02402X0.04016*%
%ADD31R,0.02402X0.05000*%
%ADD32R,0.01181X0.02795*%
%ADD33R,0.02362X0.04331*%
%ADD34O,0.03347X0.00984*%
%ADD35R,0.02362X0.05315*%
%ADD36R,0.05118X0.01575*%
%ADD37R,0.03937X0.01575*%
%ADD38R,0.09843X0.01378*%
%ADD39R,0.00984X0.02362*%
%ADD40R,0.07874X0.03937*%
%ADD41R,0.04134X0.06890*%
%ADD42R,0.05709X0.03740*%
%ADD43R,0.03937X0.03150*%
%ADD44R,0.02244X0.02441*%
%ADD45R,0.05984X0.15984*%
%ADD46R,0.04528X0.03347*%
G04:AMPARAMS|DCode=47|XSize=31.5mil|YSize=31.5mil|CornerRadius=3.94mil|HoleSize=0mil|Usage=FLASHONLY|Rotation=180.000|XOffset=0mil|YOffset=0mil|HoleType=Round|Shape=RoundedRectangle|*
%AMROUNDEDRECTD47*
21,1,0.03150,0.02362,0,0,180.0*
21,1,0.02362,0.03150,0,0,180.0*
1,1,0.00787,-0.01181,0.01181*
1,1,0.00787,0.01181,0.01181*
1,1,0.00787,0.01181,-0.01181*
1,1,0.00787,-0.01181,-0.01181*
%
%ADD47ROUNDEDRECTD47*%
%ADD48R,0.06299X0.03937*%
%ADD49R,0.04291X0.06850*%
%ADD50R,0.03740X0.03937*%
%ADD51R,0.02362X0.04528*%
%ADD52R,0.01181X0.04528*%
%ADD53R,0.08583X0.07874*%
G04:AMPARAMS|DCode=54|XSize=47.24mil|YSize=43.31mil|CornerRadius=0mil|HoleSize=0mil|Usage=FLASHONLY|Rotation=230.000|XOffset=0mil|YOffset=0mil|HoleType=Round|Shape=Rectangle|*
%AMROTATEDRECTD54*
4,1,4,-0.00140,0.03201,0.03177,0.00418,0.00140,-0.03201,-0.03177,-0.00418,-0.00140,0.03201,0.0*
%
%ADD54ROTATEDRECTD54*%

%ADD55R,0.06496X0.05118*%
%ADD56O,0.02165X0.06496*%
%ADD57O,0.06496X0.02165*%
%ADD58R,0.29370X0.25472*%
%ADD59R,0.03937X0.03740*%
G04:AMPARAMS|DCode=60|XSize=39.37mil|YSize=37.4mil|CornerRadius=0mil|HoleSize=0mil|Usage=FLASHONLY|Rotation=140.000|XOffset=0mil|YOffset=0mil|HoleType=Round|Shape=Rectangle|*
%AMROTATEDRECTD60*
4,1,4,0.02710,0.00167,0.00306,-0.02698,-0.02710,-0.00167,-0.00306,0.02698,0.02710,0.00167,0.0*
%
%ADD60ROTATEDRECTD60*%

G04:AMPARAMS|DCode=61|XSize=39.37mil|YSize=37.4mil|CornerRadius=0mil|HoleSize=0mil|Usage=FLASHONLY|Rotation=50.000|XOffset=0mil|YOffset=0mil|HoleType=Round|Shape=Rectangle|*
%AMROTATEDRECTD61*
4,1,4,0.00167,-0.02710,-0.02698,-0.00306,-0.00167,0.02710,0.02698,0.00306,0.00167,-0.02710,0.0*
%
%ADD61ROTATEDRECTD61*%

%ADD62R,0.05118X0.06496*%
%ADD63R,0.06850X0.04291*%
%ADD64R,0.04016X0.02402*%
%ADD65R,0.05000X0.02402*%
%ADD66R,0.03150X0.03937*%
%ADD67R,0.02441X0.02244*%
%ADD114C,0.02559*%
%ADD120C,0.04000*%
%ADD121C,0.02000*%
%ADD122C,0.10000*%
%ADD123C,0.01500*%
%ADD124C,0.02500*%
%ADD125R,0.03600X0.03000*%
%ADD126R,0.15400X0.15000*%
%ADD127R,0.02000X0.02000*%
%ADD128R,0.03000X0.03600*%
%ADD129R,0.15000X0.15400*%
%ADD130C,0.28000*%
%ADD131C,0.02500*%
%ADD132R,0.05906X0.05906*%
%ADD133C,0.05906*%
%ADD134C,0.06000*%
%ADD135C,0.13583*%
%ADD136C,0.09409*%
%ADD137C,0.02700*%
%ADD138C,0.03000*%
G36*
X95564Y450538D02*
X97076Y450079D01*
X97303Y449958D01*
X97181Y449473D01*
X84868Y449499D01*
X84747Y449985D01*
X84924Y450079D01*
X86436Y450538D01*
X88008Y450693D01*
X93992D01*
X95564Y450538D01*
D02*
G37*
G36*
X311000Y448000D02*
Y0D01*
X28200D01*
Y448246D01*
X28554Y448599D01*
X311000Y448000D01*
D02*
G37*
%LPC*%
G36*
X292656Y442645D02*
X290365Y442465D01*
X288131Y441928D01*
X286007Y441049D01*
X284048Y439848D01*
X282758Y438747D01*
X292656Y428849D01*
X302554Y438747D01*
X301264Y439848D01*
X299305Y441049D01*
X297182Y441928D01*
X294947Y442465D01*
X292656Y442645D01*
D02*
G37*
G36*
X49000D02*
X46709Y442465D01*
X44474Y441928D01*
X42351Y441049D01*
X40392Y439848D01*
X39102Y438747D01*
X49000Y428849D01*
X58898Y438747D01*
X57608Y439848D01*
X55649Y441049D01*
X53526Y441928D01*
X51291Y442465D01*
X49000Y442645D01*
D02*
G37*
G36*
X228468Y429720D02*
X221468D01*
Y429049D01*
X207000D01*
X206415Y428933D01*
X205919Y428601D01*
X205587Y428105D01*
X205471Y427520D01*
Y422159D01*
X204971Y422110D01*
X204929Y422317D01*
X204410Y423094D01*
X203633Y423614D01*
X202716Y423796D01*
X201799Y423614D01*
X201022Y423094D01*
X200502Y422317D01*
X200320Y421400D01*
X200502Y420483D01*
X201022Y419706D01*
X201799Y419186D01*
X202716Y419004D01*
X202827Y419026D01*
X203486Y418366D01*
Y416732D01*
X203441D01*
Y411937D01*
X205410D01*
Y411937D01*
X207378D01*
Y411937D01*
X210559D01*
Y416732D01*
X208591D01*
Y416732D01*
X208529D01*
Y425990D01*
X221468D01*
Y425319D01*
X228468D01*
Y429720D01*
D02*
G37*
G36*
X303403Y437898D02*
X293505Y428000D01*
X303403Y418102D01*
X304504Y419392D01*
X305705Y421351D01*
X306585Y423474D01*
X307121Y425709D01*
X307301Y428000D01*
X307121Y430291D01*
X306585Y432526D01*
X305705Y434649D01*
X304504Y436608D01*
X303403Y437898D01*
D02*
G37*
G36*
X59747D02*
X49848Y428000D01*
X59747Y418102D01*
X60848Y419392D01*
X62049Y421351D01*
X62928Y423474D01*
X63465Y425709D01*
X63645Y428000D01*
X63465Y430291D01*
X62928Y432526D01*
X62049Y434649D01*
X60848Y436608D01*
X59747Y437898D01*
D02*
G37*
G36*
X281910Y437898D02*
X280808Y436608D01*
X279607Y434649D01*
X278728Y432526D01*
X278191Y430291D01*
X278011Y428000D01*
X278191Y425709D01*
X278728Y423474D01*
X279607Y421351D01*
X280808Y419392D01*
X281910Y418102D01*
X291808Y428000D01*
X281910Y437898D01*
D02*
G37*
G36*
X38253D02*
X37152Y436608D01*
X35951Y434649D01*
X35072Y432526D01*
X34535Y430291D01*
X34355Y428000D01*
X34535Y425709D01*
X35072Y423474D01*
X35951Y421351D01*
X37152Y419392D01*
X38253Y418102D01*
X48151Y428000D01*
X38253Y437898D01*
D02*
G37*
G36*
X292656Y427151D02*
X282758Y417253D01*
X284048Y416152D01*
X286007Y414951D01*
X288131Y414072D01*
X290365Y413535D01*
X292656Y413355D01*
X294947Y413535D01*
X297182Y414072D01*
X299305Y414951D01*
X301264Y416152D01*
X302554Y417253D01*
X292656Y427151D01*
D02*
G37*
G36*
X49000D02*
X39102Y417253D01*
X40392Y416152D01*
X42351Y414951D01*
X44474Y414072D01*
X46709Y413535D01*
X49000Y413355D01*
X51291Y413535D01*
X53526Y414072D01*
X55649Y414951D01*
X57608Y416152D01*
X58898Y417253D01*
X49000Y427151D01*
D02*
G37*
G36*
X218969Y411228D02*
X213032D01*
Y410195D01*
X210559D01*
Y411063D01*
X208591D01*
Y411063D01*
X206622D01*
Y411063D01*
X203441D01*
Y410195D01*
X203350D01*
X202765Y410078D01*
X202269Y409747D01*
X201937Y409251D01*
X201821Y408665D01*
Y402468D01*
X200480D01*
Y396532D01*
X201821D01*
Y394155D01*
X201656Y394045D01*
X201137Y393267D01*
X200954Y392350D01*
X201137Y391434D01*
X201656Y390656D01*
X202433Y390137D01*
X203350Y389954D01*
X204267Y390137D01*
X205045Y390656D01*
X205564Y391434D01*
X205746Y392350D01*
X205564Y393267D01*
X205045Y394045D01*
X204880Y394155D01*
Y396532D01*
X206221D01*
Y397174D01*
X206720Y397480D01*
X206780Y397450D01*
Y396532D01*
X208120D01*
Y395571D01*
X208006Y395494D01*
X207486Y394717D01*
X207304Y393800D01*
X207486Y392883D01*
X208006Y392106D01*
X208783Y391586D01*
X209700Y391404D01*
X210617Y391586D01*
X211394Y392106D01*
X211914Y392883D01*
X212096Y393800D01*
X211914Y394717D01*
X211394Y395494D01*
X211179Y395638D01*
Y396532D01*
X212520D01*
Y402468D01*
X208529D01*
Y406268D01*
X210559D01*
Y407136D01*
X213032D01*
Y406079D01*
X218969D01*
Y411228D01*
D02*
G37*
G36*
X235200Y447220D02*
X232200D01*
X231810Y447142D01*
X231479Y446921D01*
X231258Y446590D01*
X231180Y446200D01*
Y443720D01*
X230700D01*
X230310Y443642D01*
X229979Y443421D01*
X229758Y443090D01*
X229680Y442700D01*
Y427300D01*
Y422492D01*
X229319D01*
Y416476D01*
X229680D01*
Y409220D01*
X227800D01*
X227410Y409142D01*
X227079Y408921D01*
X226858Y408590D01*
X226780Y408200D01*
Y405200D01*
X226858Y404810D01*
X227079Y404479D01*
X227294Y404336D01*
X227165Y403836D01*
X225529D01*
Y417196D01*
X225694Y417306D01*
X226214Y418083D01*
X226396Y419000D01*
X226214Y419917D01*
X225694Y420694D01*
X224917Y421214D01*
X224000Y421396D01*
X223083Y421214D01*
X222306Y420694D01*
X221786Y419917D01*
X221604Y419000D01*
X221786Y418083D01*
X222306Y417306D01*
X222471Y417196D01*
Y402306D01*
X222587Y401721D01*
X222919Y401225D01*
X223415Y400893D01*
X224000Y400777D01*
X228853D01*
X229080Y400500D01*
Y388606D01*
X223057D01*
X221857Y389806D01*
X221896Y390000D01*
X221714Y390917D01*
X221194Y391694D01*
X220417Y392214D01*
X219500Y392396D01*
X218583Y392214D01*
X217806Y391694D01*
X217286Y390917D01*
X217104Y390000D01*
X217286Y389083D01*
X217806Y388306D01*
X218583Y387786D01*
X219500Y387604D01*
X219694Y387643D01*
X221319Y386018D01*
Y361134D01*
X252689D01*
Y388606D01*
X250520D01*
Y400500D01*
X250442Y400890D01*
X250221Y401221D01*
X249890Y401442D01*
X249500Y401520D01*
X248681D01*
X248510Y401485D01*
X248010Y401747D01*
Y402306D01*
X248317Y402680D01*
X248500D01*
X248890Y402758D01*
X249221Y402979D01*
X249442Y403310D01*
X249520Y403700D01*
Y404180D01*
X250300D01*
X250690Y404258D01*
X251021Y404479D01*
X251242Y404810D01*
X251320Y405200D01*
Y408200D01*
X251242Y408590D01*
X251021Y408921D01*
X250690Y409142D01*
X250300Y409220D01*
X249520D01*
Y442700D01*
X249492Y442838D01*
Y444681D01*
X243476D01*
Y443720D01*
X236220D01*
Y446200D01*
X236142Y446590D01*
X235921Y446921D01*
X235590Y447142D01*
X235200Y447220D01*
D02*
G37*
G36*
X93992Y447657D02*
X88008D01*
X87833Y447634D01*
X83008D01*
Y442808D01*
X82985Y442634D01*
Y440661D01*
X82721Y440317D01*
X82645Y440224D01*
X82591Y440124D01*
X81992Y439085D01*
X81839Y438716D01*
X81717Y438487D01*
X81641Y438239D01*
X81488Y437869D01*
X81178Y436711D01*
X81145Y436602D01*
X81133Y436483D01*
X80977Y435297D01*
Y434968D01*
X80934Y434642D01*
Y409075D01*
X80977Y408748D01*
Y408419D01*
X81133Y407233D01*
X81145Y407115D01*
X81178Y407005D01*
X81488Y405847D01*
X81641Y405478D01*
X81717Y405230D01*
X81839Y405001D01*
X81992Y404631D01*
X82591Y403593D01*
X82645Y403492D01*
X82721Y403400D01*
X83449Y402451D01*
X83682Y402218D01*
X83882Y401957D01*
X93020Y392819D01*
Y391150D01*
X94690D01*
X94839Y391000D01*
X95100Y390800D01*
X95333Y390567D01*
X96377Y389766D01*
X96377Y389766D01*
X97513Y389110D01*
X98729Y388606D01*
X99996Y388267D01*
X101301Y388095D01*
X102612D01*
X103918Y388267D01*
X105184Y388606D01*
X106401Y389110D01*
X107536Y389766D01*
X108581Y390567D01*
X109163Y391150D01*
X110894D01*
Y393551D01*
X110965Y393674D01*
X111469Y394891D01*
X111808Y396157D01*
X111980Y397463D01*
Y398774D01*
X111808Y400079D01*
X111469Y401346D01*
X110965Y402562D01*
X110894Y402685D01*
Y405087D01*
X109189D01*
X109074Y405236D01*
X101066Y413244D01*
Y434642D01*
X101023Y434968D01*
Y435297D01*
X100867Y436483D01*
X100855Y436602D01*
X100822Y436711D01*
X100512Y437869D01*
X100359Y438239D01*
X100284Y438487D01*
X100161Y438716D01*
X100008Y439085D01*
X99409Y440124D01*
X99355Y440224D01*
X99279Y440317D01*
X99015Y440661D01*
Y442634D01*
X98992Y442808D01*
Y447634D01*
X94167D01*
X93992Y447657D01*
D02*
G37*
G36*
X160437Y393213D02*
X150563D01*
Y387276D01*
X160437D01*
Y388715D01*
X162622D01*
X173915Y377422D01*
X173598Y377032D01*
X172681Y377215D01*
X171764Y377032D01*
X171435Y376813D01*
X171012Y377039D01*
Y377039D01*
X166768D01*
Y377039D01*
X162988D01*
Y376025D01*
X160437D01*
Y377465D01*
X151681D01*
X151489Y377926D01*
X152964Y379401D01*
X160437D01*
Y385338D01*
X150563D01*
Y381326D01*
X131419Y362181D01*
X131087Y361685D01*
X130971Y361100D01*
Y310512D01*
X130280D01*
Y306268D01*
Y302488D01*
X130971D01*
Y301862D01*
X131087Y301277D01*
X131419Y300781D01*
X133853Y298346D01*
Y294370D01*
X134015Y293558D01*
X134475Y292869D01*
X135164Y292408D01*
X135976Y292247D01*
X136789Y292408D01*
X137163Y292658D01*
X137625Y292869D01*
X138313Y292408D01*
X139126Y292247D01*
X139939Y292408D01*
X140313Y292658D01*
X140701Y292835D01*
X141088Y292658D01*
X141463Y292408D01*
X142276Y292247D01*
X143088Y292408D01*
X143463Y292658D01*
X143924Y292869D01*
X144613Y292408D01*
X145425Y292247D01*
X146238Y292408D01*
X146612Y292658D01*
X147000Y292835D01*
X147388Y292658D01*
X147762Y292408D01*
X148575Y292247D01*
X149387Y292408D01*
X149762Y292658D01*
X150223Y292869D01*
X150912Y292408D01*
X151724Y292247D01*
X152537Y292408D01*
X153226Y292869D01*
X153373D01*
X154061Y292408D01*
X154874Y292247D01*
X155687Y292408D01*
X156376Y292869D01*
X156836Y292658D01*
X157211Y292408D01*
X158024Y292247D01*
X158836Y292408D01*
X159525Y292869D01*
X159985Y293558D01*
X160147Y294370D01*
Y298701D01*
X159985Y299513D01*
X159525Y300202D01*
X158836Y300663D01*
X158024Y300824D01*
X157211Y300663D01*
X156522Y300202D01*
X156061Y300412D01*
X155687Y300663D01*
X154874Y300824D01*
X154061Y300663D01*
X153687Y300412D01*
X153226Y300202D01*
X152537Y300663D01*
X151724Y300824D01*
X150912Y300663D01*
X150537Y300412D01*
X150076Y300202D01*
X149387Y300663D01*
X148575Y300824D01*
X147762Y300663D01*
X147455Y300457D01*
X146955Y300724D01*
Y305079D01*
X148468D01*
Y306124D01*
X160713D01*
X169419Y297419D01*
X169915Y297087D01*
X170500Y296971D01*
X174696D01*
X174806Y296806D01*
X175583Y296286D01*
X176500Y296104D01*
X177417Y296286D01*
X178194Y296806D01*
X178714Y297583D01*
X178896Y298500D01*
X178714Y299417D01*
X179103Y299734D01*
X193971Y284866D01*
Y283780D01*
X193471Y283731D01*
X193414Y284017D01*
X192894Y284794D01*
X192117Y285314D01*
X191200Y285496D01*
X190283Y285314D01*
X189506Y284794D01*
X189396Y284629D01*
X187233D01*
X186057Y285806D01*
X185561Y286137D01*
X184976Y286254D01*
X180761D01*
X180494Y286754D01*
X180714Y287083D01*
X180896Y288000D01*
X180714Y288917D01*
X180194Y289694D01*
X179902Y289889D01*
X179844Y290530D01*
X180214Y291083D01*
X180396Y292000D01*
X180214Y292917D01*
X179694Y293694D01*
X178917Y294214D01*
X178000Y294396D01*
X177083Y294214D01*
X176786Y294015D01*
X176401Y294220D01*
Y294220D01*
X172158D01*
Y294220D01*
X168378D01*
Y293529D01*
X163535D01*
X162950Y293413D01*
X162552Y293147D01*
X161370D01*
X160557Y292986D01*
X159869Y292525D01*
X159408Y291836D01*
X159247Y291024D01*
X159408Y290211D01*
X159659Y289837D01*
X159869Y289375D01*
X159408Y288687D01*
X159247Y287874D01*
X159408Y287061D01*
X159659Y286687D01*
X159869Y286226D01*
X159408Y285537D01*
X159247Y284724D01*
X159408Y283912D01*
X159869Y283223D01*
X160557Y282763D01*
X161370Y282601D01*
X165701D01*
X166513Y282763D01*
X167161Y283195D01*
X167588D01*
X167905Y282808D01*
X167804Y282300D01*
X167986Y281383D01*
X168506Y280606D01*
X169283Y280086D01*
X170200Y279904D01*
X171117Y280086D01*
X171894Y280606D01*
X172004Y280771D01*
X179567D01*
X181369Y278969D01*
X181161Y278468D01*
X176299D01*
Y272532D01*
X181449D01*
Y272819D01*
X181835Y273137D01*
X182000Y273104D01*
X182917Y273286D01*
X183694Y273806D01*
X183971Y274219D01*
X184471Y274068D01*
Y271634D01*
X183343Y270506D01*
X170345D01*
X170078Y271006D01*
X170363Y271433D01*
X170546Y272350D01*
X170694Y272532D01*
X174756D01*
Y278468D01*
X169606D01*
Y277029D01*
X167803D01*
X167568Y277470D01*
X167663Y277613D01*
X167824Y278425D01*
X167663Y279238D01*
X167202Y279927D01*
X166513Y280387D01*
X165701Y280549D01*
X161370D01*
X160557Y280387D01*
X159869Y279927D01*
X159408Y279238D01*
X159247Y278425D01*
X159408Y277613D01*
X159659Y277238D01*
X159869Y276777D01*
X159408Y276088D01*
X159247Y275276D01*
X159395Y274529D01*
X159303Y274266D01*
X159177Y274029D01*
X157648D01*
X157296Y274381D01*
X156800Y274713D01*
X156214Y274829D01*
X147733D01*
X143781Y278781D01*
X139907Y282656D01*
X139410Y282988D01*
X138825Y283104D01*
X134090D01*
X133442Y283537D01*
X132630Y283698D01*
X128299D01*
X127487Y283537D01*
X126798Y283076D01*
X126767Y283030D01*
X126267Y283363D01*
X125350Y283546D01*
X124433Y283363D01*
X123656Y282844D01*
X123137Y282067D01*
X122954Y281150D01*
X123137Y280233D01*
X123656Y279455D01*
X124433Y278936D01*
X125350Y278754D01*
X126267Y278936D01*
X127045Y279455D01*
X127487Y279613D01*
X128299Y279451D01*
X132630D01*
X133442Y279613D01*
X134090Y280045D01*
X138192D01*
X140537Y277700D01*
X139642Y276805D01*
X134090D01*
X133442Y277238D01*
X132630Y277399D01*
X128299D01*
X127487Y277238D01*
X126798Y276777D01*
X126337Y276088D01*
X126176Y275276D01*
X126337Y274463D01*
X126543Y274155D01*
X126276Y273655D01*
X125194D01*
X125108Y273713D01*
X124523Y273829D01*
X124469D01*
Y275921D01*
X118532D01*
Y274876D01*
X115787D01*
X114081Y276581D01*
X113585Y276913D01*
X113000Y277029D01*
X110735D01*
X110150Y276913D01*
X109653Y276581D01*
X108988Y275916D01*
X107514Y277153D01*
X106756Y276249D01*
X106256Y276227D01*
X105750Y276734D01*
X106143Y277203D01*
X103417Y279491D01*
X103588Y279961D01*
X106480D01*
Y278031D01*
X112221D01*
Y283968D01*
X108706D01*
X108350Y284039D01*
X92178D01*
X91917Y284214D01*
X91000Y284396D01*
X90083Y284214D01*
X89306Y283694D01*
X88786Y282917D01*
X88604Y282000D01*
X88786Y281083D01*
X89306Y280306D01*
X90083Y279786D01*
X91000Y279604D01*
X91917Y279786D01*
X92178Y279961D01*
X100116D01*
X100327Y279508D01*
X97906Y276622D01*
X102454Y272806D01*
X103538Y274098D01*
X104038Y274120D01*
X104544Y273614D01*
X103192Y272002D01*
X107414Y268459D01*
X103112Y263332D01*
X104728Y261976D01*
X104750Y261476D01*
X104344Y261069D01*
X103122Y262094D01*
X99306Y257546D01*
X103703Y253857D01*
X107519Y258405D01*
X106979Y258858D01*
X106957Y259357D01*
X107364Y259764D01*
X107961Y259263D01*
X110547Y262344D01*
X118719D01*
X119305Y262460D01*
X119801Y262791D01*
X121088Y264079D01*
X124469D01*
Y267447D01*
X126839D01*
X127487Y267015D01*
X128299Y266853D01*
X132630D01*
X133443Y267015D01*
X134131Y267475D01*
X134592Y268164D01*
X134753Y268976D01*
X134592Y269789D01*
X134342Y270163D01*
X134165Y270551D01*
X134342Y270939D01*
X134592Y271313D01*
X134753Y272126D01*
X134592Y272939D01*
X134386Y273246D01*
X134653Y273746D01*
X140276D01*
X140861Y273863D01*
X141357Y274194D01*
X142700Y275537D01*
X146019Y272219D01*
X146515Y271887D01*
X147100Y271771D01*
X149259D01*
X149457Y271401D01*
X149477Y271271D01*
X149304Y270400D01*
X149486Y269483D01*
X150006Y268706D01*
X150171Y268596D01*
Y267670D01*
X149671Y267403D01*
X149387Y267592D01*
X148575Y267753D01*
X147762Y267592D01*
X147388Y267341D01*
X147000Y267165D01*
X146612Y267341D01*
X146238Y267592D01*
X145425Y267753D01*
X144613Y267592D01*
X144238Y267341D01*
X143850Y267165D01*
X143463Y267341D01*
X143088Y267592D01*
X142276Y267753D01*
X141463Y267592D01*
X141088Y267341D01*
X140701Y267165D01*
X140313Y267341D01*
X139939Y267592D01*
X139126Y267753D01*
X138313Y267592D01*
X137939Y267341D01*
X137551Y267165D01*
X137163Y267341D01*
X136789Y267592D01*
X135976Y267753D01*
X135164Y267592D01*
X134475Y267131D01*
X134015Y266442D01*
X133853Y265630D01*
Y261299D01*
X134015Y260487D01*
X134447Y259839D01*
Y258193D01*
X132280D01*
Y254413D01*
X132280D01*
Y252230D01*
X129579Y249529D01*
X94634D01*
X87529Y256633D01*
Y290918D01*
X103038Y306426D01*
X103370Y306923D01*
X103486Y307508D01*
Y340032D01*
X106894D01*
Y345969D01*
X97020D01*
Y340032D01*
X100427D01*
Y308141D01*
X84919Y292633D01*
X84587Y292137D01*
X84471Y291551D01*
Y256846D01*
X84009Y256654D01*
X75529Y265134D01*
Y378867D01*
X75634Y378971D01*
X93666D01*
X97020Y375617D01*
Y371528D01*
X106894D01*
Y377465D01*
X99498D01*
X98023Y378940D01*
X98215Y379402D01*
X106894D01*
Y385339D01*
X97020D01*
Y383899D01*
X74899D01*
X74314Y383783D01*
X73818Y383452D01*
X71525Y381159D01*
X71193Y380663D01*
X71077Y380077D01*
Y263923D01*
X71193Y263337D01*
X71525Y262841D01*
X94841Y239525D01*
X95337Y239193D01*
X95720Y239117D01*
X97419Y237419D01*
X97915Y237087D01*
X98500Y236971D01*
X128196D01*
X128306Y236806D01*
X129083Y236286D01*
X130000Y236104D01*
X130917Y236286D01*
X131694Y236806D01*
X132214Y237583D01*
X132396Y238500D01*
X132214Y239417D01*
X131844Y239971D01*
X132111Y240471D01*
X138500D01*
X139085Y240587D01*
X139581Y240919D01*
X143581Y244919D01*
X143913Y245415D01*
X144029Y246000D01*
Y250169D01*
X144720D01*
Y250169D01*
X146455D01*
X150706Y245919D01*
X151202Y245587D01*
X151787Y245471D01*
X153287D01*
X153698Y244971D01*
X153604Y244500D01*
X153786Y243583D01*
X154306Y242806D01*
X154598Y242611D01*
X154692Y242023D01*
X154286Y241417D01*
X154104Y240500D01*
X154286Y239583D01*
X154806Y238806D01*
X154971Y238696D01*
Y218193D01*
X154786Y217917D01*
X154604Y217000D01*
X154786Y216083D01*
X155306Y215306D01*
X156083Y214786D01*
X157000Y214604D01*
X157917Y214786D01*
X158694Y215306D01*
X159214Y216083D01*
X159396Y217000D01*
X159214Y217917D01*
X158694Y218694D01*
X158029Y219139D01*
Y238696D01*
X158194Y238806D01*
X158714Y239583D01*
X158896Y240500D01*
X158714Y241417D01*
X158194Y242194D01*
X157853Y242422D01*
X158032Y242904D01*
X158395Y242943D01*
X161471Y239866D01*
Y213000D01*
X161587Y212415D01*
X161919Y211919D01*
X165841Y207996D01*
X165649Y207532D01*
X165513Y206500D01*
X165649Y205468D01*
X166047Y204507D01*
X166681Y203681D01*
X167507Y203047D01*
X168468Y202649D01*
X169500Y202513D01*
X170532Y202649D01*
X171493Y203047D01*
X171522Y203069D01*
X171971Y202848D01*
Y202500D01*
X172087Y201915D01*
X172419Y201419D01*
X175547Y198290D01*
Y192547D01*
X183453D01*
Y200453D01*
X177710D01*
X175029Y203134D01*
Y206344D01*
X175529Y206377D01*
X175560Y206146D01*
X175649Y205468D01*
X176047Y204507D01*
X176681Y203681D01*
X177507Y203047D01*
X178468Y202649D01*
X179500Y202513D01*
X180532Y202649D01*
X181493Y203047D01*
X182319Y203681D01*
X182953Y204507D01*
X183351Y205468D01*
X183487Y206500D01*
X183351Y207532D01*
X182953Y208493D01*
X182319Y209319D01*
X181493Y209953D01*
X180532Y210351D01*
X179500Y210487D01*
X178468Y210351D01*
X177507Y209953D01*
X176681Y209319D01*
X176047Y208493D01*
X175649Y207532D01*
X175560Y206854D01*
X175529Y206624D01*
X175029Y206656D01*
Y216344D01*
X175529Y216376D01*
X175560Y216146D01*
X175649Y215468D01*
X176047Y214507D01*
X176681Y213681D01*
X177507Y213047D01*
X178468Y212649D01*
X179500Y212513D01*
X180532Y212649D01*
X181493Y213047D01*
X182319Y213681D01*
X182953Y214507D01*
X183351Y215468D01*
X183487Y216500D01*
X183351Y217532D01*
X182953Y218493D01*
X182319Y219319D01*
X181493Y219953D01*
X180532Y220351D01*
X179500Y220487D01*
X178468Y220351D01*
X177507Y219953D01*
X176681Y219319D01*
X176047Y218493D01*
X175649Y217532D01*
X175560Y216854D01*
X175529Y216623D01*
X175029Y216656D01*
Y220367D01*
X180581Y225919D01*
X180913Y226415D01*
X181029Y227000D01*
Y238196D01*
X181194Y238306D01*
X181714Y239083D01*
X181896Y240000D01*
X181714Y240917D01*
X181194Y241694D01*
X180417Y242214D01*
X179500Y242396D01*
X178583Y242214D01*
X177806Y241694D01*
X177286Y240917D01*
X177104Y240000D01*
X177286Y239083D01*
X177806Y238306D01*
X177971Y238196D01*
Y227634D01*
X172419Y222081D01*
X172087Y221585D01*
X171971Y221000D01*
Y219648D01*
X171522Y219426D01*
X171292Y219603D01*
X170427Y219961D01*
X169500Y220083D01*
X168573Y219961D01*
X167708Y219603D01*
X167446Y219402D01*
X169924Y216924D01*
X169500Y216500D01*
X169924Y216076D01*
X167446Y213598D01*
X167708Y213397D01*
X168573Y213039D01*
X169500Y212917D01*
X170427Y213039D01*
X171292Y213397D01*
X171522Y213574D01*
X171971Y213352D01*
Y210152D01*
X171522Y209931D01*
X171493Y209953D01*
X170532Y210351D01*
X169500Y210487D01*
X168468Y210351D01*
X168004Y210159D01*
X164529Y213633D01*
Y240500D01*
X164413Y241085D01*
X164081Y241581D01*
X160654Y245009D01*
X160846Y245471D01*
X182500D01*
X183085Y245587D01*
X183581Y245919D01*
X196581Y258919D01*
X196913Y259415D01*
X197029Y260000D01*
Y285500D01*
X196913Y286085D01*
X196581Y286581D01*
X178029Y305134D01*
Y377000D01*
X177913Y377585D01*
X177581Y378081D01*
X164337Y391325D01*
X163841Y391657D01*
X163256Y391774D01*
X160437D01*
Y393213D01*
D02*
G37*
G36*
X106894Y369590D02*
X97020D01*
Y368661D01*
X95969D01*
Y369220D01*
X84531D01*
Y369020D01*
X78803D01*
Y363280D01*
X84740D01*
Y363480D01*
X95969D01*
Y364583D01*
X97020D01*
Y363653D01*
X106894D01*
Y369590D01*
D02*
G37*
G36*
X268500Y365939D02*
X267011Y365743D01*
X265623Y365168D01*
X264431Y364254D01*
X263517Y363062D01*
X262942Y361674D01*
X262746Y360185D01*
X262942Y358696D01*
X263517Y357308D01*
X264431Y356116D01*
X265623Y355202D01*
X267011Y354627D01*
X268500Y354431D01*
X269989Y354627D01*
X271377Y355202D01*
X272569Y356116D01*
X273483Y357308D01*
X274058Y358696D01*
X274254Y360185D01*
X274058Y361674D01*
X273483Y363062D01*
X272569Y364254D01*
X271377Y365168D01*
X269989Y365743D01*
X268500Y365939D01*
D02*
G37*
G36*
X106894Y361717D02*
X97020D01*
Y355780D01*
X106894D01*
Y357219D01*
X113619D01*
X116762Y354075D01*
Y351443D01*
X116262Y351394D01*
X116212Y351644D01*
X115881Y352140D01*
X115384Y352472D01*
X114799Y352589D01*
X106894D01*
Y353842D01*
X97020D01*
Y347905D01*
X106894D01*
Y349530D01*
X113270D01*
Y292492D01*
X113386Y291907D01*
X113718Y291411D01*
X116169Y288959D01*
Y286779D01*
X120413D01*
Y286779D01*
X122139D01*
X122616Y286461D01*
X123201Y286345D01*
X126839D01*
X127487Y285912D01*
X128299Y285751D01*
X132630D01*
X133443Y285912D01*
X134132Y286372D01*
X134592Y287061D01*
X134753Y287874D01*
X134592Y288687D01*
X134132Y289376D01*
X134342Y289837D01*
X134592Y290211D01*
X134753Y291024D01*
X134592Y291836D01*
X134131Y292525D01*
X133443Y292986D01*
X132630Y293147D01*
X128299D01*
X127487Y292986D01*
X126839Y292553D01*
X124685D01*
X124193Y293045D01*
Y295220D01*
X119949D01*
X119821Y295667D01*
Y354709D01*
X119704Y355294D01*
X119373Y355790D01*
X115333Y359829D01*
X114837Y360161D01*
X114252Y360277D01*
X106894D01*
Y361717D01*
D02*
G37*
G36*
X84740Y362720D02*
X78803D01*
Y356980D01*
X79732D01*
Y328572D01*
X79558Y328311D01*
X79376Y327394D01*
X79558Y326477D01*
X79868Y326013D01*
X79888Y325912D01*
X80330Y325251D01*
X80991Y324809D01*
X81772Y324654D01*
X82552Y324809D01*
X83214Y325251D01*
X83656Y325912D01*
X83676Y326013D01*
X83985Y326477D01*
X84168Y327394D01*
X83985Y328311D01*
X83811Y328572D01*
Y356980D01*
X84740D01*
Y362720D01*
D02*
G37*
G36*
X205508Y335652D02*
X203980Y335501D01*
X202512Y335056D01*
X201158Y334332D01*
X199972Y333359D01*
X198998Y332172D01*
X198275Y330819D01*
X197829Y329350D01*
X197679Y327823D01*
X197829Y326295D01*
X198275Y324827D01*
X198998Y323473D01*
X199972Y322287D01*
X201158Y321313D01*
X202512Y320590D01*
X203980Y320144D01*
X205508Y319994D01*
X207035Y320144D01*
X208504Y320590D01*
X209858Y321313D01*
X211044Y322287D01*
X212017Y323473D01*
X212741Y324827D01*
X213187Y326295D01*
X213337Y327823D01*
X213187Y329350D01*
X212741Y330819D01*
X212017Y332172D01*
X211044Y333359D01*
X209858Y334332D01*
X208504Y335056D01*
X207035Y335501D01*
X205508Y335652D01*
D02*
G37*
G36*
X118520Y283968D02*
X112779D01*
Y278031D01*
X118520D01*
Y283968D01*
D02*
G37*
G36*
X166598Y218554D02*
X166397Y218292D01*
X166039Y217427D01*
X165917Y216500D01*
X166039Y215573D01*
X166397Y214708D01*
X166598Y214446D01*
X168651Y216500D01*
X166598Y218554D01*
D02*
G37*
G36*
X209500Y389448D02*
X208622Y389273D01*
X208555Y389228D01*
X208483Y389214D01*
X207706Y388694D01*
X207186Y387917D01*
X207004Y387000D01*
X207186Y386083D01*
X207206Y386054D01*
Y352000D01*
X207381Y351122D01*
X207878Y350378D01*
X208622Y349881D01*
X209500Y349706D01*
X234710D01*
Y76244D01*
X221319D01*
Y65534D01*
X219008D01*
X218225Y65431D01*
X217495Y65128D01*
X216868Y64647D01*
X200963Y48742D01*
X200482Y48115D01*
X200180Y47386D01*
X200077Y46602D01*
Y42947D01*
X199576Y42898D01*
X199523Y43168D01*
X199414Y43717D01*
X198894Y44494D01*
X198117Y45014D01*
X197200Y45196D01*
X196283Y45014D01*
X195506Y44494D01*
X195396Y44329D01*
X190990D01*
X190814Y45217D01*
X190294Y45994D01*
X189517Y46514D01*
X188600Y46696D01*
X187683Y46514D01*
X186906Y45994D01*
X186386Y45217D01*
X186381Y45190D01*
X185841Y45038D01*
X185503Y45263D01*
X185274Y45309D01*
Y46180D01*
X185862D01*
Y50480D01*
X185862Y50621D01*
X186200Y50980D01*
X186500D01*
X186890Y51058D01*
X187221Y51279D01*
X187442Y51610D01*
X187520Y52000D01*
Y64500D01*
X187442Y64890D01*
X187221Y65221D01*
X186890Y65442D01*
X186500Y65520D01*
X177570D01*
X177488Y65936D01*
X177156Y66432D01*
X176660Y66763D01*
X176075Y66880D01*
X175610Y66787D01*
X175581Y66817D01*
X175582Y67419D01*
X175913Y67915D01*
X176029Y68500D01*
X176504Y68679D01*
X176551Y68688D01*
X176587Y68652D01*
X176680Y68614D01*
X176764Y68558D01*
X176862Y68538D01*
X176955Y68500D01*
X177055D01*
X177154Y68480D01*
X182500D01*
X182890Y68558D01*
X183221Y68779D01*
X183442Y69110D01*
X183520Y69500D01*
X183520Y97000D01*
X183442Y97390D01*
X183221Y97721D01*
X182890Y97942D01*
X182500Y98020D01*
X162000Y98020D01*
X161610Y97942D01*
X161539Y97895D01*
X161039Y98162D01*
Y109924D01*
X161140Y110075D01*
X161249Y110619D01*
Y112981D01*
X161140Y113525D01*
X161039Y113676D01*
Y124500D01*
X160884Y125280D01*
X160442Y125942D01*
X114275Y172109D01*
X114214Y172417D01*
X113694Y173194D01*
X112917Y173714D01*
X112000Y173896D01*
X111083Y173714D01*
X110306Y173194D01*
X109786Y172417D01*
X109604Y171500D01*
X109786Y170583D01*
X110306Y169806D01*
X111083Y169286D01*
X111391Y169225D01*
X156961Y123655D01*
Y114302D01*
X156922Y114294D01*
X156460Y113986D01*
X156315Y113768D01*
X154285Y113768D01*
X154139Y113986D01*
X153678Y114294D01*
X153135Y114402D01*
X150772D01*
X150229Y114294D01*
X149768Y113986D01*
X149460Y113525D01*
X149351Y112981D01*
Y110619D01*
X149460Y110075D01*
X149768Y109614D01*
X150071Y109412D01*
Y107407D01*
X147746D01*
Y101667D01*
X155454D01*
Y107407D01*
X153129D01*
Y109198D01*
X153135D01*
X153678Y109306D01*
X154139Y109614D01*
X154285Y109832D01*
X156315Y109832D01*
X156460Y109614D01*
X156922Y109306D01*
X156961Y109298D01*
Y97469D01*
X155980D01*
Y91531D01*
X160980D01*
X160980Y82146D01*
X159652D01*
Y75028D01*
X160987D01*
X161058Y74669D01*
X161279Y74338D01*
X161610Y74117D01*
X162000Y74040D01*
X167851D01*
X168148Y73980D01*
X168480D01*
Y71236D01*
X168496Y71156D01*
X168283Y71114D01*
X167506Y70594D01*
X166986Y69817D01*
X166804Y68900D01*
X166986Y67983D01*
X167506Y67206D01*
X167565Y67166D01*
Y66666D01*
X167473Y66605D01*
X166954Y65828D01*
X166771Y64911D01*
X166954Y63994D01*
X167473Y63217D01*
X168251Y62697D01*
X168494Y62649D01*
X168480Y62581D01*
Y61020D01*
X160500D01*
X160110Y60942D01*
X159779Y60721D01*
X159722Y60736D01*
X159551Y60787D01*
X159392Y60896D01*
X159325Y61049D01*
X159325Y61350D01*
Y67161D01*
X150475D01*
Y60870D01*
X158838D01*
X159090Y60870D01*
X159321Y60824D01*
X159454Y60681D01*
X159522Y60544D01*
X159541Y60464D01*
X159527Y60311D01*
X159556Y60402D01*
X159541Y60464D01*
X159542Y60471D01*
X159556Y60402D01*
X159452Y60072D01*
X159452D01*
Y52954D01*
X159480D01*
Y52000D01*
X159536Y51721D01*
X159338Y51359D01*
X159216Y51221D01*
X154131D01*
Y50176D01*
X123747D01*
X123162Y50059D01*
X122666Y49728D01*
X104127Y31189D01*
X101890D01*
Y60299D01*
X102480D01*
Y59500D01*
X102558Y59110D01*
X102779Y58779D01*
X103110Y58558D01*
X103500Y58480D01*
X116500D01*
X116890Y58558D01*
X117221Y58779D01*
X117442Y59110D01*
X117520Y59500D01*
Y77854D01*
X118697D01*
Y80020D01*
X123421D01*
Y80216D01*
X125370D01*
Y76342D01*
X131480D01*
X131661Y76342D01*
X131980Y75975D01*
Y59000D01*
X132058Y58610D01*
X132279Y58279D01*
X132610Y58058D01*
X133000Y57980D01*
X143500D01*
X143890Y58058D01*
X144221Y58279D01*
X144442Y58610D01*
X144520Y59000D01*
Y84500D01*
X144442Y84890D01*
X144221Y85221D01*
X143890Y85442D01*
X143500Y85520D01*
X133000D01*
X132610Y85442D01*
X132279Y85221D01*
X132161Y85045D01*
X131661Y85193D01*
Y85193D01*
X125370D01*
Y83784D01*
X122726D01*
X122582Y84059D01*
X122547Y84284D01*
X124308Y86045D01*
X125017Y86186D01*
X125794Y86706D01*
X126314Y87483D01*
X126496Y88400D01*
X126404Y88862D01*
X126722Y89248D01*
X127469D01*
Y94988D01*
X121531D01*
Y94496D01*
X116032D01*
Y94496D01*
X110350D01*
Y92520D01*
X105039D01*
Y100461D01*
X116032D01*
Y96039D01*
X121531D01*
Y95547D01*
X127468D01*
Y101287D01*
X121531D01*
Y101287D01*
X121039Y101306D01*
Y102500D01*
X120884Y103280D01*
X120442Y103942D01*
X119780Y104384D01*
X119000Y104539D01*
X103000D01*
X102390Y104418D01*
X101890Y104719D01*
Y135457D01*
X102338Y135678D01*
X102432Y135606D01*
X103405Y135203D01*
X104449Y135065D01*
X105493Y135203D01*
X106466Y135606D01*
X107302Y136247D01*
X107943Y137083D01*
X108346Y138056D01*
X108483Y139100D01*
X108346Y140144D01*
X107943Y141117D01*
X107302Y141953D01*
X106466Y142594D01*
X105493Y142997D01*
X104449Y143134D01*
X103405Y142997D01*
X102432Y142594D01*
X102338Y142522D01*
X101890Y142743D01*
Y154400D01*
Y194461D01*
X166082D01*
X166681Y193681D01*
X167507Y193047D01*
X168468Y192649D01*
X169500Y192513D01*
X170532Y192649D01*
X171493Y193047D01*
X172319Y193681D01*
X172953Y194507D01*
X173351Y195468D01*
X173487Y196500D01*
X173351Y197532D01*
X172953Y198493D01*
X172319Y199319D01*
X171493Y199953D01*
X170532Y200351D01*
X169500Y200487D01*
X168468Y200351D01*
X167507Y199953D01*
X166681Y199319D01*
X166082Y198539D01*
X101890D01*
Y209650D01*
X101734Y210430D01*
X101292Y211092D01*
X67039Y245345D01*
Y280822D01*
X67214Y281083D01*
X67396Y282000D01*
X67214Y282917D01*
X67039Y283178D01*
Y313322D01*
X67214Y313583D01*
X67396Y314500D01*
X67214Y315417D01*
X66694Y316194D01*
X65917Y316714D01*
X65000Y316896D01*
X64083Y316714D01*
X63306Y316194D01*
X62786Y315417D01*
X62604Y314500D01*
X62786Y313583D01*
X62961Y313322D01*
Y283178D01*
X62786Y282917D01*
X62604Y282000D01*
X62786Y281083D01*
X62961Y280822D01*
Y244500D01*
X63116Y243720D01*
X63558Y243058D01*
X97811Y208805D01*
Y195500D01*
Y157678D01*
X97468Y157320D01*
X91531D01*
Y151579D01*
X97074D01*
X97236Y151300D01*
X97075Y151021D01*
X91531D01*
Y145280D01*
X92461D01*
Y142526D01*
X91714Y141953D01*
X91073Y141117D01*
X90670Y140144D01*
X90532Y139100D01*
X90670Y138056D01*
X91073Y137083D01*
X91714Y136247D01*
X92550Y135606D01*
X93523Y135203D01*
X94567Y135065D01*
X95611Y135203D01*
X96584Y135606D01*
X97311Y136164D01*
X97811Y136001D01*
Y114891D01*
X97321Y114794D01*
X96860Y114486D01*
X96715Y114269D01*
X94685Y114268D01*
X94539Y114486D01*
X94078Y114794D01*
X93535Y114902D01*
X91172D01*
X90629Y114794D01*
X90168Y114486D01*
X89860Y114025D01*
X89751Y113481D01*
Y111119D01*
X89860Y110575D01*
X90168Y110114D01*
X90629Y109806D01*
X90671Y109798D01*
Y108221D01*
X89231D01*
Y103072D01*
X95169D01*
Y108221D01*
X93729D01*
Y109737D01*
X94078Y109806D01*
X94539Y110114D01*
X94685Y110331D01*
X96715Y110331D01*
X96860Y110114D01*
X97321Y109806D01*
X97811Y109709D01*
Y66236D01*
X96980D01*
Y60299D01*
X97811D01*
Y29450D01*
X97966Y28669D01*
X98408Y28008D01*
X98708Y27708D01*
X99370Y27266D01*
X100150Y27110D01*
X103406D01*
X113687Y16829D01*
X113440Y16369D01*
X112800Y16496D01*
X111883Y16314D01*
X111106Y15794D01*
X110586Y15017D01*
X110404Y14100D01*
X110586Y13183D01*
X111106Y12406D01*
X111883Y11886D01*
X112641Y11736D01*
X120538Y3838D01*
X121117Y3452D01*
X121800Y3316D01*
X195100D01*
X195783Y3452D01*
X196362Y3838D01*
X213862Y21338D01*
X213862Y21338D01*
X214248Y21917D01*
X214384Y22600D01*
X214384Y22600D01*
Y38216D01*
X229810D01*
Y30196D01*
X229413D01*
Y24958D01*
X228855Y24847D01*
X228101Y24343D01*
X227598Y23589D01*
X227421Y22700D01*
X227598Y21811D01*
X228101Y21057D01*
X228855Y20553D01*
X229745Y20376D01*
X230634Y20553D01*
X231388Y21057D01*
X231892Y21811D01*
X232069Y22700D01*
X231976Y23168D01*
X232386Y23668D01*
X233566D01*
X233857Y23168D01*
X233704Y22400D01*
X233886Y21483D01*
X234406Y20706D01*
X235183Y20186D01*
X236100Y20004D01*
X237017Y20186D01*
X237794Y20706D01*
X237814Y20736D01*
X238314Y20584D01*
Y20056D01*
X238431Y19471D01*
X238762Y18975D01*
X239258Y18643D01*
X239844Y18527D01*
X245000D01*
X245585Y18643D01*
X246081Y18975D01*
X246413Y19471D01*
X246529Y20056D01*
Y22700D01*
X246436Y23168D01*
X246712Y23668D01*
X249859D01*
X250269Y23168D01*
X250176Y22700D01*
X250353Y21811D01*
X250857Y21057D01*
X251611Y20553D01*
X252500Y20376D01*
X253389Y20553D01*
X254143Y21057D01*
X254647Y21811D01*
X254824Y22700D01*
X254647Y23589D01*
X254143Y24343D01*
X253389Y24847D01*
X252681Y24988D01*
Y30196D01*
X252284D01*
Y36300D01*
X252149Y36983D01*
X251762Y37562D01*
X248062Y41262D01*
X247483Y41649D01*
X246800Y41784D01*
X212600D01*
X211917Y41649D01*
X211338Y41262D01*
X210951Y40683D01*
X210816Y40000D01*
Y23339D01*
X194361Y6884D01*
X176970D01*
X176654Y7384D01*
X176796Y8100D01*
X176614Y9017D01*
X176094Y9794D01*
X175317Y10314D01*
X174400Y10496D01*
X173483Y10314D01*
X172923Y9939D01*
X136295D01*
X134869Y11365D01*
X135061Y11827D01*
X138413D01*
Y12206D01*
X140579D01*
Y11531D01*
X145728D01*
Y17469D01*
X140579D01*
Y16794D01*
X138413D01*
Y17173D01*
X125587D01*
Y16539D01*
X119745D01*
X106774Y29510D01*
X124381Y47117D01*
X154131D01*
Y46072D01*
X160069D01*
Y50556D01*
X160500Y50980D01*
X180819D01*
X181147Y50480D01*
X181121Y50420D01*
X180850D01*
X180460Y50342D01*
X180130Y50121D01*
X179908Y49790D01*
X179831Y49400D01*
Y47400D01*
X179908Y47010D01*
X180130Y46679D01*
X180460Y46458D01*
X180850Y46380D01*
X181618D01*
Y46180D01*
X182215D01*
Y45310D01*
X181977Y45263D01*
X181483Y44933D01*
X181154Y44440D01*
X181038Y43857D01*
X181154Y43275D01*
X181356Y42972D01*
X181154Y42668D01*
X181038Y42086D01*
X181154Y41504D01*
X181356Y41200D01*
X181154Y40896D01*
X181038Y40314D01*
X181154Y39732D01*
X181356Y39428D01*
X181154Y39125D01*
X181038Y38543D01*
X181154Y37960D01*
X181483Y37467D01*
X181977Y37137D01*
X182559Y37021D01*
X184143D01*
X184398Y36971D01*
X189532D01*
Y35925D01*
X195468D01*
Y40529D01*
X195968Y40797D01*
X196283Y40586D01*
X197200Y40404D01*
X198117Y40586D01*
X198894Y41106D01*
X199414Y41883D01*
X199523Y42432D01*
X199576Y42702D01*
X200077Y42653D01*
Y30512D01*
X200134Y30076D01*
Y27738D01*
X200134Y27642D01*
X199900Y27239D01*
X195311D01*
X195311Y27239D01*
X194528Y27135D01*
X193798Y26833D01*
X193171Y26352D01*
X191345Y24526D01*
X190342D01*
X190151Y24988D01*
X193581Y28419D01*
X193913Y28915D01*
X193976Y29232D01*
X195468D01*
Y34382D01*
X189532D01*
Y29232D01*
X189532D01*
X189689Y28852D01*
X186782Y25945D01*
X182839D01*
Y17055D01*
X188972D01*
Y18474D01*
X192598D01*
X193382Y18577D01*
X194111Y18880D01*
X194738Y19360D01*
X196564Y21187D01*
X203102D01*
X203886Y21290D01*
X204013Y21342D01*
X206071D01*
Y23777D01*
X206128Y24213D01*
X206071Y24648D01*
Y27083D01*
X204510D01*
X204348Y27362D01*
X204510Y27642D01*
X206071D01*
Y30076D01*
X206128Y30512D01*
Y45349D01*
X220261Y59482D01*
X221319D01*
Y48772D01*
X252689D01*
Y59474D01*
X303500D01*
X303936Y59531D01*
X307650D01*
Y65469D01*
X303936D01*
X303500Y65526D01*
X252689D01*
Y76244D01*
X239298D01*
Y352000D01*
X239123Y352878D01*
X238626Y353622D01*
X237882Y354119D01*
X237004Y354294D01*
X211794D01*
Y386990D01*
X211796Y387000D01*
X211794Y387010D01*
Y387154D01*
X211619Y388031D01*
X211122Y388776D01*
X210378Y389273D01*
X209500Y389448D01*
D02*
G37*
G36*
X200000Y285496D02*
X199083Y285314D01*
X198306Y284794D01*
X197786Y284017D01*
X197604Y283100D01*
X197786Y282183D01*
X198306Y281406D01*
X198471Y281296D01*
Y198433D01*
X182466Y182429D01*
X152004D01*
X151894Y182594D01*
X151117Y183114D01*
X150200Y183296D01*
X149283Y183114D01*
X148506Y182594D01*
X147986Y181817D01*
X147804Y180900D01*
X147986Y179983D01*
X148506Y179206D01*
X149283Y178686D01*
X150200Y178504D01*
X151117Y178686D01*
X151894Y179206D01*
X152004Y179371D01*
X183100D01*
X183685Y179487D01*
X184181Y179819D01*
X201081Y196719D01*
X201413Y197215D01*
X201529Y197800D01*
Y281296D01*
X201694Y281406D01*
X202214Y282183D01*
X202396Y283100D01*
X202214Y284017D01*
X201694Y284794D01*
X200917Y285314D01*
X200000Y285496D01*
D02*
G37*
G36*
X59000Y329896D02*
X58083Y329714D01*
X57306Y329194D01*
X56786Y328417D01*
X56604Y327500D01*
X56786Y326583D01*
X56961Y326322D01*
Y319598D01*
X56308Y318945D01*
X55866Y318283D01*
X55711Y317503D01*
Y203250D01*
X55866Y202470D01*
X56308Y201808D01*
X88058Y170058D01*
X88720Y169616D01*
X89500Y169461D01*
X90322D01*
X90583Y169286D01*
X91500Y169104D01*
X92417Y169286D01*
X93194Y169806D01*
X93714Y170583D01*
X93896Y171500D01*
X93714Y172417D01*
X93194Y173194D01*
X92417Y173714D01*
X91500Y173896D01*
X90583Y173714D01*
X90336Y173548D01*
X59789Y204095D01*
Y316658D01*
X60442Y317311D01*
X60884Y317973D01*
X61039Y318753D01*
Y326322D01*
X61214Y326583D01*
X61396Y327500D01*
X61214Y328417D01*
X60694Y329194D01*
X59917Y329714D01*
X59000Y329896D01*
D02*
G37*
G36*
X84685Y142731D02*
X83745Y142607D01*
X82869Y142245D01*
X82598Y142036D01*
X84685Y139948D01*
X86773Y142036D01*
X86501Y142245D01*
X85625Y142607D01*
X84685Y142731D01*
D02*
G37*
G36*
X81749Y141187D02*
X81540Y140916D01*
X81178Y140040D01*
X81054Y139100D01*
X81178Y138160D01*
X81540Y137285D01*
X81749Y137013D01*
X83837Y139100D01*
X81749Y141187D01*
D02*
G37*
G36*
X87621D02*
X85534Y139100D01*
X87621Y137013D01*
X87830Y137285D01*
X88192Y138160D01*
X88316Y139100D01*
X88192Y140040D01*
X87830Y140916D01*
X87621Y141187D01*
D02*
G37*
G36*
X84685Y138251D02*
X82598Y136164D01*
X82869Y135955D01*
X83745Y135593D01*
X84685Y135469D01*
X85625Y135593D01*
X86501Y135955D01*
X86773Y136164D01*
X84685Y138251D01*
D02*
G37*
G36*
X74764Y143134D02*
X73720Y142997D01*
X72746Y142594D01*
X71911Y141953D01*
X71270Y141117D01*
X70867Y140144D01*
X70729Y139100D01*
X70867Y138056D01*
X71270Y137083D01*
X71911Y136247D01*
X72746Y135606D01*
X73720Y135203D01*
X74764Y135065D01*
X75808Y135203D01*
X76781Y135606D01*
X77617Y136247D01*
X78258Y137083D01*
X78661Y138056D01*
X78798Y139100D01*
X78661Y140144D01*
X78258Y141117D01*
X77617Y141953D01*
X76781Y142594D01*
X75808Y142997D01*
X74764Y143134D01*
D02*
G37*
G36*
X64882D02*
X63838Y142997D01*
X62865Y142594D01*
X62029Y141953D01*
X61388Y141117D01*
X60985Y140144D01*
X60847Y139100D01*
X60985Y138056D01*
X61388Y137083D01*
X62029Y136247D01*
X62865Y135606D01*
X63838Y135203D01*
X64882Y135065D01*
X65926Y135203D01*
X66899Y135606D01*
X67735Y136247D01*
X68376Y137083D01*
X68779Y138056D01*
X68916Y139100D01*
X68779Y140144D01*
X68376Y141117D01*
X67735Y141953D01*
X66899Y142594D01*
X65926Y142997D01*
X64882Y143134D01*
D02*
G37*
G36*
X55000D02*
X53956Y142997D01*
X52983Y142594D01*
X52147Y141953D01*
X51506Y141117D01*
X51103Y140144D01*
X50965Y139100D01*
X51103Y138056D01*
X51506Y137083D01*
X52147Y136247D01*
X52983Y135606D01*
X53956Y135203D01*
X55000Y135065D01*
X56044Y135203D01*
X57017Y135606D01*
X57853Y136247D01*
X58494Y137083D01*
X58897Y138056D01*
X59035Y139100D01*
X58897Y140144D01*
X58494Y141117D01*
X57853Y141953D01*
X57017Y142594D01*
X56044Y142997D01*
X55000Y143134D01*
D02*
G37*
G36*
X268500Y118329D02*
X266973Y118179D01*
X265504Y117733D01*
X264150Y117010D01*
X262964Y116036D01*
X261990Y114850D01*
X261267Y113496D01*
X260821Y112027D01*
X260671Y110500D01*
X260821Y108973D01*
X261267Y107504D01*
X261990Y106150D01*
X262964Y104964D01*
X264150Y103990D01*
X265504Y103267D01*
X266973Y102821D01*
X268500Y102671D01*
X270027Y102821D01*
X271496Y103267D01*
X272850Y103990D01*
X274036Y104964D01*
X275010Y106150D01*
X275733Y107504D01*
X276179Y108973D01*
X276329Y110500D01*
X276179Y112027D01*
X275733Y113496D01*
X275010Y114850D01*
X274036Y116036D01*
X272850Y117010D01*
X271496Y117733D01*
X270027Y118179D01*
X268500Y118329D01*
D02*
G37*
G36*
X307650Y75311D02*
X299350D01*
Y69374D01*
X307650D01*
Y75311D01*
D02*
G37*
G36*
X298201D02*
X289902D01*
Y69374D01*
X298201D01*
Y75311D01*
D02*
G37*
G36*
X159325Y74130D02*
X150475D01*
Y67839D01*
X159325D01*
Y74130D01*
D02*
G37*
G36*
X159930Y60822D02*
X159742Y60730D01*
X159779Y60721D01*
X159930Y60822D01*
D02*
G37*
G36*
X303500Y56305D02*
X294673D01*
X293890Y56202D01*
X293160Y55900D01*
X292878Y55683D01*
X262500D01*
X261717Y55580D01*
X260987Y55278D01*
X260360Y54797D01*
X259879Y54170D01*
X259577Y53441D01*
X259474Y52658D01*
X259577Y51874D01*
X259879Y51144D01*
X260360Y50518D01*
X260987Y50037D01*
X261717Y49735D01*
X262500Y49632D01*
X294051D01*
X294487Y49689D01*
X298201D01*
Y50254D01*
X299350D01*
Y49689D01*
X303064D01*
X303500Y49632D01*
X303936Y49689D01*
X307650D01*
Y55626D01*
X305370D01*
X305013Y55900D01*
X304283Y56202D01*
X303500Y56305D01*
D02*
G37*
G36*
X173117Y48529D02*
X167800D01*
X167215Y48413D01*
X166719Y48081D01*
X163165Y44528D01*
X160069D01*
Y44528D01*
X154131D01*
Y39379D01*
X159031D01*
Y39379D01*
X164969D01*
X165032Y38905D01*
Y35925D01*
X170968D01*
Y36971D01*
X176602D01*
X176857Y37021D01*
X177441D01*
X178023Y37137D01*
X178517Y37467D01*
X178847Y37960D01*
X178962Y38543D01*
X178847Y39125D01*
X178644Y39428D01*
X178847Y39732D01*
X178962Y40314D01*
X178847Y40896D01*
X178644Y41200D01*
X178847Y41504D01*
X178962Y42086D01*
X178847Y42668D01*
X178644Y42972D01*
X178847Y43275D01*
X178962Y43857D01*
X178847Y44440D01*
X178517Y44933D01*
X178023Y45263D01*
X177441Y45379D01*
X176901D01*
X174199Y48081D01*
X173703Y48413D01*
X173117Y48529D01*
D02*
G37*
G36*
X139421Y41969D02*
X134272D01*
Y36031D01*
X134403D01*
Y34012D01*
X134516Y33444D01*
Y30847D01*
X134516D01*
X134571Y30369D01*
X134571Y30347D01*
X134403Y29500D01*
Y26857D01*
X133146D01*
Y27382D01*
X127209D01*
Y27382D01*
X127146Y27382D01*
Y27382D01*
X121209D01*
Y21642D01*
X127146D01*
Y21642D01*
X127209Y21642D01*
Y21642D01*
X133146D01*
Y22269D01*
X134516D01*
Y21398D01*
X138878D01*
Y23995D01*
X138991Y24563D01*
Y27206D01*
X139665D01*
X140543Y27380D01*
X141288Y27878D01*
X144256Y30847D01*
X146358D01*
Y33444D01*
X146471Y34012D01*
X146358Y34580D01*
Y37177D01*
X141996D01*
Y35075D01*
X139340Y32419D01*
X138878Y32610D01*
Y33444D01*
X138991Y34012D01*
Y36031D01*
X139421D01*
Y41969D01*
D02*
G37*
G36*
X127146Y33681D02*
X121209D01*
Y32595D01*
X117711D01*
X117028Y32460D01*
X116449Y32073D01*
X115341Y30964D01*
X114583Y30814D01*
X113806Y30294D01*
X113286Y29517D01*
X113104Y28600D01*
X113286Y27683D01*
X113806Y26906D01*
X114583Y26386D01*
X115500Y26204D01*
X116417Y26386D01*
X117194Y26906D01*
X117714Y27683D01*
X117864Y28441D01*
X118450Y29027D01*
X121209D01*
Y27941D01*
X127146D01*
Y33681D01*
D02*
G37*
G36*
X170968Y34382D02*
X165032D01*
Y29232D01*
X168412D01*
X171237Y26407D01*
X171046Y25945D01*
X171028D01*
Y24526D01*
X162253D01*
X160077Y26703D01*
X159450Y27183D01*
X158720Y27486D01*
X157937Y27589D01*
X146358D01*
Y27728D01*
X141996D01*
Y25633D01*
X141877Y25346D01*
X141774Y24563D01*
Y24239D01*
X141877Y23456D01*
X141996Y23169D01*
Y21398D01*
X143821D01*
X144017Y21317D01*
X144800Y21213D01*
X145583Y21317D01*
X145779Y21398D01*
X146358D01*
Y21537D01*
X156684D01*
X158860Y19360D01*
X158860Y19360D01*
X159487Y18880D01*
X160217Y18577D01*
X161000Y18474D01*
X161000Y18474D01*
X171028D01*
Y17055D01*
X177161D01*
Y25945D01*
X175578D01*
X175507Y26298D01*
X175176Y26794D01*
X170968Y31001D01*
Y34382D01*
D02*
G37*
G36*
X292406Y31645D02*
X290115Y31465D01*
X287881Y30928D01*
X285757Y30049D01*
X283798Y28848D01*
X282508Y27747D01*
X292406Y17849D01*
X302304Y27747D01*
X301014Y28848D01*
X299055Y30049D01*
X296932Y30928D01*
X294697Y31465D01*
X292406Y31645D01*
D02*
G37*
G36*
X49000D02*
X46709Y31465D01*
X44474Y30928D01*
X42351Y30049D01*
X40392Y28848D01*
X39102Y27747D01*
X49000Y17849D01*
X58898Y27747D01*
X57608Y28848D01*
X55649Y30049D01*
X53526Y30928D01*
X51291Y31465D01*
X49000Y31645D01*
D02*
G37*
G36*
X152421Y17469D02*
X147272D01*
Y11531D01*
X152421D01*
Y12385D01*
X152862Y12621D01*
X152955Y12559D01*
X153872Y12376D01*
X154789Y12559D01*
X155567Y13078D01*
X156086Y13856D01*
X156268Y14772D01*
X156086Y15689D01*
X155567Y16467D01*
X154789Y16986D01*
X153872Y17168D01*
X152955Y16986D01*
X152862Y16924D01*
X152421Y17159D01*
Y17469D01*
D02*
G37*
G36*
X303153Y26898D02*
X293255Y17000D01*
X303153Y7102D01*
X304254Y8392D01*
X305455Y10351D01*
X306335Y12474D01*
X306871Y14709D01*
X307051Y17000D01*
X306871Y19291D01*
X306335Y21526D01*
X305455Y23649D01*
X304254Y25608D01*
X303153Y26898D01*
D02*
G37*
G36*
X59747D02*
X49848Y17000D01*
X59747Y7102D01*
X60848Y8392D01*
X62049Y10351D01*
X62928Y12474D01*
X63465Y14709D01*
X63645Y17000D01*
X63465Y19291D01*
X62928Y21526D01*
X62049Y23649D01*
X60848Y25608D01*
X59747Y26898D01*
D02*
G37*
G36*
X281660Y26898D02*
X280558Y25608D01*
X279357Y23649D01*
X278478Y21526D01*
X277941Y19291D01*
X277761Y17000D01*
X277941Y14709D01*
X278478Y12474D01*
X279357Y10351D01*
X280558Y8392D01*
X281660Y7102D01*
X291558Y17000D01*
X281660Y26898D01*
D02*
G37*
G36*
X38253D02*
X37152Y25608D01*
X35951Y23649D01*
X35072Y21526D01*
X34535Y19291D01*
X34355Y17000D01*
X34535Y14709D01*
X35072Y12474D01*
X35951Y10351D01*
X37152Y8392D01*
X38253Y7102D01*
X48151Y17000D01*
X38253Y26898D01*
D02*
G37*
G36*
X292406Y16151D02*
X282508Y6254D01*
X283798Y5152D01*
X285757Y3951D01*
X287881Y3072D01*
X290115Y2535D01*
X292406Y2355D01*
X294697Y2535D01*
X296932Y3072D01*
X299055Y3951D01*
X301014Y5152D01*
X302304Y6254D01*
X292406Y16151D01*
D02*
G37*
G36*
X49000D02*
X39102Y6254D01*
X40392Y5152D01*
X42351Y3951D01*
X44474Y3072D01*
X46709Y2535D01*
X49000Y2355D01*
X51291Y2535D01*
X53526Y3072D01*
X55649Y3951D01*
X57608Y5152D01*
X58898Y6254D01*
X49000Y16151D01*
D02*
G37*
%LPD*%
G36*
X248500Y403700D02*
X247094D01*
X247066Y403719D01*
X246480Y403836D01*
X230700D01*
Y442700D01*
X248500D01*
Y403700D01*
D02*
G37*
G36*
X249500Y383000D02*
X230100Y383000D01*
Y400500D01*
X244280Y400500D01*
Y394468D01*
X248681D01*
Y400500D01*
X249500D01*
Y383000D01*
D02*
G37*
G36*
X150563Y376347D02*
Y371528D01*
X160437D01*
Y372967D01*
X162988D01*
Y372598D01*
X167232D01*
Y372598D01*
X171012D01*
Y372598D01*
X171435Y372825D01*
X171764Y372605D01*
X172681Y372423D01*
X173598Y372605D01*
X174375Y373125D01*
X174471Y373267D01*
X174971Y373115D01*
Y369269D01*
X174471Y368888D01*
X173894Y369002D01*
X172977Y368820D01*
X172271Y368348D01*
X171012D01*
Y369039D01*
X162988D01*
Y368151D01*
X160437D01*
Y369590D01*
X150563D01*
Y363653D01*
X160437D01*
Y365093D01*
X162988D01*
Y364598D01*
X171012D01*
Y365289D01*
X171947D01*
X172199Y364912D01*
X172977Y364393D01*
X173894Y364210D01*
X174471Y364325D01*
X174971Y363944D01*
Y304500D01*
X175087Y303915D01*
X175419Y303419D01*
X177734Y301103D01*
X177417Y300714D01*
X176500Y300896D01*
X175583Y300714D01*
X174806Y300194D01*
X174696Y300029D01*
X171133D01*
X162428Y308735D01*
X161932Y309067D01*
X161346Y309183D01*
X148468D01*
Y310228D01*
X143137D01*
X142819Y310615D01*
X142896Y311000D01*
X142819Y311385D01*
X143137Y311772D01*
X148468D01*
Y316921D01*
X147539D01*
Y320500D01*
X147384Y321280D01*
X146942Y321942D01*
X146775Y322109D01*
X146714Y322417D01*
X146194Y323194D01*
X145417Y323714D01*
X144500Y323896D01*
X143583Y323714D01*
X142806Y323194D01*
X142286Y322417D01*
X142104Y321500D01*
X142286Y320583D01*
X142806Y319806D01*
X143461Y319368D01*
Y316921D01*
X142532D01*
Y313021D01*
X142032Y312803D01*
X141417Y313214D01*
X140500Y313396D01*
X139583Y313214D01*
X139402Y313093D01*
X138833Y313314D01*
X138394Y313971D01*
X137617Y314490D01*
X136700Y314672D01*
X135783Y314490D01*
X135006Y313971D01*
X134529Y313258D01*
X134277Y313261D01*
X134029Y313341D01*
Y360467D01*
X150101Y376538D01*
X150563Y376347D01*
D02*
G37*
G36*
X185519Y282019D02*
X186015Y281687D01*
X186600Y281571D01*
X189396D01*
X189506Y281406D01*
X190283Y280886D01*
X191200Y280704D01*
X192117Y280886D01*
X192894Y281406D01*
X193414Y282183D01*
X193471Y282469D01*
X193971Y282420D01*
Y267432D01*
X193471Y267281D01*
X193194Y267694D01*
X192417Y268214D01*
X191500Y268396D01*
X190889Y268274D01*
X187529Y271634D01*
Y276500D01*
X187413Y277085D01*
X187081Y277581D01*
X181930Y282733D01*
X182121Y283195D01*
X184342D01*
X185519Y282019D01*
D02*
G37*
G36*
X189170Y265667D02*
X189286Y265083D01*
X189806Y264306D01*
X190583Y263786D01*
X191500Y263604D01*
X192417Y263786D01*
X193194Y264306D01*
X193471Y264719D01*
X193971Y264568D01*
Y260633D01*
X182103Y248766D01*
X181714Y249083D01*
X181896Y250000D01*
X181714Y250917D01*
X181194Y251694D01*
X180417Y252214D01*
X179500Y252396D01*
X178583Y252214D01*
X177806Y251694D01*
X177696Y251529D01*
X169633D01*
X160100Y261063D01*
X160147Y261299D01*
Y265630D01*
X159985Y266442D01*
X159932Y266522D01*
X159993Y266790D01*
X160556Y267015D01*
X160557Y267015D01*
X161370Y266853D01*
X165701D01*
X166513Y267015D01*
X167161Y267447D01*
X183976D01*
X184562Y267563D01*
X185058Y267895D01*
X186000Y268837D01*
X189170Y265667D01*
D02*
G37*
G36*
X114072Y272265D02*
X114568Y271934D01*
X115154Y271817D01*
X118532D01*
Y270772D01*
X122541D01*
X122547Y270771D01*
X122908D01*
X123060Y270271D01*
X122741Y270058D01*
X121912Y269228D01*
X118532D01*
Y265848D01*
X118086Y265402D01*
X111106D01*
X108062Y267957D01*
X112364Y273084D01*
X112201Y273220D01*
X112345Y273752D01*
X112550Y273787D01*
X114072Y272265D01*
D02*
G37*
G36*
X157211Y259337D02*
X157571Y259266D01*
X167808Y249029D01*
X167671Y248592D01*
X167623Y248529D01*
X152421D01*
X148721Y252230D01*
Y253949D01*
Y258193D01*
X146955D01*
Y259276D01*
X147455Y259543D01*
X147762Y259337D01*
X148575Y259176D01*
X149387Y259337D01*
X150076Y259798D01*
X150537Y259588D01*
X150912Y259337D01*
X151724Y259176D01*
X152471Y259324D01*
X152734Y259232D01*
X152971Y259106D01*
Y255804D01*
X152806Y255694D01*
X152286Y254917D01*
X152104Y254000D01*
X152286Y253083D01*
X152806Y252306D01*
X153583Y251786D01*
X154500Y251604D01*
X155417Y251786D01*
X156194Y252306D01*
X156714Y253083D01*
X156896Y254000D01*
X156714Y254917D01*
X156194Y255694D01*
X156029Y255804D01*
Y259566D01*
X156061Y259588D01*
X156522Y259798D01*
X157211Y259337D01*
D02*
G37*
G36*
X140971Y246634D02*
X137866Y243529D01*
X97133D01*
X94654Y246009D01*
X94846Y246471D01*
X130213D01*
X130623Y246552D01*
X130658Y246548D01*
X131075Y246310D01*
X131158Y246227D01*
X131286Y245583D01*
X131806Y244806D01*
X132583Y244286D01*
X133500Y244104D01*
X134417Y244286D01*
X135194Y244806D01*
X135714Y245583D01*
X135896Y246500D01*
X135727Y247351D01*
X138545Y250169D01*
X140971D01*
Y246634D01*
D02*
G37*
%LPC*%
G36*
X160437Y361717D02*
X150563D01*
Y355780D01*
X160437D01*
Y357219D01*
X162988D01*
Y356598D01*
X170616D01*
X171083Y356286D01*
X172000Y356104D01*
X172917Y356286D01*
X173694Y356806D01*
X174214Y357583D01*
X174396Y358500D01*
X174214Y359417D01*
X173694Y360194D01*
X172917Y360714D01*
X172000Y360896D01*
X171512Y360799D01*
X171012Y361039D01*
Y361039D01*
X162988D01*
Y360277D01*
X160437D01*
Y361717D01*
D02*
G37*
G36*
X160437Y353842D02*
X150563D01*
Y347905D01*
X160437D01*
Y349345D01*
X162988D01*
Y349098D01*
X166640D01*
X166908Y348598D01*
X166786Y348417D01*
X166604Y347500D01*
X166786Y346583D01*
X167306Y345806D01*
X168083Y345286D01*
X169000Y345104D01*
X169917Y345286D01*
X170694Y345806D01*
X171214Y346583D01*
X171396Y347500D01*
X171214Y348417D01*
X170899Y348888D01*
X171012Y349098D01*
X171012D01*
Y353539D01*
X166768D01*
Y353539D01*
X162988D01*
Y352403D01*
X160437D01*
Y353842D01*
D02*
G37*
%LPD*%
G36*
X182500Y69500D02*
X177154D01*
X177122Y69547D01*
X176642Y69868D01*
X176075Y69981D01*
X175508Y69868D01*
X175330Y69749D01*
X175085Y69913D01*
X174500Y70029D01*
X171875D01*
X171707Y70141D01*
X171122Y70258D01*
X171119D01*
X170894Y70594D01*
X170117Y71114D01*
X169500Y71236D01*
Y75000D01*
X168148D01*
Y75059D01*
X162000D01*
X162000Y97000D01*
X182500Y97000D01*
X182500Y69500D01*
D02*
G37*
G36*
X105032Y80480D02*
X107124D01*
X107317Y80352D01*
X108000Y80216D01*
X111579D01*
Y80020D01*
X116500D01*
Y59500D01*
X103500D01*
Y80500D01*
X105032D01*
Y80480D01*
D02*
G37*
G36*
X143500Y59000D02*
X133000D01*
Y84500D01*
X143500D01*
Y59000D01*
D02*
G37*
G36*
X186500Y52000D02*
X160500D01*
Y60000D01*
X169500D01*
Y62581D01*
X170084Y62697D01*
X170862Y63217D01*
X171265Y63821D01*
X174500D01*
X175085Y63937D01*
X175582Y64269D01*
X175736Y64500D01*
X186500D01*
Y52000D01*
D02*
G37*
G36*
X248716Y35561D02*
Y30196D01*
X244160D01*
X243919Y30490D01*
Y34280D01*
X244512D01*
Y38216D01*
X246061D01*
X248716Y35561D01*
D02*
G37*
G36*
X236488Y34280D02*
X237081D01*
Y31790D01*
X237197Y31205D01*
X237529Y30708D01*
X237579Y30658D01*
X237388Y30196D01*
X233379D01*
Y38216D01*
X236488D01*
Y34280D01*
D02*
G37*
G36*
X117458Y13058D02*
X118120Y12616D01*
X118900Y12461D01*
X125587D01*
Y11827D01*
X128640D01*
X133120Y7346D01*
X132929Y6884D01*
X122539D01*
X115164Y14259D01*
X115069Y14740D01*
X115530Y14987D01*
X117458Y13058D01*
D02*
G37*
D14*
X140500Y311000D02*
X140500Y311000D01*
X94500Y139167D02*
X94567Y139100D01*
X99801Y154450D02*
X99850Y154400D01*
X202716Y421300D02*
Y421400D01*
Y421300D02*
X205016Y419000D01*
X151700Y263489D02*
Y270400D01*
X163161Y272500D02*
X163535Y272126D01*
X157014Y272500D02*
X163161D01*
X156214Y273300D02*
X157014Y272500D01*
X147100Y273300D02*
X156214D01*
X142700Y277700D02*
X147100Y273300D01*
X157800Y263688D02*
X158200Y264088D01*
Y270000D01*
X237400Y22400D02*
X238100Y23100D01*
X236100Y22400D02*
X237400D01*
X239844Y20056D02*
X245000D01*
X239844D02*
Y26708D01*
X245000Y20056D02*
Y22700D01*
X244490Y23210D02*
X245000Y22700D01*
X244490Y23210D02*
Y26448D01*
X241800Y22800D02*
X242087Y22513D01*
Y22429D02*
Y22513D01*
X244005Y26932D02*
X244490Y26448D01*
X124100Y88000D02*
Y88400D01*
X121411Y85311D02*
X124100Y88000D01*
X120453Y85311D02*
X121411D01*
X114356Y85502D02*
X114547Y85311D01*
X118484Y91921D02*
X118844Y91562D01*
X118484Y85311D02*
X118844Y85671D01*
Y91562D01*
X114356Y85502D02*
Y87882D01*
X113239Y89000D02*
X114356Y87882D01*
X116600Y85395D02*
Y88600D01*
X108000Y89000D02*
X113239D01*
X116516Y85311D02*
X116600Y85395D01*
X135976Y296535D02*
Y298386D01*
X132500Y301862D02*
X135976Y298386D01*
X132500Y301862D02*
Y304606D01*
X192500Y29500D02*
Y31807D01*
X185906Y22906D02*
X192500Y29500D01*
X185906Y21500D02*
Y22906D01*
X124523Y272300D02*
X124697Y272126D01*
X122547Y272300D02*
X124523D01*
X121500Y273346D02*
X122547Y272300D01*
X153770Y382370D02*
X155500D01*
X132500Y361100D02*
X153770Y382370D01*
X132500Y308394D02*
Y361100D01*
X100304Y374496D02*
X101957D01*
X94300Y380500D02*
X100304Y374496D01*
X75000Y380500D02*
X94300D01*
X136500Y308390D02*
Y312276D01*
X171122Y68728D02*
X171350Y68500D01*
X169372Y68728D02*
X171122D01*
X169200Y68900D02*
X169372Y68728D01*
X169167Y64911D02*
X169197D01*
X169379Y64729D01*
X170000Y65350D01*
X239844Y26708D02*
X240069Y26932D01*
X241800Y22800D02*
X242037Y23037D01*
X238100Y23100D02*
Y26932D01*
X242037Y23037D02*
Y26932D01*
Y30137D01*
X242390Y30490D01*
Y36500D01*
X240069Y26932D02*
Y30332D01*
X238610Y31790D02*
X240069Y30332D01*
X238610Y31790D02*
Y36500D01*
X151600Y104537D02*
Y111800D01*
X151953D01*
X92200Y105646D02*
Y111800D01*
X92353D01*
X138825Y281575D02*
X142700Y277700D01*
X140276Y275276D02*
X142700Y277700D01*
X130465Y275276D02*
X140276D01*
X130465Y281575D02*
X138825D01*
X154874Y263465D02*
Y269658D01*
X157800Y263688D02*
X158024Y263465D01*
X151700Y263489D02*
X151724Y263465D01*
X168000Y31807D02*
X174094Y25713D01*
Y21500D02*
Y25713D01*
X168000Y21598D02*
Y22098D01*
X192500Y31807D02*
Y32307D01*
X163535Y284724D02*
X184976D01*
X186600Y283100D01*
X191200D01*
X170200Y282300D02*
X180200D01*
X186000Y276500D01*
X200000Y197800D02*
Y283100D01*
X183100Y180900D02*
X200000Y197800D01*
X150200Y180900D02*
X183100D01*
X104250Y29150D02*
X123747Y48646D01*
X157100D01*
X171200Y43500D02*
X172614Y42086D01*
X176260D01*
X176260Y42086D01*
Y40314D02*
Y42086D01*
X157100Y41954D02*
X162753D01*
X167800Y47000D02*
X173117D01*
X162753Y41954D02*
X167800Y47000D01*
X173117D02*
X176260Y43857D01*
X183740Y40314D02*
X188314D01*
X190800Y42800D01*
X197200D01*
X149846Y14500D02*
X150119Y14772D01*
X153872D01*
X188600Y44000D02*
Y44300D01*
X186686Y42086D02*
X188600Y44000D01*
X183740Y42086D02*
X186686D01*
X183744Y43861D02*
Y48400D01*
X183740Y43857D02*
X183744Y43861D01*
X184398Y38500D02*
X192500D01*
X168000D02*
X176602D01*
X167402Y21500D02*
X168000Y22098D01*
X192500Y21598D02*
X192598Y21500D01*
X173500Y221000D02*
X179500Y227000D01*
X173500Y202500D02*
Y221000D01*
Y202500D02*
X179500Y196500D01*
X163000Y213000D02*
X169500Y206500D01*
X163000Y213000D02*
Y240500D01*
X159000Y244500D02*
X163000Y240500D01*
X156000Y244500D02*
X159000D01*
X179500Y227000D02*
Y240000D01*
X169000Y250000D02*
X179500D01*
X158024Y260976D02*
X169000Y250000D01*
X158024Y260976D02*
Y263465D01*
X154500Y263090D02*
X154874Y263465D01*
X154500Y254000D02*
Y263090D01*
X186000Y271000D02*
X191000Y266000D01*
X191500D01*
X163535Y268976D02*
X183976D01*
X186000Y271000D01*
Y276500D01*
X163760Y272350D02*
X168150D01*
X163535Y272126D02*
X163760Y272350D01*
X195500Y260000D02*
Y285500D01*
X182500Y247000D02*
X195500Y260000D01*
X151787Y247000D02*
X182500D01*
X176500Y304500D02*
X195500Y285500D01*
X145500Y307653D02*
X161346D01*
X170500Y298500D01*
X176500D01*
X174279Y292000D02*
X178000D01*
X178500Y288000D02*
X178500Y288000D01*
X176500Y304500D02*
Y377000D01*
X168890Y374819D02*
X172681D01*
X156500Y217500D02*
Y240500D01*
X146500Y252287D02*
X151787Y247000D01*
X156500Y217500D02*
X157000Y217000D01*
X133500Y246500D02*
Y247287D01*
X118291Y293000D02*
Y354709D01*
X98500Y238500D02*
X130000D01*
X96500Y242000D02*
X138500D01*
X74000Y264500D02*
X96500Y242000D01*
X96394Y240606D02*
X98500Y238500D01*
X95923Y240606D02*
X96394D01*
X72606Y263923D02*
X95923Y240606D01*
X72606Y263923D02*
Y380077D01*
X74000Y264500D02*
Y379500D01*
X75000Y380500D01*
X72606Y380077D02*
X74899Y382370D01*
X101957D01*
X130213Y248000D02*
X134500Y252287D01*
X94000Y248000D02*
X130213D01*
X86000Y256000D02*
X94000Y248000D01*
X86000Y256000D02*
Y291551D01*
X140500Y308390D02*
Y311000D01*
X178874Y275500D02*
X182000D01*
X86000Y291551D02*
X101957Y307508D01*
Y343000D01*
X113000Y275500D02*
X115154Y273346D01*
X110735Y275500D02*
X113000D01*
X107778Y272543D02*
X110735Y275500D01*
X103408Y276913D02*
X107778Y272543D01*
X102024Y276913D02*
X103408D01*
X173681Y366819D02*
X173894Y366606D01*
X169213Y358500D02*
X172000D01*
X169000Y347500D02*
Y351213D01*
X138500Y242000D02*
X142500Y246000D01*
X234630Y374870D02*
X237004D01*
X219500Y390000D02*
X234630Y374870D01*
X203350Y392350D02*
Y399500D01*
X176075Y63776D02*
X176075Y63776D01*
Y65350D01*
X133500Y247287D02*
X138500Y252287D01*
X142500Y246000D02*
Y252287D01*
X163256Y390244D02*
X176500Y377000D01*
X155500Y390244D02*
X163256D01*
X174279Y288000D02*
X178500D01*
X168894Y366819D02*
X173681D01*
X168894Y358819D02*
X169213Y358500D01*
X168894Y351319D02*
X169000Y351213D01*
X101957Y350874D02*
X102142Y351059D01*
X114799D01*
Y292492D02*
Y351059D01*
Y292492D02*
X118291Y289000D01*
X101957Y358748D02*
X114252D01*
X118291Y354709D01*
X164662Y350874D02*
X165107Y351319D01*
X155500Y350874D02*
X164662D01*
X165035Y358748D02*
X165106Y358819D01*
X155500Y358748D02*
X165035D01*
X164909Y366622D02*
X165106Y366819D01*
X155500Y366622D02*
X164909D01*
X164783Y374496D02*
X165106Y374819D01*
X155500Y374496D02*
X164783D01*
X124697Y272126D02*
X130465D01*
X130039Y281150D02*
X130465Y281575D01*
X125350Y281150D02*
X130039D01*
X145425Y307579D02*
X145500Y307653D01*
X145425Y296535D02*
Y307579D01*
X140500Y304606D02*
X142276Y302831D01*
Y296535D02*
Y302831D01*
X136500Y304606D02*
X139126Y301980D01*
Y296535D02*
Y301980D01*
X122075Y293000D02*
X124051Y291024D01*
X130465D01*
X122075Y289000D02*
X123201Y287874D01*
X130465D01*
X103413Y257976D02*
X107698Y262261D01*
Y263873D01*
X106394Y272543D02*
X107778D01*
X107698Y263873D02*
X118719D01*
X121500Y266653D01*
X123823Y268976D01*
X130465D01*
X134500Y256075D02*
X135976Y257551D01*
Y263465D01*
X138500Y262839D02*
X139126Y263465D01*
X138500Y256071D02*
Y262839D01*
X142276Y263465D02*
X142500Y263240D01*
Y256071D02*
Y263240D01*
X145425Y257150D02*
X146500Y256075D01*
X145425Y257150D02*
Y263465D01*
X115154Y273346D02*
X121500D01*
X163535Y275500D02*
X172181D01*
X163535Y275276D02*
Y275500D01*
X163535Y288000D02*
X170500D01*
X163535Y287874D02*
Y288000D01*
X163535Y292000D02*
X170500D01*
X163535Y291024D02*
Y292000D01*
X209650Y393847D02*
Y399500D01*
X209500Y393847D02*
X209650D01*
X215012Y408665D02*
X216000Y409654D01*
X208968Y408665D02*
X215012D01*
X203350Y399500D02*
Y408665D01*
X205031D01*
X207000Y399500D02*
X209650D01*
X207000D02*
Y408665D01*
X207000Y414335D02*
Y427520D01*
X224969D01*
X205016Y414335D02*
Y419000D01*
X224000Y402306D02*
Y419000D01*
Y402306D02*
X246480D01*
Y397969D02*
Y402306D01*
X118484Y91921D02*
Y91921D01*
X171350Y68500D02*
X174500D01*
X171350Y65350D02*
X174500D01*
X170000D02*
X171350D01*
X171350Y68500D02*
Y68500D01*
X118484Y91921D02*
X119000D01*
X113319Y91921D02*
Y91921D01*
X128516Y80768D02*
Y82000D01*
X28500Y-500D02*
Y448500D01*
Y-500D02*
X28800D01*
X311500D01*
X311500Y448500D02*
X311500Y-500D01*
X28500Y448500D02*
X311500D01*
D29*
X176075Y63776D02*
D03*
X174500Y63776D02*
D03*
X172925Y63776D02*
D03*
X171350Y63776D02*
D03*
X176075Y65350D02*
D03*
X174500D02*
D03*
X172925Y65350D02*
D03*
X171350Y65350D02*
D03*
X176075Y66925D02*
D03*
X174500Y66925D02*
D03*
X172925Y66925D02*
D03*
X171350Y66925D02*
D03*
X176075Y68500D02*
D03*
X174500Y68500D02*
D03*
X172925Y68500D02*
D03*
X171350D02*
D03*
X176075Y70075D02*
D03*
X174500Y70075D02*
D03*
X172925Y70075D02*
D03*
X171350Y70075D02*
D03*
D30*
X246480Y419484D02*
D03*
X241559Y419484D02*
D03*
X236539Y419484D02*
D03*
X231520Y419484D02*
D03*
D31*
X231520Y397969D02*
D03*
X246480D02*
D03*
X236539Y397969D02*
D03*
X241559Y397969D02*
D03*
D32*
X208968Y408665D02*
D03*
X207000Y408665D02*
D03*
X205031Y408665D02*
D03*
Y414335D02*
D03*
X207000Y414335D02*
D03*
X208968Y414335D02*
D03*
D33*
X136697Y34012D02*
D03*
X144177Y34012D02*
D03*
X144177Y24563D02*
D03*
X140437Y24563D02*
D03*
X136697Y24563D02*
D03*
D34*
X176260Y38543D02*
D03*
X176260Y40314D02*
D03*
X176260Y42086D02*
D03*
Y43857D02*
D03*
X183740Y43857D02*
D03*
X183740Y42086D02*
D03*
X183740Y40314D02*
D03*
Y38543D02*
D03*
D35*
X180000Y41200D02*
D03*
D36*
X115138Y79642D02*
D03*
D37*
X120453D02*
D03*
D38*
X117500Y81709D02*
D03*
D39*
X120453Y85311D02*
D03*
X118484Y85311D02*
D03*
X116516Y85311D02*
D03*
X114547Y85311D02*
D03*
D40*
X155500Y343000D02*
D03*
X155500Y350874D02*
D03*
X155500Y358748D02*
D03*
Y366622D02*
D03*
X155500Y374496D02*
D03*
X155500Y382370D02*
D03*
X155500Y390244D02*
D03*
X155500Y398118D02*
D03*
X101957Y343000D02*
D03*
X101957Y398118D02*
D03*
X101957Y390244D02*
D03*
X101957Y382370D02*
D03*
X101957Y374496D02*
D03*
X101957Y366622D02*
D03*
X101957Y358748D02*
D03*
Y350874D02*
D03*
D41*
X185906Y21500D02*
D03*
X174094D02*
D03*
D42*
X151600Y96663D02*
D03*
Y104537D02*
D03*
D43*
X162000Y41954D02*
D03*
Y48647D02*
D03*
X145500Y314347D02*
D03*
X145500Y307653D02*
D03*
X121500Y273346D02*
D03*
Y266653D02*
D03*
X119000Y98614D02*
D03*
X119000Y91921D02*
D03*
X216000Y408654D02*
D03*
X216000Y415346D02*
D03*
X113319Y91921D02*
D03*
X113319Y98614D02*
D03*
X92200Y105646D02*
D03*
X92200Y98954D02*
D03*
X192500Y31807D02*
D03*
Y38500D02*
D03*
X168000Y31807D02*
D03*
Y38500D02*
D03*
X157100Y48646D02*
D03*
Y41954D02*
D03*
D44*
X183740Y48400D02*
D03*
X179961D02*
D03*
X170500Y288000D02*
D03*
X174279Y288000D02*
D03*
X170500Y292000D02*
D03*
X174279Y292000D02*
D03*
X165110Y351319D02*
D03*
X168890Y351319D02*
D03*
X165110Y358819D02*
D03*
X168890D02*
D03*
X165110Y366819D02*
D03*
X168890D02*
D03*
X165110Y374819D02*
D03*
X168890Y374819D02*
D03*
X122071Y293000D02*
D03*
X118291Y293000D02*
D03*
X122071Y289000D02*
D03*
X118291Y289000D02*
D03*
X238610Y36500D02*
D03*
X242390D02*
D03*
D45*
X101000Y434642D02*
D03*
X81000D02*
D03*
X91000D02*
D03*
D46*
X135150Y14500D02*
D03*
X128850D02*
D03*
D47*
X92353Y112300D02*
D03*
X99046Y112300D02*
D03*
X151953Y111800D02*
D03*
X158647Y111800D02*
D03*
D48*
X303500Y52658D02*
D03*
Y62500D02*
D03*
Y72342D02*
D03*
X294051D02*
D03*
Y62500D02*
D03*
Y52658D02*
D03*
D49*
X135484Y80768D02*
D03*
X128516Y80768D02*
D03*
D50*
X99850Y63268D02*
D03*
X106150Y63268D02*
D03*
X203350Y399500D02*
D03*
X209650D02*
D03*
X115650Y281000D02*
D03*
X109350Y281000D02*
D03*
X158850Y94500D02*
D03*
X165150Y94500D02*
D03*
D51*
X253650Y26932D02*
D03*
X250500D02*
D03*
X231594D02*
D03*
X228445D02*
D03*
D52*
X247942D02*
D03*
X245974D02*
D03*
X244005D02*
D03*
X242037D02*
D03*
X240069D02*
D03*
X238100D02*
D03*
X236132D02*
D03*
X234154D02*
D03*
D53*
X263301Y10318D02*
D03*
X218947D02*
D03*
X219045Y24590D02*
D03*
X263202D02*
D03*
D54*
X107778Y272543D02*
D03*
X103476Y267416D02*
D03*
X112000Y269000D02*
D03*
X107698Y263873D02*
D03*
D55*
X163700Y56513D02*
D03*
Y63600D02*
D03*
X163900Y78587D02*
D03*
X163900Y71500D02*
D03*
D56*
X135976Y296535D02*
D03*
X139126Y296535D02*
D03*
X142276Y296535D02*
D03*
X145425Y296535D02*
D03*
X148575Y296535D02*
D03*
X151724Y296535D02*
D03*
X154874Y296535D02*
D03*
X158024Y296535D02*
D03*
X158024Y263465D02*
D03*
X154874Y263465D02*
D03*
X151724D02*
D03*
X148575Y263465D02*
D03*
X145425Y263465D02*
D03*
X142276Y263465D02*
D03*
X139126D02*
D03*
X135976D02*
D03*
D57*
X163535Y291024D02*
D03*
X163535Y287874D02*
D03*
X163535Y284724D02*
D03*
X163535Y281575D02*
D03*
X163535Y278425D02*
D03*
X163535Y275276D02*
D03*
X163535Y272126D02*
D03*
X163535Y268976D02*
D03*
X130465Y268976D02*
D03*
Y272126D02*
D03*
X130465Y275276D02*
D03*
X130465Y278425D02*
D03*
X130465Y281575D02*
D03*
X130465Y284724D02*
D03*
Y287874D02*
D03*
X130465Y291024D02*
D03*
D58*
X237004Y62508D02*
D03*
X237004Y374870D02*
D03*
D59*
X93000Y372650D02*
D03*
Y366350D02*
D03*
X87500Y372650D02*
D03*
Y366350D02*
D03*
X130177Y30811D02*
D03*
X130177Y24512D02*
D03*
X150602Y31012D02*
D03*
X150602Y24713D02*
D03*
X108000Y83350D02*
D03*
X108000Y89650D02*
D03*
X124500Y92118D02*
D03*
X124500Y98417D02*
D03*
X81772Y359850D02*
D03*
Y366150D02*
D03*
X94500Y148150D02*
D03*
X94500Y154450D02*
D03*
X124177Y30811D02*
D03*
X124177Y24512D02*
D03*
X203102Y30512D02*
D03*
X203102Y24213D02*
D03*
D60*
X102024Y276913D02*
D03*
X97975Y272087D02*
D03*
D61*
X103413Y257976D02*
D03*
X98587Y262024D02*
D03*
D62*
X165000Y87000D02*
D03*
X157913Y87000D02*
D03*
X113504Y63315D02*
D03*
X120590D02*
D03*
X113547Y71815D02*
D03*
X120634Y71815D02*
D03*
X136043Y63268D02*
D03*
X128957Y63268D02*
D03*
X136043Y71768D02*
D03*
X128957Y71768D02*
D03*
D63*
X154900Y64016D02*
D03*
X154900Y70984D02*
D03*
D64*
X246484Y427520D02*
D03*
Y432441D02*
D03*
Y437461D02*
D03*
Y442480D02*
D03*
D65*
X224969D02*
D03*
Y427520D02*
D03*
Y437461D02*
D03*
Y432441D02*
D03*
D66*
X178874Y275500D02*
D03*
X172181Y275500D02*
D03*
X143154Y14500D02*
D03*
X149846Y14500D02*
D03*
X136846Y39000D02*
D03*
X130154Y39000D02*
D03*
D67*
X140500Y304610D02*
D03*
X140500Y308390D02*
D03*
X136500Y304610D02*
D03*
X136500Y308390D02*
D03*
X132500Y304610D02*
D03*
Y308390D02*
D03*
X134500Y256071D02*
D03*
X134500Y252291D02*
D03*
X138500Y256071D02*
D03*
Y252291D02*
D03*
X142500Y256071D02*
D03*
Y252291D02*
D03*
X146500Y256071D02*
D03*
Y252291D02*
D03*
D114*
X229745Y22700D02*
D03*
X252500D02*
D03*
D120*
X294673Y53280D02*
X303500D01*
X273000Y52658D02*
X281000D01*
X262500D02*
X269000D01*
X144800Y24563D02*
X157937D01*
X144800Y24239D02*
Y24563D01*
X167402Y21500D02*
X174094D01*
X161000D02*
X167402D01*
X157937Y24563D02*
X161000Y21500D01*
X185906D02*
X192598D01*
X195311Y24213D01*
X203102D01*
X269000Y52658D02*
X273000D01*
X284500D02*
X294051D01*
X281000D02*
X284500D01*
X294051D02*
X294673Y53280D01*
X303500Y52658D02*
Y53280D01*
X294051Y62500D02*
X303500D01*
X237012D02*
X294051D01*
X237004Y62508D02*
X237012Y62500D01*
X203102Y30512D02*
Y46602D01*
X219008Y62508D01*
X237004D01*
D121*
X94500Y139167D02*
Y148150D01*
X99850Y154400D02*
Y195500D01*
Y63268D02*
Y154400D01*
X94500Y154450D02*
X99801D01*
X100150Y29150D02*
X104250D01*
X99850Y29450D02*
X100150Y29150D01*
X99850Y29450D02*
Y63268D01*
X104250Y29150D02*
X118900Y14500D01*
X174200Y7900D02*
X174400Y8100D01*
X135450Y7900D02*
X174200D01*
X128850Y14500D02*
X135450Y7900D01*
X118900Y14500D02*
X128850D01*
X99850Y195500D02*
Y209650D01*
Y195500D02*
X100850Y196500D01*
X169500D01*
X65000Y244500D02*
X99850Y209650D01*
X144500Y321500D02*
X145500Y320500D01*
X65000Y244500D02*
Y282000D01*
X57750Y203250D02*
Y317503D01*
X81772Y326693D02*
Y327394D01*
Y359850D01*
X91000Y282000D02*
X108350D01*
X159000Y94500D02*
Y124500D01*
X112000Y171500D02*
X159000Y124500D01*
X89500Y171500D02*
X91500D01*
X103000Y102500D02*
X119000D01*
X103000Y81000D02*
Y102500D01*
Y81000D02*
X107000Y77000D01*
X57750Y203250D02*
X89500Y171500D01*
X57750Y317503D02*
X59000Y318753D01*
Y327500D01*
X145500Y315000D02*
Y320500D01*
X65000Y282000D02*
Y314500D01*
X108350Y282000D02*
X109350Y281000D01*
X81772Y366622D02*
X101957D01*
X81500Y366350D02*
X81772Y366622D01*
X118484Y91921D02*
X124303D01*
X113319D02*
X118484D01*
X124303D02*
X124500Y92118D01*
X119000Y98614D02*
X124500D01*
X119000D02*
Y102500D01*
X113319Y91921D02*
X118484D01*
X124500Y98417D02*
Y98614D01*
D122*
X91000Y409075D02*
X99137Y400937D01*
X91000Y409075D02*
Y434642D01*
D123*
X231600Y40000D02*
X246800D01*
X212600D02*
X231600D01*
X231594Y39994D02*
X231600Y40000D01*
X231594Y26932D02*
Y39994D01*
X250500Y26932D02*
Y36300D01*
X246800Y40000D02*
X250500Y36300D01*
X117711Y30811D02*
X124177D01*
X115500Y28600D02*
X117711Y30811D01*
X112800Y14100D02*
X121800Y5100D01*
X195100D01*
X212600Y22600D01*
Y40000D01*
X136697Y38850D02*
X136846Y39000D01*
X108000Y82000D02*
X128516D01*
D124*
X144327Y24713D02*
X144800Y24239D01*
X237004Y62508D02*
Y352000D01*
X209500D02*
X237004D01*
X209500D02*
Y387154D01*
X124228Y24563D02*
X136697D01*
X124177Y24512D02*
X124228Y24563D01*
X136697D02*
Y29500D01*
X139665D01*
X144177Y34012D01*
X136697Y34012D02*
Y38850D01*
X135150Y14500D02*
X135150Y14500D01*
X143154D01*
D125*
X229600Y406700D02*
D03*
X248500Y406700D02*
D03*
D126*
X239000Y411200D02*
D03*
D127*
X181850Y48400D02*
D03*
X172390Y288000D02*
D03*
X172390Y292000D02*
D03*
X167000Y351319D02*
D03*
X167000Y358819D02*
D03*
Y366819D02*
D03*
X167000Y374819D02*
D03*
X140500Y306500D02*
D03*
X136500Y306501D02*
D03*
X132500Y306500D02*
D03*
X120181Y293000D02*
D03*
Y289000D02*
D03*
X134500Y254181D02*
D03*
X138500Y254181D02*
D03*
X142500D02*
D03*
X146500D02*
D03*
X240500Y36500D02*
D03*
D128*
X233700Y444400D02*
D03*
Y425500D02*
D03*
D129*
X238200Y435000D02*
D03*
D130*
X292406Y17000D02*
D03*
X49000D02*
D03*
X292656Y428000D02*
D03*
X49000D02*
D03*
D131*
X283812Y22469D02*
D03*
X296000Y26531D02*
D03*
X301000Y22469D02*
D03*
X302562Y17000D02*
D03*
X301000Y11531D02*
D03*
X296000Y7469D02*
D03*
X288812D02*
D03*
X283812Y11531D02*
D03*
X282250Y17000D02*
D03*
X288812Y26531D02*
D03*
X40406Y22469D02*
D03*
X52594Y26531D02*
D03*
X57594Y22469D02*
D03*
X59156Y17000D02*
D03*
X57594Y11531D02*
D03*
X52594Y7469D02*
D03*
X45406D02*
D03*
X40406Y11531D02*
D03*
X38844Y17000D02*
D03*
X45406Y26531D02*
D03*
X284063Y433469D02*
D03*
X296250Y437531D02*
D03*
X301250Y433469D02*
D03*
X302813Y428000D02*
D03*
X301250Y422531D02*
D03*
X296250Y418469D02*
D03*
X289062D02*
D03*
X284063Y422531D02*
D03*
X282500Y428000D02*
D03*
X289062Y437531D02*
D03*
X40406Y433469D02*
D03*
X52594Y437531D02*
D03*
X57594Y433469D02*
D03*
X59156Y428000D02*
D03*
X57594Y422531D02*
D03*
X52594Y418469D02*
D03*
X45406D02*
D03*
X40406Y422531D02*
D03*
X38844Y428000D02*
D03*
X45406Y437531D02*
D03*
D132*
X179500Y196500D02*
D03*
D133*
X169500D02*
D03*
X179500Y206500D02*
D03*
X169500D02*
D03*
X179500Y216500D02*
D03*
X169500D02*
D03*
D134*
X104449Y139100D02*
D03*
X94567D02*
D03*
X84685D02*
D03*
X64882D02*
D03*
X74764D02*
D03*
X55000D02*
D03*
D135*
X205508Y327823D02*
D03*
X268500Y110500D02*
D03*
D136*
X268500Y360185D02*
D03*
D137*
X298500Y409000D02*
D03*
X291000Y394000D02*
D03*
X298500Y379000D02*
D03*
X291000Y364000D02*
D03*
X298500Y349000D02*
D03*
X291000Y334000D02*
D03*
X298500Y319000D02*
D03*
X291000Y304000D02*
D03*
X298500Y289000D02*
D03*
X291000Y274000D02*
D03*
X298500Y259000D02*
D03*
X291000Y244000D02*
D03*
X298500Y229000D02*
D03*
X291000Y214000D02*
D03*
X298500Y199000D02*
D03*
X291000Y184000D02*
D03*
X298500Y169000D02*
D03*
X291000Y154000D02*
D03*
X298500Y139000D02*
D03*
X291000Y124000D02*
D03*
X298500Y109000D02*
D03*
X291000Y94000D02*
D03*
X298500Y79000D02*
D03*
X291000Y34000D02*
D03*
X276000Y424000D02*
D03*
X283500Y409000D02*
D03*
X276000Y394000D02*
D03*
X283500Y379000D02*
D03*
X276000Y364000D02*
D03*
X283500Y349000D02*
D03*
X276000Y334000D02*
D03*
X283500Y319000D02*
D03*
X276000Y304000D02*
D03*
X283500Y289000D02*
D03*
X276000Y274000D02*
D03*
X283500Y259000D02*
D03*
X276000Y244000D02*
D03*
X283500Y229000D02*
D03*
X276000Y214000D02*
D03*
X283500Y199000D02*
D03*
X276000Y184000D02*
D03*
X283500Y169000D02*
D03*
X276000Y154000D02*
D03*
X283500Y139000D02*
D03*
X276000Y124000D02*
D03*
X283500Y109000D02*
D03*
X276000Y94000D02*
D03*
X283500Y79000D02*
D03*
X276000Y34000D02*
D03*
Y4000D02*
D03*
X268500Y439000D02*
D03*
X261000Y424000D02*
D03*
X268500Y409000D02*
D03*
X261000Y394000D02*
D03*
X268500Y379000D02*
D03*
X261000Y364000D02*
D03*
X268500Y349000D02*
D03*
X261000Y334000D02*
D03*
X268500Y319000D02*
D03*
X261000Y304000D02*
D03*
X268500Y289000D02*
D03*
X261000Y274000D02*
D03*
X268500Y259000D02*
D03*
X261000Y244000D02*
D03*
X268500Y229000D02*
D03*
X261000Y214000D02*
D03*
X268500Y199000D02*
D03*
X261000Y184000D02*
D03*
X268500Y169000D02*
D03*
X261000Y154000D02*
D03*
X268500Y139000D02*
D03*
X261000Y124000D02*
D03*
Y94000D02*
D03*
X268500Y79000D02*
D03*
X261000Y34000D02*
D03*
Y4000D02*
D03*
X253500Y439000D02*
D03*
Y409000D02*
D03*
Y349000D02*
D03*
X246000Y334000D02*
D03*
X253500Y319000D02*
D03*
X246000Y304000D02*
D03*
X253500Y289000D02*
D03*
X246000Y274000D02*
D03*
X253500Y259000D02*
D03*
X246000Y244000D02*
D03*
X253500Y229000D02*
D03*
X246000Y214000D02*
D03*
X253500Y199000D02*
D03*
X246000Y184000D02*
D03*
X253500Y169000D02*
D03*
X246000Y154000D02*
D03*
X253500Y139000D02*
D03*
X246000Y124000D02*
D03*
X253500Y109000D02*
D03*
X246000Y94000D02*
D03*
X253500Y79000D02*
D03*
X246000Y34000D02*
D03*
X253500Y19000D02*
D03*
X246000Y4000D02*
D03*
X231000Y334000D02*
D03*
Y304000D02*
D03*
Y274000D02*
D03*
Y244000D02*
D03*
Y214000D02*
D03*
Y184000D02*
D03*
Y154000D02*
D03*
Y124000D02*
D03*
Y94000D02*
D03*
Y4000D02*
D03*
X216000Y364000D02*
D03*
Y334000D02*
D03*
X223500Y319000D02*
D03*
X216000Y304000D02*
D03*
X223500Y289000D02*
D03*
X216000Y274000D02*
D03*
X223500Y259000D02*
D03*
X216000Y244000D02*
D03*
X223500Y229000D02*
D03*
X216000Y214000D02*
D03*
X223500Y199000D02*
D03*
X216000Y184000D02*
D03*
X223500Y169000D02*
D03*
X216000Y154000D02*
D03*
X223500Y139000D02*
D03*
X216000Y124000D02*
D03*
X223500Y109000D02*
D03*
X216000Y94000D02*
D03*
X223500Y79000D02*
D03*
X216000Y34000D02*
D03*
Y4000D02*
D03*
X208500Y439000D02*
D03*
X201000Y364000D02*
D03*
X208500Y319000D02*
D03*
X201000Y304000D02*
D03*
X208500Y289000D02*
D03*
Y259000D02*
D03*
Y229000D02*
D03*
Y199000D02*
D03*
X201000Y184000D02*
D03*
X208500Y169000D02*
D03*
X201000Y154000D02*
D03*
X208500Y139000D02*
D03*
X201000Y124000D02*
D03*
X208500Y109000D02*
D03*
X201000Y94000D02*
D03*
X208500Y79000D02*
D03*
X201000Y64000D02*
D03*
Y4000D02*
D03*
X193500Y439000D02*
D03*
X186000Y424000D02*
D03*
X193500Y409000D02*
D03*
X186000Y394000D02*
D03*
X193500Y379000D02*
D03*
X186000Y364000D02*
D03*
X193500Y349000D02*
D03*
X186000Y334000D02*
D03*
X193500Y319000D02*
D03*
X186000Y304000D02*
D03*
Y244000D02*
D03*
X193500Y229000D02*
D03*
Y199000D02*
D03*
Y169000D02*
D03*
X186000Y154000D02*
D03*
X193500Y139000D02*
D03*
X186000Y124000D02*
D03*
X193500Y109000D02*
D03*
X186000Y94000D02*
D03*
X193500Y79000D02*
D03*
X178500Y439000D02*
D03*
X171000Y424000D02*
D03*
X178500Y409000D02*
D03*
X171000Y394000D02*
D03*
Y184000D02*
D03*
X178500Y169000D02*
D03*
X171000Y154000D02*
D03*
X178500Y139000D02*
D03*
X171000Y124000D02*
D03*
X178500Y109000D02*
D03*
X163500Y439000D02*
D03*
X156000Y424000D02*
D03*
X163500Y409000D02*
D03*
Y379000D02*
D03*
Y169000D02*
D03*
Y139000D02*
D03*
Y109000D02*
D03*
X156000Y34000D02*
D03*
X148500Y439000D02*
D03*
X141000Y424000D02*
D03*
X148500Y409000D02*
D03*
X141000Y394000D02*
D03*
Y364000D02*
D03*
X148500Y349000D02*
D03*
X141000Y334000D02*
D03*
X148500Y289000D02*
D03*
Y169000D02*
D03*
X141000Y154000D02*
D03*
Y124000D02*
D03*
X148500Y109000D02*
D03*
X141000Y94000D02*
D03*
X148500Y19000D02*
D03*
X133500Y439000D02*
D03*
X126000Y424000D02*
D03*
X133500Y409000D02*
D03*
X126000Y394000D02*
D03*
X133500Y379000D02*
D03*
X126000Y364000D02*
D03*
Y334000D02*
D03*
Y304000D02*
D03*
X133500Y229000D02*
D03*
X126000Y214000D02*
D03*
Y184000D02*
D03*
Y124000D02*
D03*
X133500Y109000D02*
D03*
Y19000D02*
D03*
X118500Y439000D02*
D03*
X111000Y424000D02*
D03*
X118500Y409000D02*
D03*
Y379000D02*
D03*
X111000Y364000D02*
D03*
Y334000D02*
D03*
Y304000D02*
D03*
X118500Y259000D02*
D03*
Y229000D02*
D03*
X111000Y214000D02*
D03*
Y184000D02*
D03*
Y124000D02*
D03*
X118500Y109000D02*
D03*
X111000Y4000D02*
D03*
X96000Y334000D02*
D03*
X103500Y289000D02*
D03*
Y229000D02*
D03*
X96000Y184000D02*
D03*
Y124000D02*
D03*
X103500Y109000D02*
D03*
X96000Y94000D02*
D03*
Y34000D02*
D03*
X103500Y19000D02*
D03*
X96000Y4000D02*
D03*
X81000Y394000D02*
D03*
X88500Y349000D02*
D03*
Y319000D02*
D03*
X81000Y304000D02*
D03*
Y274000D02*
D03*
Y244000D02*
D03*
X88500Y229000D02*
D03*
X81000Y214000D02*
D03*
X88500Y199000D02*
D03*
X81000Y124000D02*
D03*
Y94000D02*
D03*
X88500Y79000D02*
D03*
X81000Y64000D02*
D03*
Y34000D02*
D03*
X88500Y19000D02*
D03*
X81000Y4000D02*
D03*
X73500Y439000D02*
D03*
X66000Y424000D02*
D03*
X73500Y409000D02*
D03*
X66000Y394000D02*
D03*
Y364000D02*
D03*
Y334000D02*
D03*
X73500Y229000D02*
D03*
X66000Y214000D02*
D03*
X73500Y199000D02*
D03*
X66000Y184000D02*
D03*
X73500Y169000D02*
D03*
X66000Y154000D02*
D03*
Y124000D02*
D03*
X73500Y109000D02*
D03*
X66000Y94000D02*
D03*
X73500Y79000D02*
D03*
X66000Y64000D02*
D03*
X73500Y49000D02*
D03*
X66000Y34000D02*
D03*
X73500Y19000D02*
D03*
X66000Y4000D02*
D03*
X58500Y409000D02*
D03*
X51000Y394000D02*
D03*
X58500Y379000D02*
D03*
X51000Y364000D02*
D03*
X58500Y349000D02*
D03*
X51000Y334000D02*
D03*
Y304000D02*
D03*
Y274000D02*
D03*
Y244000D02*
D03*
Y214000D02*
D03*
Y184000D02*
D03*
X58500Y169000D02*
D03*
X51000Y154000D02*
D03*
Y124000D02*
D03*
X58500Y109000D02*
D03*
X51000Y94000D02*
D03*
X58500Y79000D02*
D03*
X51000Y64000D02*
D03*
X58500Y49000D02*
D03*
X51000Y34000D02*
D03*
X43500Y409000D02*
D03*
X36000Y394000D02*
D03*
X43500Y379000D02*
D03*
X36000Y364000D02*
D03*
X43500Y349000D02*
D03*
X36000Y334000D02*
D03*
X43500Y319000D02*
D03*
X36000Y304000D02*
D03*
X43500Y289000D02*
D03*
X36000Y274000D02*
D03*
X43500Y259000D02*
D03*
X36000Y244000D02*
D03*
X43500Y229000D02*
D03*
X36000Y214000D02*
D03*
X43500Y199000D02*
D03*
X36000Y184000D02*
D03*
X43500Y169000D02*
D03*
X36000Y154000D02*
D03*
X43500Y139000D02*
D03*
X36000Y124000D02*
D03*
X43500Y109000D02*
D03*
X36000Y94000D02*
D03*
X43500Y79000D02*
D03*
X36000Y64000D02*
D03*
X43500Y49000D02*
D03*
X36000Y34000D02*
D03*
Y4000D02*
D03*
X116700Y267663D02*
D03*
X140500Y311000D02*
D03*
X115225Y281025D02*
D03*
X209400Y387000D02*
D03*
X209700Y393800D02*
D03*
X202716Y421400D02*
D03*
X151700Y270400D02*
D03*
X158200Y270000D02*
D03*
X236100Y22400D02*
D03*
X242087Y22429D02*
D03*
X124100Y88400D02*
D03*
X116600Y88600D02*
D03*
X136700Y312276D02*
D03*
X140900Y65400D02*
D03*
X169200Y68900D02*
D03*
X169167Y64911D02*
D03*
X156600Y64000D02*
D03*
X153700D02*
D03*
X156400Y70984D02*
D03*
X153100Y70900D02*
D03*
X144200Y88900D02*
D03*
X150200Y80400D02*
D03*
X96100Y79600D02*
D03*
X107600Y95600D02*
D03*
X176200Y49500D02*
D03*
X180300Y34900D02*
D03*
X269800Y7800D02*
D03*
Y13100D02*
D03*
X212900Y13800D02*
D03*
X211000Y6600D02*
D03*
X228900Y36700D02*
D03*
X253600Y37800D02*
D03*
X266200Y18000D02*
D03*
X260200Y18100D02*
D03*
X221200Y17800D02*
D03*
X217800Y18300D02*
D03*
X220400Y414300D02*
D03*
X219200Y442100D02*
D03*
X218500Y437200D02*
D03*
X218600Y432200D02*
D03*
X148900Y403100D02*
D03*
X145900Y398800D02*
D03*
X155300Y403400D02*
D03*
X161700Y402200D02*
D03*
X163000Y397100D02*
D03*
X162800Y338200D02*
D03*
X155900Y336700D02*
D03*
X162300Y343800D02*
D03*
X93700Y377800D02*
D03*
X86800Y377400D02*
D03*
X81500Y372200D02*
D03*
X115100Y259700D02*
D03*
X94800Y257600D02*
D03*
X93100Y275000D02*
D03*
X93700Y266800D02*
D03*
X164300Y263500D02*
D03*
X129760Y295253D02*
D03*
X163100Y297100D02*
D03*
X144600Y280900D02*
D03*
X144400Y287500D02*
D03*
X148600Y282700D02*
D03*
X119800Y285300D02*
D03*
X130500Y44300D02*
D03*
X129900Y34900D02*
D03*
X150400Y35500D02*
D03*
X154400Y31200D02*
D03*
X154900Y268900D02*
D03*
X115500Y28600D02*
D03*
X112800Y14100D02*
D03*
X170200Y282300D02*
D03*
X191200Y283100D02*
D03*
X200000D02*
D03*
X150200Y180900D02*
D03*
X171200Y43500D02*
D03*
X197200Y42800D02*
D03*
X174400Y8100D02*
D03*
X153872Y14772D02*
D03*
X188600Y44300D02*
D03*
X179500Y250000D02*
D03*
Y240000D02*
D03*
X154500Y254000D02*
D03*
X156000Y244500D02*
D03*
X191500Y266000D02*
D03*
X168150Y272350D02*
D03*
X176500Y298500D02*
D03*
X178000Y292000D02*
D03*
X178500Y288000D02*
D03*
X182000Y275500D02*
D03*
X172681Y374819D02*
D03*
X156500Y240500D02*
D03*
X157000Y217000D02*
D03*
X144500Y321500D02*
D03*
X133500Y246500D02*
D03*
X130000Y238500D02*
D03*
X81772Y327394D02*
D03*
X91000Y282000D02*
D03*
X112000Y171500D02*
D03*
X91500D02*
D03*
X59000Y327500D02*
D03*
X65000Y314500D02*
D03*
Y282000D02*
D03*
X173894Y366606D02*
D03*
X172000Y358500D02*
D03*
X169000Y347500D02*
D03*
X219500Y390000D02*
D03*
X203350Y392350D02*
D03*
X185000Y54000D02*
D03*
X169000D02*
D03*
X172000D02*
D03*
X178500D02*
D03*
X175500D02*
D03*
X277000Y52500D02*
D03*
X264000D02*
D03*
X269000Y52658D02*
D03*
X284500D02*
D03*
X141000Y82000D02*
D03*
Y76000D02*
D03*
Y69750D02*
D03*
Y61000D02*
D03*
X181500Y54000D02*
D03*
X281000Y52658D02*
D03*
X273000D02*
D03*
X135484Y80768D02*
D03*
X125350Y281150D02*
D03*
X224000Y419000D02*
D03*
D138*
X107150Y409294D02*
D03*
X112315Y403220D02*
D03*
X109978Y406465D02*
D03*
X102575Y419721D02*
D03*
Y423721D02*
D03*
X104321Y412122D02*
D03*
X102575Y415721D02*
D03*
X113422Y399376D02*
D03*
X113187Y395382D02*
D03*
X108802Y388836D02*
D03*
X111570Y391724D02*
D03*
X80473Y404356D02*
D03*
X91172Y392534D02*
D03*
X94023Y389728D02*
D03*
X82699Y401032D02*
D03*
X88343Y395363D02*
D03*
X85515Y398191D02*
D03*
X79425Y424230D02*
D03*
Y420230D02*
D03*
Y416230D02*
D03*
Y412230D02*
D03*
X79481Y408230D02*
D03*
M02*
