G04*
G04 #@! TF.GenerationSoftware,Altium Limited,Altium Designer,18.1.7 (191)*
G04*
G04 Layer_Physical_Order=2*
G04 Layer_Color=16711680*
%FSLAX25Y25*%
%MOIN*%
G70*
G01*
G75*
%ADD14C,0.01000*%
%ADD43R,0.03937X0.03150*%
%ADD45R,0.05984X0.15984*%
%ADD59R,0.03937X0.03740*%
%ADD66R,0.03150X0.03937*%
%ADD114C,0.02559*%
%ADD120C,0.04000*%
%ADD121C,0.02000*%
%ADD123C,0.01500*%
%ADD130C,0.28000*%
%ADD131C,0.02500*%
%ADD132R,0.05906X0.05906*%
%ADD133C,0.05906*%
%ADD134C,0.06000*%
%ADD135C,0.13583*%
%ADD136C,0.09409*%
%ADD137C,0.02700*%
%ADD138C,0.03000*%
%ADD139R,0.02362X0.03937*%
G36*
X310800Y447700D02*
Y-300D01*
X28800D01*
Y447946D01*
X29154Y448299D01*
X310800Y447700D01*
D02*
G37*
%LPC*%
G36*
X292656Y442645D02*
X290365Y442465D01*
X288131Y441928D01*
X286007Y441049D01*
X284048Y439848D01*
X282758Y438747D01*
X292656Y428849D01*
X302554Y438747D01*
X301264Y439848D01*
X299305Y441049D01*
X297182Y441928D01*
X294947Y442465D01*
X292656Y442645D01*
D02*
G37*
G36*
X49000D02*
X46709Y442465D01*
X44474Y441928D01*
X42351Y441049D01*
X40392Y439848D01*
X39102Y438747D01*
X49000Y428849D01*
X58898Y438747D01*
X57608Y439848D01*
X55649Y441049D01*
X53526Y441928D01*
X51291Y442465D01*
X49000Y442645D01*
D02*
G37*
G36*
X303403Y437898D02*
X293505Y428000D01*
X303403Y418102D01*
X304504Y419392D01*
X305705Y421351D01*
X306585Y423474D01*
X307121Y425709D01*
X307301Y428000D01*
X307121Y430291D01*
X306585Y432526D01*
X305705Y434649D01*
X304504Y436608D01*
X303403Y437898D01*
D02*
G37*
G36*
X59747D02*
X49848Y428000D01*
X59747Y418102D01*
X60848Y419392D01*
X62049Y421351D01*
X62928Y423474D01*
X63465Y425709D01*
X63645Y428000D01*
X63465Y430291D01*
X62928Y432526D01*
X62049Y434649D01*
X60848Y436608D01*
X59747Y437898D01*
D02*
G37*
G36*
X281910Y437898D02*
X280808Y436608D01*
X279607Y434649D01*
X278728Y432526D01*
X278191Y430291D01*
X278011Y428000D01*
X278191Y425709D01*
X278728Y423474D01*
X279607Y421351D01*
X280808Y419392D01*
X281910Y418102D01*
X291808Y428000D01*
X281910Y437898D01*
D02*
G37*
G36*
X38253D02*
X37152Y436608D01*
X35951Y434649D01*
X35072Y432526D01*
X34535Y430291D01*
X34355Y428000D01*
X34535Y425709D01*
X35072Y423474D01*
X35951Y421351D01*
X37152Y419392D01*
X38253Y418102D01*
X48151Y428000D01*
X38253Y437898D01*
D02*
G37*
G36*
X202716Y423796D02*
X201799Y423614D01*
X201022Y423094D01*
X200502Y422317D01*
X200320Y421400D01*
X200502Y420483D01*
X201022Y419706D01*
X201799Y419186D01*
X202716Y419004D01*
X203633Y419186D01*
X204410Y419706D01*
X204520Y419871D01*
X220967D01*
X221643Y419195D01*
X221604Y419000D01*
X221786Y418083D01*
X222306Y417306D01*
X223083Y416786D01*
X224000Y416604D01*
X224917Y416786D01*
X225694Y417306D01*
X226214Y418083D01*
X226396Y419000D01*
X226214Y419917D01*
X225694Y420694D01*
X224917Y421214D01*
X224000Y421396D01*
X223805Y421357D01*
X222681Y422481D01*
X222185Y422813D01*
X221600Y422929D01*
X204520D01*
X204410Y423094D01*
X203633Y423614D01*
X202716Y423796D01*
D02*
G37*
G36*
X292656Y427151D02*
X282758Y417253D01*
X284048Y416152D01*
X286007Y414951D01*
X288131Y414072D01*
X290365Y413535D01*
X292656Y413355D01*
X294947Y413535D01*
X297182Y414072D01*
X299305Y414951D01*
X301264Y416152D01*
X302554Y417253D01*
X292656Y427151D01*
D02*
G37*
G36*
X49000D02*
X39102Y417253D01*
X40392Y416152D01*
X42351Y414951D01*
X44474Y414072D01*
X46709Y413535D01*
X49000Y413355D01*
X51291Y413535D01*
X53526Y414072D01*
X55649Y414951D01*
X57608Y416152D01*
X58898Y417253D01*
X49000Y427151D01*
D02*
G37*
G36*
X212469Y396421D02*
X206532D01*
Y392907D01*
X205636D01*
X205564Y393267D01*
X205045Y394045D01*
X204267Y394564D01*
X203350Y394746D01*
X202433Y394564D01*
X201656Y394045D01*
X201137Y393267D01*
X200954Y392350D01*
X201137Y391434D01*
X201656Y390656D01*
X202433Y390137D01*
X203350Y389954D01*
X203661Y390016D01*
X203738Y389965D01*
X204323Y389849D01*
X206081D01*
X206532Y389728D01*
X206532Y389349D01*
Y384579D01*
X212469D01*
X212469Y389728D01*
X212910Y389871D01*
X217130D01*
X217286Y389083D01*
X217806Y388306D01*
X218583Y387786D01*
X219500Y387604D01*
X220417Y387786D01*
X221194Y388306D01*
X221714Y389083D01*
X221896Y390000D01*
X221714Y390917D01*
X221194Y391694D01*
X220417Y392214D01*
X219500Y392396D01*
X219305Y392357D01*
X219181Y392481D01*
X218685Y392813D01*
X218100Y392929D01*
X212469D01*
Y396421D01*
D02*
G37*
G36*
X173894Y369002D02*
X172977Y368820D01*
X172199Y368301D01*
X171680Y367523D01*
X171498Y366606D01*
X171680Y365689D01*
X172199Y364912D01*
X172764Y364535D01*
Y361138D01*
X172378Y360821D01*
X172000Y360896D01*
X171083Y360714D01*
X170306Y360194D01*
X169786Y359417D01*
X169604Y358500D01*
X169786Y357583D01*
X170306Y356806D01*
X170471Y356696D01*
Y349874D01*
X170030Y349638D01*
X169917Y349714D01*
X169000Y349896D01*
X168083Y349714D01*
X167306Y349194D01*
X166786Y348417D01*
X166604Y347500D01*
X166786Y346583D01*
X167306Y345806D01*
X167471Y345696D01*
Y335134D01*
X150619Y318281D01*
X150287Y317785D01*
X150171Y317200D01*
Y272204D01*
X150006Y272094D01*
X149486Y271317D01*
X149304Y270400D01*
X149486Y269483D01*
X150006Y268706D01*
X150783Y268186D01*
X151700Y268004D01*
X152154Y268094D01*
X152686Y267983D01*
X152836Y267759D01*
X153206Y267206D01*
X153983Y266686D01*
X154900Y266504D01*
X155817Y266686D01*
X156594Y267206D01*
X157075Y267925D01*
X157283Y267786D01*
X158200Y267604D01*
X159117Y267786D01*
X159894Y268306D01*
X160414Y269083D01*
X160596Y270000D01*
X160414Y270917D01*
X159894Y271694D01*
X159729Y271804D01*
Y316400D01*
X159702Y316539D01*
X175375Y332212D01*
X175707Y332708D01*
X175823Y333294D01*
Y365264D01*
X176107Y365689D01*
X176290Y366606D01*
X176107Y367523D01*
X175588Y368301D01*
X174811Y368820D01*
X173894Y369002D01*
D02*
G37*
G36*
X268500Y365939D02*
X267011Y365743D01*
X265623Y365168D01*
X264431Y364254D01*
X263517Y363062D01*
X262942Y361674D01*
X262746Y360185D01*
X262942Y358696D01*
X263517Y357308D01*
X264431Y356116D01*
X265623Y355202D01*
X267011Y354627D01*
X268500Y354431D01*
X269989Y354627D01*
X271377Y355202D01*
X272569Y356116D01*
X273483Y357308D01*
X274058Y358696D01*
X274254Y360185D01*
X274058Y361674D01*
X273483Y363062D01*
X272569Y364254D01*
X271377Y365168D01*
X269989Y365743D01*
X268500Y365939D01*
D02*
G37*
G36*
X59000Y329896D02*
X58083Y329714D01*
X57306Y329194D01*
X56786Y328417D01*
X56604Y327500D01*
X56786Y326583D01*
X57306Y325806D01*
X58083Y325286D01*
X59000Y325104D01*
X59917Y325286D01*
X60019Y325355D01*
X80594D01*
X80855Y325180D01*
X81772Y324998D01*
X82688Y325180D01*
X83466Y325699D01*
X83985Y326477D01*
X84168Y327394D01*
X83985Y328311D01*
X83466Y329088D01*
X82688Y329607D01*
X81772Y329790D01*
X80855Y329607D01*
X80594Y329433D01*
X60337D01*
X59917Y329714D01*
X59000Y329896D01*
D02*
G37*
G36*
X205508Y335652D02*
X203980Y335501D01*
X202512Y335056D01*
X201158Y334332D01*
X199972Y333359D01*
X198998Y332172D01*
X198275Y330819D01*
X197829Y329350D01*
X197679Y327823D01*
X197829Y326295D01*
X198275Y324827D01*
X198998Y323473D01*
X199972Y322287D01*
X201158Y321313D01*
X202512Y320590D01*
X203980Y320144D01*
X205508Y319994D01*
X207035Y320144D01*
X208504Y320590D01*
X209858Y321313D01*
X211044Y322287D01*
X212017Y323473D01*
X212741Y324827D01*
X213187Y326295D01*
X213337Y327823D01*
X213187Y329350D01*
X212741Y330819D01*
X212017Y332172D01*
X211044Y333359D01*
X209858Y334332D01*
X208504Y335056D01*
X207035Y335501D01*
X205508Y335652D01*
D02*
G37*
G36*
X144500Y323896D02*
X143583Y323714D01*
X143322Y323539D01*
X136421D01*
X135641Y323384D01*
X134979Y322942D01*
X134979Y322942D01*
X128577Y316539D01*
X66178D01*
X65917Y316714D01*
X65000Y316896D01*
X64083Y316714D01*
X63306Y316194D01*
X62786Y315417D01*
X62604Y314500D01*
X62786Y313583D01*
X63306Y312806D01*
X64083Y312286D01*
X65000Y312104D01*
X65917Y312286D01*
X66178Y312461D01*
X129421D01*
X130202Y312616D01*
X130863Y313058D01*
X137266Y319461D01*
X143322D01*
X143583Y319286D01*
X144500Y319104D01*
X145417Y319286D01*
X146194Y319806D01*
X146714Y320583D01*
X146896Y321500D01*
X146714Y322417D01*
X146194Y323194D01*
X145417Y323714D01*
X144500Y323896D01*
D02*
G37*
G36*
X91000Y284396D02*
X90083Y284214D01*
X89822Y284039D01*
X66178D01*
X65917Y284214D01*
X65000Y284396D01*
X64083Y284214D01*
X63306Y283694D01*
X62786Y282917D01*
X62604Y282000D01*
X62786Y281083D01*
X63306Y280306D01*
X64083Y279786D01*
X65000Y279604D01*
X65917Y279786D01*
X66178Y279961D01*
X89822D01*
X90083Y279786D01*
X91000Y279604D01*
X91917Y279786D01*
X92694Y280306D01*
X93214Y281083D01*
X93396Y282000D01*
X93214Y282917D01*
X92694Y283694D01*
X91917Y284214D01*
X91000Y284396D01*
D02*
G37*
G36*
X172681Y377215D02*
X171764Y377032D01*
X170987Y376513D01*
X170467Y375736D01*
X170285Y374819D01*
X170467Y373902D01*
X170987Y373125D01*
X171764Y372605D01*
X172681Y372423D01*
X173598Y372605D01*
X174375Y373125D01*
X174486Y373289D01*
X175048D01*
X180971Y367367D01*
Y312134D01*
X168919Y300081D01*
X168587Y299585D01*
X168471Y299000D01*
X168587Y298415D01*
X168671Y298290D01*
Y284104D01*
X168506Y283994D01*
X167986Y283217D01*
X167804Y282300D01*
X167986Y281383D01*
X168506Y280606D01*
X169283Y280086D01*
X170200Y279904D01*
X171117Y280086D01*
X171894Y280606D01*
X172414Y281383D01*
X172596Y282300D01*
X172414Y283217D01*
X171894Y283994D01*
X171729Y284104D01*
Y298567D01*
X183581Y310419D01*
X183913Y310915D01*
X184029Y311500D01*
Y368000D01*
X183913Y368585D01*
X183581Y369081D01*
X176762Y375900D01*
X176266Y376232D01*
X175681Y376348D01*
X174486D01*
X174375Y376513D01*
X173598Y377032D01*
X172681Y377215D01*
D02*
G37*
G36*
X118131Y284020D02*
X118069Y284020D01*
X117646Y284020D01*
X112132D01*
Y278279D01*
X118069D01*
Y278279D01*
X118131Y278279D01*
Y278280D01*
X124068D01*
Y278624D01*
X124568Y278909D01*
X125350Y278754D01*
X126267Y278936D01*
X127045Y279455D01*
X127564Y280233D01*
X127746Y281150D01*
X127564Y282067D01*
X127045Y282844D01*
X126267Y283363D01*
X125350Y283546D01*
X124568Y283390D01*
X124068Y283675D01*
Y284020D01*
X118554D01*
X118131Y284020D01*
Y284020D01*
D02*
G37*
G36*
X136700Y314672D02*
X135783Y314490D01*
X135006Y313971D01*
X134486Y313193D01*
X134304Y312276D01*
X134486Y311360D01*
X135006Y310582D01*
X135317Y310374D01*
X135317Y248713D01*
X134817Y248446D01*
X134417Y248714D01*
X133500Y248896D01*
X132583Y248714D01*
X131806Y248194D01*
X131286Y247417D01*
X131104Y246500D01*
X131286Y245583D01*
X131806Y244806D01*
X131971Y244696D01*
Y242634D01*
X130194Y240857D01*
X130000Y240896D01*
X129083Y240714D01*
X128306Y240194D01*
X127786Y239417D01*
X127604Y238500D01*
X127786Y237583D01*
X128306Y236806D01*
X129083Y236286D01*
X130000Y236104D01*
X130917Y236286D01*
X131694Y236806D01*
X132214Y237583D01*
X132396Y238500D01*
X132357Y238695D01*
X134581Y240919D01*
X134817Y241271D01*
X135317Y241120D01*
Y193246D01*
Y189780D01*
X105766Y160229D01*
X84482D01*
X83897Y160113D01*
X83400Y159781D01*
X66414Y142795D01*
X65926Y142997D01*
X64882Y143134D01*
X63838Y142997D01*
X62865Y142594D01*
X62029Y141953D01*
X61388Y141117D01*
X60985Y140144D01*
X60847Y139100D01*
X60985Y138056D01*
X61388Y137083D01*
X62029Y136247D01*
X62865Y135606D01*
X63838Y135203D01*
X64882Y135065D01*
X65926Y135203D01*
X66899Y135606D01*
X67735Y136247D01*
X68376Y137083D01*
X68779Y138056D01*
X68916Y139100D01*
X68779Y140144D01*
X68577Y140632D01*
X85115Y157171D01*
X106400D01*
X106985Y157287D01*
X107481Y157619D01*
X137928Y188065D01*
X138259Y188561D01*
X138376Y189146D01*
Y193246D01*
X138376Y308589D01*
X138876Y308838D01*
X138971Y308766D01*
Y187533D01*
X100366Y148929D01*
X83064D01*
X82478Y148813D01*
X81982Y148481D01*
X76296Y142795D01*
X75808Y142997D01*
X74764Y143134D01*
X73720Y142997D01*
X72746Y142594D01*
X71911Y141953D01*
X71270Y141117D01*
X70867Y140144D01*
X70729Y139100D01*
X70867Y138056D01*
X71270Y137083D01*
X71911Y136247D01*
X72746Y135606D01*
X73720Y135203D01*
X74764Y135065D01*
X75808Y135203D01*
X76781Y135606D01*
X77617Y136247D01*
X78258Y137083D01*
X78661Y138056D01*
X78798Y139100D01*
X78661Y140144D01*
X78459Y140632D01*
X83697Y145871D01*
X101000D01*
X101585Y145987D01*
X102081Y146319D01*
X141471Y185708D01*
X141908Y185571D01*
X141971Y185523D01*
Y178975D01*
X105846Y142851D01*
X105493Y142997D01*
X104449Y143134D01*
X103405Y142997D01*
X102432Y142594D01*
X101596Y141953D01*
X100955Y141117D01*
X100552Y140144D01*
X100414Y139100D01*
X100552Y138056D01*
X100955Y137083D01*
X101596Y136247D01*
X102432Y135606D01*
X103405Y135203D01*
X104449Y135065D01*
X105493Y135203D01*
X106466Y135606D01*
X107302Y136247D01*
X107943Y137083D01*
X108346Y138056D01*
X108483Y139100D01*
X108346Y140144D01*
X108088Y140767D01*
X131515Y164194D01*
X131977Y164003D01*
Y151440D01*
X111267Y130729D01*
X65534D01*
X58695Y137568D01*
X58897Y138056D01*
X59035Y139100D01*
X58897Y140144D01*
X58494Y141117D01*
X57853Y141953D01*
X57017Y142594D01*
X56044Y142997D01*
X55000Y143134D01*
X53956Y142997D01*
X52983Y142594D01*
X52147Y141953D01*
X51506Y141117D01*
X51103Y140144D01*
X50965Y139100D01*
X51103Y138056D01*
X51506Y137083D01*
X52147Y136247D01*
X52983Y135606D01*
X53956Y135203D01*
X55000Y135065D01*
X56044Y135203D01*
X56532Y135405D01*
X63819Y128119D01*
X64315Y127787D01*
X64900Y127671D01*
X111900D01*
X112485Y127787D01*
X112981Y128119D01*
X132909Y148046D01*
X133371Y147854D01*
Y139934D01*
X115767Y122329D01*
X80800D01*
X80215Y122213D01*
X79719Y121881D01*
X76119Y118281D01*
X75787Y117785D01*
X75671Y117200D01*
Y60200D01*
X75787Y59615D01*
X76119Y59119D01*
X89319Y45919D01*
X89815Y45587D01*
X90400Y45471D01*
X139267D01*
X142319Y42419D01*
X142815Y42087D01*
X143400Y41971D01*
X169396D01*
X169506Y41806D01*
X170283Y41286D01*
X171200Y41104D01*
X172117Y41286D01*
X172894Y41806D01*
X173414Y42583D01*
X173596Y43500D01*
X173414Y44417D01*
X172894Y45194D01*
X172117Y45714D01*
X171200Y45896D01*
X170283Y45714D01*
X169506Y45194D01*
X169396Y45029D01*
X144034D01*
X140981Y48081D01*
X140485Y48413D01*
X139900Y48529D01*
X91034D01*
X78729Y60834D01*
Y116567D01*
X81433Y119271D01*
X116400D01*
X116985Y119387D01*
X117481Y119719D01*
X135981Y138219D01*
X136313Y138715D01*
X136429Y139300D01*
Y165166D01*
X149839Y178576D01*
X150200Y178504D01*
X151117Y178686D01*
X151894Y179206D01*
X152414Y179983D01*
X152596Y180900D01*
X152414Y181817D01*
X151894Y182594D01*
X151117Y183114D01*
X150200Y183296D01*
X149283Y183114D01*
X148506Y182594D01*
X147986Y181817D01*
X147804Y180900D01*
X147810Y180872D01*
X146885Y179948D01*
X146423Y180139D01*
Y218260D01*
X176910Y248747D01*
X177553Y248683D01*
X177806Y248306D01*
X177971Y248196D01*
Y241804D01*
X177806Y241694D01*
X177286Y240917D01*
X177104Y240000D01*
X177286Y239083D01*
X177806Y238306D01*
X178583Y237786D01*
X179500Y237604D01*
X180417Y237786D01*
X181194Y238306D01*
X181714Y239083D01*
X181896Y240000D01*
X181714Y240917D01*
X181194Y241694D01*
X181029Y241804D01*
Y248196D01*
X181194Y248306D01*
X181714Y249083D01*
X181896Y250000D01*
X181714Y250917D01*
X181194Y251694D01*
X180817Y251947D01*
X180753Y252590D01*
X188081Y259919D01*
X188413Y260415D01*
X188529Y261000D01*
Y282035D01*
X188777Y282116D01*
X189029Y282119D01*
X189506Y281406D01*
X190283Y280886D01*
X191200Y280704D01*
X192117Y280886D01*
X192894Y281406D01*
X193004Y281571D01*
X198196D01*
X198306Y281406D01*
X199083Y280886D01*
X200000Y280704D01*
X200917Y280886D01*
X201471Y281256D01*
X201971Y280989D01*
Y231134D01*
X188866Y218029D01*
X183145D01*
X182953Y218493D01*
X182319Y219319D01*
X181493Y219953D01*
X181019Y220149D01*
X180902Y220739D01*
X200081Y239919D01*
X200413Y240415D01*
X200529Y241000D01*
Y259000D01*
X200413Y259585D01*
X200081Y260081D01*
X193830Y266333D01*
X193714Y266917D01*
X193194Y267694D01*
X192417Y268214D01*
X191500Y268396D01*
X190583Y268214D01*
X189806Y267694D01*
X189286Y266917D01*
X189104Y266000D01*
X189286Y265083D01*
X189806Y264306D01*
X190583Y263786D01*
X191500Y263604D01*
X192112Y263726D01*
X197471Y258366D01*
Y241634D01*
X178867Y223029D01*
X175654D01*
X175068Y222913D01*
X174572Y222581D01*
X174241Y222085D01*
X174124Y221500D01*
Y210347D01*
X174241Y209761D01*
X174572Y209265D01*
X175841Y207996D01*
X175649Y207532D01*
X175513Y206500D01*
X175649Y205468D01*
X176047Y204507D01*
X176681Y203681D01*
X177507Y203047D01*
X178468Y202649D01*
X179500Y202513D01*
X180532Y202649D01*
X181493Y203047D01*
X182319Y203681D01*
X182953Y204507D01*
X183351Y205468D01*
X183487Y206500D01*
X183351Y207532D01*
X182953Y208493D01*
X182319Y209319D01*
X181493Y209953D01*
X180532Y210351D01*
X179500Y210487D01*
X178468Y210351D01*
X178004Y210159D01*
X177183Y210980D01*
Y212718D01*
X177683Y212974D01*
X178468Y212649D01*
X179500Y212513D01*
X180532Y212649D01*
X181493Y213047D01*
X182319Y213681D01*
X182953Y214507D01*
X183145Y214971D01*
X189500D01*
X190085Y215087D01*
X190581Y215419D01*
X204581Y229419D01*
X204913Y229915D01*
X205029Y230500D01*
Y297000D01*
X204913Y297585D01*
X204581Y298081D01*
X202581Y300081D01*
X202085Y300413D01*
X201500Y300529D01*
X177693D01*
X177417Y300714D01*
X176500Y300896D01*
X175583Y300714D01*
X174806Y300194D01*
X174286Y299417D01*
X174104Y298500D01*
X174286Y297583D01*
X174806Y296806D01*
X175583Y296286D01*
X176500Y296104D01*
X177417Y296286D01*
X178194Y296806D01*
X178639Y297471D01*
X200867D01*
X201971Y296367D01*
Y285211D01*
X201471Y284944D01*
X200917Y285314D01*
X200000Y285496D01*
X199083Y285314D01*
X198306Y284794D01*
X198196Y284629D01*
X193004D01*
X192894Y284794D01*
X192117Y285314D01*
X191200Y285496D01*
X190283Y285314D01*
X189506Y284794D01*
X188986Y284017D01*
X188912Y283641D01*
X188507Y283596D01*
X188396Y283611D01*
X188081Y284081D01*
X180357Y291806D01*
X180396Y292000D01*
X180214Y292917D01*
X179694Y293694D01*
X178917Y294214D01*
X178000Y294396D01*
X177083Y294214D01*
X176306Y293694D01*
X175786Y292917D01*
X175604Y292000D01*
X175786Y291083D01*
X176306Y290306D01*
X176598Y290111D01*
X176656Y289470D01*
X176286Y288917D01*
X176104Y288000D01*
X176286Y287083D01*
X176806Y286306D01*
X177583Y285786D01*
X178500Y285604D01*
X178694Y285643D01*
X182971Y281366D01*
Y278213D01*
X182471Y277802D01*
X182000Y277896D01*
X181083Y277714D01*
X180306Y277194D01*
X179786Y276417D01*
X179604Y275500D01*
X179375Y275220D01*
X174732D01*
Y275220D01*
X174669D01*
Y275220D01*
X168731D01*
Y275025D01*
X168345Y274708D01*
X168150Y274746D01*
X167233Y274564D01*
X166455Y274045D01*
X165936Y273267D01*
X165754Y272350D01*
X165936Y271433D01*
X166455Y270656D01*
X167233Y270137D01*
X168150Y269954D01*
X168345Y269993D01*
X168731Y269676D01*
Y269480D01*
X174669D01*
Y269480D01*
X174732D01*
Y269480D01*
X180471D01*
Y266634D01*
X158761Y244924D01*
X158283Y245069D01*
X158214Y245417D01*
X157694Y246194D01*
X156917Y246714D01*
X156029Y246890D01*
Y252196D01*
X156194Y252306D01*
X156714Y253083D01*
X156896Y254000D01*
X156714Y254917D01*
X156194Y255694D01*
X155417Y256214D01*
X154500Y256396D01*
X153583Y256214D01*
X152806Y255694D01*
X152286Y254917D01*
X152104Y254000D01*
X152286Y253083D01*
X152806Y252306D01*
X152971Y252196D01*
Y246000D01*
X153087Y245415D01*
X153419Y244919D01*
X153643Y244694D01*
X153604Y244500D01*
X153786Y243583D01*
X154306Y242806D01*
X154598Y242611D01*
X154692Y242023D01*
X154286Y241417D01*
X154104Y240500D01*
X154286Y239583D01*
X154806Y238806D01*
X155583Y238286D01*
X156500Y238104D01*
X157417Y238286D01*
X158194Y238806D01*
X158714Y239583D01*
X158896Y240500D01*
X158857Y240694D01*
X182167Y264004D01*
X182471Y264064D01*
X182971Y263789D01*
Y262134D01*
X142529Y221692D01*
X142092Y221829D01*
X142029Y221877D01*
Y309196D01*
X142194Y309306D01*
X142714Y310083D01*
X142896Y311000D01*
X142714Y311917D01*
X142194Y312694D01*
X141417Y313214D01*
X140500Y313396D01*
X139583Y313214D01*
X139402Y313093D01*
X138833Y313314D01*
X138394Y313971D01*
X137617Y314490D01*
X136700Y314672D01*
D02*
G37*
G36*
X169500Y220083D02*
X168573Y219961D01*
X167708Y219603D01*
X167446Y219402D01*
X169500Y217349D01*
X171554Y219402D01*
X171292Y219603D01*
X170427Y219961D01*
X169500Y220083D01*
D02*
G37*
G36*
X166598Y218554D02*
X166397Y218292D01*
X166039Y217427D01*
X165917Y216500D01*
X166039Y215573D01*
X166397Y214708D01*
X166598Y214446D01*
X168651Y216500D01*
X166598Y218554D01*
D02*
G37*
G36*
X172402Y218554D02*
X170349Y216500D01*
X172402Y214446D01*
X172603Y214708D01*
X172961Y215573D01*
X173083Y216500D01*
X172961Y217427D01*
X172603Y218292D01*
X172402Y218554D01*
D02*
G37*
G36*
X169500Y215651D02*
X167446Y213598D01*
X167708Y213397D01*
X168573Y213039D01*
X169500Y212917D01*
X170427Y213039D01*
X171292Y213397D01*
X171554Y213598D01*
X169500Y215651D01*
D02*
G37*
G36*
Y210487D02*
X168468Y210351D01*
X167507Y209953D01*
X166681Y209319D01*
X166047Y208493D01*
X165649Y207532D01*
X165513Y206500D01*
X165649Y205468D01*
X166047Y204507D01*
X166681Y203681D01*
X167507Y203047D01*
X168468Y202649D01*
X169500Y202513D01*
X170532Y202649D01*
X171493Y203047D01*
X172319Y203681D01*
X172953Y204507D01*
X173351Y205468D01*
X173487Y206500D01*
X173351Y207532D01*
X172953Y208493D01*
X172319Y209319D01*
X171493Y209953D01*
X170532Y210351D01*
X169500Y210487D01*
D02*
G37*
G36*
X183453Y200453D02*
X175547D01*
Y192547D01*
X183453D01*
Y200453D01*
D02*
G37*
G36*
X169500Y200487D02*
X168468Y200351D01*
X167507Y199953D01*
X166681Y199319D01*
X166047Y198493D01*
X165649Y197532D01*
X165513Y196500D01*
X165649Y195468D01*
X166047Y194507D01*
X166681Y193681D01*
X167507Y193047D01*
X168468Y192649D01*
X169500Y192513D01*
X170532Y192649D01*
X171493Y193047D01*
X172319Y193681D01*
X172953Y194507D01*
X173351Y195468D01*
X173487Y196500D01*
X173351Y197532D01*
X172953Y198493D01*
X172319Y199319D01*
X171493Y199953D01*
X170532Y200351D01*
X169500Y200487D01*
D02*
G37*
G36*
X112000Y173896D02*
X111083Y173714D01*
X110822Y173539D01*
X92678D01*
X92417Y173714D01*
X91500Y173896D01*
X90583Y173714D01*
X89806Y173194D01*
X89286Y172417D01*
X89104Y171500D01*
X89286Y170583D01*
X89806Y169806D01*
X90583Y169286D01*
X91500Y169104D01*
X92417Y169286D01*
X92678Y169461D01*
X110822D01*
X111083Y169286D01*
X112000Y169104D01*
X112917Y169286D01*
X113694Y169806D01*
X114214Y170583D01*
X114396Y171500D01*
X114214Y172417D01*
X113694Y173194D01*
X112917Y173714D01*
X112000Y173896D01*
D02*
G37*
G36*
X84685Y142731D02*
X83745Y142607D01*
X82869Y142245D01*
X82598Y142036D01*
X84685Y139948D01*
X86773Y142036D01*
X86501Y142245D01*
X85625Y142607D01*
X84685Y142731D01*
D02*
G37*
G36*
X81749Y141187D02*
X81540Y140916D01*
X81178Y140040D01*
X81054Y139100D01*
X81178Y138160D01*
X81540Y137285D01*
X81749Y137013D01*
X83837Y139100D01*
X81749Y141187D01*
D02*
G37*
G36*
X87621D02*
X85534Y139100D01*
X87621Y137013D01*
X87830Y137285D01*
X88192Y138160D01*
X88316Y139100D01*
X88192Y140040D01*
X87830Y140916D01*
X87621Y141187D01*
D02*
G37*
G36*
X84685Y138251D02*
X82598Y136164D01*
X82869Y135955D01*
X83745Y135593D01*
X84685Y135469D01*
X85625Y135593D01*
X86501Y135955D01*
X86773Y136164D01*
X84685Y138251D01*
D02*
G37*
G36*
X94567Y143134D02*
X93523Y142997D01*
X92550Y142594D01*
X91714Y141953D01*
X91073Y141117D01*
X90670Y140144D01*
X90532Y139100D01*
X90670Y138056D01*
X91073Y137083D01*
X91714Y136247D01*
X92550Y135606D01*
X93523Y135203D01*
X94567Y135065D01*
X95611Y135203D01*
X96584Y135606D01*
X97420Y136247D01*
X98061Y137083D01*
X98464Y138056D01*
X98601Y139100D01*
X98464Y140144D01*
X98061Y141117D01*
X97420Y141953D01*
X96584Y142594D01*
X95611Y142997D01*
X94567Y143134D01*
D02*
G37*
G36*
X268500Y118329D02*
X266973Y118179D01*
X265504Y117733D01*
X264150Y117010D01*
X262964Y116036D01*
X261990Y114850D01*
X261267Y113496D01*
X260821Y112027D01*
X260671Y110500D01*
X260821Y108973D01*
X261267Y107504D01*
X261990Y106150D01*
X262964Y104964D01*
X264150Y103990D01*
X265504Y103267D01*
X266973Y102821D01*
X268500Y102671D01*
X270027Y102821D01*
X271496Y103267D01*
X272850Y103990D01*
X274036Y104964D01*
X275010Y106150D01*
X275733Y107504D01*
X276179Y108973D01*
X276329Y110500D01*
X276179Y112027D01*
X275733Y113496D01*
X275010Y114850D01*
X274036Y116036D01*
X272850Y117010D01*
X271496Y117733D01*
X270027Y118179D01*
X268500Y118329D01*
D02*
G37*
G36*
X157000Y219396D02*
X156083Y219214D01*
X155306Y218694D01*
X154786Y217917D01*
X154604Y217000D01*
X154786Y216083D01*
X155306Y215306D01*
X155471Y215196D01*
Y123634D01*
X134403Y102566D01*
X134071Y102069D01*
X133955Y101484D01*
Y89829D01*
X125971D01*
X125794Y90094D01*
X125017Y90614D01*
X124100Y90796D01*
X123183Y90614D01*
X122406Y90094D01*
X122296Y89929D01*
X118538D01*
X118294Y90294D01*
X117517Y90814D01*
X116600Y90996D01*
X115683Y90814D01*
X114906Y90294D01*
X114386Y89517D01*
X114204Y88600D01*
X114386Y87683D01*
X114906Y86906D01*
X115683Y86386D01*
X116600Y86204D01*
X117517Y86386D01*
X118242Y86871D01*
X122296D01*
X122406Y86706D01*
X123183Y86186D01*
X124100Y86004D01*
X125017Y86186D01*
X125794Y86706D01*
X125838Y86771D01*
X133955D01*
Y82572D01*
X133790Y82462D01*
X133271Y81685D01*
X133088Y80768D01*
X133271Y79851D01*
X133790Y79073D01*
X134567Y78554D01*
X135484Y78372D01*
X136401Y78554D01*
X137179Y79073D01*
X137474Y79516D01*
X137974Y79364D01*
Y76000D01*
Y69750D01*
Y66160D01*
X137874Y65400D01*
Y61100D01*
X137974Y60340D01*
Y57000D01*
X138077Y56217D01*
X138380Y55487D01*
X138860Y54860D01*
X141860Y51860D01*
X142487Y51380D01*
X143217Y51077D01*
X144000Y50974D01*
X191247D01*
X191703Y50518D01*
X192330Y50037D01*
X193059Y49735D01*
X193842Y49632D01*
X284500D01*
X285283Y49735D01*
X286013Y50037D01*
X286640Y50518D01*
X287121Y51144D01*
X287423Y51874D01*
X287526Y52658D01*
X287423Y53441D01*
X287121Y54170D01*
X286640Y54797D01*
X286013Y55278D01*
X285283Y55580D01*
X284500Y55683D01*
X195096D01*
X194640Y56140D01*
X194013Y56621D01*
X193283Y56923D01*
X192500Y57026D01*
X145253D01*
X144026Y58253D01*
Y61000D01*
X143926Y61760D01*
Y64740D01*
X144026Y65500D01*
Y69750D01*
Y76000D01*
Y82500D01*
X143923Y83283D01*
X143621Y84013D01*
X143140Y84640D01*
X142513Y85120D01*
X141783Y85423D01*
X141000Y85526D01*
X140217Y85423D01*
X139487Y85120D01*
X138860Y84640D01*
X138380Y84013D01*
X138077Y83283D01*
X137974Y82500D01*
Y82171D01*
X137474Y82020D01*
X137179Y82462D01*
X137014Y82572D01*
Y87417D01*
Y100851D01*
X158081Y121919D01*
X158413Y122415D01*
X158529Y123000D01*
Y215196D01*
X158694Y215306D01*
X159214Y216083D01*
X159396Y217000D01*
X159214Y217917D01*
X158694Y218694D01*
X157917Y219214D01*
X157000Y219396D01*
D02*
G37*
G36*
X156400Y73380D02*
X155483Y73198D01*
X154706Y72679D01*
X154694Y72661D01*
X154017Y73114D01*
X153100Y73296D01*
X152183Y73114D01*
X151406Y72594D01*
X150886Y71817D01*
X150704Y70900D01*
X150886Y69983D01*
X151406Y69206D01*
X152183Y68686D01*
X153100Y68504D01*
X154017Y68686D01*
X154794Y69206D01*
X154806Y69223D01*
X155483Y68771D01*
X156400Y68588D01*
X157317Y68771D01*
X158094Y69290D01*
X158204Y69455D01*
X166430D01*
X166822Y68992D01*
X166804Y68900D01*
X166986Y67983D01*
X167506Y67206D01*
X167565Y67166D01*
Y66666D01*
X167473Y66605D01*
X166954Y65828D01*
X166894Y65529D01*
X158404D01*
X158294Y65694D01*
X157517Y66214D01*
X156600Y66396D01*
X155683Y66214D01*
X155150Y65857D01*
X154617Y66214D01*
X153700Y66396D01*
X152783Y66214D01*
X152006Y65694D01*
X151486Y64917D01*
X151304Y64000D01*
X151486Y63083D01*
X152006Y62306D01*
X152783Y61786D01*
X153700Y61604D01*
X154617Y61786D01*
X155150Y62142D01*
X155683Y61786D01*
X156600Y61604D01*
X157517Y61786D01*
X158294Y62306D01*
X158404Y62471D01*
X168350D01*
X168871Y62574D01*
X169167Y62515D01*
X170084Y62697D01*
X170862Y63217D01*
X171381Y63994D01*
X171564Y64911D01*
X171381Y65828D01*
X170862Y66605D01*
X170803Y66645D01*
Y67145D01*
X170894Y67206D01*
X171414Y67983D01*
X171596Y68900D01*
X171414Y69817D01*
X170894Y70594D01*
X170117Y71114D01*
X169221Y71292D01*
X168432Y72081D01*
X167936Y72413D01*
X167350Y72529D01*
X167271Y72514D01*
X158204D01*
X158094Y72679D01*
X157317Y73198D01*
X156400Y73380D01*
D02*
G37*
G36*
X242087Y24825D02*
X241171Y24642D01*
X240393Y24123D01*
X240264Y23929D01*
X237904D01*
X237794Y24094D01*
X237017Y24614D01*
X236100Y24796D01*
X235183Y24614D01*
X234406Y24094D01*
X233886Y23317D01*
X233704Y22400D01*
X233886Y21483D01*
X234406Y20706D01*
X235183Y20186D01*
X236100Y20004D01*
X237017Y20186D01*
X237794Y20706D01*
X237904Y20871D01*
X240302D01*
X240393Y20734D01*
X241171Y20215D01*
X242087Y20033D01*
X243004Y20215D01*
X243782Y20734D01*
X244301Y21512D01*
X244483Y22429D01*
X244301Y23346D01*
X243782Y24123D01*
X243004Y24642D01*
X242087Y24825D01*
D02*
G37*
G36*
X252500Y25024D02*
X251611Y24847D01*
X250857Y24343D01*
X250353Y23589D01*
X250176Y22700D01*
X250353Y21811D01*
X250857Y21057D01*
X251611Y20553D01*
X252500Y20376D01*
X253389Y20553D01*
X254143Y21057D01*
X254647Y21811D01*
X254824Y22700D01*
X254647Y23589D01*
X254143Y24343D01*
X253389Y24847D01*
X252500Y25024D01*
D02*
G37*
G36*
X229745D02*
X228855Y24847D01*
X228101Y24343D01*
X227598Y23589D01*
X227421Y22700D01*
X227598Y21811D01*
X228101Y21057D01*
X228855Y20553D01*
X229745Y20376D01*
X230634Y20553D01*
X231388Y21057D01*
X231892Y21811D01*
X232069Y22700D01*
X231892Y23589D01*
X231388Y24343D01*
X230634Y24847D01*
X229745Y25024D01*
D02*
G37*
G36*
X292406Y31645D02*
X290115Y31465D01*
X287881Y30928D01*
X285757Y30049D01*
X283798Y28848D01*
X282508Y27747D01*
X292406Y17849D01*
X302304Y27747D01*
X301014Y28848D01*
X299055Y30049D01*
X296932Y30928D01*
X294697Y31465D01*
X292406Y31645D01*
D02*
G37*
G36*
X49000D02*
X46709Y31465D01*
X44474Y30928D01*
X42351Y30049D01*
X40392Y28848D01*
X39102Y27747D01*
X49000Y17849D01*
X58898Y27747D01*
X57608Y28848D01*
X55649Y30049D01*
X53526Y30928D01*
X51291Y31465D01*
X49000Y31645D01*
D02*
G37*
G36*
X188600Y46696D02*
X187683Y46514D01*
X186906Y45994D01*
X186386Y45217D01*
X186204Y44300D01*
X186386Y43383D01*
X186906Y42606D01*
X187071Y42496D01*
Y36733D01*
X169372Y19035D01*
X169041Y18539D01*
X168924Y17954D01*
Y17768D01*
X167879D01*
Y16329D01*
X167221D01*
Y17741D01*
X162859D01*
Y11804D01*
X167221D01*
Y13271D01*
X167879D01*
Y11831D01*
X173028D01*
Y17768D01*
X173028D01*
X172854Y18191D01*
X189681Y35019D01*
X190013Y35515D01*
X190129Y36100D01*
Y42496D01*
X190294Y42606D01*
X190814Y43383D01*
X190996Y44300D01*
X190814Y45217D01*
X190294Y45994D01*
X189517Y46514D01*
X188600Y46696D01*
D02*
G37*
G36*
X159741Y17741D02*
X155379D01*
Y17123D01*
X154938Y16887D01*
X154789Y16986D01*
X153872Y17168D01*
X152955Y16986D01*
X152178Y16467D01*
X151659Y15689D01*
X151476Y14772D01*
X151659Y13856D01*
X152178Y13078D01*
X152955Y12559D01*
X153872Y12376D01*
X154789Y12559D01*
X154938Y12658D01*
X155379Y12422D01*
Y11804D01*
X159741D01*
Y17741D01*
D02*
G37*
G36*
X115500Y30996D02*
X114583Y30814D01*
X113806Y30294D01*
X113286Y29517D01*
X113136Y28759D01*
X111538Y27162D01*
X111152Y26583D01*
X111016Y25900D01*
Y15660D01*
X110586Y15017D01*
X110404Y14100D01*
X110586Y13183D01*
X111106Y12406D01*
X111883Y11886D01*
X112800Y11704D01*
X113717Y11886D01*
X114494Y12406D01*
X115014Y13183D01*
X115196Y14100D01*
X115014Y15017D01*
X114584Y15660D01*
Y25161D01*
X115659Y26236D01*
X116417Y26386D01*
X117194Y26906D01*
X117714Y27683D01*
X117896Y28600D01*
X117714Y29517D01*
X117194Y30294D01*
X116417Y30814D01*
X115500Y30996D01*
D02*
G37*
G36*
X303153Y26898D02*
X293255Y17000D01*
X303153Y7102D01*
X304254Y8392D01*
X305455Y10351D01*
X306335Y12474D01*
X306871Y14709D01*
X307051Y17000D01*
X306871Y19291D01*
X306335Y21526D01*
X305455Y23649D01*
X304254Y25608D01*
X303153Y26898D01*
D02*
G37*
G36*
X59747D02*
X49848Y17000D01*
X59747Y7102D01*
X60848Y8392D01*
X62049Y10351D01*
X62928Y12474D01*
X63465Y14709D01*
X63645Y17000D01*
X63465Y19291D01*
X62928Y21526D01*
X62049Y23649D01*
X60848Y25608D01*
X59747Y26898D01*
D02*
G37*
G36*
X281660Y26898D02*
X280558Y25608D01*
X279357Y23649D01*
X278478Y21526D01*
X277941Y19291D01*
X277761Y17000D01*
X277941Y14709D01*
X278478Y12474D01*
X279357Y10351D01*
X280558Y8392D01*
X281660Y7102D01*
X291558Y17000D01*
X281660Y26898D01*
D02*
G37*
G36*
X38253D02*
X37152Y25608D01*
X35951Y23649D01*
X35072Y21526D01*
X34535Y19291D01*
X34355Y17000D01*
X34535Y14709D01*
X35072Y12474D01*
X35951Y10351D01*
X37152Y8392D01*
X38253Y7102D01*
X48151Y17000D01*
X38253Y26898D01*
D02*
G37*
G36*
X197200Y45196D02*
X196283Y45014D01*
X195506Y44494D01*
X194986Y43717D01*
X194804Y42800D01*
X194986Y41883D01*
X195161Y41622D01*
Y35698D01*
X177231Y17768D01*
X174572D01*
Y11831D01*
X174572D01*
X174748Y11332D01*
X173791Y10375D01*
X173483Y10314D01*
X172706Y9794D01*
X172186Y9017D01*
X172004Y8100D01*
X172186Y7183D01*
X172706Y6406D01*
X173483Y5886D01*
X174400Y5704D01*
X175317Y5886D01*
X176094Y6406D01*
X176614Y7183D01*
X176675Y7491D01*
X178588Y9404D01*
X179030Y10066D01*
X179186Y10847D01*
Y11831D01*
X179721D01*
Y14491D01*
X198642Y33412D01*
X199084Y34073D01*
X199239Y34854D01*
Y41622D01*
X199414Y41883D01*
X199596Y42800D01*
X199414Y43717D01*
X198894Y44494D01*
X198117Y45014D01*
X197200Y45196D01*
D02*
G37*
G36*
X292406Y16151D02*
X282508Y6254D01*
X283798Y5152D01*
X285757Y3951D01*
X287881Y3072D01*
X290115Y2535D01*
X292406Y2355D01*
X294697Y2535D01*
X296932Y3072D01*
X299055Y3951D01*
X301014Y5152D01*
X302304Y6254D01*
X292406Y16151D01*
D02*
G37*
G36*
X49000D02*
X39102Y6254D01*
X40392Y5152D01*
X42351Y3951D01*
X44474Y3072D01*
X46709Y2535D01*
X49000Y2355D01*
X51291Y2535D01*
X53526Y3072D01*
X55649Y3951D01*
X57608Y5152D01*
X58898Y6254D01*
X49000Y16151D01*
D02*
G37*
%LPD*%
D14*
X115802Y88300D02*
X116600D01*
X134601D02*
X135484Y87417D01*
X124200Y88300D02*
X134601D01*
X124100Y88400D02*
X124200Y88300D01*
X140500Y186900D02*
Y311000D01*
X115350Y281150D02*
X121100D01*
X115225Y281025D02*
X115350Y281150D01*
X171700Y272350D02*
X177000D01*
X168150D02*
X171700D01*
X121100Y281150D02*
X125350D01*
X203350Y392350D02*
X204323Y391378D01*
X211839D01*
X211861Y391400D01*
X218100D01*
X219500Y390000D01*
X64882Y139100D02*
X84482Y158700D01*
X106400D01*
X136846Y189146D01*
Y193246D01*
X74764Y139100D02*
X83064Y147400D01*
X101000D01*
X140500Y186900D01*
X104449Y139100D02*
Y139291D01*
X143500Y178342D01*
Y220500D01*
X55000Y139100D02*
X64900Y129200D01*
X111900D01*
X133506Y150806D01*
Y166377D01*
X144894Y177765D01*
X134900Y139300D02*
Y165800D01*
X149800Y180700D01*
X150000D01*
X77200Y60200D02*
X90400Y47000D01*
X77200Y60200D02*
Y117200D01*
X80800Y120800D01*
X116400D01*
X134900Y139300D01*
X202716Y421400D02*
X221600D01*
X224000Y419000D01*
X151700Y270400D02*
Y317200D01*
X157800Y316800D02*
X158200Y316400D01*
Y270000D02*
Y316400D01*
X236100Y22400D02*
X241400D01*
X241700Y22700D01*
X242029Y22429D02*
X242087D01*
X242000Y22400D02*
X242029Y22429D01*
X116700Y88400D02*
X124100D01*
X116600Y88300D02*
X116700Y88400D01*
X116600Y88300D02*
Y88600D01*
X136846Y310902D02*
Y312476D01*
Y310902D02*
X136846Y193246D01*
X169200Y68900D02*
Y68950D01*
X169300Y69050D01*
X167350Y71000D02*
X169300Y69050D01*
X168350Y64000D02*
X169167Y64817D01*
Y64911D01*
X156600Y64000D02*
X168350D01*
X153516D02*
X156600D01*
X153516D02*
X153700Y63816D01*
Y64000D01*
X153532Y70984D02*
X156400D01*
X153516Y71000D02*
X153532Y70984D01*
X156400D02*
X167335D01*
X167350Y71000D01*
X153500Y70984D02*
X153516Y71000D01*
X241700Y22700D02*
X242000Y22400D01*
X150000Y180700D02*
X150200Y180900D01*
X154900Y268900D02*
Y317900D01*
X172000Y335000D01*
X157800Y316800D02*
X174294Y333294D01*
X151700Y317200D02*
X169000Y334500D01*
X170200Y282300D02*
Y298800D01*
X170000Y299000D02*
X170200Y298800D01*
X191200Y283100D02*
X200000D01*
X90400Y47000D02*
X139900D01*
X143400Y43500D01*
X171200D01*
X153872Y14772D02*
X157560D01*
X165040Y14773D02*
X165068Y14800D01*
X170454D01*
Y17954D01*
X188600Y36100D01*
Y44300D01*
X175654Y221500D02*
X179500D01*
X175654Y210347D02*
Y221500D01*
Y210347D02*
X179500Y206500D01*
Y221500D02*
X199000Y241000D01*
X179500Y216500D02*
X189500D01*
X203500Y230500D01*
X179500Y240000D02*
Y250000D01*
X154500Y246000D02*
Y254000D01*
Y246000D02*
X156000Y244500D01*
X191500Y266000D02*
X192000D01*
X199000Y259000D01*
Y241000D02*
Y259000D01*
X176500Y298500D02*
X177000Y299000D01*
X201500D01*
X178000Y292000D02*
X187000Y283000D01*
X170000Y299000D02*
X182500Y311500D01*
X178500Y288000D02*
X184500Y282000D01*
X187000Y261000D02*
Y283000D01*
X172681Y374819D02*
X175681D01*
X201500Y299000D02*
X203500Y297000D01*
X143500Y220500D02*
X184500Y261500D01*
Y282000D01*
X156500Y240500D02*
X182000Y266000D01*
X203500Y230500D02*
Y297000D01*
X135484Y80768D02*
Y87417D01*
Y101484D01*
X157000Y123000D01*
Y217000D01*
X182000Y265500D02*
Y266000D01*
Y275500D01*
X144894Y218894D02*
X187000Y261000D01*
X144894Y177765D02*
Y218894D01*
X133500Y242000D02*
Y246500D01*
X130000Y238500D02*
X133500Y242000D01*
X182500Y311500D02*
Y368000D01*
X175681Y374819D02*
X182500Y368000D01*
X173894Y366606D02*
X174294Y366206D01*
X172000Y335000D02*
Y358500D01*
X169000Y334500D02*
Y347500D01*
X174294Y333294D02*
Y366206D01*
X28500Y-500D02*
Y448500D01*
Y-500D02*
X28800D01*
X311500D01*
X311500Y448500D02*
X311500Y-500D01*
X28500Y448500D02*
X311500D01*
D43*
X209500Y387154D02*
D03*
Y393847D02*
D03*
D45*
X101000Y434642D02*
D03*
X81000D02*
D03*
D59*
X121100Y274850D02*
D03*
X121100Y281150D02*
D03*
X177700Y278650D02*
D03*
Y272350D02*
D03*
X115100Y274850D02*
D03*
Y281150D02*
D03*
X171700Y278650D02*
D03*
Y272350D02*
D03*
D66*
X177146Y14800D02*
D03*
X170454Y14800D02*
D03*
D114*
X229745Y22700D02*
D03*
X252500D02*
D03*
D120*
X273000Y52658D02*
X281000D01*
X193842D02*
X269000D01*
X141000Y65500D02*
Y69750D01*
X140900Y65400D02*
X141000Y65500D01*
X140900Y61100D02*
Y65400D01*
Y61100D02*
X141000Y61000D01*
X181500Y54000D02*
X185000D01*
X192500D01*
X169000D02*
X172000D01*
X144000D02*
X169000D01*
X172000D02*
X175500D01*
X178500D02*
X181500D01*
X175500D02*
X178500D01*
X281000Y52658D02*
X284500D01*
X269000D02*
X273000D01*
X141000Y82000D02*
Y82500D01*
Y76000D02*
Y82000D01*
Y69750D02*
Y76000D01*
Y57000D02*
Y61000D01*
Y57000D02*
X144000Y54000D01*
X192500D02*
X193842Y52658D01*
D121*
X197200Y34854D02*
Y42800D01*
X177146Y14800D02*
X197200Y34854D01*
X177146Y10847D02*
Y14800D01*
X174400Y8100D02*
X177146Y10847D01*
X136421Y321500D02*
X144500D01*
X129421Y314500D02*
X136421Y321500D01*
X65000Y314500D02*
X129421D01*
X59106Y327394D02*
X81772D01*
X65000Y282000D02*
X91000D01*
X91500Y171500D02*
X112000D01*
X59000Y327500D02*
X59106Y327394D01*
D123*
X112800Y25900D02*
X115500Y28600D01*
X112800Y14100D02*
Y25900D01*
D130*
X292406Y17000D02*
D03*
X49000D02*
D03*
X292656Y428000D02*
D03*
X49000D02*
D03*
D131*
X283812Y22469D02*
D03*
X296000Y26531D02*
D03*
X301000Y22469D02*
D03*
X302562Y17000D02*
D03*
X301000Y11531D02*
D03*
X296000Y7469D02*
D03*
X288812D02*
D03*
X283812Y11531D02*
D03*
X282250Y17000D02*
D03*
X288812Y26531D02*
D03*
X40406Y22469D02*
D03*
X52594Y26531D02*
D03*
X57594Y22469D02*
D03*
X59156Y17000D02*
D03*
X57594Y11531D02*
D03*
X52594Y7469D02*
D03*
X45406D02*
D03*
X40406Y11531D02*
D03*
X38844Y17000D02*
D03*
X45406Y26531D02*
D03*
X284063Y433469D02*
D03*
X296250Y437531D02*
D03*
X301250Y433469D02*
D03*
X302813Y428000D02*
D03*
X301250Y422531D02*
D03*
X296250Y418469D02*
D03*
X289062D02*
D03*
X284063Y422531D02*
D03*
X282500Y428000D02*
D03*
X289062Y437531D02*
D03*
X40406Y433469D02*
D03*
X52594Y437531D02*
D03*
X57594Y433469D02*
D03*
X59156Y428000D02*
D03*
X57594Y422531D02*
D03*
X52594Y418469D02*
D03*
X45406D02*
D03*
X40406Y422531D02*
D03*
X38844Y428000D02*
D03*
X45406Y437531D02*
D03*
D132*
X179500Y196500D02*
D03*
D133*
X169500D02*
D03*
X179500Y206500D02*
D03*
X169500D02*
D03*
X179500Y216500D02*
D03*
X169500D02*
D03*
D134*
X104449Y139100D02*
D03*
X94567D02*
D03*
X84685D02*
D03*
X64882D02*
D03*
X74764D02*
D03*
X55000D02*
D03*
D135*
X205508Y327823D02*
D03*
X268500Y110500D02*
D03*
D136*
X268500Y360185D02*
D03*
D137*
X298500Y409000D02*
D03*
X291000Y394000D02*
D03*
X298500Y379000D02*
D03*
X291000Y364000D02*
D03*
X298500Y349000D02*
D03*
X291000Y334000D02*
D03*
X298500Y319000D02*
D03*
X291000Y304000D02*
D03*
X298500Y289000D02*
D03*
X291000Y274000D02*
D03*
X298500Y259000D02*
D03*
X291000Y244000D02*
D03*
X298500Y229000D02*
D03*
X291000Y214000D02*
D03*
X298500Y199000D02*
D03*
X291000Y184000D02*
D03*
X298500Y169000D02*
D03*
X291000Y154000D02*
D03*
X298500Y139000D02*
D03*
X291000Y124000D02*
D03*
X298500Y109000D02*
D03*
X291000Y94000D02*
D03*
X298500Y79000D02*
D03*
X291000Y34000D02*
D03*
X276000Y424000D02*
D03*
X283500Y409000D02*
D03*
X276000Y394000D02*
D03*
X283500Y379000D02*
D03*
X276000Y364000D02*
D03*
X283500Y349000D02*
D03*
X276000Y334000D02*
D03*
X283500Y319000D02*
D03*
X276000Y304000D02*
D03*
X283500Y289000D02*
D03*
X276000Y274000D02*
D03*
X283500Y259000D02*
D03*
X276000Y244000D02*
D03*
X283500Y229000D02*
D03*
X276000Y214000D02*
D03*
X283500Y199000D02*
D03*
X276000Y184000D02*
D03*
X283500Y169000D02*
D03*
X276000Y154000D02*
D03*
X283500Y139000D02*
D03*
X276000Y124000D02*
D03*
X283500Y109000D02*
D03*
X276000Y94000D02*
D03*
X283500Y79000D02*
D03*
X276000Y34000D02*
D03*
Y4000D02*
D03*
X268500Y439000D02*
D03*
X261000Y424000D02*
D03*
X268500Y409000D02*
D03*
X261000Y394000D02*
D03*
X268500Y379000D02*
D03*
X261000Y364000D02*
D03*
X268500Y349000D02*
D03*
X261000Y334000D02*
D03*
X268500Y319000D02*
D03*
X261000Y304000D02*
D03*
X268500Y289000D02*
D03*
X261000Y274000D02*
D03*
X268500Y259000D02*
D03*
X261000Y244000D02*
D03*
X268500Y229000D02*
D03*
X261000Y214000D02*
D03*
X268500Y199000D02*
D03*
X261000Y184000D02*
D03*
X268500Y169000D02*
D03*
X261000Y154000D02*
D03*
X268500Y139000D02*
D03*
X261000Y124000D02*
D03*
Y94000D02*
D03*
X268500Y79000D02*
D03*
X261000Y34000D02*
D03*
Y4000D02*
D03*
X253500Y439000D02*
D03*
Y409000D02*
D03*
Y349000D02*
D03*
X246000Y334000D02*
D03*
X253500Y319000D02*
D03*
X246000Y304000D02*
D03*
X253500Y289000D02*
D03*
X246000Y274000D02*
D03*
X253500Y259000D02*
D03*
X246000Y244000D02*
D03*
X253500Y229000D02*
D03*
X246000Y214000D02*
D03*
X253500Y199000D02*
D03*
X246000Y184000D02*
D03*
X253500Y169000D02*
D03*
X246000Y154000D02*
D03*
X253500Y139000D02*
D03*
X246000Y124000D02*
D03*
X253500Y109000D02*
D03*
X246000Y94000D02*
D03*
X253500Y79000D02*
D03*
X246000Y34000D02*
D03*
X253500Y19000D02*
D03*
X246000Y4000D02*
D03*
X231000Y334000D02*
D03*
Y304000D02*
D03*
Y274000D02*
D03*
Y244000D02*
D03*
Y214000D02*
D03*
Y184000D02*
D03*
Y154000D02*
D03*
Y124000D02*
D03*
Y94000D02*
D03*
Y4000D02*
D03*
X216000Y364000D02*
D03*
Y334000D02*
D03*
X223500Y319000D02*
D03*
X216000Y304000D02*
D03*
X223500Y289000D02*
D03*
X216000Y274000D02*
D03*
X223500Y259000D02*
D03*
X216000Y244000D02*
D03*
X223500Y229000D02*
D03*
X216000Y214000D02*
D03*
X223500Y199000D02*
D03*
X216000Y184000D02*
D03*
X223500Y169000D02*
D03*
X216000Y154000D02*
D03*
X223500Y139000D02*
D03*
X216000Y124000D02*
D03*
X223500Y109000D02*
D03*
X216000Y94000D02*
D03*
X223500Y79000D02*
D03*
X216000Y34000D02*
D03*
Y4000D02*
D03*
X208500Y439000D02*
D03*
X201000Y364000D02*
D03*
X208500Y319000D02*
D03*
X201000Y304000D02*
D03*
X208500Y289000D02*
D03*
Y259000D02*
D03*
Y229000D02*
D03*
Y199000D02*
D03*
X201000Y184000D02*
D03*
X208500Y169000D02*
D03*
X201000Y154000D02*
D03*
X208500Y139000D02*
D03*
X201000Y124000D02*
D03*
X208500Y109000D02*
D03*
X201000Y94000D02*
D03*
X208500Y79000D02*
D03*
X201000Y64000D02*
D03*
Y4000D02*
D03*
X193500Y439000D02*
D03*
X186000Y424000D02*
D03*
X193500Y409000D02*
D03*
X186000Y394000D02*
D03*
X193500Y379000D02*
D03*
X186000Y364000D02*
D03*
X193500Y349000D02*
D03*
X186000Y334000D02*
D03*
X193500Y319000D02*
D03*
X186000Y304000D02*
D03*
Y244000D02*
D03*
X193500Y229000D02*
D03*
Y199000D02*
D03*
Y169000D02*
D03*
X186000Y154000D02*
D03*
X193500Y139000D02*
D03*
X186000Y124000D02*
D03*
X193500Y109000D02*
D03*
X186000Y94000D02*
D03*
X193500Y79000D02*
D03*
X178500Y439000D02*
D03*
X171000Y424000D02*
D03*
X178500Y409000D02*
D03*
X171000Y394000D02*
D03*
Y184000D02*
D03*
X178500Y169000D02*
D03*
X171000Y154000D02*
D03*
X178500Y139000D02*
D03*
X171000Y124000D02*
D03*
X178500Y109000D02*
D03*
X163500Y439000D02*
D03*
X156000Y424000D02*
D03*
X163500Y409000D02*
D03*
Y379000D02*
D03*
Y169000D02*
D03*
Y139000D02*
D03*
Y109000D02*
D03*
X156000Y34000D02*
D03*
X148500Y439000D02*
D03*
X141000Y424000D02*
D03*
X148500Y409000D02*
D03*
X141000Y394000D02*
D03*
Y364000D02*
D03*
X148500Y349000D02*
D03*
X141000Y334000D02*
D03*
X148500Y289000D02*
D03*
Y169000D02*
D03*
X141000Y154000D02*
D03*
Y124000D02*
D03*
X148500Y109000D02*
D03*
X141000Y94000D02*
D03*
X148500Y19000D02*
D03*
X133500Y439000D02*
D03*
X126000Y424000D02*
D03*
X133500Y409000D02*
D03*
X126000Y394000D02*
D03*
X133500Y379000D02*
D03*
X126000Y364000D02*
D03*
Y334000D02*
D03*
Y304000D02*
D03*
X133500Y229000D02*
D03*
X126000Y214000D02*
D03*
Y184000D02*
D03*
Y124000D02*
D03*
X133500Y109000D02*
D03*
Y19000D02*
D03*
X118500Y439000D02*
D03*
X111000Y424000D02*
D03*
X118500Y409000D02*
D03*
Y379000D02*
D03*
X111000Y364000D02*
D03*
Y334000D02*
D03*
Y304000D02*
D03*
X118500Y259000D02*
D03*
Y229000D02*
D03*
X111000Y214000D02*
D03*
Y184000D02*
D03*
Y124000D02*
D03*
X118500Y109000D02*
D03*
X111000Y4000D02*
D03*
X96000Y334000D02*
D03*
X103500Y289000D02*
D03*
Y229000D02*
D03*
X96000Y184000D02*
D03*
Y124000D02*
D03*
X103500Y109000D02*
D03*
X96000Y94000D02*
D03*
Y34000D02*
D03*
X103500Y19000D02*
D03*
X96000Y4000D02*
D03*
X81000Y394000D02*
D03*
X88500Y349000D02*
D03*
Y319000D02*
D03*
X81000Y304000D02*
D03*
Y274000D02*
D03*
Y244000D02*
D03*
X88500Y229000D02*
D03*
X81000Y214000D02*
D03*
X88500Y199000D02*
D03*
X81000Y124000D02*
D03*
Y94000D02*
D03*
X88500Y79000D02*
D03*
X81000Y64000D02*
D03*
Y34000D02*
D03*
X88500Y19000D02*
D03*
X81000Y4000D02*
D03*
X73500Y439000D02*
D03*
X66000Y424000D02*
D03*
X73500Y409000D02*
D03*
X66000Y394000D02*
D03*
Y364000D02*
D03*
Y334000D02*
D03*
X73500Y229000D02*
D03*
X66000Y214000D02*
D03*
X73500Y199000D02*
D03*
X66000Y184000D02*
D03*
X73500Y169000D02*
D03*
X66000Y154000D02*
D03*
Y124000D02*
D03*
X73500Y109000D02*
D03*
X66000Y94000D02*
D03*
X73500Y79000D02*
D03*
X66000Y64000D02*
D03*
X73500Y49000D02*
D03*
X66000Y34000D02*
D03*
X73500Y19000D02*
D03*
X66000Y4000D02*
D03*
X58500Y409000D02*
D03*
X51000Y394000D02*
D03*
X58500Y379000D02*
D03*
X51000Y364000D02*
D03*
X58500Y349000D02*
D03*
X51000Y334000D02*
D03*
Y304000D02*
D03*
Y274000D02*
D03*
Y244000D02*
D03*
Y214000D02*
D03*
Y184000D02*
D03*
X58500Y169000D02*
D03*
X51000Y154000D02*
D03*
Y124000D02*
D03*
X58500Y109000D02*
D03*
X51000Y94000D02*
D03*
X58500Y79000D02*
D03*
X51000Y64000D02*
D03*
X58500Y49000D02*
D03*
X51000Y34000D02*
D03*
X43500Y409000D02*
D03*
X36000Y394000D02*
D03*
X43500Y379000D02*
D03*
X36000Y364000D02*
D03*
X43500Y349000D02*
D03*
X36000Y334000D02*
D03*
X43500Y319000D02*
D03*
X36000Y304000D02*
D03*
X43500Y289000D02*
D03*
X36000Y274000D02*
D03*
X43500Y259000D02*
D03*
X36000Y244000D02*
D03*
X43500Y229000D02*
D03*
X36000Y214000D02*
D03*
X43500Y199000D02*
D03*
X36000Y184000D02*
D03*
X43500Y169000D02*
D03*
X36000Y154000D02*
D03*
X43500Y139000D02*
D03*
X36000Y124000D02*
D03*
X43500Y109000D02*
D03*
X36000Y94000D02*
D03*
X43500Y79000D02*
D03*
X36000Y64000D02*
D03*
X43500Y49000D02*
D03*
X36000Y34000D02*
D03*
Y4000D02*
D03*
X116700Y267663D02*
D03*
X140500Y311000D02*
D03*
X115225Y281025D02*
D03*
X209400Y387000D02*
D03*
X209700Y393800D02*
D03*
X202716Y421400D02*
D03*
X151700Y270400D02*
D03*
X158200Y270000D02*
D03*
X236100Y22400D02*
D03*
X242087Y22429D02*
D03*
X124100Y88400D02*
D03*
X116600Y88600D02*
D03*
X136700Y312276D02*
D03*
X140900Y65400D02*
D03*
X169200Y68900D02*
D03*
X169167Y64911D02*
D03*
X156600Y64000D02*
D03*
X153700D02*
D03*
X156400Y70984D02*
D03*
X153100Y70900D02*
D03*
X144200Y88900D02*
D03*
X150200Y80400D02*
D03*
X96100Y79600D02*
D03*
X107600Y95600D02*
D03*
X176200Y49500D02*
D03*
X180300Y34900D02*
D03*
X269800Y7800D02*
D03*
Y13100D02*
D03*
X212900Y13800D02*
D03*
X211000Y6600D02*
D03*
X228900Y36700D02*
D03*
X253600Y37800D02*
D03*
X266200Y18000D02*
D03*
X260200Y18100D02*
D03*
X221200Y17800D02*
D03*
X217800Y18300D02*
D03*
X220400Y414300D02*
D03*
X219200Y442100D02*
D03*
X218500Y437200D02*
D03*
X218600Y432200D02*
D03*
X148900Y403100D02*
D03*
X145900Y398800D02*
D03*
X155300Y403400D02*
D03*
X161700Y402200D02*
D03*
X163000Y397100D02*
D03*
X162800Y338200D02*
D03*
X155900Y336700D02*
D03*
X162300Y343800D02*
D03*
X93700Y377800D02*
D03*
X86800Y377400D02*
D03*
X81500Y372200D02*
D03*
X115100Y259700D02*
D03*
X94800Y257600D02*
D03*
X93100Y275000D02*
D03*
X93700Y266800D02*
D03*
X164300Y263500D02*
D03*
X129760Y295253D02*
D03*
X163100Y297100D02*
D03*
X144600Y280900D02*
D03*
X144400Y287500D02*
D03*
X148600Y282700D02*
D03*
X119800Y285300D02*
D03*
X130500Y44300D02*
D03*
X129900Y34900D02*
D03*
X150400Y35500D02*
D03*
X154400Y31200D02*
D03*
X154900Y268900D02*
D03*
X115500Y28600D02*
D03*
X112800Y14100D02*
D03*
X170200Y282300D02*
D03*
X191200Y283100D02*
D03*
X200000D02*
D03*
X150200Y180900D02*
D03*
X171200Y43500D02*
D03*
X197200Y42800D02*
D03*
X174400Y8100D02*
D03*
X153872Y14772D02*
D03*
X188600Y44300D02*
D03*
X179500Y250000D02*
D03*
Y240000D02*
D03*
X154500Y254000D02*
D03*
X156000Y244500D02*
D03*
X191500Y266000D02*
D03*
X168150Y272350D02*
D03*
X176500Y298500D02*
D03*
X178000Y292000D02*
D03*
X178500Y288000D02*
D03*
X182000Y275500D02*
D03*
X172681Y374819D02*
D03*
X156500Y240500D02*
D03*
X157000Y217000D02*
D03*
X144500Y321500D02*
D03*
X133500Y246500D02*
D03*
X130000Y238500D02*
D03*
X81772Y327394D02*
D03*
X91000Y282000D02*
D03*
X112000Y171500D02*
D03*
X91500D02*
D03*
X59000Y327500D02*
D03*
X65000Y314500D02*
D03*
Y282000D02*
D03*
X173894Y366606D02*
D03*
X172000Y358500D02*
D03*
X169000Y347500D02*
D03*
X219500Y390000D02*
D03*
X203350Y392350D02*
D03*
X185000Y54000D02*
D03*
X169000D02*
D03*
X172000D02*
D03*
X178500D02*
D03*
X175500D02*
D03*
X277000Y52500D02*
D03*
X264000D02*
D03*
X269000Y52658D02*
D03*
X284500D02*
D03*
X141000Y82000D02*
D03*
Y76000D02*
D03*
Y69750D02*
D03*
Y61000D02*
D03*
X181500Y54000D02*
D03*
X281000Y52658D02*
D03*
X273000D02*
D03*
X135484Y80768D02*
D03*
X125350Y281150D02*
D03*
X224000Y419000D02*
D03*
D138*
X107150Y409294D02*
D03*
X112315Y403220D02*
D03*
X109978Y406465D02*
D03*
X102575Y419721D02*
D03*
Y423721D02*
D03*
X104321Y412122D02*
D03*
X102575Y415721D02*
D03*
X113422Y399376D02*
D03*
X113187Y395382D02*
D03*
X108802Y388836D02*
D03*
X111570Y391724D02*
D03*
X80473Y404356D02*
D03*
X91172Y392534D02*
D03*
X94023Y389728D02*
D03*
X82699Y401032D02*
D03*
X88343Y395363D02*
D03*
X85515Y398191D02*
D03*
X79425Y424230D02*
D03*
Y420230D02*
D03*
Y416230D02*
D03*
Y412230D02*
D03*
X79481Y408230D02*
D03*
D139*
X165040Y14773D02*
D03*
X157560Y14772D02*
D03*
X161300Y23828D02*
D03*
M02*
