G04*
G04 #@! TF.GenerationSoftware,Altium Limited,Altium Designer,18.1.7 (191)*
G04*
G04 Layer_Color=8388736*
%FSLAX25Y25*%
%MOIN*%
G70*
G01*
G75*
%ADD14C,0.01000*%
%ADD142C,0.00394*%
D14*
X28500Y-500D02*
Y448500D01*
Y-500D02*
X28800D01*
X311500D01*
X311500Y448500D02*
X311500Y-500D01*
X28500Y448500D02*
X311500D01*
D142*
X161716Y20966D02*
X163383D01*
X163799Y20550D01*
Y19716D01*
X163383Y19300D01*
X161716D01*
X161300Y19716D01*
Y20550D01*
X162133Y20133D02*
X161300Y20966D01*
Y20550D02*
X161716Y20966D01*
X161300Y21799D02*
Y22632D01*
Y22216D01*
X163799D01*
X163383Y21799D01*
X119017Y276334D02*
X118601Y276750D01*
Y277584D01*
X119017Y278000D01*
X120684D01*
X121100Y277584D01*
Y276750D01*
X120684Y276334D01*
X119017Y275501D02*
X118601Y275084D01*
Y274251D01*
X119017Y273835D01*
X119434D01*
X119850Y274251D01*
Y274668D01*
Y274251D01*
X120267Y273835D01*
X120684D01*
X121100Y274251D01*
Y275084D01*
X120684Y275501D01*
X179783Y277166D02*
X180199Y276750D01*
Y275917D01*
X179783Y275500D01*
X178117D01*
X177700Y275917D01*
Y276750D01*
X178117Y277166D01*
X179783Y277999D02*
X180199Y278416D01*
Y279249D01*
X179783Y279665D01*
X179366D01*
X178950Y279249D01*
Y278832D01*
Y279249D01*
X178533Y279665D01*
X178117D01*
X177700Y279249D01*
Y278416D01*
X178117Y277999D01*
X113017Y276334D02*
X112601Y276750D01*
Y277584D01*
X113017Y278000D01*
X114683D01*
X115100Y277584D01*
Y276750D01*
X114683Y276334D01*
X115100Y274251D02*
X112601D01*
X113850Y275501D01*
Y273835D01*
X173783Y277166D02*
X174199Y276750D01*
Y275917D01*
X173783Y275500D01*
X172116D01*
X171700Y275917D01*
Y276750D01*
X172116Y277166D01*
X174199Y279665D02*
Y277999D01*
X172950D01*
X173366Y278832D01*
Y279249D01*
X172950Y279665D01*
X172116D01*
X171700Y279249D01*
Y278416D01*
X172116Y277999D01*
X209500Y390500D02*
X211999D01*
Y391750D01*
X211583Y392166D01*
X210750D01*
X210333Y391750D01*
Y390500D01*
Y391333D02*
X209500Y392166D01*
Y394665D02*
Y392999D01*
X211166Y394665D01*
X211583D01*
X211999Y394249D01*
Y393416D01*
X211583Y392999D01*
X209500Y395498D02*
Y396331D01*
Y395915D01*
X211999D01*
X211583Y395498D01*
X173800Y14800D02*
Y17299D01*
X172550D01*
X172134Y16883D01*
Y16050D01*
X172550Y15633D01*
X173800D01*
X172967D02*
X172134Y14800D01*
X169635D02*
X171301D01*
X169635Y16466D01*
Y16883D01*
X170051Y17299D01*
X170884D01*
X171301Y16883D01*
X168802Y15216D02*
X168385Y14800D01*
X167552D01*
X167136Y15216D01*
Y16883D01*
X167552Y17299D01*
X168385D01*
X168802Y16883D01*
Y16466D01*
X168385Y16050D01*
X167136D01*
M02*
