G04*
G04 #@! TF.GenerationSoftware,Altium Limited,Altium Designer,18.1.7 (191)*
G04*
G04 Layer_Color=32896*
%FSLAX25Y25*%
%MOIN*%
G70*
G01*
G75*
%ADD13C,0.00787*%
%ADD14C,0.01000*%
%ADD15C,0.00500*%
%ADD18R,0.01575X0.00787*%
%ADD19R,0.00787X0.01575*%
%ADD141R,0.00787X0.03150*%
G36*
X266287Y30501D02*
X266333Y30478D01*
X266379Y30467D01*
X266402Y30455D01*
X266413Y30444D01*
X266504Y30375D01*
X266607Y30296D01*
X266836Y30113D01*
X266927Y30022D01*
X267007Y29942D01*
X267064Y29896D01*
X267087Y29873D01*
X267144Y29827D01*
X267167Y29805D01*
X267178Y29793D01*
X267292Y29782D01*
X267395Y29747D01*
X267475Y29713D01*
X267487Y29702D01*
X267498D01*
X267612Y29633D01*
X267726Y29553D01*
X267909Y29382D01*
X268069Y29188D01*
X268183Y29005D01*
X268274Y28822D01*
X268309Y28754D01*
X268343Y28685D01*
X268366Y28628D01*
X268377Y28583D01*
X268389Y28560D01*
Y28548D01*
X268434Y28377D01*
X268457Y28206D01*
Y28137D01*
X268469Y28080D01*
Y28034D01*
Y28023D01*
X268492Y27806D01*
X268526Y27623D01*
X268560Y27452D01*
X268606Y27303D01*
X268640Y27189D01*
X268674Y27098D01*
X268697Y27052D01*
X268708Y27029D01*
X268823Y26847D01*
X268868Y26767D01*
X268925Y26698D01*
X268971Y26653D01*
X269005Y26607D01*
X269028Y26584D01*
X269040Y26573D01*
X269108Y26516D01*
X269177Y26458D01*
X269291Y26390D01*
X269337Y26356D01*
X269371Y26344D01*
X269394Y26333D01*
X269405D01*
X269702Y26230D01*
X269965Y26116D01*
X270193Y26002D01*
X270399Y25910D01*
X270559Y25819D01*
X270627Y25773D01*
X270684Y25750D01*
X270730Y25716D01*
X270764Y25693D01*
X270776Y25682D01*
X270787D01*
X271061Y25476D01*
X271301Y25248D01*
X271506Y25019D01*
X271666Y24803D01*
X271803Y24620D01*
X271849Y24529D01*
X271895Y24460D01*
X271918Y24403D01*
X271940Y24357D01*
X271963Y24334D01*
Y24323D01*
X272032Y24186D01*
X272089Y24049D01*
X272180Y23741D01*
X272237Y23432D01*
X272283Y23124D01*
X272294Y22975D01*
X272306Y22850D01*
Y22736D01*
X272317Y22633D01*
Y22541D01*
Y22484D01*
Y22439D01*
Y22427D01*
Y22267D01*
X272307Y22142D01*
X272352Y22244D01*
X272409Y22439D01*
X272454Y22644D01*
X272488Y22827D01*
X272511Y22987D01*
Y23124D01*
X272523Y23169D01*
Y23204D01*
Y23227D01*
Y23238D01*
Y23398D01*
X272511Y23569D01*
Y23729D01*
X272488Y23877D01*
X272477Y24015D01*
X272466Y24117D01*
X272454Y24186D01*
Y24197D01*
Y24209D01*
X272431Y24357D01*
X272409Y24506D01*
X272397Y24631D01*
X272386Y24746D01*
X272374Y24837D01*
Y24905D01*
Y24951D01*
Y24962D01*
Y25134D01*
X272386Y25282D01*
X272397Y25419D01*
X272420Y25545D01*
X272431Y25636D01*
X272454Y25716D01*
X272466Y25762D01*
Y25773D01*
X272568Y26070D01*
X272694Y26344D01*
X272831Y26573D01*
X272968Y26755D01*
X273094Y26915D01*
X273197Y27018D01*
X273276Y27087D01*
X273288Y27109D01*
X273299D01*
X273562Y27292D01*
X273836Y27429D01*
X274122Y27532D01*
X274384Y27612D01*
X274510Y27646D01*
X274613Y27669D01*
X274715Y27680D01*
X274807Y27692D01*
X274875Y27703D01*
X274932Y27715D01*
X274978D01*
X275343Y27726D01*
X275515Y27715D01*
X275675Y27703D01*
X275800Y27692D01*
X275903Y27680D01*
X275972Y27669D01*
X276029D01*
X276109Y27658D01*
X276154Y27646D01*
X276177Y27635D01*
X276189Y27623D01*
X276200Y27589D01*
Y27543D01*
X276189Y27475D01*
X276154Y27418D01*
X276143Y27406D01*
Y27395D01*
X276132Y27384D01*
X275949Y27269D01*
X275789Y27144D01*
X275652Y26995D01*
X275538Y26870D01*
X275446Y26744D01*
X275378Y26641D01*
X275332Y26573D01*
X275321Y26561D01*
Y26550D01*
X275218Y26344D01*
X275138Y26127D01*
X275092Y25933D01*
X275047Y25750D01*
X275024Y25591D01*
X275012Y25465D01*
Y25419D01*
Y25385D01*
Y25362D01*
Y25351D01*
X275024Y25168D01*
X275047Y24985D01*
X275069Y24905D01*
X275081Y24848D01*
X275092Y24803D01*
Y24791D01*
X275161Y24483D01*
X275206Y24197D01*
X275252Y23935D01*
X275275Y23706D01*
Y23615D01*
X275286Y23524D01*
Y23444D01*
X275298Y23386D01*
Y23329D01*
Y23295D01*
Y23272D01*
Y23261D01*
Y23101D01*
X275286Y22941D01*
X275275Y22816D01*
X275264Y22701D01*
X275252Y22599D01*
X275241Y22530D01*
X275229Y22484D01*
Y22473D01*
X275138Y22164D01*
X275001Y21891D01*
X274841Y21651D01*
X274658Y21445D01*
X274453Y21274D01*
X274236Y21114D01*
X274019Y20988D01*
X273790Y20886D01*
X273562Y20806D01*
X273356Y20737D01*
X273162Y20680D01*
X272991Y20646D01*
X272843Y20623D01*
X272728Y20611D01*
X272694Y20600D01*
X269748D01*
X269519Y20611D01*
X269051D01*
X268937Y20623D01*
X268743D01*
X268708Y20634D01*
X268663D01*
X268549Y20680D01*
X268469Y20726D01*
X268423Y20771D01*
X268412Y20783D01*
X268389Y20840D01*
X268377Y20897D01*
Y20988D01*
X268389Y21057D01*
X268400Y21068D01*
Y21080D01*
X268423Y21114D01*
X268469Y21137D01*
X268571Y21194D01*
X268697Y21251D01*
X268834Y21297D01*
X268971Y21331D01*
X269015Y21345D01*
X267739Y22651D01*
X267715Y22610D01*
X267646Y22484D01*
X267578Y22381D01*
X267521Y22290D01*
X267475Y22222D01*
X267464Y22210D01*
Y22199D01*
X267304Y21948D01*
X267155Y21731D01*
X267030Y21536D01*
X266915Y21377D01*
X266824Y21251D01*
X266756Y21160D01*
X266710Y21102D01*
X266699Y21080D01*
X266596Y20965D01*
X266516Y20863D01*
X266436Y20794D01*
X266367Y20737D01*
X266322Y20691D01*
X266287Y20669D01*
X266265Y20646D01*
X266253D01*
X266162Y20600D01*
X265579Y20611D01*
X265385D01*
X265225Y20623D01*
X265111D01*
X265020Y20634D01*
X264974D01*
X264940Y20646D01*
X264917D01*
X264860Y20691D01*
X264803Y20737D01*
X264769Y20783D01*
X264746Y20828D01*
X264723Y20897D01*
X264711Y20920D01*
Y20931D01*
Y21000D01*
Y21057D01*
X264746Y21148D01*
X264780Y21194D01*
X264803Y21217D01*
X264871Y21274D01*
X264951Y21319D01*
X265031Y21342D01*
X265123Y21365D01*
X265202Y21377D01*
X265271Y21388D01*
X265328D01*
X265488Y21399D01*
X265602Y21445D01*
X265648Y21456D01*
X265682Y21479D01*
X265694Y21491D01*
X265705D01*
X265716Y21502D01*
X265739Y21536D01*
X265796Y21616D01*
X265854Y21685D01*
X265865Y21708D01*
X265876Y21719D01*
X265979Y21868D01*
X266059Y21993D01*
X266093Y22039D01*
X266116Y22073D01*
X266139Y22096D01*
Y22107D01*
X266230Y22290D01*
X266310Y22473D01*
X266379Y22633D01*
X266424Y22793D01*
X266470Y22918D01*
X266493Y23010D01*
X266504Y23078D01*
X266516Y23101D01*
X266539Y23204D01*
X266550Y23318D01*
X266562Y23421D01*
X266573Y23524D01*
Y23615D01*
X266584Y23683D01*
Y23741D01*
Y23752D01*
Y23855D01*
Y23946D01*
Y24026D01*
X266573Y24083D01*
Y24117D01*
X266562Y24152D01*
Y24174D01*
X266539Y24232D01*
X266504Y24311D01*
X266413Y24483D01*
X266367Y24563D01*
X266333Y24631D01*
X266310Y24677D01*
X266299Y24688D01*
X266208Y24848D01*
X266128Y24997D01*
X266059Y25134D01*
X266002Y25259D01*
X265945Y25362D01*
X265899Y25465D01*
X265854Y25545D01*
X265819Y25625D01*
X265774Y25739D01*
X265751Y25819D01*
X265728Y25865D01*
Y25876D01*
X265694Y26059D01*
Y26150D01*
Y26230D01*
Y26299D01*
Y26344D01*
Y26379D01*
Y26390D01*
X265716Y26527D01*
X265751Y26653D01*
X265796Y26778D01*
X265854Y26892D01*
X265899Y26984D01*
X265933Y27052D01*
X265968Y27109D01*
X265979Y27121D01*
X266002Y27167D01*
X266025Y27189D01*
X266048Y27235D01*
X266059Y27246D01*
X266048Y27258D01*
X266036Y27269D01*
X266025Y27281D01*
X265945Y27326D01*
X265876Y27349D01*
X265819Y27372D01*
X265796Y27384D01*
X265728Y27395D01*
X265648D01*
X265602Y27384D01*
X265579D01*
X265442Y27361D01*
X265328Y27349D01*
X265134D01*
X265066Y27361D01*
X265020Y27372D01*
X264986Y27384D01*
X264974D01*
X264883Y27418D01*
X264791Y27463D01*
X264734Y27498D01*
X264723Y27509D01*
X264711D01*
X264620Y27578D01*
X264563Y27635D01*
X264540Y27680D01*
X264529Y27692D01*
X264517Y27749D01*
Y27795D01*
X264529Y27863D01*
X264563Y27920D01*
X264574Y27932D01*
X264620Y27966D01*
X264666Y28000D01*
X264791Y28080D01*
X264860Y28103D01*
X264906Y28126D01*
X264940Y28149D01*
X264951D01*
X265134Y28240D01*
X265271Y28343D01*
X265374Y28434D01*
X265454Y28526D01*
X265511Y28605D01*
X265534Y28674D01*
X265557Y28720D01*
Y28731D01*
X265579Y28822D01*
X265602Y28891D01*
X265614Y28959D01*
X265636Y29017D01*
X265648Y29051D01*
X265659Y29085D01*
X265671Y29108D01*
X265774Y29256D01*
X265876Y29371D01*
X265922Y29405D01*
X265968Y29439D01*
X265990Y29462D01*
X266013D01*
Y29508D01*
X266002Y29576D01*
X265990Y29645D01*
X265979Y29725D01*
Y29782D01*
X265968Y29827D01*
Y29839D01*
X265956Y29942D01*
X265945Y30044D01*
Y30090D01*
X265933Y30124D01*
Y30147D01*
Y30158D01*
Y30250D01*
X265956Y30330D01*
X265968Y30387D01*
X265990Y30433D01*
X266013Y30467D01*
X266036Y30490D01*
X266048Y30501D01*
X266059D01*
X266105Y30524D01*
X266230D01*
X266287Y30501D01*
D02*
G37*
%LPC*%
G36*
X266013Y29462D02*
Y29451D01*
X266025Y29416D01*
Y29428D01*
Y29439D01*
X266013Y29462D01*
D02*
G37*
%LPD*%
D13*
X167206Y18119D02*
X167206Y22056D01*
X163859Y22056D02*
X167206Y22056D01*
X155394Y18119D02*
X155394Y22056D01*
X158741Y22056D01*
D14*
X28500Y-500D02*
Y448500D01*
Y-500D02*
X28800D01*
X311500D01*
X311500Y448500D02*
X311500Y-500D01*
X28500Y448500D02*
X311500D01*
D15*
X160334Y7417D02*
Y9083D01*
X160750Y9499D01*
X161583D01*
X162000Y9083D01*
Y7417D01*
X161583Y7000D01*
X160750D01*
X161167Y7833D02*
X160334Y7000D01*
X160750D02*
X160334Y7417D01*
X159501Y7000D02*
X158668D01*
X159084D01*
Y9499D01*
X159501Y9083D01*
X122134Y271283D02*
X122550Y271699D01*
X123383D01*
X123800Y271283D01*
Y269617D01*
X123383Y269200D01*
X122550D01*
X122134Y269617D01*
X121301Y271283D02*
X120884Y271699D01*
X120051D01*
X119635Y271283D01*
Y270866D01*
X120051Y270450D01*
X120468D01*
X120051D01*
X119635Y270033D01*
Y269617D01*
X120051Y269200D01*
X120884D01*
X121301Y269617D01*
X178734Y267883D02*
X179150Y268299D01*
X179983D01*
X180400Y267883D01*
Y266216D01*
X179983Y265800D01*
X179150D01*
X178734Y266216D01*
X177901Y267883D02*
X177484Y268299D01*
X176651D01*
X176235Y267883D01*
Y267466D01*
X176651Y267050D01*
X177068D01*
X176651D01*
X176235Y266633D01*
Y266216D01*
X176651Y265800D01*
X177484D01*
X177901Y266216D01*
X114834Y269883D02*
X115250Y270299D01*
X116084D01*
X116500Y269883D01*
Y268216D01*
X116084Y267800D01*
X115250D01*
X114834Y268216D01*
X112751Y267800D02*
Y270299D01*
X114001Y269050D01*
X112335D01*
X171634Y267783D02*
X172050Y268199D01*
X172883D01*
X173300Y267783D01*
Y266116D01*
X172883Y265700D01*
X172050D01*
X171634Y266116D01*
X169135Y268199D02*
X170801D01*
Y266950D01*
X169968Y267366D01*
X169551D01*
X169135Y266950D01*
Y266116D01*
X169551Y265700D01*
X170384D01*
X170801Y266116D01*
X203700Y385100D02*
Y387599D01*
X202450D01*
X202034Y387183D01*
Y386350D01*
X202450Y385933D01*
X203700D01*
X202867D02*
X202034Y385100D01*
X199535D02*
X201201D01*
X199535Y386766D01*
Y387183D01*
X199951Y387599D01*
X200784D01*
X201201Y387183D01*
X198702Y385100D02*
X197869D01*
X198285D01*
Y387599D01*
X198702Y387183D01*
X189600Y12700D02*
Y15199D01*
X188350D01*
X187934Y14783D01*
Y13950D01*
X188350Y13533D01*
X189600D01*
X188767D02*
X187934Y12700D01*
X185435D02*
X187101D01*
X185435Y14366D01*
Y14783D01*
X185851Y15199D01*
X186684D01*
X187101Y14783D01*
X184602Y13116D02*
X184185Y12700D01*
X183352D01*
X182936Y13116D01*
Y14783D01*
X183352Y15199D01*
X184185D01*
X184602Y14783D01*
Y14366D01*
X184185Y13950D01*
X182936D01*
D18*
X161300Y19300D02*
D03*
X121100Y278000D02*
D03*
X177700Y275500D02*
D03*
X115100Y278000D02*
D03*
X171700Y275500D02*
D03*
X209500Y390500D02*
D03*
D19*
X173800Y14800D02*
D03*
D141*
X167599Y14380D02*
D03*
M02*
