G04*
G04 #@! TF.GenerationSoftware,Altium Limited,Altium Designer,18.1.7 (191)*
G04*
G04 Layer_Color=32768*
%FSLAX25Y25*%
%MOIN*%
G70*
G01*
G75*
%ADD14C,0.01000*%
%ADD15C,0.00500*%
%ADD142C,0.00394*%
%ADD146C,0.00200*%
%ADD148C,0.01000*%
%ADD149C,0.00300*%
D14*
X239000Y408500D02*
Y410468D01*
X237032Y408500D02*
X239000D01*
Y406531D02*
Y408500D01*
X240968D01*
X235500Y435000D02*
X237469D01*
X235500D02*
Y436969D01*
X233531Y435000D02*
X235500D01*
Y433032D02*
Y435000D01*
X28500Y-500D02*
Y448500D01*
Y-500D02*
X28800D01*
X311500D01*
X311500Y448500D02*
X311500Y-500D01*
X28500Y448500D02*
X311500D01*
D15*
X107901Y259777D02*
X116064Y269506D01*
X99398Y266912D02*
X107901Y259777D01*
X99398Y266912D02*
X107561Y276641D01*
X116064Y269506D01*
D142*
X226697Y422476D02*
X251402D01*
Y394032D02*
Y422476D01*
X226697D02*
X226697Y394032D01*
X251402Y394032D01*
X203161Y416421D02*
X203161Y406579D01*
X203161Y416421D02*
X210839Y416421D01*
X203161Y406579D02*
X210839Y406579D01*
X210839Y416421D02*
X210839Y406579D01*
X138469Y29287D02*
X142405Y29287D01*
X140437Y27319D02*
X140437Y31256D01*
X147327Y21413D02*
X147327Y37161D01*
X133547Y37161D02*
X133547Y21413D01*
X133547Y37161D02*
X147327Y37161D01*
X133547Y21413D02*
X147327D01*
X185906Y36082D02*
X185906Y46318D01*
X174094Y36082D02*
X174094Y46318D01*
X174094Y36082D02*
X185906D01*
X174094Y46318D02*
X185906D01*
X178032Y41200D02*
X181968Y41200D01*
X180000Y39232D02*
X180000Y43169D01*
X189350Y17071D02*
Y25929D01*
X170650Y17071D02*
Y25929D01*
Y17071D02*
X189350D01*
X170650Y25929D02*
X189350D01*
X178032Y21500D02*
X181968D01*
X180000Y19532D02*
Y23469D01*
X149632Y100600D02*
X153568Y100600D01*
X151600Y102568D02*
X151600Y98632D01*
X147860Y93415D02*
X147860Y107785D01*
X155340D02*
X155340Y93415D01*
X147860Y93415D02*
X155340Y93415D01*
X147860Y107785D02*
X155340D01*
X159441Y39001D02*
X164559D01*
X159441Y51599D02*
X164559D01*
X159441Y39001D02*
Y51599D01*
X164559Y39001D02*
Y51599D01*
X162000Y44119D02*
Y46481D01*
X160819Y45300D02*
X163181D01*
X181850Y49581D02*
X181850Y47219D01*
X180669Y48400D02*
X183031Y48400D01*
X178110Y46431D02*
X185591Y46431D01*
X178110Y50368D02*
X185591Y50368D01*
X185591Y46431D02*
X185591Y50368D01*
X178110Y46431D02*
X178110Y50368D01*
X138398Y11744D02*
Y17256D01*
X125602Y11744D02*
X125602Y17256D01*
X125602Y11744D02*
X138398Y11744D01*
X125602Y17256D02*
X138398Y17256D01*
X130228Y14500D02*
X133772Y14500D01*
X132000Y16272D02*
X132000Y12728D01*
X103000Y65138D02*
X103000Y61398D01*
X101130Y63268D02*
X104870Y63268D01*
X96898Y66220D02*
X109102Y66220D01*
X96898Y60315D02*
X109102Y60315D01*
X96898Y66220D02*
X96898Y60315D01*
X109102Y60315D02*
Y66220D01*
X159468Y52576D02*
X167932Y52576D01*
X159468Y67537D02*
X167932D01*
X159468D02*
X159468Y52576D01*
X167932Y52576D02*
X167932Y67537D01*
X163700Y62025D02*
X163700Y58088D01*
X161732Y60057D02*
X165668Y60057D01*
X206500Y398319D02*
X206500Y400681D01*
X205319Y399500D02*
X207681Y399500D01*
X200102Y402059D02*
X212898Y402059D01*
X200102Y396941D02*
X212898Y396941D01*
X200102Y396941D02*
X200102Y402059D01*
X212898Y402059D02*
X212898Y396941D01*
X147000Y278031D02*
Y281968D01*
X145031Y280000D02*
X148969D01*
X126331Y259331D02*
X167669Y259331D01*
X126331Y300669D02*
X167669D01*
Y259331D02*
Y300669D01*
X126331Y259331D02*
X126331Y300669D01*
X194427Y47208D02*
X282904Y47208D01*
X194427Y391308D02*
X282904Y391308D01*
X194427Y391308D02*
X194427Y47208D01*
X282904Y391308D02*
X282904Y47208D01*
X91819Y369500D02*
X94181Y369500D01*
X93000Y368319D02*
X93000Y370681D01*
X95559Y363102D02*
X95559Y375898D01*
X90441Y363102D02*
X90441Y375898D01*
X95559Y375898D01*
X90441Y363102D02*
X95559Y363102D01*
X86319Y369500D02*
X88681Y369500D01*
X87500Y370681D02*
X87500Y368319D01*
X90059Y375898D02*
X90059Y363102D01*
X84941Y375898D02*
X84941Y363102D01*
X84941Y375898D02*
X90059Y375898D01*
X84941Y363102D02*
X90059Y363102D01*
X99095Y275259D02*
X100905Y273741D01*
X99241Y273595D02*
X100759Y275405D01*
X97848Y267954D02*
X106073Y277756D01*
X93927Y271244D02*
X102152Y281046D01*
X106073Y277756D01*
X93927Y271244D02*
X97848Y267954D01*
X100241Y259095D02*
X101759Y260905D01*
X100095Y260759D02*
X101905Y259241D01*
X94454Y262152D02*
X104256Y253927D01*
X97744Y266073D02*
X107546Y257848D01*
X104256Y253927D02*
X107546Y257848D01*
X94454Y262152D02*
X97744Y266073D01*
X128996Y27661D02*
X131358Y27661D01*
X130177Y26480D02*
Y28842D01*
X132736Y21264D02*
Y34059D01*
X127618Y21264D02*
X127618Y34059D01*
X132736D01*
X127618Y21264D02*
X132736Y21264D01*
X149421Y27862D02*
X151783Y27862D01*
X150602Y29043D02*
X150602Y26681D01*
X153161Y34260D02*
X153161Y21464D01*
X148043Y34260D02*
X148043Y21465D01*
X148043Y34260D02*
X153161Y34260D01*
X148043Y21465D02*
X153161Y21464D01*
X159668Y82524D02*
X168132Y82524D01*
X159668Y67563D02*
X168132D01*
X168132Y82524D02*
X168132Y67563D01*
X159668D02*
Y82524D01*
X163900Y73075D02*
Y77012D01*
X161932Y75043D02*
X165868Y75043D01*
X168937Y91232D02*
X168937Y82768D01*
X153976D02*
X153976Y91232D01*
X153976Y82768D02*
X168937D01*
X153976Y91232D02*
X168937Y91232D01*
X159488Y87000D02*
X163425Y87000D01*
X161457Y85031D02*
X161457Y88968D01*
X106819Y86500D02*
X109181Y86500D01*
X108000Y85319D02*
X108000Y87681D01*
X105441Y80102D02*
X105441Y92898D01*
X110559Y80102D02*
X110559Y92898D01*
X105441Y80102D02*
X110559Y80102D01*
X105441Y92898D02*
X110559Y92898D01*
X109567Y67547D02*
X109567Y59083D01*
X124528Y67547D02*
X124528Y59083D01*
X109567Y67547D02*
X124528Y67547D01*
X109567Y59083D02*
X124528Y59083D01*
X115079Y63315D02*
X119016D01*
X117047Y61347D02*
X117047Y65284D01*
X109610Y67583D02*
Y76047D01*
X124571Y76047D02*
X124571Y67583D01*
X109610Y76047D02*
X124571Y76047D01*
X109610Y67583D02*
X124571Y67583D01*
X115122Y71815D02*
X119059Y71815D01*
X117090Y73783D02*
X117091Y69846D01*
X123319Y95268D02*
X125681Y95268D01*
X124500Y94087D02*
Y96449D01*
X121941Y88870D02*
Y101665D01*
X127059Y88870D02*
X127059Y101665D01*
X121941Y88870D02*
X127059Y88870D01*
X121941Y101665D02*
X127059Y101665D01*
X139980Y59035D02*
Y67500D01*
X125020Y59035D02*
X125020Y67500D01*
X125020Y59035D02*
X139980Y59035D01*
X125020Y67500D02*
X139980Y67500D01*
X130532Y63268D02*
X134468Y63268D01*
X132500Y61299D02*
X132500Y65236D01*
X139980Y76000D02*
X139980Y67535D01*
X125020D02*
X125020Y76000D01*
X125020Y67535D02*
X139980D01*
X125020Y76000D02*
X139980Y76000D01*
X130532Y71768D02*
X134469Y71768D01*
X132500Y73736D02*
X132500Y69799D01*
X112500Y282870D02*
X112500Y279130D01*
X110630Y281000D02*
X114370Y281000D01*
X106398Y278047D02*
X118602D01*
X106398Y283953D02*
X118602D01*
X118602Y278047D02*
X118602Y283953D01*
X106398Y278047D02*
X106398Y283953D01*
X79901Y363000D02*
X83642Y363000D01*
X81772Y361130D02*
X81772Y364870D01*
X78819Y369102D02*
X78819Y356898D01*
X84724Y356898D02*
X84724Y369102D01*
X78819Y356898D02*
X84724Y356898D01*
X78819Y369102D02*
X84724Y369102D01*
X92630Y151300D02*
X96370Y151300D01*
X94500Y153170D02*
X94500Y149430D01*
X91547Y157402D02*
X91547Y145198D01*
X97453Y157402D02*
X97453Y145198D01*
X91547Y145198D02*
X97453Y145198D01*
X91547Y157402D02*
X97453D01*
X122307Y27661D02*
X126047Y27661D01*
X124177Y25791D02*
X124177Y29531D01*
X127130Y33764D02*
X127130Y21559D01*
X121224Y33764D02*
X121224Y21559D01*
X121224Y33764D02*
X127130Y33764D01*
X121224Y21559D02*
X127130Y21559D01*
X201232Y27362D02*
X204972Y27362D01*
X203102Y25492D02*
X203102Y29232D01*
X206055Y33465D02*
X206055Y21260D01*
X200150Y33465D02*
X200150Y21260D01*
X200150Y33465D02*
X206055Y33465D01*
X200150Y21260D02*
X206055D01*
X162000Y96370D02*
X162000Y92630D01*
X160130Y94500D02*
X163870Y94500D01*
X155898Y97453D02*
X168102Y97453D01*
X155898Y91547D02*
X168102Y91547D01*
X155898Y91547D02*
X155898Y97453D01*
X168102Y97453D02*
X168102Y91547D01*
X249476Y422598D02*
Y447303D01*
X221031Y422598D02*
X249476D01*
X221031Y447303D02*
X249476D01*
X221031Y422598D02*
Y447303D01*
X181827Y278059D02*
X181827Y272941D01*
X169228Y278059D02*
X169228Y272941D01*
X181827D01*
X169228Y278059D02*
X181827D01*
X174346Y275500D02*
X176709Y275500D01*
X175528Y274319D02*
X175528Y276681D01*
X172390Y286819D02*
X172390Y289181D01*
X171209Y288000D02*
X173571Y288000D01*
X168650Y289968D02*
X176130Y289968D01*
X168650Y286032D02*
X176130Y286032D01*
X168650Y289968D02*
X168650Y286032D01*
X176130Y289968D02*
X176130Y286032D01*
X172390Y290819D02*
X172390Y293181D01*
X171209Y292000D02*
X173571Y292000D01*
X168650Y293969D02*
X176130Y293969D01*
X168650Y290032D02*
X176130Y290032D01*
X168650Y293969D02*
X168650Y290032D01*
X176130Y293969D02*
X176130Y290032D01*
X142941Y317299D02*
X148059Y317299D01*
X142941Y304701D02*
X148059Y304701D01*
Y317299D01*
X142941Y304701D02*
Y317299D01*
X145500Y309819D02*
X145500Y312181D01*
X144319Y311000D02*
X146681Y311000D01*
X167000Y350138D02*
X167000Y352500D01*
X165819Y351319D02*
X168181D01*
X163260Y353287D02*
X170740Y353287D01*
X163260Y349350D02*
X170740D01*
X163260Y353287D02*
X163260Y349350D01*
X170740D02*
X170740Y353287D01*
X167000Y360000D02*
X167000Y357638D01*
X165819Y358819D02*
X168181Y358819D01*
X163260Y360787D02*
X170740Y360787D01*
X163260Y356850D02*
X170740Y356850D01*
X163260Y356850D02*
X163260Y360787D01*
X170740Y356850D02*
X170740Y360787D01*
X167000Y368000D02*
X167000Y365638D01*
X165819Y366819D02*
X168181Y366819D01*
X163260Y368787D02*
X170740Y368787D01*
X163260Y364850D02*
X170740Y364850D01*
X163260Y364850D02*
X163260Y368787D01*
X170740Y364850D02*
X170740Y368787D01*
X167000Y373638D02*
X167000Y376000D01*
X165819Y374819D02*
X168181Y374819D01*
X163260Y376787D02*
X170740Y376787D01*
X163260Y372850D02*
X170740Y372850D01*
X163260Y376787D02*
X163260Y372850D01*
X170740Y376787D02*
X170740Y372850D01*
X139319Y306500D02*
X141681Y306500D01*
X140500Y305319D02*
X140500Y307681D01*
X138531Y302760D02*
Y310240D01*
X142469Y302760D02*
Y310240D01*
X138531Y302760D02*
X142469Y302760D01*
X138531Y310240D02*
X142469Y310240D01*
X135319Y306500D02*
X137681Y306500D01*
X136500Y307681D02*
X136500Y305319D01*
X134531Y302760D02*
X134531Y310240D01*
X138469Y302760D02*
X138469Y310240D01*
X134531Y302760D02*
X138469Y302760D01*
X134531Y310240D02*
X138469Y310240D01*
X131319Y306500D02*
X133681Y306500D01*
X132500Y307681D02*
X132500Y305319D01*
X130532Y310240D02*
X130532Y302760D01*
X134468Y310240D02*
X134468Y302760D01*
X130532Y302760D02*
X134468Y302760D01*
X130532Y310240D02*
X134468Y310240D01*
X120181Y291819D02*
X120181Y294181D01*
X119000Y293000D02*
X121362Y293000D01*
X116441Y291032D02*
X123921D01*
X116441Y294969D02*
X123921D01*
X123921Y291032D01*
X116441Y294969D02*
X116441Y291032D01*
X120181Y287819D02*
X120181Y290181D01*
X119000Y289000D02*
X121362Y289000D01*
X116441Y287032D02*
X123921D01*
X116441Y290968D02*
X123921D01*
X123921Y287032D01*
X116441Y290968D02*
X116441Y287032D01*
X133319Y254181D02*
X135681Y254181D01*
X134500Y253000D02*
X134500Y255362D01*
X136469Y250441D02*
Y257921D01*
X132531Y257921D02*
X132531Y250441D01*
X132531Y257921D02*
X136469Y257921D01*
X132531Y250441D02*
X136469Y250441D01*
X137319Y254181D02*
X139681D01*
X138500Y253000D02*
Y255362D01*
X140469Y250441D02*
Y257921D01*
X136531Y250441D02*
Y257921D01*
X140469Y257921D01*
X136531Y250441D02*
X140469Y250441D01*
X141319Y254181D02*
X143681D01*
X142500Y253000D02*
Y255362D01*
X144468Y250441D02*
Y257921D01*
X140532Y250441D02*
Y257921D01*
X144468D01*
X140532Y250441D02*
X144468D01*
X145319Y254181D02*
X147681D01*
X146500Y253000D02*
X146500Y255362D01*
X148468Y250441D02*
Y257921D01*
X144532Y250441D02*
Y257921D01*
X148468Y257921D01*
X144532Y250441D02*
X148468Y250441D01*
X118941Y276299D02*
X124059Y276299D01*
X118941Y263701D02*
X124059Y263701D01*
Y276299D01*
X118941Y263701D02*
Y276299D01*
X121500Y271181D02*
X121500Y268819D01*
X120319Y270000D02*
X122681Y270000D01*
X140201Y11941D02*
X140201Y17059D01*
X152799Y17059D02*
X152799Y11941D01*
X140201Y17059D02*
X152799Y17059D01*
X140201Y11941D02*
X152799D01*
X145319Y14500D02*
X147681Y14500D01*
X146500Y15681D02*
X146500Y13319D01*
X116441Y101567D02*
X121559Y101567D01*
X116441Y88968D02*
X121559Y88968D01*
X121559Y101567D01*
X116441Y101567D02*
X116441Y88968D01*
X119000Y94087D02*
X119000Y96449D01*
X117819Y95268D02*
X120181Y95268D01*
X213441Y405701D02*
X218559Y405701D01*
X213441Y418299D02*
X218559Y418299D01*
X213441Y405701D02*
Y418299D01*
X218559Y405701D02*
Y418299D01*
X216000Y410819D02*
X216000Y413181D01*
X214819Y412000D02*
X217181Y412000D01*
X110760Y88968D02*
X115878Y88968D01*
X110760Y101567D02*
X115878Y101567D01*
X110760Y101567D02*
X110760Y88968D01*
X115878Y88968D02*
Y101567D01*
X113319Y96449D02*
X113319Y94087D01*
X112138Y95268D02*
X114500Y95268D01*
X89641Y108599D02*
X94759Y108599D01*
X89641Y96001D02*
X94759D01*
X94759Y108599D01*
X89641Y96001D02*
X89641Y108599D01*
X92200Y103481D02*
X92200Y101119D01*
X91019Y102300D02*
X93381D01*
X240500Y37681D02*
X240500Y35319D01*
X239319Y36500D02*
X241681Y36500D01*
X236760Y38469D02*
X244240Y38469D01*
X236760Y34532D02*
X244240Y34532D01*
X236760Y34532D02*
X236760Y38469D01*
X244240Y34532D02*
X244240Y38469D01*
X139799Y41559D02*
X139799Y36441D01*
X127201Y41559D02*
X127201Y36441D01*
X139799D01*
X127201Y41559D02*
X139799D01*
X132319Y39000D02*
X134681Y39000D01*
X133500Y40181D02*
X133500Y37819D01*
X189941Y28854D02*
X195059D01*
X189941Y41453D02*
X195059D01*
X189941Y28854D02*
Y41453D01*
X195059Y28854D02*
Y41453D01*
X192500Y33972D02*
Y36335D01*
X191319Y35153D02*
X193681D01*
X165441Y28854D02*
X170559D01*
X165441Y41453D02*
X170559D01*
X165441Y28854D02*
Y41453D01*
X170559Y28854D02*
Y41453D01*
X168000Y33972D02*
Y36335D01*
X166819Y35153D02*
X169181D01*
X154541Y51599D02*
X159659Y51599D01*
X154541Y39001D02*
X159659Y39001D01*
Y51599D01*
X154541Y39001D02*
Y51599D01*
X157100Y46481D02*
X157100Y44119D01*
X155919Y45300D02*
X158281Y45300D01*
D146*
X138693Y85295D02*
X138693Y76240D01*
X125307Y85295D02*
X125307Y76240D01*
X138693Y76240D01*
X125307Y85295D02*
X138693Y85295D01*
X130032Y80768D02*
X133968Y80768D01*
X132000Y78799D02*
X132000Y82736D01*
X216083Y-8934D02*
Y34176D01*
Y-8934D02*
X264429D01*
Y34176D01*
X216083D02*
X264429D01*
X150373Y60807D02*
X159427Y60807D01*
X150372Y74193D02*
X159427Y74193D01*
X150372Y74193D02*
X150373Y60807D01*
X159427Y60807D02*
Y74193D01*
X154900Y65531D02*
X154900Y69468D01*
X152931Y67500D02*
X156869Y67500D01*
D148*
X95700Y112300D02*
D03*
X155300Y111800D02*
D03*
D149*
X101802Y114957D02*
X101802Y109643D01*
X89598Y114957D02*
X101802Y114957D01*
X89598Y109643D02*
X89598Y114957D01*
X89598Y109643D02*
X101802Y109643D01*
X161402Y109142D02*
Y114457D01*
X149198Y114457D02*
X161402Y114457D01*
X149198Y114457D02*
X149198Y109142D01*
X161402Y109142D01*
M02*
