G04*
G04 #@! TF.GenerationSoftware,Altium Limited,Altium Designer,18.1.7 (191)*
G04*
G04 Layer_Color=16711935*
%FSLAX25Y25*%
%MOIN*%
G70*
G01*
G75*
%ADD14C,0.01000*%
%ADD87R,0.04252X0.03465*%
%ADD89R,0.06299X0.16299*%
%ADD101R,0.04252X0.04055*%
%ADD108R,0.03465X0.04252*%
%ADD110C,0.28400*%
%ADD111C,0.02900*%
%ADD112R,0.06221X0.06221*%
%ADD113C,0.06221*%
%ADD114C,0.02559*%
%ADD115C,0.06315*%
%ADD116C,0.13898*%
%ADD117C,0.09724*%
%ADD118C,0.02306*%
%ADD119C,0.02606*%
%ADD140R,0.02677X0.04252*%
D14*
X28500Y-500D02*
Y448500D01*
Y-500D02*
X28800D01*
X311500D01*
X311500Y448500D02*
X311500Y-500D01*
X28500Y448500D02*
X311500D01*
D87*
X209500Y387154D02*
D03*
Y393847D02*
D03*
D89*
X101000Y434642D02*
D03*
X81000D02*
D03*
D101*
X121100Y274850D02*
D03*
X121100Y281150D02*
D03*
X177700Y278650D02*
D03*
Y272350D02*
D03*
X115100Y274850D02*
D03*
Y281150D02*
D03*
X171700Y278650D02*
D03*
Y272350D02*
D03*
D108*
X177146Y14800D02*
D03*
X170454Y14800D02*
D03*
D110*
X292406Y17000D02*
D03*
X49000D02*
D03*
X292656Y428000D02*
D03*
X49000D02*
D03*
D111*
X283812Y22469D02*
D03*
X296000Y26531D02*
D03*
X301000Y22469D02*
D03*
X302562Y17000D02*
D03*
X301000Y11531D02*
D03*
X296000Y7469D02*
D03*
X288812D02*
D03*
X283812Y11531D02*
D03*
X282250Y17000D02*
D03*
X288812Y26531D02*
D03*
X40406Y22469D02*
D03*
X52594Y26531D02*
D03*
X57594Y22469D02*
D03*
X59156Y17000D02*
D03*
X57594Y11531D02*
D03*
X52594Y7469D02*
D03*
X45406D02*
D03*
X40406Y11531D02*
D03*
X38844Y17000D02*
D03*
X45406Y26531D02*
D03*
X284063Y433469D02*
D03*
X296250Y437531D02*
D03*
X301250Y433469D02*
D03*
X302813Y428000D02*
D03*
X301250Y422531D02*
D03*
X296250Y418469D02*
D03*
X289062D02*
D03*
X284063Y422531D02*
D03*
X282500Y428000D02*
D03*
X289062Y437531D02*
D03*
X40406Y433469D02*
D03*
X52594Y437531D02*
D03*
X57594Y433469D02*
D03*
X59156Y428000D02*
D03*
X57594Y422531D02*
D03*
X52594Y418469D02*
D03*
X45406D02*
D03*
X40406Y422531D02*
D03*
X38844Y428000D02*
D03*
X45406Y437531D02*
D03*
D112*
X179500Y196500D02*
D03*
D113*
X169500D02*
D03*
X179500Y206500D02*
D03*
X169500D02*
D03*
X179500Y216500D02*
D03*
X169500D02*
D03*
D114*
X229745Y22700D02*
D03*
X252500D02*
D03*
D115*
X104449Y139100D02*
D03*
X94567D02*
D03*
X84685D02*
D03*
X64882D02*
D03*
X74764D02*
D03*
X55000D02*
D03*
D116*
X205508Y327823D02*
D03*
X268500Y110500D02*
D03*
D117*
X268500Y360185D02*
D03*
D118*
X298500Y409000D02*
D03*
X291000Y394000D02*
D03*
X298500Y379000D02*
D03*
X291000Y364000D02*
D03*
X298500Y349000D02*
D03*
X291000Y334000D02*
D03*
X298500Y319000D02*
D03*
X291000Y304000D02*
D03*
X298500Y289000D02*
D03*
X291000Y274000D02*
D03*
X298500Y259000D02*
D03*
X291000Y244000D02*
D03*
X298500Y229000D02*
D03*
X291000Y214000D02*
D03*
X298500Y199000D02*
D03*
X291000Y184000D02*
D03*
X298500Y169000D02*
D03*
X291000Y154000D02*
D03*
X298500Y139000D02*
D03*
X291000Y124000D02*
D03*
X298500Y109000D02*
D03*
X291000Y94000D02*
D03*
X298500Y79000D02*
D03*
X291000Y34000D02*
D03*
X276000Y424000D02*
D03*
X283500Y409000D02*
D03*
X276000Y394000D02*
D03*
X283500Y379000D02*
D03*
X276000Y364000D02*
D03*
X283500Y349000D02*
D03*
X276000Y334000D02*
D03*
X283500Y319000D02*
D03*
X276000Y304000D02*
D03*
X283500Y289000D02*
D03*
X276000Y274000D02*
D03*
X283500Y259000D02*
D03*
X276000Y244000D02*
D03*
X283500Y229000D02*
D03*
X276000Y214000D02*
D03*
X283500Y199000D02*
D03*
X276000Y184000D02*
D03*
X283500Y169000D02*
D03*
X276000Y154000D02*
D03*
X283500Y139000D02*
D03*
X276000Y124000D02*
D03*
X283500Y109000D02*
D03*
X276000Y94000D02*
D03*
X283500Y79000D02*
D03*
X276000Y34000D02*
D03*
Y4000D02*
D03*
X268500Y439000D02*
D03*
X261000Y424000D02*
D03*
X268500Y409000D02*
D03*
X261000Y394000D02*
D03*
X268500Y379000D02*
D03*
X261000Y364000D02*
D03*
X268500Y349000D02*
D03*
X261000Y334000D02*
D03*
X268500Y319000D02*
D03*
X261000Y304000D02*
D03*
X268500Y289000D02*
D03*
X261000Y274000D02*
D03*
X268500Y259000D02*
D03*
X261000Y244000D02*
D03*
X268500Y229000D02*
D03*
X261000Y214000D02*
D03*
X268500Y199000D02*
D03*
X261000Y184000D02*
D03*
X268500Y169000D02*
D03*
X261000Y154000D02*
D03*
X268500Y139000D02*
D03*
X261000Y124000D02*
D03*
Y94000D02*
D03*
X268500Y79000D02*
D03*
X261000Y34000D02*
D03*
Y4000D02*
D03*
X253500Y439000D02*
D03*
Y409000D02*
D03*
Y349000D02*
D03*
X246000Y334000D02*
D03*
X253500Y319000D02*
D03*
X246000Y304000D02*
D03*
X253500Y289000D02*
D03*
X246000Y274000D02*
D03*
X253500Y259000D02*
D03*
X246000Y244000D02*
D03*
X253500Y229000D02*
D03*
X246000Y214000D02*
D03*
X253500Y199000D02*
D03*
X246000Y184000D02*
D03*
X253500Y169000D02*
D03*
X246000Y154000D02*
D03*
X253500Y139000D02*
D03*
X246000Y124000D02*
D03*
X253500Y109000D02*
D03*
X246000Y94000D02*
D03*
X253500Y79000D02*
D03*
X246000Y34000D02*
D03*
X253500Y19000D02*
D03*
X246000Y4000D02*
D03*
X231000Y334000D02*
D03*
Y304000D02*
D03*
Y274000D02*
D03*
Y244000D02*
D03*
Y214000D02*
D03*
Y184000D02*
D03*
Y154000D02*
D03*
Y124000D02*
D03*
Y94000D02*
D03*
Y4000D02*
D03*
X216000Y364000D02*
D03*
Y334000D02*
D03*
X223500Y319000D02*
D03*
X216000Y304000D02*
D03*
X223500Y289000D02*
D03*
X216000Y274000D02*
D03*
X223500Y259000D02*
D03*
X216000Y244000D02*
D03*
X223500Y229000D02*
D03*
X216000Y214000D02*
D03*
X223500Y199000D02*
D03*
X216000Y184000D02*
D03*
X223500Y169000D02*
D03*
X216000Y154000D02*
D03*
X223500Y139000D02*
D03*
X216000Y124000D02*
D03*
X223500Y109000D02*
D03*
X216000Y94000D02*
D03*
X223500Y79000D02*
D03*
X216000Y34000D02*
D03*
Y4000D02*
D03*
X208500Y439000D02*
D03*
X201000Y364000D02*
D03*
X208500Y319000D02*
D03*
X201000Y304000D02*
D03*
X208500Y289000D02*
D03*
Y259000D02*
D03*
Y229000D02*
D03*
Y199000D02*
D03*
X201000Y184000D02*
D03*
X208500Y169000D02*
D03*
X201000Y154000D02*
D03*
X208500Y139000D02*
D03*
X201000Y124000D02*
D03*
X208500Y109000D02*
D03*
X201000Y94000D02*
D03*
X208500Y79000D02*
D03*
X201000Y64000D02*
D03*
Y4000D02*
D03*
X193500Y439000D02*
D03*
X186000Y424000D02*
D03*
X193500Y409000D02*
D03*
X186000Y394000D02*
D03*
X193500Y379000D02*
D03*
X186000Y364000D02*
D03*
X193500Y349000D02*
D03*
X186000Y334000D02*
D03*
X193500Y319000D02*
D03*
X186000Y304000D02*
D03*
Y244000D02*
D03*
X193500Y229000D02*
D03*
Y199000D02*
D03*
Y169000D02*
D03*
X186000Y154000D02*
D03*
X193500Y139000D02*
D03*
X186000Y124000D02*
D03*
X193500Y109000D02*
D03*
X186000Y94000D02*
D03*
X193500Y79000D02*
D03*
X178500Y439000D02*
D03*
X171000Y424000D02*
D03*
X178500Y409000D02*
D03*
X171000Y394000D02*
D03*
Y184000D02*
D03*
X178500Y169000D02*
D03*
X171000Y154000D02*
D03*
X178500Y139000D02*
D03*
X171000Y124000D02*
D03*
X178500Y109000D02*
D03*
X163500Y439000D02*
D03*
X156000Y424000D02*
D03*
X163500Y409000D02*
D03*
Y379000D02*
D03*
Y169000D02*
D03*
Y139000D02*
D03*
Y109000D02*
D03*
X156000Y34000D02*
D03*
X148500Y439000D02*
D03*
X141000Y424000D02*
D03*
X148500Y409000D02*
D03*
X141000Y394000D02*
D03*
Y364000D02*
D03*
X148500Y349000D02*
D03*
X141000Y334000D02*
D03*
X148500Y289000D02*
D03*
Y169000D02*
D03*
X141000Y154000D02*
D03*
Y124000D02*
D03*
X148500Y109000D02*
D03*
X141000Y94000D02*
D03*
X148500Y19000D02*
D03*
X133500Y439000D02*
D03*
X126000Y424000D02*
D03*
X133500Y409000D02*
D03*
X126000Y394000D02*
D03*
X133500Y379000D02*
D03*
X126000Y364000D02*
D03*
Y334000D02*
D03*
Y304000D02*
D03*
X133500Y229000D02*
D03*
X126000Y214000D02*
D03*
Y184000D02*
D03*
Y124000D02*
D03*
X133500Y109000D02*
D03*
Y19000D02*
D03*
X118500Y439000D02*
D03*
X111000Y424000D02*
D03*
X118500Y409000D02*
D03*
Y379000D02*
D03*
X111000Y364000D02*
D03*
Y334000D02*
D03*
Y304000D02*
D03*
X118500Y259000D02*
D03*
Y229000D02*
D03*
X111000Y214000D02*
D03*
Y184000D02*
D03*
Y124000D02*
D03*
X118500Y109000D02*
D03*
X111000Y4000D02*
D03*
X96000Y334000D02*
D03*
X103500Y289000D02*
D03*
Y229000D02*
D03*
X96000Y184000D02*
D03*
Y124000D02*
D03*
X103500Y109000D02*
D03*
X96000Y94000D02*
D03*
Y34000D02*
D03*
X103500Y19000D02*
D03*
X96000Y4000D02*
D03*
X81000Y394000D02*
D03*
X88500Y349000D02*
D03*
Y319000D02*
D03*
X81000Y304000D02*
D03*
Y274000D02*
D03*
Y244000D02*
D03*
X88500Y229000D02*
D03*
X81000Y214000D02*
D03*
X88500Y199000D02*
D03*
X81000Y124000D02*
D03*
Y94000D02*
D03*
X88500Y79000D02*
D03*
X81000Y64000D02*
D03*
Y34000D02*
D03*
X88500Y19000D02*
D03*
X81000Y4000D02*
D03*
X73500Y439000D02*
D03*
X66000Y424000D02*
D03*
X73500Y409000D02*
D03*
X66000Y394000D02*
D03*
Y364000D02*
D03*
Y334000D02*
D03*
X73500Y229000D02*
D03*
X66000Y214000D02*
D03*
X73500Y199000D02*
D03*
X66000Y184000D02*
D03*
X73500Y169000D02*
D03*
X66000Y154000D02*
D03*
Y124000D02*
D03*
X73500Y109000D02*
D03*
X66000Y94000D02*
D03*
X73500Y79000D02*
D03*
X66000Y64000D02*
D03*
X73500Y49000D02*
D03*
X66000Y34000D02*
D03*
X73500Y19000D02*
D03*
X66000Y4000D02*
D03*
X58500Y409000D02*
D03*
X51000Y394000D02*
D03*
X58500Y379000D02*
D03*
X51000Y364000D02*
D03*
X58500Y349000D02*
D03*
X51000Y334000D02*
D03*
Y304000D02*
D03*
Y274000D02*
D03*
Y244000D02*
D03*
Y214000D02*
D03*
Y184000D02*
D03*
X58500Y169000D02*
D03*
X51000Y154000D02*
D03*
Y124000D02*
D03*
X58500Y109000D02*
D03*
X51000Y94000D02*
D03*
X58500Y79000D02*
D03*
X51000Y64000D02*
D03*
X58500Y49000D02*
D03*
X51000Y34000D02*
D03*
X43500Y409000D02*
D03*
X36000Y394000D02*
D03*
X43500Y379000D02*
D03*
X36000Y364000D02*
D03*
X43500Y349000D02*
D03*
X36000Y334000D02*
D03*
X43500Y319000D02*
D03*
X36000Y304000D02*
D03*
X43500Y289000D02*
D03*
X36000Y274000D02*
D03*
X43500Y259000D02*
D03*
X36000Y244000D02*
D03*
X43500Y229000D02*
D03*
X36000Y214000D02*
D03*
X43500Y199000D02*
D03*
X36000Y184000D02*
D03*
X43500Y169000D02*
D03*
X36000Y154000D02*
D03*
X43500Y139000D02*
D03*
X36000Y124000D02*
D03*
X43500Y109000D02*
D03*
X36000Y94000D02*
D03*
X43500Y79000D02*
D03*
X36000Y64000D02*
D03*
X43500Y49000D02*
D03*
X36000Y34000D02*
D03*
Y4000D02*
D03*
X116700Y267663D02*
D03*
X140500Y311000D02*
D03*
X115225Y281025D02*
D03*
X209400Y387000D02*
D03*
X209700Y393800D02*
D03*
X202716Y421400D02*
D03*
X151700Y270400D02*
D03*
X158200Y270000D02*
D03*
X236100Y22400D02*
D03*
X242087Y22429D02*
D03*
X124100Y88400D02*
D03*
X116600Y88600D02*
D03*
X136700Y312276D02*
D03*
X140900Y65400D02*
D03*
X169200Y68900D02*
D03*
X169167Y64911D02*
D03*
X156600Y64000D02*
D03*
X153700D02*
D03*
X156400Y70984D02*
D03*
X153100Y70900D02*
D03*
X144200Y88900D02*
D03*
X150200Y80400D02*
D03*
X96100Y79600D02*
D03*
X107600Y95600D02*
D03*
X176200Y49500D02*
D03*
X180300Y34900D02*
D03*
X269800Y7800D02*
D03*
Y13100D02*
D03*
X212900Y13800D02*
D03*
X211000Y6600D02*
D03*
X228900Y36700D02*
D03*
X253600Y37800D02*
D03*
X266200Y18000D02*
D03*
X260200Y18100D02*
D03*
X221200Y17800D02*
D03*
X217800Y18300D02*
D03*
X220400Y414300D02*
D03*
X219200Y442100D02*
D03*
X218500Y437200D02*
D03*
X218600Y432200D02*
D03*
X148900Y403100D02*
D03*
X145900Y398800D02*
D03*
X155300Y403400D02*
D03*
X161700Y402200D02*
D03*
X163000Y397100D02*
D03*
X162800Y338200D02*
D03*
X155900Y336700D02*
D03*
X162300Y343800D02*
D03*
X93700Y377800D02*
D03*
X86800Y377400D02*
D03*
X81500Y372200D02*
D03*
X115100Y259700D02*
D03*
X94800Y257600D02*
D03*
X93100Y275000D02*
D03*
X93700Y266800D02*
D03*
X164300Y263500D02*
D03*
X129760Y295253D02*
D03*
X163100Y297100D02*
D03*
X144600Y280900D02*
D03*
X144400Y287500D02*
D03*
X148600Y282700D02*
D03*
X119800Y285300D02*
D03*
X130500Y44300D02*
D03*
X129900Y34900D02*
D03*
X150400Y35500D02*
D03*
X154400Y31200D02*
D03*
X154900Y268900D02*
D03*
X115500Y28600D02*
D03*
X112800Y14100D02*
D03*
X170200Y282300D02*
D03*
X191200Y283100D02*
D03*
X200000D02*
D03*
X150200Y180900D02*
D03*
X171200Y43500D02*
D03*
X197200Y42800D02*
D03*
X174400Y8100D02*
D03*
X153872Y14772D02*
D03*
X188600Y44300D02*
D03*
X179500Y250000D02*
D03*
Y240000D02*
D03*
X154500Y254000D02*
D03*
X156000Y244500D02*
D03*
X191500Y266000D02*
D03*
X168150Y272350D02*
D03*
X176500Y298500D02*
D03*
X178000Y292000D02*
D03*
X178500Y288000D02*
D03*
X182000Y275500D02*
D03*
X172681Y374819D02*
D03*
X156500Y240500D02*
D03*
X157000Y217000D02*
D03*
X144500Y321500D02*
D03*
X133500Y246500D02*
D03*
X130000Y238500D02*
D03*
X81772Y327394D02*
D03*
X91000Y282000D02*
D03*
X112000Y171500D02*
D03*
X91500D02*
D03*
X59000Y327500D02*
D03*
X65000Y314500D02*
D03*
Y282000D02*
D03*
X173894Y366606D02*
D03*
X172000Y358500D02*
D03*
X169000Y347500D02*
D03*
X219500Y390000D02*
D03*
X203350Y392350D02*
D03*
X185000Y54000D02*
D03*
X169000D02*
D03*
X172000D02*
D03*
X178500D02*
D03*
X175500D02*
D03*
X277000Y52500D02*
D03*
X264000D02*
D03*
X269000Y52658D02*
D03*
X284500D02*
D03*
X141000Y82000D02*
D03*
Y76000D02*
D03*
Y69750D02*
D03*
Y61000D02*
D03*
X181500Y54000D02*
D03*
X281000Y52658D02*
D03*
X273000D02*
D03*
X135484Y80768D02*
D03*
X125350Y281150D02*
D03*
X224000Y419000D02*
D03*
D119*
X107150Y409294D02*
D03*
X112315Y403220D02*
D03*
X109978Y406465D02*
D03*
X102575Y419721D02*
D03*
Y423721D02*
D03*
X104321Y412122D02*
D03*
X102575Y415721D02*
D03*
X113422Y399376D02*
D03*
X113187Y395382D02*
D03*
X108802Y388836D02*
D03*
X111570Y391724D02*
D03*
X80473Y404356D02*
D03*
X91172Y392534D02*
D03*
X94023Y389728D02*
D03*
X82699Y401032D02*
D03*
X88343Y395363D02*
D03*
X85515Y398191D02*
D03*
X79425Y424230D02*
D03*
Y420230D02*
D03*
Y416230D02*
D03*
Y412230D02*
D03*
X79481Y408230D02*
D03*
D140*
X165040Y14773D02*
D03*
X157560Y14772D02*
D03*
X161300Y23828D02*
D03*
M02*
