G04*
G04 #@! TF.GenerationSoftware,Altium Limited,Altium Designer,18.1.7 (191)*
G04*
G04 Layer_Color=8388736*
%FSLAX25Y25*%
%MOIN*%
G70*
G01*
G75*
%ADD14C,0.01000*%
%ADD142C,0.00394*%
D14*
X28500Y-500D02*
Y448500D01*
Y-500D02*
X28800D01*
X311500D01*
X311500Y448500D02*
X311500Y-500D01*
X28500Y448500D02*
X311500D01*
D142*
X155394Y16544D02*
X167206Y16544D01*
X155394Y22056D02*
X167206Y22056D01*
Y16544D02*
Y22056D01*
X155394Y22056D02*
X155394Y16544D01*
X122675Y281150D02*
X122675Y274850D01*
X119525Y281150D02*
X119525Y274850D01*
X122675Y274850D01*
X119525Y281150D02*
X122675Y281150D01*
X176125Y272350D02*
Y278650D01*
X179275Y272350D02*
Y278650D01*
X176125Y278650D02*
X179275Y278650D01*
X176125Y272350D02*
X179275Y272350D01*
X116675Y274850D02*
Y281150D01*
X113525Y274850D02*
Y281150D01*
Y274850D02*
X116675Y274850D01*
X113525Y281150D02*
X116675Y281150D01*
X170125Y272350D02*
X170125Y278650D01*
X173275Y272350D02*
X173275Y278650D01*
X170125D02*
X173275D01*
X170125Y272350D02*
X173275D01*
X207925Y387350D02*
X211075D01*
X207925Y393650D02*
X211075D01*
Y387350D02*
Y393650D01*
X207925Y387350D02*
Y393650D01*
X176950Y16375D02*
X176950Y13225D01*
X170650Y16375D02*
X170650Y13225D01*
X170650Y16375D02*
X176950D01*
X170650Y13225D02*
X176950D01*
M02*
