G04*
G04 #@! TF.GenerationSoftware,Altium Limited,Altium Designer,18.1.7 (191)*
G04*
G04 Layer_Color=65535*
%FSLAX25Y25*%
%MOIN*%
G70*
G01*
G75*
%ADD10C,0.00984*%
%ADD11C,0.02362*%
%ADD12C,0.00709*%
%ADD13C,0.00787*%
%ADD14C,0.01000*%
%ADD15C,0.00500*%
%ADD16C,0.01181*%
%ADD17C,0.00800*%
%ADD18R,0.01575X0.00787*%
%ADD19R,0.00787X0.01575*%
G04:AMPARAMS|DCode=20|XSize=7.87mil|YSize=15.75mil|CornerRadius=0mil|HoleSize=0mil|Usage=FLASHONLY|Rotation=50.000|XOffset=0mil|YOffset=0mil|HoleType=Round|Shape=Rectangle|*
%AMROTATEDRECTD20*
4,1,4,0.00350,-0.00808,-0.00856,0.00205,-0.00350,0.00808,0.00856,-0.00205,0.00350,-0.00808,0.0*
%
%ADD20ROTATEDRECTD20*%

G04:AMPARAMS|DCode=21|XSize=7.87mil|YSize=15.75mil|CornerRadius=0mil|HoleSize=0mil|Usage=FLASHONLY|Rotation=320.000|XOffset=0mil|YOffset=0mil|HoleType=Round|Shape=Rectangle|*
%AMROTATEDRECTD21*
4,1,4,-0.00808,-0.00350,0.00205,0.00856,0.00808,0.00350,-0.00205,-0.00856,-0.00808,-0.00350,0.0*
%
%ADD21ROTATEDRECTD21*%

G36*
X84841Y22201D02*
X84852D01*
X84864Y22190D01*
X84887Y22167D01*
X84909Y22133D01*
X84932Y22087D01*
X84944Y22030D01*
X84967Y21950D01*
Y21858D01*
Y21847D01*
Y21824D01*
X84955Y21790D01*
Y21744D01*
X84944Y21642D01*
X84932Y21539D01*
Y21527D01*
X84921Y21482D01*
Y21425D01*
X84909Y21345D01*
X84898Y21276D01*
X84887Y21208D01*
Y21162D01*
X84875Y21139D01*
Y21128D01*
Y21116D01*
X84887Y21150D01*
Y21162D01*
X84909D01*
X84932Y21139D01*
X84978Y21105D01*
X85024Y21071D01*
X85127Y20956D01*
X85229Y20808D01*
X85241Y20785D01*
X85252Y20751D01*
X85264Y20717D01*
X85286Y20659D01*
X85298Y20591D01*
X85321Y20522D01*
X85343Y20431D01*
Y20420D01*
X85366Y20374D01*
X85389Y20305D01*
X85446Y20225D01*
X85526Y20134D01*
X85629Y20043D01*
X85766Y19940D01*
X85949Y19849D01*
X85960D01*
X85994Y19826D01*
X86040Y19803D01*
X86109Y19780D01*
X86234Y19700D01*
X86280Y19666D01*
X86326Y19632D01*
X86337Y19620D01*
X86371Y19563D01*
X86383Y19495D01*
Y19449D01*
X86371Y19392D01*
X86360Y19380D01*
X86337Y19335D01*
X86280Y19278D01*
X86189Y19209D01*
X86177D01*
X86166Y19198D01*
X86109Y19163D01*
X86017Y19118D01*
X85926Y19083D01*
X85914D01*
X85880Y19072D01*
X85834Y19061D01*
X85766Y19049D01*
X85572D01*
X85458Y19061D01*
X85321Y19083D01*
X85298D01*
X85252Y19095D01*
X85172D01*
X85104Y19083D01*
X85081Y19072D01*
X85024Y19049D01*
X84955Y19026D01*
X84875Y18981D01*
X84864Y18969D01*
X84852Y18958D01*
X84841Y18946D01*
X84852Y18935D01*
X84875Y18889D01*
X84898Y18867D01*
X84921Y18821D01*
X84932Y18809D01*
X84967Y18752D01*
X85001Y18684D01*
X85046Y18592D01*
X85104Y18478D01*
X85149Y18353D01*
X85184Y18227D01*
X85206Y18090D01*
Y18079D01*
Y18044D01*
Y17999D01*
Y17930D01*
Y17850D01*
Y17759D01*
X85172Y17576D01*
Y17565D01*
X85149Y17519D01*
X85127Y17439D01*
X85081Y17325D01*
X85046Y17245D01*
X85001Y17165D01*
X84955Y17062D01*
X84898Y16959D01*
X84841Y16834D01*
X84772Y16697D01*
X84693Y16548D01*
X84601Y16388D01*
X84590Y16377D01*
X84567Y16331D01*
X84533Y16263D01*
X84487Y16183D01*
X84396Y16012D01*
X84361Y15932D01*
X84338Y15875D01*
Y15852D01*
X84327Y15817D01*
Y15783D01*
X84316Y15726D01*
Y15646D01*
Y15555D01*
Y15452D01*
Y15440D01*
Y15383D01*
X84327Y15315D01*
Y15224D01*
X84338Y15121D01*
X84350Y15018D01*
X84361Y14904D01*
X84384Y14801D01*
X84396Y14778D01*
X84407Y14710D01*
X84430Y14618D01*
X84475Y14493D01*
X84521Y14333D01*
X84590Y14173D01*
X84670Y13990D01*
X84761Y13807D01*
Y13796D01*
X84784Y13773D01*
X84807Y13739D01*
X84841Y13693D01*
X84921Y13568D01*
X85024Y13419D01*
X85035Y13408D01*
X85046Y13385D01*
X85104Y13316D01*
X85161Y13236D01*
X85184Y13202D01*
X85195Y13191D01*
X85206D01*
X85218Y13179D01*
X85252Y13157D01*
X85298Y13145D01*
X85412Y13099D01*
X85572Y13088D01*
X85629D01*
X85698Y13077D01*
X85777Y13065D01*
X85869Y13042D01*
X85949Y13020D01*
X86029Y12974D01*
X86097Y12917D01*
X86120Y12894D01*
X86154Y12848D01*
X86189Y12757D01*
Y12700D01*
Y12631D01*
Y12620D01*
X86177Y12597D01*
X86154Y12528D01*
X86131Y12483D01*
X86097Y12437D01*
X86040Y12391D01*
X85983Y12346D01*
X85960D01*
X85926Y12334D01*
X85880D01*
X85789Y12323D01*
X85675D01*
X85515Y12311D01*
X85321D01*
X84738Y12300D01*
X84647Y12346D01*
X84635D01*
X84613Y12369D01*
X84578Y12391D01*
X84533Y12437D01*
X84464Y12494D01*
X84384Y12563D01*
X84304Y12665D01*
X84201Y12780D01*
X84190Y12802D01*
X84144Y12860D01*
X84076Y12951D01*
X83985Y13077D01*
X83870Y13236D01*
X83745Y13431D01*
X83596Y13648D01*
X83436Y13899D01*
Y13910D01*
X83425Y13922D01*
X83379Y13990D01*
X83322Y14082D01*
X83254Y14184D01*
X83185Y14310D01*
X83161Y14351D01*
X81885Y13045D01*
X81929Y13031D01*
X82066Y12997D01*
X82203Y12951D01*
X82329Y12894D01*
X82431Y12837D01*
X82477Y12814D01*
X82500Y12780D01*
Y12768D01*
X82511Y12757D01*
X82523Y12688D01*
Y12597D01*
X82511Y12540D01*
X82488Y12483D01*
X82477Y12471D01*
X82431Y12426D01*
X82351Y12380D01*
X82237Y12334D01*
X82191D01*
X82157Y12323D01*
X81963D01*
X81849Y12311D01*
X81381D01*
X81152Y12300D01*
X78206D01*
X78172Y12311D01*
X78057Y12323D01*
X77909Y12346D01*
X77738Y12380D01*
X77544Y12437D01*
X77338Y12506D01*
X77110Y12585D01*
X76881Y12688D01*
X76664Y12814D01*
X76447Y12974D01*
X76242Y13145D01*
X76059Y13351D01*
X75899Y13590D01*
X75762Y13864D01*
X75671Y14173D01*
Y14184D01*
X75659Y14230D01*
X75648Y14299D01*
X75636Y14401D01*
X75625Y14515D01*
X75614Y14641D01*
X75602Y14801D01*
Y14961D01*
Y14972D01*
Y14995D01*
Y15029D01*
Y15087D01*
X75614Y15144D01*
Y15224D01*
X75625Y15315D01*
Y15406D01*
X75648Y15635D01*
X75694Y15897D01*
X75739Y16183D01*
X75808Y16491D01*
Y16503D01*
X75819Y16548D01*
X75831Y16605D01*
X75853Y16685D01*
X75876Y16868D01*
X75888Y17051D01*
Y17062D01*
Y17085D01*
Y17119D01*
Y17165D01*
X75876Y17290D01*
X75853Y17450D01*
X75808Y17633D01*
X75762Y17827D01*
X75682Y18044D01*
X75579Y18250D01*
Y18261D01*
X75568Y18273D01*
X75522Y18341D01*
X75454Y18444D01*
X75362Y18570D01*
X75248Y18695D01*
X75111Y18844D01*
X74951Y18969D01*
X74769Y19083D01*
X74757Y19095D01*
Y19106D01*
X74746Y19118D01*
X74711Y19175D01*
X74700Y19243D01*
Y19289D01*
X74711Y19323D01*
X74723Y19335D01*
X74746Y19346D01*
X74791Y19358D01*
X74871Y19369D01*
X74928D01*
X74997Y19380D01*
X75100Y19392D01*
X75225Y19403D01*
X75385Y19415D01*
X75556Y19426D01*
X75922Y19415D01*
X75968D01*
X76025Y19403D01*
X76093Y19392D01*
X76185Y19380D01*
X76287Y19369D01*
X76390Y19346D01*
X76516Y19312D01*
X76778Y19232D01*
X77064Y19129D01*
X77338Y18992D01*
X77601Y18809D01*
X77612D01*
X77623Y18787D01*
X77703Y18718D01*
X77806Y18615D01*
X77932Y18455D01*
X78069Y18273D01*
X78206Y18044D01*
X78332Y17770D01*
X78434Y17473D01*
Y17462D01*
X78446Y17416D01*
X78469Y17336D01*
X78480Y17245D01*
X78503Y17119D01*
X78514Y16982D01*
X78526Y16834D01*
Y16662D01*
Y16651D01*
Y16605D01*
Y16537D01*
X78514Y16445D01*
X78503Y16331D01*
X78491Y16206D01*
X78469Y16057D01*
X78446Y15909D01*
Y15897D01*
Y15886D01*
X78434Y15817D01*
X78423Y15715D01*
X78412Y15577D01*
X78389Y15429D01*
Y15269D01*
X78377Y15098D01*
Y14938D01*
Y14927D01*
Y14904D01*
Y14870D01*
X78389Y14824D01*
Y14687D01*
X78412Y14527D01*
X78446Y14344D01*
X78491Y14139D01*
X78549Y13945D01*
X78593Y13842D01*
X78583Y13967D01*
Y14127D01*
Y14139D01*
Y14184D01*
Y14241D01*
Y14333D01*
X78594Y14435D01*
Y14550D01*
X78606Y14675D01*
X78617Y14824D01*
X78663Y15132D01*
X78720Y15440D01*
X78811Y15749D01*
X78868Y15886D01*
X78937Y16023D01*
Y16034D01*
X78960Y16057D01*
X78983Y16103D01*
X79005Y16160D01*
X79051Y16229D01*
X79097Y16320D01*
X79234Y16503D01*
X79394Y16720D01*
X79599Y16948D01*
X79839Y17176D01*
X80113Y17382D01*
X80124D01*
X80136Y17393D01*
X80170Y17416D01*
X80216Y17450D01*
X80273Y17473D01*
X80342Y17519D01*
X80501Y17610D01*
X80707Y17702D01*
X80935Y17816D01*
X81198Y17930D01*
X81495Y18033D01*
X81506D01*
X81529Y18044D01*
X81563Y18056D01*
X81609Y18090D01*
X81723Y18158D01*
X81792Y18216D01*
X81860Y18273D01*
X81872Y18284D01*
X81895Y18307D01*
X81929Y18353D01*
X81975Y18398D01*
X82032Y18467D01*
X82077Y18547D01*
X82191Y18730D01*
X82203Y18752D01*
X82226Y18798D01*
X82260Y18889D01*
X82294Y19004D01*
X82340Y19152D01*
X82374Y19323D01*
X82408Y19506D01*
X82431Y19723D01*
Y19734D01*
Y19780D01*
X82443Y19837D01*
Y19906D01*
X82466Y20077D01*
X82511Y20248D01*
Y20260D01*
X82523Y20283D01*
X82534Y20328D01*
X82557Y20385D01*
X82591Y20454D01*
X82626Y20522D01*
X82717Y20705D01*
X82831Y20888D01*
X82991Y21082D01*
X83174Y21253D01*
X83288Y21333D01*
X83402Y21402D01*
X83413D01*
X83425Y21413D01*
X83505Y21447D01*
X83608Y21482D01*
X83722Y21493D01*
X83733Y21505D01*
X83756Y21527D01*
X83813Y21573D01*
X83836Y21596D01*
X83893Y21642D01*
X83973Y21722D01*
X84064Y21813D01*
X84293Y21996D01*
X84396Y22075D01*
X84487Y22144D01*
X84498Y22155D01*
X84521Y22167D01*
X84567Y22178D01*
X84613Y22201D01*
X84670Y22224D01*
X84795D01*
X84841Y22201D01*
D02*
G37*
G36*
X161543Y441648D02*
X161657Y441637D01*
X161794Y441625D01*
X161954Y441603D01*
X162114Y441580D01*
X162468Y441500D01*
X162822Y441386D01*
X163004Y441317D01*
X163164Y441237D01*
X163324Y441134D01*
X163473Y441020D01*
X163484Y441009D01*
X163507Y440986D01*
X163541Y440952D01*
X163587Y440906D01*
X163644Y440837D01*
X163701Y440758D01*
X163769Y440678D01*
X163849Y440575D01*
X163918Y440449D01*
X163987Y440324D01*
X164044Y440187D01*
X164112Y440038D01*
X164158Y439878D01*
X164203Y439707D01*
X164238Y439524D01*
X164249Y439330D01*
X162696Y439273D01*
Y439284D01*
Y439296D01*
X162673Y439364D01*
X162650Y439467D01*
X162605Y439593D01*
X162548Y439741D01*
X162468Y439878D01*
X162376Y440004D01*
X162262Y440118D01*
X162251Y440130D01*
X162205Y440164D01*
X162125Y440198D01*
X162022Y440255D01*
X161885Y440301D01*
X161714Y440335D01*
X161508Y440369D01*
X161280Y440381D01*
X161166D01*
X161051Y440369D01*
X160892Y440346D01*
X160732Y440312D01*
X160549Y440255D01*
X160378Y440187D01*
X160229Y440095D01*
X160218Y440084D01*
X160195Y440061D01*
X160149Y440027D01*
X160115Y439970D01*
X160069Y439901D01*
X160024Y439821D01*
X160001Y439730D01*
X159990Y439616D01*
Y439604D01*
Y439570D01*
X160001Y439524D01*
X160024Y439456D01*
X160047Y439387D01*
X160081Y439307D01*
X160138Y439239D01*
X160218Y439159D01*
X160229Y439147D01*
X160275Y439113D01*
X160321Y439090D01*
X160366Y439067D01*
X160423Y439033D01*
X160503Y438999D01*
X160583Y438965D01*
X160686Y438919D01*
X160800Y438873D01*
X160937Y438828D01*
X161086Y438782D01*
X161246Y438736D01*
X161428Y438691D01*
X161634Y438633D01*
X161645D01*
X161680Y438622D01*
X161737Y438611D01*
X161817Y438588D01*
X161908Y438565D01*
X162022Y438531D01*
X162262Y438462D01*
X162536Y438382D01*
X162810Y438291D01*
X163073Y438188D01*
X163198Y438142D01*
X163301Y438085D01*
X163313D01*
X163324Y438074D01*
X163393Y438028D01*
X163495Y437971D01*
X163610Y437880D01*
X163747Y437766D01*
X163895Y437629D01*
X164032Y437480D01*
X164158Y437297D01*
X164169Y437275D01*
X164203Y437206D01*
X164260Y437103D01*
X164318Y436966D01*
X164363Y436783D01*
X164420Y436578D01*
X164455Y436338D01*
X164466Y436075D01*
Y436064D01*
Y436041D01*
Y436007D01*
Y435961D01*
X164443Y435836D01*
X164420Y435676D01*
X164375Y435482D01*
X164306Y435276D01*
X164215Y435048D01*
X164089Y434831D01*
Y434819D01*
X164078Y434808D01*
X164021Y434739D01*
X163941Y434636D01*
X163827Y434511D01*
X163678Y434374D01*
X163495Y434225D01*
X163290Y434088D01*
X163050Y433974D01*
X163039D01*
X163016Y433963D01*
X162981Y433951D01*
X162936Y433928D01*
X162867Y433906D01*
X162787Y433883D01*
X162696Y433860D01*
X162593Y433837D01*
X162479Y433814D01*
X162353Y433791D01*
X162068Y433746D01*
X161748Y433711D01*
X161383Y433700D01*
X161246D01*
X161143Y433711D01*
X161017Y433723D01*
X160880Y433734D01*
X160732Y433757D01*
X160561Y433780D01*
X160195Y433860D01*
X160012Y433917D01*
X159830Y433986D01*
X159647Y434065D01*
X159464Y434157D01*
X159304Y434260D01*
X159144Y434374D01*
X159133Y434385D01*
X159110Y434408D01*
X159076Y434442D01*
X159019Y434499D01*
X158962Y434568D01*
X158893Y434659D01*
X158813Y434751D01*
X158733Y434876D01*
X158653Y435002D01*
X158573Y435150D01*
X158505Y435310D01*
X158425Y435482D01*
X158356Y435676D01*
X158299Y435881D01*
X158254Y436098D01*
X158219Y436338D01*
X159727Y436486D01*
Y436475D01*
X159738Y436452D01*
Y436418D01*
X159750Y436361D01*
X159784Y436224D01*
X159841Y436064D01*
X159909Y435881D01*
X160012Y435687D01*
X160126Y435516D01*
X160264Y435367D01*
X160286Y435356D01*
X160344Y435310D01*
X160435Y435253D01*
X160561Y435196D01*
X160720Y435127D01*
X160915Y435070D01*
X161143Y435025D01*
X161394Y435013D01*
X161520D01*
X161657Y435025D01*
X161817Y435048D01*
X161999Y435093D01*
X162194Y435139D01*
X162365Y435219D01*
X162525Y435322D01*
X162536Y435333D01*
X162582Y435379D01*
X162650Y435447D01*
X162719Y435539D01*
X162787Y435641D01*
X162856Y435767D01*
X162902Y435916D01*
X162913Y436064D01*
Y436075D01*
Y436110D01*
X162902Y436167D01*
X162890Y436224D01*
X162845Y436372D01*
X162810Y436452D01*
X162753Y436532D01*
X162742Y436544D01*
X162719Y436566D01*
X162685Y436601D01*
X162627Y436646D01*
X162548Y436703D01*
X162445Y436749D01*
X162331Y436806D01*
X162194Y436863D01*
X162182D01*
X162136Y436886D01*
X162057Y436909D01*
X161931Y436943D01*
X161862Y436966D01*
X161771Y436989D01*
X161668Y437012D01*
X161554Y437046D01*
X161428Y437080D01*
X161280Y437115D01*
X161120Y437160D01*
X160949Y437206D01*
X160937D01*
X160892Y437217D01*
X160835Y437240D01*
X160743Y437263D01*
X160640Y437286D01*
X160526Y437332D01*
X160401Y437366D01*
X160264Y437411D01*
X159978Y437526D01*
X159693Y437651D01*
X159544Y437720D01*
X159418Y437800D01*
X159304Y437880D01*
X159202Y437960D01*
X159190Y437971D01*
X159167Y437994D01*
X159133Y438028D01*
X159099Y438074D01*
X159042Y438131D01*
X158984Y438211D01*
X158916Y438302D01*
X158859Y438394D01*
X158722Y438622D01*
X158619Y438885D01*
X158573Y439033D01*
X158539Y439182D01*
X158516Y439341D01*
X158505Y439513D01*
Y439524D01*
Y439536D01*
Y439570D01*
Y439616D01*
X158528Y439730D01*
X158551Y439867D01*
X158585Y440038D01*
X158642Y440221D01*
X158722Y440415D01*
X158836Y440609D01*
Y440621D01*
X158847Y440632D01*
X158893Y440689D01*
X158973Y440780D01*
X159076Y440895D01*
X159213Y441020D01*
X159373Y441157D01*
X159567Y441283D01*
X159784Y441386D01*
X159795D01*
X159818Y441397D01*
X159852Y441408D01*
X159898Y441431D01*
X159955Y441454D01*
X160035Y441477D01*
X160115Y441500D01*
X160206Y441523D01*
X160435Y441568D01*
X160686Y441614D01*
X160983Y441648D01*
X161303Y441660D01*
X161440D01*
X161543Y441648D01*
D02*
G37*
G36*
X145440D02*
X145555Y441637D01*
X145692Y441625D01*
X145852Y441603D01*
X146011Y441580D01*
X146365Y441500D01*
X146719Y441386D01*
X146902Y441317D01*
X147062Y441237D01*
X147222Y441134D01*
X147370Y441020D01*
X147382Y441009D01*
X147405Y440986D01*
X147439Y440952D01*
X147485Y440906D01*
X147542Y440837D01*
X147599Y440758D01*
X147667Y440678D01*
X147747Y440575D01*
X147816Y440449D01*
X147884Y440324D01*
X147941Y440187D01*
X148010Y440038D01*
X148056Y439878D01*
X148101Y439707D01*
X148135Y439524D01*
X148147Y439330D01*
X146594Y439273D01*
Y439284D01*
Y439296D01*
X146571Y439364D01*
X146548Y439467D01*
X146502Y439593D01*
X146445Y439741D01*
X146365Y439878D01*
X146274Y440004D01*
X146160Y440118D01*
X146148Y440130D01*
X146103Y440164D01*
X146023Y440198D01*
X145920Y440255D01*
X145783Y440301D01*
X145612Y440335D01*
X145406Y440369D01*
X145178Y440381D01*
X145063D01*
X144949Y440369D01*
X144789Y440346D01*
X144630Y440312D01*
X144447Y440255D01*
X144275Y440187D01*
X144127Y440095D01*
X144116Y440084D01*
X144093Y440061D01*
X144047Y440027D01*
X144013Y439970D01*
X143967Y439901D01*
X143921Y439821D01*
X143899Y439730D01*
X143887Y439616D01*
Y439604D01*
Y439570D01*
X143899Y439524D01*
X143921Y439456D01*
X143944Y439387D01*
X143979Y439307D01*
X144036Y439239D01*
X144116Y439159D01*
X144127Y439147D01*
X144173Y439113D01*
X144218Y439090D01*
X144264Y439067D01*
X144321Y439033D01*
X144401Y438999D01*
X144481Y438965D01*
X144584Y438919D01*
X144698Y438873D01*
X144835Y438828D01*
X144984Y438782D01*
X145143Y438736D01*
X145326Y438691D01*
X145532Y438633D01*
X145543D01*
X145577Y438622D01*
X145634Y438611D01*
X145714Y438588D01*
X145806Y438565D01*
X145920Y438531D01*
X146160Y438462D01*
X146434Y438382D01*
X146708Y438291D01*
X146971Y438188D01*
X147096Y438142D01*
X147199Y438085D01*
X147211D01*
X147222Y438074D01*
X147290Y438028D01*
X147393Y437971D01*
X147507Y437880D01*
X147644Y437766D01*
X147793Y437629D01*
X147930Y437480D01*
X148056Y437297D01*
X148067Y437275D01*
X148101Y437206D01*
X148158Y437103D01*
X148215Y436966D01*
X148261Y436783D01*
X148318Y436578D01*
X148353Y436338D01*
X148364Y436075D01*
Y436064D01*
Y436041D01*
Y436007D01*
Y435961D01*
X148341Y435836D01*
X148318Y435676D01*
X148273Y435482D01*
X148204Y435276D01*
X148113Y435048D01*
X147987Y434831D01*
Y434819D01*
X147976Y434808D01*
X147918Y434739D01*
X147839Y434636D01*
X147724Y434511D01*
X147576Y434374D01*
X147393Y434225D01*
X147188Y434088D01*
X146948Y433974D01*
X146936D01*
X146914Y433963D01*
X146879Y433951D01*
X146834Y433928D01*
X146765Y433906D01*
X146685Y433883D01*
X146594Y433860D01*
X146491Y433837D01*
X146377Y433814D01*
X146251Y433791D01*
X145966Y433746D01*
X145646Y433711D01*
X145281Y433700D01*
X145143D01*
X145041Y433711D01*
X144915Y433723D01*
X144778Y433734D01*
X144630Y433757D01*
X144458Y433780D01*
X144093Y433860D01*
X143910Y433917D01*
X143727Y433986D01*
X143545Y434065D01*
X143362Y434157D01*
X143202Y434260D01*
X143042Y434374D01*
X143031Y434385D01*
X143008Y434408D01*
X142974Y434442D01*
X142917Y434499D01*
X142859Y434568D01*
X142791Y434659D01*
X142711Y434751D01*
X142631Y434876D01*
X142551Y435002D01*
X142471Y435150D01*
X142403Y435310D01*
X142323Y435482D01*
X142254Y435676D01*
X142197Y435881D01*
X142151Y436098D01*
X142117Y436338D01*
X143625Y436486D01*
Y436475D01*
X143636Y436452D01*
Y436418D01*
X143647Y436361D01*
X143682Y436224D01*
X143739Y436064D01*
X143807Y435881D01*
X143910Y435687D01*
X144024Y435516D01*
X144161Y435367D01*
X144184Y435356D01*
X144241Y435310D01*
X144333Y435253D01*
X144458Y435196D01*
X144618Y435127D01*
X144812Y435070D01*
X145041Y435025D01*
X145292Y435013D01*
X145417D01*
X145555Y435025D01*
X145714Y435048D01*
X145897Y435093D01*
X146091Y435139D01*
X146263Y435219D01*
X146423Y435322D01*
X146434Y435333D01*
X146480Y435379D01*
X146548Y435447D01*
X146617Y435539D01*
X146685Y435641D01*
X146754Y435767D01*
X146799Y435916D01*
X146811Y436064D01*
Y436075D01*
Y436110D01*
X146799Y436167D01*
X146788Y436224D01*
X146742Y436372D01*
X146708Y436452D01*
X146651Y436532D01*
X146640Y436544D01*
X146617Y436566D01*
X146582Y436601D01*
X146525Y436646D01*
X146445Y436703D01*
X146343Y436749D01*
X146228Y436806D01*
X146091Y436863D01*
X146080D01*
X146034Y436886D01*
X145954Y436909D01*
X145829Y436943D01*
X145760Y436966D01*
X145669Y436989D01*
X145566Y437012D01*
X145452Y437046D01*
X145326Y437080D01*
X145178Y437115D01*
X145018Y437160D01*
X144846Y437206D01*
X144835D01*
X144789Y437217D01*
X144732Y437240D01*
X144641Y437263D01*
X144538Y437286D01*
X144424Y437332D01*
X144298Y437366D01*
X144161Y437411D01*
X143876Y437526D01*
X143590Y437651D01*
X143442Y437720D01*
X143316Y437800D01*
X143202Y437880D01*
X143099Y437960D01*
X143088Y437971D01*
X143065Y437994D01*
X143031Y438028D01*
X142997Y438074D01*
X142939Y438131D01*
X142882Y438211D01*
X142814Y438302D01*
X142757Y438394D01*
X142620Y438622D01*
X142517Y438885D01*
X142471Y439033D01*
X142437Y439182D01*
X142414Y439341D01*
X142403Y439513D01*
Y439524D01*
Y439536D01*
Y439570D01*
Y439616D01*
X142426Y439730D01*
X142448Y439867D01*
X142483Y440038D01*
X142540Y440221D01*
X142620Y440415D01*
X142734Y440609D01*
Y440621D01*
X142745Y440632D01*
X142791Y440689D01*
X142871Y440780D01*
X142974Y440895D01*
X143111Y441020D01*
X143271Y441157D01*
X143465Y441283D01*
X143682Y441386D01*
X143693D01*
X143716Y441397D01*
X143750Y441408D01*
X143796Y441431D01*
X143853Y441454D01*
X143933Y441477D01*
X144013Y441500D01*
X144104Y441523D01*
X144333Y441568D01*
X144584Y441614D01*
X144881Y441648D01*
X145201Y441660D01*
X145338D01*
X145440Y441648D01*
D02*
G37*
G36*
X135117Y439524D02*
X135242Y439501D01*
X135391Y439467D01*
X135551Y439410D01*
X135733Y439341D01*
X135905Y439250D01*
X135448Y437960D01*
X135436Y437971D01*
X135379Y437994D01*
X135311Y438040D01*
X135220Y438085D01*
X135117Y438131D01*
X134991Y438177D01*
X134877Y438200D01*
X134751Y438211D01*
X134706D01*
X134637Y438200D01*
X134569Y438188D01*
X134489Y438165D01*
X134397Y438142D01*
X134306Y438097D01*
X134226Y438040D01*
X134214Y438028D01*
X134192Y438005D01*
X134146Y437960D01*
X134100Y437903D01*
X134043Y437811D01*
X133986Y437708D01*
X133929Y437583D01*
X133883Y437423D01*
Y437400D01*
X133872Y437377D01*
X133861Y437332D01*
Y437275D01*
X133849Y437206D01*
X133838Y437126D01*
X133826Y437023D01*
X133815Y436909D01*
X133803Y436772D01*
X133792Y436623D01*
Y436452D01*
X133781Y436258D01*
X133769Y436053D01*
Y435813D01*
Y435562D01*
Y433848D01*
X132296D01*
Y439421D01*
X133666D01*
Y438633D01*
X133678Y438645D01*
X133723Y438713D01*
X133792Y438805D01*
X133872Y438919D01*
X133963Y439045D01*
X134066Y439170D01*
X134180Y439273D01*
X134283Y439353D01*
X134294Y439364D01*
X134329Y439387D01*
X134397Y439410D01*
X134477Y439444D01*
X134569Y439478D01*
X134683Y439513D01*
X134797Y439524D01*
X134934Y439536D01*
X135025D01*
X135117Y439524D01*
D02*
G37*
G36*
X157089Y433848D02*
X155650D01*
X155638Y439890D01*
X154108Y433848D01*
X152624D01*
X151105Y439890D01*
Y433848D01*
X149666D01*
Y441534D01*
X151984D01*
X153377Y436281D01*
X154748Y441534D01*
X157089D01*
Y433848D01*
D02*
G37*
G36*
X185330D02*
X184006D01*
X181767Y439421D01*
X183309D01*
X184360Y436566D01*
X184668Y435619D01*
Y435630D01*
X184691Y435676D01*
X184702Y435744D01*
X184725Y435813D01*
X184782Y435973D01*
X184805Y436041D01*
X184817Y436098D01*
Y436110D01*
X184828Y436144D01*
X184851Y436190D01*
X184862Y436247D01*
X184919Y436395D01*
X184976Y436566D01*
X186027Y439421D01*
X187546D01*
X185330Y433848D01*
D02*
G37*
G36*
X172335Y441523D02*
X172449D01*
X172574Y441511D01*
X172711D01*
X173008Y441477D01*
X173305Y441443D01*
X173579Y441386D01*
X173705Y441351D01*
X173819Y441317D01*
X173830D01*
X173842Y441306D01*
X173910Y441283D01*
X174013Y441226D01*
X174139Y441146D01*
X174287Y441043D01*
X174436Y440917D01*
X174573Y440769D01*
X174710Y440586D01*
X174721Y440563D01*
X174767Y440495D01*
X174824Y440381D01*
X174881Y440244D01*
X174950Y440061D01*
X174995Y439855D01*
X175041Y439627D01*
X175052Y439376D01*
Y439364D01*
Y439341D01*
Y439296D01*
X175041Y439227D01*
Y439159D01*
X175030Y439067D01*
X174984Y438873D01*
X174927Y438645D01*
X174836Y438405D01*
X174710Y438165D01*
X174630Y438051D01*
X174539Y437937D01*
Y437925D01*
X174516Y437914D01*
X174481Y437880D01*
X174447Y437846D01*
X174390Y437800D01*
X174322Y437754D01*
X174253Y437697D01*
X174162Y437640D01*
X174059Y437583D01*
X173945Y437526D01*
X173830Y437457D01*
X173694Y437411D01*
X173545Y437354D01*
X173385Y437309D01*
X173214Y437275D01*
X173031Y437240D01*
X173043D01*
X173054Y437229D01*
X173111Y437183D01*
X173202Y437126D01*
X173328Y437046D01*
X173454Y436955D01*
X173591Y436840D01*
X173728Y436715D01*
X173853Y436589D01*
X173865Y436578D01*
X173910Y436521D01*
X173990Y436429D01*
X174093Y436304D01*
X174219Y436132D01*
X174287Y436030D01*
X174367Y435916D01*
X174447Y435790D01*
X174539Y435653D01*
X174630Y435504D01*
X174733Y435345D01*
X175680Y433848D01*
X173819D01*
X172700Y435516D01*
X172688Y435527D01*
X172677Y435550D01*
X172643Y435596D01*
X172609Y435664D01*
X172552Y435733D01*
X172506Y435813D01*
X172380Y435995D01*
X172243Y436190D01*
X172106Y436372D01*
X171981Y436532D01*
X171923Y436601D01*
X171878Y436646D01*
X171866Y436658D01*
X171843Y436681D01*
X171798Y436726D01*
X171741Y436772D01*
X171672Y436829D01*
X171592Y436875D01*
X171501Y436932D01*
X171409Y436966D01*
X171398D01*
X171364Y436977D01*
X171307Y437000D01*
X171227Y437012D01*
X171113Y437035D01*
X170975Y437046D01*
X170816Y437057D01*
X170325D01*
Y433848D01*
X168771D01*
Y441534D01*
X172232D01*
X172335Y441523D01*
D02*
G37*
G36*
X138954Y439524D02*
X139045D01*
X139262Y439501D01*
X139502Y439478D01*
X139742Y439433D01*
X139970Y439376D01*
X140084Y439341D01*
X140176Y439296D01*
X140187D01*
X140199Y439284D01*
X140256Y439250D01*
X140347Y439204D01*
X140450Y439136D01*
X140564Y439056D01*
X140667Y438953D01*
X140781Y438828D01*
X140861Y438702D01*
X140872Y438691D01*
X140895Y438633D01*
X140929Y438542D01*
X140964Y438405D01*
X140987Y438325D01*
X140998Y438222D01*
X141021Y438120D01*
X141032Y437994D01*
X141044Y437868D01*
X141055Y437720D01*
X141067Y437560D01*
Y437389D01*
X141044Y435676D01*
Y435664D01*
Y435641D01*
Y435607D01*
Y435550D01*
Y435424D01*
X141055Y435264D01*
Y435082D01*
X141078Y434899D01*
X141089Y434728D01*
X141112Y434579D01*
Y434568D01*
X141124Y434522D01*
X141147Y434454D01*
X141169Y434362D01*
X141204Y434248D01*
X141249Y434123D01*
X141306Y433997D01*
X141375Y433848D01*
X139913D01*
Y433860D01*
X139902Y433871D01*
X139890Y433906D01*
X139867Y433951D01*
X139845Y434020D01*
X139822Y434088D01*
X139799Y434180D01*
X139765Y434282D01*
Y434294D01*
Y434305D01*
X139742Y434351D01*
X139730Y434408D01*
X139719Y434454D01*
X139708Y434442D01*
X139650Y434397D01*
X139582Y434328D01*
X139479Y434248D01*
X139354Y434157D01*
X139216Y434065D01*
X139068Y433986D01*
X138908Y433906D01*
X138885Y433894D01*
X138840Y433883D01*
X138748Y433848D01*
X138634Y433814D01*
X138497Y433780D01*
X138349Y433757D01*
X138177Y433734D01*
X137995Y433723D01*
X137915D01*
X137857Y433734D01*
X137778D01*
X137698Y433746D01*
X137504Y433780D01*
X137286Y433837D01*
X137069Y433917D01*
X136841Y434031D01*
X136647Y434180D01*
Y434191D01*
X136624Y434202D01*
X136567Y434260D01*
X136487Y434362D01*
X136407Y434499D01*
X136316Y434671D01*
X136236Y434876D01*
X136179Y435105D01*
X136167Y435230D01*
X136156Y435356D01*
Y435379D01*
Y435436D01*
X136167Y435527D01*
X136179Y435641D01*
X136213Y435767D01*
X136247Y435904D01*
X136304Y436053D01*
X136373Y436190D01*
X136384Y436201D01*
X136419Y436247D01*
X136464Y436315D01*
X136533Y436407D01*
X136624Y436498D01*
X136738Y436589D01*
X136864Y436681D01*
X137001Y436761D01*
X137024Y436772D01*
X137081Y436795D01*
X137172Y436829D01*
X137298Y436875D01*
X137469Y436932D01*
X137675Y436989D01*
X137903Y437046D01*
X138177Y437103D01*
X138189D01*
X138223Y437115D01*
X138280Y437126D01*
X138349Y437137D01*
X138428Y437149D01*
X138531Y437172D01*
X138748Y437217D01*
X138988Y437275D01*
X139228Y437343D01*
X139445Y437400D01*
X139536Y437434D01*
X139616Y437469D01*
Y437606D01*
Y437629D01*
Y437674D01*
X139605Y437754D01*
X139593Y437846D01*
X139559Y437948D01*
X139525Y438051D01*
X139468Y438142D01*
X139399Y438222D01*
X139388Y438234D01*
X139354Y438257D01*
X139296Y438279D01*
X139216Y438314D01*
X139114Y438348D01*
X138965Y438382D01*
X138805Y438394D01*
X138600Y438405D01*
X138531D01*
X138463Y438394D01*
X138371Y438382D01*
X138166Y438337D01*
X138075Y438302D01*
X137983Y438245D01*
X137972Y438234D01*
X137949Y438211D01*
X137903Y438177D01*
X137857Y438120D01*
X137800Y438040D01*
X137743Y437948D01*
X137686Y437834D01*
X137629Y437697D01*
X136304Y437937D01*
Y437948D01*
X136316Y437971D01*
X136327Y438017D01*
X136350Y438074D01*
X136373Y438142D01*
X136407Y438211D01*
X136487Y438394D01*
X136590Y438588D01*
X136715Y438782D01*
X136875Y438976D01*
X137069Y439136D01*
X137081D01*
X137092Y439159D01*
X137127Y439170D01*
X137172Y439204D01*
X137229Y439227D01*
X137309Y439261D01*
X137389Y439296D01*
X137481Y439341D01*
X137595Y439376D01*
X137721Y439410D01*
X137857Y439444D01*
X137995Y439478D01*
X138154Y439501D01*
X138337Y439524D01*
X138520Y439536D01*
X138874D01*
X138954Y439524D01*
D02*
G37*
G36*
X120853Y435150D02*
X124713D01*
Y433848D01*
X119300D01*
Y441466D01*
X120853D01*
Y435150D01*
D02*
G37*
G36*
X199765Y441557D02*
X199857Y441545D01*
X199971Y441523D01*
X200085Y441500D01*
X200222Y441466D01*
X200359Y441431D01*
X200496Y441374D01*
X200645Y441306D01*
X200793Y441237D01*
X200930Y441134D01*
X201079Y441032D01*
X201204Y440906D01*
X201330Y440769D01*
X201341Y440758D01*
X201364Y440723D01*
X201398Y440666D01*
X201444Y440586D01*
X201501Y440484D01*
X201570Y440358D01*
X201638Y440198D01*
X201707Y440027D01*
X201775Y439821D01*
X201844Y439593D01*
X201912Y439330D01*
X201969Y439045D01*
X202015Y438736D01*
X202049Y438405D01*
X202072Y438040D01*
X202084Y437640D01*
Y437629D01*
Y437617D01*
Y437583D01*
Y437548D01*
Y437434D01*
X202072Y437286D01*
X202061Y437103D01*
X202038Y436898D01*
X202015Y436669D01*
X201992Y436429D01*
X201901Y435916D01*
X201832Y435653D01*
X201764Y435390D01*
X201673Y435150D01*
X201570Y434910D01*
X201455Y434693D01*
X201318Y434499D01*
X201307Y434488D01*
X201296Y434465D01*
X201250Y434431D01*
X201204Y434374D01*
X201147Y434317D01*
X201067Y434260D01*
X200976Y434180D01*
X200873Y434111D01*
X200759Y434043D01*
X200622Y433974D01*
X200485Y433906D01*
X200325Y433848D01*
X200154Y433791D01*
X199982Y433757D01*
X199788Y433734D01*
X199583Y433723D01*
X199537D01*
X199468Y433734D01*
X199400D01*
X199297Y433746D01*
X199194Y433769D01*
X199069Y433791D01*
X198932Y433826D01*
X198795Y433871D01*
X198646Y433928D01*
X198486Y433997D01*
X198338Y434088D01*
X198189Y434180D01*
X198041Y434294D01*
X197904Y434431D01*
X197767Y434579D01*
X197755Y434591D01*
X197733Y434625D01*
X197698Y434671D01*
X197664Y434751D01*
X197607Y434842D01*
X197550Y434968D01*
X197493Y435116D01*
X197424Y435287D01*
X197356Y435482D01*
X197299Y435710D01*
X197241Y435961D01*
X197184Y436235D01*
X197150Y436544D01*
X197116Y436886D01*
X197093Y437252D01*
X197082Y437651D01*
Y437663D01*
Y437674D01*
Y437708D01*
Y437743D01*
Y437857D01*
X197093Y438005D01*
X197105Y438188D01*
X197127Y438394D01*
X197150Y438611D01*
X197173Y438862D01*
X197264Y439364D01*
X197321Y439627D01*
X197401Y439890D01*
X197481Y440141D01*
X197584Y440369D01*
X197698Y440586D01*
X197835Y440780D01*
X197847Y440792D01*
X197870Y440815D01*
X197904Y440849D01*
X197950Y440906D01*
X198018Y440963D01*
X198098Y441032D01*
X198189Y441100D01*
X198292Y441180D01*
X198406Y441249D01*
X198543Y441317D01*
X198680Y441386D01*
X198840Y441443D01*
X199012Y441500D01*
X199183Y441534D01*
X199377Y441557D01*
X199583Y441568D01*
X199685D01*
X199765Y441557D01*
D02*
G37*
G36*
X193793D02*
X193884Y441545D01*
X193998Y441523D01*
X194112Y441500D01*
X194249Y441466D01*
X194386Y441431D01*
X194524Y441374D01*
X194672Y441306D01*
X194820Y441237D01*
X194957Y441134D01*
X195106Y441032D01*
X195232Y440906D01*
X195357Y440769D01*
X195369Y440758D01*
X195391Y440723D01*
X195426Y440666D01*
X195471Y440586D01*
X195528Y440484D01*
X195597Y440358D01*
X195666Y440198D01*
X195734Y440027D01*
X195803Y439821D01*
X195871Y439593D01*
X195940Y439330D01*
X195997Y439045D01*
X196042Y438736D01*
X196077Y438405D01*
X196099Y438040D01*
X196111Y437640D01*
Y437629D01*
Y437617D01*
Y437583D01*
Y437548D01*
Y437434D01*
X196099Y437286D01*
X196088Y437103D01*
X196065Y436898D01*
X196042Y436669D01*
X196020Y436429D01*
X195928Y435916D01*
X195860Y435653D01*
X195791Y435390D01*
X195700Y435150D01*
X195597Y434910D01*
X195483Y434693D01*
X195346Y434499D01*
X195334Y434488D01*
X195323Y434465D01*
X195277Y434431D01*
X195232Y434374D01*
X195175Y434317D01*
X195095Y434260D01*
X195003Y434180D01*
X194900Y434111D01*
X194786Y434043D01*
X194649Y433974D01*
X194512Y433906D01*
X194352Y433848D01*
X194181Y433791D01*
X194010Y433757D01*
X193816Y433734D01*
X193610Y433723D01*
X193564D01*
X193496Y433734D01*
X193427D01*
X193324Y433746D01*
X193222Y433769D01*
X193096Y433791D01*
X192959Y433826D01*
X192822Y433871D01*
X192674Y433928D01*
X192514Y433997D01*
X192365Y434088D01*
X192217Y434180D01*
X192068Y434294D01*
X191931Y434431D01*
X191794Y434579D01*
X191783Y434591D01*
X191760Y434625D01*
X191726Y434671D01*
X191691Y434751D01*
X191634Y434842D01*
X191577Y434968D01*
X191520Y435116D01*
X191452Y435287D01*
X191383Y435482D01*
X191326Y435710D01*
X191269Y435961D01*
X191212Y436235D01*
X191177Y436544D01*
X191143Y436886D01*
X191120Y437252D01*
X191109Y437651D01*
Y437663D01*
Y437674D01*
Y437708D01*
Y437743D01*
Y437857D01*
X191120Y438005D01*
X191132Y438188D01*
X191155Y438394D01*
X191177Y438611D01*
X191200Y438862D01*
X191292Y439364D01*
X191349Y439627D01*
X191429Y439890D01*
X191509Y440141D01*
X191611Y440369D01*
X191726Y440586D01*
X191863Y440780D01*
X191874Y440792D01*
X191897Y440815D01*
X191931Y440849D01*
X191977Y440906D01*
X192045Y440963D01*
X192125Y441032D01*
X192217Y441100D01*
X192320Y441180D01*
X192434Y441249D01*
X192571Y441317D01*
X192708Y441386D01*
X192868Y441443D01*
X193039Y441500D01*
X193210Y441534D01*
X193404Y441557D01*
X193610Y441568D01*
X193713D01*
X193793Y441557D01*
D02*
G37*
G36*
X178832Y439524D02*
X178935Y439513D01*
X179061Y439490D01*
X179198Y439467D01*
X179335Y439433D01*
X179495Y439387D01*
X179655Y439330D01*
X179815Y439273D01*
X179974Y439193D01*
X180134Y439090D01*
X180294Y438987D01*
X180443Y438862D01*
X180580Y438713D01*
X180591Y438702D01*
X180614Y438679D01*
X180648Y438622D01*
X180694Y438553D01*
X180751Y438474D01*
X180808Y438359D01*
X180865Y438234D01*
X180934Y438097D01*
X181002Y437925D01*
X181071Y437743D01*
X181128Y437537D01*
X181174Y437309D01*
X181219Y437057D01*
X181254Y436795D01*
X181276Y436509D01*
Y436201D01*
X177588D01*
Y436190D01*
Y436167D01*
Y436132D01*
X177599Y436087D01*
X177611Y435973D01*
X177633Y435824D01*
X177679Y435664D01*
X177736Y435493D01*
X177816Y435322D01*
X177930Y435173D01*
X177942Y435162D01*
X177987Y435116D01*
X178067Y435059D01*
X178170Y435002D01*
X178296Y434933D01*
X178433Y434876D01*
X178604Y434831D01*
X178787Y434819D01*
X178844D01*
X178912Y434831D01*
X178992Y434842D01*
X179072Y434865D01*
X179175Y434899D01*
X179266Y434945D01*
X179358Y435002D01*
X179369Y435013D01*
X179392Y435036D01*
X179438Y435082D01*
X179495Y435150D01*
X179552Y435242D01*
X179609Y435345D01*
X179666Y435470D01*
X179723Y435619D01*
X181196Y435367D01*
Y435356D01*
X181185Y435333D01*
X181162Y435287D01*
X181139Y435230D01*
X181116Y435162D01*
X181071Y435093D01*
X180979Y434910D01*
X180854Y434705D01*
X180694Y434511D01*
X180511Y434305D01*
X180294Y434134D01*
X180283D01*
X180271Y434111D01*
X180237Y434100D01*
X180191Y434065D01*
X180123Y434043D01*
X180054Y434008D01*
X179974Y433963D01*
X179883Y433928D01*
X179655Y433848D01*
X179403Y433791D01*
X179106Y433746D01*
X178775Y433723D01*
X178707D01*
X178638Y433734D01*
X178535D01*
X178421Y433757D01*
X178284Y433769D01*
X178124Y433803D01*
X177964Y433837D01*
X177793Y433894D01*
X177611Y433951D01*
X177439Y434031D01*
X177257Y434123D01*
X177085Y434237D01*
X176925Y434362D01*
X176765Y434499D01*
X176628Y434671D01*
X176617Y434682D01*
X176606Y434705D01*
X176583Y434751D01*
X176549Y434808D01*
X176503Y434876D01*
X176457Y434968D01*
X176411Y435070D01*
X176354Y435196D01*
X176309Y435322D01*
X176251Y435470D01*
X176206Y435630D01*
X176172Y435790D01*
X176126Y435973D01*
X176103Y436167D01*
X176092Y436372D01*
X176080Y436578D01*
Y436589D01*
Y436635D01*
Y436715D01*
X176092Y436806D01*
X176103Y436920D01*
X176114Y437057D01*
X176137Y437206D01*
X176172Y437366D01*
X176251Y437720D01*
X176320Y437891D01*
X176389Y438074D01*
X176469Y438257D01*
X176560Y438428D01*
X176674Y438599D01*
X176800Y438748D01*
X176811Y438759D01*
X176834Y438782D01*
X176868Y438816D01*
X176925Y438873D01*
X177005Y438930D01*
X177085Y438999D01*
X177188Y439067D01*
X177302Y439147D01*
X177428Y439216D01*
X177565Y439284D01*
X177713Y439353D01*
X177873Y439410D01*
X178044Y439467D01*
X178227Y439501D01*
X178421Y439524D01*
X178627Y439536D01*
X178741D01*
X178832Y439524D01*
D02*
G37*
G36*
X128527D02*
X128642Y439513D01*
X128767Y439490D01*
X128904Y439467D01*
X129053Y439433D01*
X129213Y439387D01*
X129384Y439330D01*
X129555Y439273D01*
X129727Y439193D01*
X129898Y439090D01*
X130069Y438987D01*
X130229Y438862D01*
X130389Y438713D01*
X130400Y438702D01*
X130423Y438679D01*
X130469Y438633D01*
X130514Y438565D01*
X130571Y438485D01*
X130640Y438382D01*
X130720Y438279D01*
X130800Y438142D01*
X130868Y438005D01*
X130948Y437846D01*
X131017Y437674D01*
X131074Y437491D01*
X131120Y437297D01*
X131165Y437080D01*
X131188Y436863D01*
X131200Y436635D01*
Y436623D01*
Y436578D01*
Y436509D01*
X131188Y436429D01*
X131177Y436315D01*
X131154Y436190D01*
X131131Y436053D01*
X131097Y435904D01*
X131051Y435744D01*
X130994Y435573D01*
X130937Y435402D01*
X130857Y435219D01*
X130754Y435048D01*
X130651Y434876D01*
X130526Y434705D01*
X130377Y434545D01*
X130366Y434534D01*
X130343Y434511D01*
X130298Y434465D01*
X130229Y434419D01*
X130149Y434351D01*
X130058Y434282D01*
X129943Y434214D01*
X129818Y434134D01*
X129681Y434054D01*
X129521Y433986D01*
X129350Y433917D01*
X129178Y433848D01*
X128984Y433803D01*
X128779Y433757D01*
X128562Y433734D01*
X128333Y433723D01*
X128253D01*
X128208Y433734D01*
X128139D01*
X128059Y433746D01*
X127865Y433769D01*
X127637Y433803D01*
X127397Y433871D01*
X127134Y433951D01*
X126872Y434065D01*
X126860D01*
X126837Y434077D01*
X126803Y434100D01*
X126757Y434134D01*
X126632Y434214D01*
X126483Y434317D01*
X126312Y434465D01*
X126141Y434636D01*
X125969Y434842D01*
X125821Y435070D01*
Y435082D01*
X125809Y435105D01*
X125787Y435139D01*
X125764Y435196D01*
X125741Y435253D01*
X125707Y435333D01*
X125672Y435424D01*
X125649Y435527D01*
X125581Y435767D01*
X125524Y436041D01*
X125478Y436361D01*
X125467Y436703D01*
Y436715D01*
Y436738D01*
Y436772D01*
X125478Y436829D01*
Y436898D01*
X125490Y436966D01*
X125513Y437160D01*
X125558Y437366D01*
X125615Y437606D01*
X125707Y437857D01*
X125821Y438120D01*
Y438131D01*
X125844Y438154D01*
X125855Y438188D01*
X125889Y438234D01*
X125969Y438359D01*
X126084Y438508D01*
X126232Y438679D01*
X126415Y438850D01*
X126620Y439022D01*
X126849Y439170D01*
X126860D01*
X126883Y439182D01*
X126917Y439204D01*
X126963Y439227D01*
X127031Y439250D01*
X127100Y439284D01*
X127283Y439353D01*
X127500Y439421D01*
X127751Y439478D01*
X128025Y439524D01*
X128322Y439536D01*
X128447D01*
X128527Y439524D01*
D02*
G37*
%LPC*%
G36*
X172106Y440232D02*
X170325D01*
Y438279D01*
X171832D01*
X172060Y438291D01*
X172289Y438302D01*
X172517Y438314D01*
X172620Y438325D01*
X172711Y438337D01*
X172791Y438359D01*
X172848Y438371D01*
X172860D01*
X172894Y438394D01*
X172951Y438416D01*
X173008Y438451D01*
X173088Y438485D01*
X173157Y438542D01*
X173225Y438611D01*
X173294Y438691D01*
X173305Y438702D01*
X173317Y438736D01*
X173339Y438782D01*
X173374Y438850D01*
X173408Y438942D01*
X173431Y439033D01*
X173442Y439147D01*
X173454Y439273D01*
Y439296D01*
Y439341D01*
X173442Y439410D01*
X173431Y439501D01*
X173397Y439593D01*
X173362Y439707D01*
X173305Y439810D01*
X173237Y439901D01*
X173225Y439913D01*
X173202Y439935D01*
X173157Y439981D01*
X173088Y440027D01*
X173008Y440084D01*
X172906Y440130D01*
X172791Y440164D01*
X172654Y440198D01*
X172643D01*
X172609Y440209D01*
X172552D01*
X172449Y440221D01*
X172209D01*
X172106Y440232D01*
D02*
G37*
G36*
X139616Y436509D02*
X139605D01*
X139559Y436486D01*
X139491Y436475D01*
X139399Y436441D01*
X139274Y436407D01*
X139114Y436372D01*
X138931Y436327D01*
X138714Y436281D01*
X138691D01*
X138611Y436258D01*
X138508Y436235D01*
X138383Y436201D01*
X138246Y436167D01*
X138120Y436121D01*
X138006Y436075D01*
X137915Y436030D01*
X137903Y436018D01*
X137869Y435995D01*
X137823Y435950D01*
X137778Y435893D01*
X137721Y435813D01*
X137675Y435721D01*
X137641Y435630D01*
X137629Y435516D01*
Y435504D01*
Y435470D01*
X137641Y435402D01*
X137663Y435333D01*
X137686Y435253D01*
X137721Y435162D01*
X137778Y435070D01*
X137857Y434979D01*
X137869Y434968D01*
X137903Y434945D01*
X137949Y434910D01*
X138017Y434876D01*
X138097Y434831D01*
X138200Y434796D01*
X138314Y434773D01*
X138440Y434762D01*
X138508D01*
X138588Y434773D01*
X138691Y434796D01*
X138805Y434819D01*
X138931Y434865D01*
X139068Y434933D01*
X139205Y435013D01*
X139216Y435025D01*
X139251Y435048D01*
X139296Y435093D01*
X139342Y435150D01*
X139399Y435219D01*
X139456Y435310D01*
X139513Y435402D01*
X139548Y435504D01*
Y435516D01*
X139559Y435539D01*
X139570Y435596D01*
X139582Y435664D01*
X139593Y435756D01*
X139605Y435881D01*
X139616Y436030D01*
Y436212D01*
Y436509D01*
D02*
G37*
G36*
X199583Y440346D02*
X199537D01*
X199480Y440335D01*
X199423Y440324D01*
X199343Y440301D01*
X199263Y440278D01*
X199183Y440232D01*
X199103Y440175D01*
X199091Y440164D01*
X199069Y440141D01*
X199034Y440095D01*
X198989Y440038D01*
X198932Y439947D01*
X198886Y439844D01*
X198829Y439718D01*
X198783Y439559D01*
Y439547D01*
X198772Y439536D01*
Y439501D01*
X198760Y439444D01*
X198749Y439387D01*
X198738Y439307D01*
X198726Y439216D01*
X198715Y439102D01*
X198692Y438976D01*
X198680Y438839D01*
X198669Y438679D01*
X198658Y438508D01*
X198646Y438314D01*
Y438108D01*
X198635Y437880D01*
Y437640D01*
Y437629D01*
Y437583D01*
Y437514D01*
Y437423D01*
Y437309D01*
X198646Y437183D01*
Y437046D01*
Y436898D01*
X198669Y436589D01*
X198692Y436281D01*
X198703Y436132D01*
X198715Y436007D01*
X198738Y435881D01*
X198760Y435778D01*
X198772Y435756D01*
X198783Y435699D01*
X198818Y435607D01*
X198852Y435504D01*
X198909Y435390D01*
X198966Y435287D01*
X199034Y435185D01*
X199103Y435105D01*
X199114Y435093D01*
X199137Y435082D01*
X199183Y435059D01*
X199240Y435025D01*
X199309Y434991D01*
X199389Y434968D01*
X199480Y434956D01*
X199583Y434945D01*
X199628D01*
X199674Y434956D01*
X199742Y434968D01*
X199891Y435013D01*
X199971Y435048D01*
X200051Y435105D01*
X200062Y435116D01*
X200085Y435139D01*
X200119Y435185D01*
X200165Y435242D01*
X200222Y435333D01*
X200268Y435436D01*
X200325Y435573D01*
X200371Y435721D01*
Y435733D01*
X200382Y435744D01*
Y435778D01*
X200393Y435836D01*
X200405Y435893D01*
X200416Y435973D01*
X200439Y436064D01*
X200450Y436167D01*
X200462Y436292D01*
X200485Y436441D01*
X200496Y436589D01*
X200508Y436772D01*
X200519Y436955D01*
Y437172D01*
X200531Y437400D01*
Y437640D01*
Y437651D01*
Y437697D01*
Y437766D01*
Y437857D01*
Y437971D01*
X200519Y438097D01*
Y438234D01*
Y438382D01*
X200496Y438679D01*
X200473Y438987D01*
X200462Y439136D01*
X200439Y439261D01*
X200416Y439387D01*
X200393Y439490D01*
Y439501D01*
X200382Y439513D01*
X200371Y439570D01*
X200336Y439661D01*
X200302Y439764D01*
X200245Y439878D01*
X200188Y439992D01*
X200119Y440095D01*
X200051Y440175D01*
X200039Y440187D01*
X200017Y440198D01*
X199971Y440232D01*
X199914Y440267D01*
X199845Y440289D01*
X199765Y440324D01*
X199674Y440335D01*
X199583Y440346D01*
D02*
G37*
G36*
X193610D02*
X193564D01*
X193507Y440335D01*
X193450Y440324D01*
X193370Y440301D01*
X193290Y440278D01*
X193210Y440232D01*
X193130Y440175D01*
X193119Y440164D01*
X193096Y440141D01*
X193062Y440095D01*
X193016Y440038D01*
X192959Y439947D01*
X192913Y439844D01*
X192856Y439718D01*
X192810Y439559D01*
Y439547D01*
X192799Y439536D01*
Y439501D01*
X192788Y439444D01*
X192776Y439387D01*
X192765Y439307D01*
X192753Y439216D01*
X192742Y439102D01*
X192719Y438976D01*
X192708Y438839D01*
X192696Y438679D01*
X192685Y438508D01*
X192674Y438314D01*
Y438108D01*
X192662Y437880D01*
Y437640D01*
Y437629D01*
Y437583D01*
Y437514D01*
Y437423D01*
Y437309D01*
X192674Y437183D01*
Y437046D01*
Y436898D01*
X192696Y436589D01*
X192719Y436281D01*
X192731Y436132D01*
X192742Y436007D01*
X192765Y435881D01*
X192788Y435778D01*
X192799Y435756D01*
X192810Y435699D01*
X192845Y435607D01*
X192879Y435504D01*
X192936Y435390D01*
X192993Y435287D01*
X193062Y435185D01*
X193130Y435105D01*
X193142Y435093D01*
X193165Y435082D01*
X193210Y435059D01*
X193267Y435025D01*
X193336Y434991D01*
X193416Y434968D01*
X193507Y434956D01*
X193610Y434945D01*
X193656D01*
X193701Y434956D01*
X193770Y434968D01*
X193918Y435013D01*
X193998Y435048D01*
X194078Y435105D01*
X194090Y435116D01*
X194112Y435139D01*
X194147Y435185D01*
X194192Y435242D01*
X194249Y435333D01*
X194295Y435436D01*
X194352Y435573D01*
X194398Y435721D01*
Y435733D01*
X194409Y435744D01*
Y435778D01*
X194421Y435836D01*
X194432Y435893D01*
X194444Y435973D01*
X194466Y436064D01*
X194478Y436167D01*
X194489Y436292D01*
X194512Y436441D01*
X194524Y436589D01*
X194535Y436772D01*
X194546Y436955D01*
Y437172D01*
X194558Y437400D01*
Y437640D01*
Y437651D01*
Y437697D01*
Y437766D01*
Y437857D01*
Y437971D01*
X194546Y438097D01*
Y438234D01*
Y438382D01*
X194524Y438679D01*
X194501Y438987D01*
X194489Y439136D01*
X194466Y439261D01*
X194444Y439387D01*
X194421Y439490D01*
Y439501D01*
X194409Y439513D01*
X194398Y439570D01*
X194364Y439661D01*
X194329Y439764D01*
X194272Y439878D01*
X194215Y439992D01*
X194147Y440095D01*
X194078Y440175D01*
X194067Y440187D01*
X194044Y440198D01*
X193998Y440232D01*
X193941Y440267D01*
X193873Y440289D01*
X193793Y440324D01*
X193701Y440335D01*
X193610Y440346D01*
D02*
G37*
G36*
X178718Y438405D02*
X178638D01*
X178547Y438382D01*
X178433Y438359D01*
X178307Y438314D01*
X178170Y438257D01*
X178044Y438165D01*
X177919Y438051D01*
X177907Y438040D01*
X177873Y437983D01*
X177816Y437903D01*
X177759Y437800D01*
X177702Y437663D01*
X177656Y437503D01*
X177622Y437320D01*
X177611Y437103D01*
X179815D01*
Y437115D01*
Y437126D01*
Y437160D01*
X179803Y437206D01*
X179792Y437320D01*
X179769Y437457D01*
X179723Y437617D01*
X179666Y437777D01*
X179575Y437925D01*
X179472Y438062D01*
X179461Y438074D01*
X179415Y438120D01*
X179346Y438177D01*
X179266Y438234D01*
X179152Y438302D01*
X179027Y438348D01*
X178878Y438394D01*
X178718Y438405D01*
D02*
G37*
G36*
X128322Y438337D02*
X128299D01*
X128230Y438325D01*
X128116Y438314D01*
X127991Y438279D01*
X127842Y438234D01*
X127682Y438154D01*
X127511Y438040D01*
X127363Y437891D01*
X127351Y437868D01*
X127305Y437811D01*
X127237Y437708D01*
X127168Y437571D01*
X127100Y437389D01*
X127031Y437172D01*
X126986Y436909D01*
X126974Y436623D01*
Y436612D01*
Y436589D01*
Y436544D01*
X126986Y436486D01*
Y436418D01*
X126997Y436338D01*
X127020Y436155D01*
X127066Y435950D01*
X127134Y435744D01*
X127237Y435539D01*
X127363Y435356D01*
X127385Y435333D01*
X127431Y435287D01*
X127511Y435219D01*
X127625Y435139D01*
X127762Y435059D01*
X127934Y434991D01*
X128116Y434945D01*
X128322Y434922D01*
X128345D01*
X128413Y434933D01*
X128527Y434945D01*
X128653Y434979D01*
X128813Y435025D01*
X128973Y435105D01*
X129133Y435207D01*
X129281Y435356D01*
X129304Y435379D01*
X129350Y435436D01*
X129407Y435539D01*
X129487Y435687D01*
X129555Y435870D01*
X129624Y436087D01*
X129669Y436338D01*
X129681Y436635D01*
Y436646D01*
Y436669D01*
Y436715D01*
X129669Y436772D01*
Y436840D01*
X129658Y436920D01*
X129635Y437092D01*
X129578Y437297D01*
X129509Y437503D01*
X129418Y437708D01*
X129281Y437891D01*
X129258Y437914D01*
X129213Y437960D01*
X129133Y438028D01*
X129018Y438120D01*
X128881Y438200D01*
X128710Y438268D01*
X128527Y438314D01*
X128322Y438337D01*
D02*
G37*
%LPD*%
D10*
X232012Y393342D02*
G03*
X232012Y393342I-492J0D01*
G01*
X212020Y415043D02*
G03*
X212020Y415043I-492J0D01*
G01*
X134039Y23382D02*
G03*
X134039Y23382I-492J0D01*
G01*
X187972Y38444D02*
G03*
X187972Y38444I-492J0D01*
G01*
X139972Y14500D02*
G03*
X139972Y14500I-492J0D01*
G01*
X130957Y294272D02*
G03*
X130957Y294272I-492J0D01*
G01*
X220835Y442480D02*
G03*
X220835Y442480I-492J0D01*
G01*
D11*
X140504Y287677D02*
G03*
X140504Y287677I-1181J0D01*
G01*
D12*
X169972Y69976D02*
X169972Y71453D01*
X171350Y71453D01*
X177453Y70665D02*
X177453Y71453D01*
X176665Y71453D02*
X177453Y71453D01*
X177453Y63185D02*
X177453Y62398D01*
X176665Y62398D02*
X177453Y62398D01*
X169972Y62398D02*
X170760D01*
X169972D02*
Y63185D01*
D13*
X249433Y403776D02*
X249433Y396098D01*
X249433Y409681D02*
X249433Y420705D01*
X228567Y409681D02*
X228567Y420705D01*
X228567Y396295D02*
X228567Y403776D01*
X112776Y87673D02*
X115138Y87673D01*
X112776Y85311D02*
X112776Y87673D01*
X122224Y86492D02*
Y87673D01*
X121043Y87673D02*
X122224Y87673D01*
X121043Y76846D02*
X122224Y76846D01*
X122224Y78028D02*
X122224Y76846D01*
X112776Y78027D02*
X112776Y76846D01*
X113957Y76846D01*
X105370Y425193D02*
Y442319D01*
X98480Y425193D02*
X105370D01*
X76630D02*
X83520D01*
X76630D02*
Y442319D01*
X164500Y221500D02*
X184500D01*
X164500Y191500D02*
X184500D01*
X164500D02*
Y221500D01*
X184500Y191500D02*
Y221500D01*
Y202333D02*
Y221500D01*
X135386Y268386D02*
X158614Y268386D01*
X135386Y291614D02*
X158614Y291614D01*
Y268386D02*
Y291614D01*
X135386Y268386D02*
X135386Y291614D01*
X223098Y424567D02*
X230776D01*
X236681D02*
X247705D01*
X236681Y445433D02*
X247705D01*
X223295D02*
X230776D01*
D14*
X97100Y402000D02*
X160200Y402000D01*
X97100Y402000D02*
X97100Y338500D01*
X160200Y338500D02*
X160200Y402000D01*
X97100Y338500D02*
X160200Y338500D01*
X107398Y277691D02*
X117127Y269528D01*
X98206Y266737D02*
X107398Y277691D01*
X98206Y266737D02*
X107935Y258574D01*
X117127Y269528D01*
X192504Y44408D02*
X286604Y44408D01*
X286604Y393508D02*
X286604Y44408D01*
X192504Y393508D02*
X286604Y393508D01*
X192504Y393508D02*
X192504Y44408D01*
X237204Y335508D02*
X237204Y323308D01*
X237304Y104908D02*
Y116508D01*
X230904Y111208D02*
X244104Y111208D01*
X297602Y89399D02*
Y87400D01*
X298602Y86400D01*
X302600D01*
X303600Y87400D01*
Y89399D01*
X302600Y90399D01*
X298602D01*
X297602Y89399D01*
X303600Y92398D02*
X297602D01*
X303600Y96397D01*
X297602D01*
X300601Y98396D02*
Y102395D01*
Y104394D02*
Y108393D01*
Y110392D02*
Y114391D01*
X297602Y119389D02*
Y117390D01*
X298602Y116390D01*
X302600D01*
X303600Y117390D01*
Y119389D01*
X302600Y120389D01*
X298602D01*
X297602Y119389D01*
Y126387D02*
Y122388D01*
X300601D01*
Y124388D01*
Y122388D01*
X303600D01*
X297602Y132385D02*
Y128386D01*
X300601D01*
Y130386D01*
Y128386D01*
X303600D01*
X121199Y9898D02*
X120199Y10898D01*
X118200D01*
X117200Y9898D01*
Y5900D01*
X118200Y4900D01*
X120199D01*
X121199Y5900D01*
X123198Y10898D02*
Y4900D01*
Y7899D01*
X124198Y8899D01*
X126197D01*
X127197Y7899D01*
Y4900D01*
X130196Y8899D02*
X132195D01*
X133195Y7899D01*
Y4900D01*
X130196D01*
X129196Y5900D01*
X130196Y6899D01*
X133195D01*
X135194Y8899D02*
Y4900D01*
Y6899D01*
X136194Y7899D01*
X137194Y8899D01*
X138193D01*
X143192Y2901D02*
X144191D01*
X145191Y3900D01*
Y8899D01*
X142192D01*
X141192Y7899D01*
Y5900D01*
X142192Y4900D01*
X145191D01*
X147190D02*
X149190D01*
X148190D01*
Y8899D01*
X147190D01*
X152189Y4900D02*
Y8899D01*
X155188D01*
X156187Y7899D01*
Y4900D01*
X160186Y2901D02*
X161186D01*
X162185Y3900D01*
Y8899D01*
X159186D01*
X158187Y7899D01*
Y5900D01*
X159186Y4900D01*
X162185D01*
X147500Y128198D02*
X148500Y129198D01*
X150499D01*
X151499Y128198D01*
Y127199D01*
X150499Y126199D01*
X149499D01*
X150499D01*
X151499Y125199D01*
Y124200D01*
X150499Y123200D01*
X148500D01*
X147500Y124200D01*
X153498Y123200D02*
Y124200D01*
X154498D01*
Y123200D01*
X153498D01*
X158496Y128198D02*
X159496Y129198D01*
X161495D01*
X162495Y128198D01*
Y127199D01*
X161495Y126199D01*
X160496D01*
X161495D01*
X162495Y125199D01*
Y124200D01*
X161495Y123200D01*
X159496D01*
X158496Y124200D01*
X164495Y129198D02*
Y125199D01*
X166494Y123200D01*
X168493Y125199D01*
Y129198D01*
X93199Y130098D02*
X89200D01*
Y127099D01*
X91199Y128099D01*
X92199D01*
X93199Y127099D01*
Y125100D01*
X92199Y124100D01*
X90200D01*
X89200Y125100D01*
X95198Y130098D02*
Y126099D01*
X97197Y124100D01*
X99197Y126099D01*
Y130098D01*
X28500Y-500D02*
Y448500D01*
Y-500D02*
X28800D01*
X311500D01*
X311500Y448500D02*
X311500Y-500D01*
X28500Y448500D02*
X311500D01*
D15*
X89105Y113678D02*
X89105Y110922D01*
X97472Y109643D02*
X101802Y109643D01*
X97472Y114957D02*
X101802Y114957D01*
X101802Y109643D01*
X90385Y109643D02*
X93928Y109643D01*
X90385Y114957D02*
X93928Y114957D01*
X89598Y114170D02*
X90385Y114957D01*
X89105Y113678D02*
X89696Y114269D01*
X89105Y110922D02*
X89794Y110233D01*
X89598Y110430D02*
X89598Y114170D01*
X89598Y110430D02*
X90385Y109643D01*
X148705Y113178D02*
X148705Y110422D01*
X157072Y109142D02*
X161402D01*
X157072Y114457D02*
X161402Y114457D01*
Y109142D02*
Y114457D01*
X149985Y109142D02*
X153528Y109142D01*
X149985Y114457D02*
X153528Y114457D01*
X149198Y113670D02*
X149985Y114457D01*
X148705Y113178D02*
X149296Y113768D01*
X148705Y110422D02*
X149395Y109733D01*
X149198Y113670D02*
X149198Y109930D01*
X149985Y109142D01*
X170114Y76799D02*
Y74717D01*
X170530Y74300D01*
X171363D01*
X171780Y74717D01*
Y76799D01*
X173862Y74300D02*
Y76799D01*
X172613Y75550D01*
X174279D01*
X254400Y415900D02*
Y418399D01*
X255233Y417566D01*
X256066Y418399D01*
Y415900D01*
X258565D02*
X256899D01*
X258565Y417566D01*
Y417983D01*
X258149Y418399D01*
X257316D01*
X256899Y417983D01*
X196100Y416499D02*
Y414417D01*
X196517Y414000D01*
X197350D01*
X197766Y414417D01*
Y416499D01*
X198599D02*
X200265D01*
Y416083D01*
X198599Y414417D01*
Y414000D01*
X141400Y41499D02*
Y39417D01*
X141816Y39000D01*
X142650D01*
X143066Y39417D01*
Y41499D01*
X143899Y41083D02*
X144316Y41499D01*
X145149D01*
X145565Y41083D01*
Y40666D01*
X145149Y40250D01*
X144732D01*
X145149D01*
X145565Y39833D01*
Y39417D01*
X145149Y39000D01*
X144316D01*
X143899Y39417D01*
X186000Y49999D02*
Y47916D01*
X186416Y47500D01*
X187250D01*
X187666Y47916D01*
Y49999D01*
X188499Y49583D02*
X188916Y49999D01*
X189749D01*
X190165Y49583D01*
Y49166D01*
X189749Y48750D01*
X190165Y48333D01*
Y47916D01*
X189749Y47500D01*
X188916D01*
X188499Y47916D01*
Y48333D01*
X188916Y48750D01*
X188499Y49166D01*
Y49583D01*
X188916Y48750D02*
X189749D01*
X128999Y89600D02*
X126917D01*
X126500Y89183D01*
Y88350D01*
X126917Y87934D01*
X128999D01*
Y85435D02*
X128583Y86268D01*
X127750Y87101D01*
X126917D01*
X126500Y86684D01*
Y85851D01*
X126917Y85435D01*
X127333D01*
X127750Y85851D01*
Y87101D01*
X156400Y408499D02*
Y406417D01*
X156816Y406000D01*
X157650D01*
X158066Y406417D01*
Y408499D01*
X158899Y406000D02*
X159732D01*
X159316D01*
Y408499D01*
X158899Y408083D01*
X177000Y27700D02*
Y30199D01*
X178250D01*
X178666Y29783D01*
Y28950D01*
X178250Y28533D01*
X177000D01*
X177833D02*
X178666Y27700D01*
X179499Y29783D02*
X179916Y30199D01*
X180749D01*
X181165Y29783D01*
Y29366D01*
X180749Y28950D01*
X180332D01*
X180749D01*
X181165Y28533D01*
Y28117D01*
X180749Y27700D01*
X179916D01*
X179499Y28117D01*
X181998Y29783D02*
X182415Y30199D01*
X183248D01*
X183665Y29783D01*
Y28117D01*
X183248Y27700D01*
X182415D01*
X181998Y28117D01*
Y29783D01*
X146600Y97800D02*
X144101D01*
Y99050D01*
X144517Y99466D01*
X145350D01*
X145767Y99050D01*
Y97800D01*
Y98633D02*
X146600Y99466D01*
Y100299D02*
Y101132D01*
Y100716D01*
X144101D01*
X144517Y100299D01*
X146184Y102382D02*
X146600Y102798D01*
Y103631D01*
X146184Y104048D01*
X144517D01*
X144101Y103631D01*
Y102798D01*
X144517Y102382D01*
X144934D01*
X145350Y102798D01*
Y104048D01*
X167100Y48400D02*
Y50899D01*
X168350D01*
X168766Y50483D01*
Y49650D01*
X168350Y49233D01*
X167100D01*
X167933D02*
X168766Y48400D01*
X169599Y50483D02*
X170016Y50899D01*
X170849D01*
X171265Y50483D01*
Y50066D01*
X170849Y49650D01*
X170432D01*
X170849D01*
X171265Y49233D01*
Y48816D01*
X170849Y48400D01*
X170016D01*
X169599Y48816D01*
X173348Y48400D02*
Y50899D01*
X172098Y49650D01*
X173765D01*
X176700Y56400D02*
Y58899D01*
X177950D01*
X178366Y58483D01*
Y57650D01*
X177950Y57233D01*
X176700D01*
X177533D02*
X178366Y56400D01*
X179199Y58483D02*
X179616Y58899D01*
X180449D01*
X180865Y58483D01*
Y58066D01*
X180449Y57650D01*
X180032D01*
X180449D01*
X180865Y57233D01*
Y56817D01*
X180449Y56400D01*
X179616D01*
X179199Y56817D01*
X183364Y56400D02*
X181698D01*
X183364Y58066D01*
Y58483D01*
X182948Y58899D01*
X182115D01*
X181698Y58483D01*
X278700Y33731D02*
Y36230D01*
X279533Y35397D01*
X280366Y36230D01*
Y33731D01*
X281199Y36230D02*
Y33731D01*
Y34981D01*
X282865D01*
Y36230D01*
Y33731D01*
X284948D02*
Y36230D01*
X283698Y34981D01*
X285365D01*
X70566Y440899D02*
X69733D01*
X70150D01*
Y438816D01*
X69733Y438400D01*
X69317D01*
X68900Y438816D01*
X71399Y438400D02*
X72232D01*
X71816D01*
Y440899D01*
X71399Y440483D01*
X130300Y20699D02*
Y18200D01*
X131550D01*
X131966Y18617D01*
Y20283D01*
X131550Y20699D01*
X130300D01*
X132799Y18200D02*
X133632D01*
X133216D01*
Y20699D01*
X132799Y20283D01*
X89388Y120167D02*
Y117668D01*
X91054D01*
X93553Y120167D02*
X91887D01*
Y117668D01*
X93553D01*
X91887Y118918D02*
X92720D01*
X94386Y120167D02*
Y117668D01*
X95636D01*
X96052Y118084D01*
Y119751D01*
X95636Y120167D01*
X94386D01*
X98552Y117668D02*
X96886D01*
X98552Y119334D01*
Y119751D01*
X98135Y120167D01*
X97302D01*
X96886Y119751D01*
X291566Y84883D02*
X291150Y85299D01*
X290317D01*
X289900Y84883D01*
Y84466D01*
X290317Y84050D01*
X291150D01*
X291566Y83633D01*
Y83217D01*
X291150Y82800D01*
X290317D01*
X289900Y83217D01*
X292399Y85299D02*
Y82800D01*
X293232Y83633D01*
X294065Y82800D01*
Y85299D01*
X294898Y82800D02*
X295731D01*
X295315D01*
Y85299D01*
X294898Y84883D01*
X130100Y90399D02*
Y87900D01*
X131766D01*
X134265D02*
X132599D01*
X134265Y89566D01*
Y89983D01*
X133849Y90399D01*
X133016D01*
X132599Y89983D01*
X98666Y70499D02*
X97000D01*
Y69250D01*
X97833D01*
X97000D01*
Y68000D01*
X99499Y70499D02*
Y68000D01*
X100749D01*
X101165Y68417D01*
Y68833D01*
X100749Y69250D01*
X99499D01*
X100749D01*
X101165Y69666D01*
Y70083D01*
X100749Y70499D01*
X99499D01*
X101998D02*
X103665D01*
Y70083D01*
X101998Y68417D01*
Y68000D01*
X158600Y220200D02*
Y222699D01*
X159850D01*
X160266Y222283D01*
Y221450D01*
X159850Y221033D01*
X158600D01*
X161099Y220200D02*
X161932D01*
X161516D01*
Y222699D01*
X161099Y222283D01*
X206266Y9699D02*
X205433D01*
X205850D01*
Y7616D01*
X205433Y7200D01*
X205016D01*
X204600Y7616D01*
X208765Y7200D02*
X207099D01*
X208765Y8866D01*
Y9283D01*
X208349Y9699D01*
X207516D01*
X207099Y9283D01*
X100900Y286099D02*
Y285683D01*
X101733Y284850D01*
X102566Y285683D01*
Y286099D01*
X101733Y284850D02*
Y283600D01*
X103399D02*
X104232D01*
X103816D01*
Y286099D01*
X103399Y285683D01*
X153866Y60483D02*
X153450Y60899D01*
X152617D01*
X152200Y60483D01*
Y58816D01*
X152617Y58400D01*
X153450D01*
X153866Y58816D01*
X154699Y58400D02*
X155532D01*
X155116D01*
Y60899D01*
X154699Y60483D01*
X156782D02*
X157198Y60899D01*
X158031D01*
X158448Y60483D01*
Y58816D01*
X158031Y58400D01*
X157198D01*
X156782Y58816D01*
Y60483D01*
X216666Y400683D02*
X216250Y401099D01*
X215417D01*
X215000Y400683D01*
Y399016D01*
X215417Y398600D01*
X216250D01*
X216666Y399016D01*
X217499Y398600D02*
X218332D01*
X217916D01*
Y401099D01*
X217499Y400683D01*
X219582Y399016D02*
X219998Y398600D01*
X220831D01*
X221248Y399016D01*
Y400683D01*
X220831Y401099D01*
X219998D01*
X219582Y400683D01*
Y400266D01*
X219998Y399850D01*
X221248D01*
X70149Y139000D02*
Y141499D01*
X71398D01*
X71815Y141083D01*
Y140250D01*
X71398Y139833D01*
X70149D01*
X74314Y139000D02*
X72648D01*
X74314Y140666D01*
Y141083D01*
X73898Y141499D01*
X73065D01*
X72648Y141083D01*
X124248Y305527D02*
Y303444D01*
X124665Y303028D01*
X125498D01*
X125914Y303444D01*
Y305527D01*
X128413Y303028D02*
X126747D01*
X128413Y304694D01*
Y305110D01*
X127997Y305527D01*
X127164D01*
X126747Y305110D01*
X192500Y398999D02*
Y396917D01*
X192917Y396500D01*
X193750D01*
X194166Y396917D01*
Y398999D01*
X196665D02*
X194999D01*
Y397750D01*
X195832Y398166D01*
X196249D01*
X196665Y397750D01*
Y396917D01*
X196249Y396500D01*
X195416D01*
X194999Y396917D01*
X35300Y33700D02*
Y36199D01*
X36133Y35366D01*
X36966Y36199D01*
Y33700D01*
X37799Y36199D02*
Y33700D01*
Y34950D01*
X39465D01*
Y36199D01*
Y33700D01*
X40298D02*
X41131D01*
X40715D01*
Y36199D01*
X40298Y35783D01*
X275900Y440300D02*
Y442799D01*
X276733Y441966D01*
X277566Y442799D01*
Y440300D01*
X278399Y442799D02*
Y440300D01*
Y441550D01*
X280065D01*
Y442799D01*
Y440300D01*
X282564D02*
X280898D01*
X282564Y441966D01*
Y442383D01*
X282148Y442799D01*
X281315D01*
X280898Y442383D01*
X35300Y444731D02*
Y447230D01*
X36133Y446397D01*
X36966Y447230D01*
Y444731D01*
X37799Y447230D02*
Y444731D01*
Y445981D01*
X39465D01*
Y447230D01*
Y444731D01*
X40298Y446814D02*
X40715Y447230D01*
X41548D01*
X41965Y446814D01*
Y446397D01*
X41548Y445981D01*
X41131D01*
X41548D01*
X41965Y445564D01*
Y445148D01*
X41548Y444731D01*
X40715D01*
X40298Y445148D01*
X93466Y360783D02*
X93050Y361199D01*
X92216D01*
X91800Y360783D01*
Y359117D01*
X92216Y358700D01*
X93050D01*
X93466Y359117D01*
X94299Y358700D02*
X95132D01*
X94716D01*
Y361199D01*
X94299Y360783D01*
X86566D02*
X86150Y361199D01*
X85316D01*
X84900Y360783D01*
Y359117D01*
X85316Y358700D01*
X86150D01*
X86566Y359117D01*
X89065Y358700D02*
X87399D01*
X89065Y360366D01*
Y360783D01*
X88649Y361199D01*
X87816D01*
X87399Y360783D01*
X95476Y278615D02*
X94889Y278564D01*
X94353Y277925D01*
X94405Y277339D01*
X95681Y276268D01*
X96268Y276319D01*
X96803Y276957D01*
X96752Y277544D01*
X96763Y280797D02*
X96547Y279891D01*
X96649Y278718D01*
X97287Y278182D01*
X97874Y278234D01*
X98410Y278872D01*
X98358Y279459D01*
X98039Y279726D01*
X97452Y279675D01*
X96649Y278718D01*
X97715Y256924D02*
X97664Y257511D01*
X97026Y258047D01*
X96439Y257995D01*
X95368Y256719D01*
X95419Y256132D01*
X96057Y255597D01*
X96644Y255648D01*
X98621Y256708D02*
X99897Y255637D01*
X99629Y255318D01*
X97282Y255113D01*
X97014Y254794D01*
X124217Y36366D02*
X123801Y35950D01*
Y35116D01*
X124217Y34700D01*
X125883D01*
X126300Y35116D01*
Y35950D01*
X125883Y36366D01*
X124217Y37199D02*
X123801Y37616D01*
Y38449D01*
X124217Y38865D01*
X124634D01*
X125050Y38449D01*
X125467Y38865D01*
X125883D01*
X126300Y38449D01*
Y37616D01*
X125883Y37199D01*
X125467D01*
X125050Y37616D01*
X124634Y37199D01*
X124217D01*
X125050Y37616D02*
Y38449D01*
X149966Y39083D02*
X149550Y39499D01*
X148716D01*
X148300Y39083D01*
Y37416D01*
X148716Y37000D01*
X149550D01*
X149966Y37416D01*
X150799D02*
X151216Y37000D01*
X152049D01*
X152465Y37416D01*
Y39083D01*
X152049Y39499D01*
X151216D01*
X150799Y39083D01*
Y38666D01*
X151216Y38250D01*
X152465D01*
X170866Y81383D02*
X170450Y81799D01*
X169616D01*
X169200Y81383D01*
Y79716D01*
X169616Y79300D01*
X170450D01*
X170866Y79716D01*
X171699Y79300D02*
X172532D01*
X172116D01*
Y81799D01*
X171699Y81383D01*
X173782Y79300D02*
X174615D01*
X174198D01*
Y81799D01*
X173782Y81383D01*
X172466Y87983D02*
X172050Y88399D01*
X171216D01*
X170800Y87983D01*
Y86317D01*
X171216Y85900D01*
X172050D01*
X172466Y86317D01*
X173299Y85900D02*
X174132D01*
X173716D01*
Y88399D01*
X173299Y87983D01*
X177048Y85900D02*
X175382D01*
X177048Y87566D01*
Y87983D01*
X176631Y88399D01*
X175798D01*
X175382Y87983D01*
X99766Y87383D02*
X99350Y87799D01*
X98516D01*
X98100Y87383D01*
Y85716D01*
X98516Y85300D01*
X99350D01*
X99766Y85716D01*
X100599Y85300D02*
X101432D01*
X101016D01*
Y87799D01*
X100599Y87383D01*
X102682D02*
X103098Y87799D01*
X103931D01*
X104348Y87383D01*
Y86966D01*
X103931Y86550D01*
X103515D01*
X103931D01*
X104348Y86133D01*
Y85716D01*
X103931Y85300D01*
X103098D01*
X102682Y85716D01*
X113266Y56583D02*
X112850Y56999D01*
X112016D01*
X111600Y56583D01*
Y54917D01*
X112016Y54500D01*
X112850D01*
X113266Y54917D01*
X114099Y54500D02*
X114932D01*
X114516D01*
Y56999D01*
X114099Y56583D01*
X117431Y54500D02*
Y56999D01*
X116182Y55750D01*
X117848D01*
X100866Y74983D02*
X100450Y75399D01*
X99616D01*
X99200Y74983D01*
Y73317D01*
X99616Y72900D01*
X100450D01*
X100866Y73317D01*
X101699Y72900D02*
X102532D01*
X102116D01*
Y75399D01*
X101699Y74983D01*
X105448Y75399D02*
X103782D01*
Y74150D01*
X104615Y74566D01*
X105031D01*
X105448Y74150D01*
Y73317D01*
X105031Y72900D01*
X104198D01*
X103782Y73317D01*
X124117Y105266D02*
X123701Y104850D01*
Y104016D01*
X124117Y103600D01*
X125784D01*
X126200Y104016D01*
Y104850D01*
X125784Y105266D01*
X126200Y106099D02*
Y106932D01*
Y106516D01*
X123701D01*
X124117Y106099D01*
X123701Y109848D02*
X124117Y109015D01*
X124950Y108182D01*
X125784D01*
X126200Y108598D01*
Y109431D01*
X125784Y109848D01*
X125367D01*
X124950Y109431D01*
Y108182D01*
X129466Y57283D02*
X129050Y57699D01*
X128217D01*
X127800Y57283D01*
Y55616D01*
X128217Y55200D01*
X129050D01*
X129466Y55616D01*
X130299Y55200D02*
X131132D01*
X130716D01*
Y57699D01*
X130299Y57283D01*
X132382Y57699D02*
X134048D01*
Y57283D01*
X132382Y55616D01*
Y55200D01*
X144766Y72783D02*
X144350Y73199D01*
X143517D01*
X143100Y72783D01*
Y71117D01*
X143517Y70700D01*
X144350D01*
X144766Y71117D01*
X145599Y70700D02*
X146432D01*
X146016D01*
Y73199D01*
X145599Y72783D01*
X147682D02*
X148098Y73199D01*
X148931D01*
X149348Y72783D01*
Y72366D01*
X148931Y71950D01*
X149348Y71533D01*
Y71117D01*
X148931Y70700D01*
X148098D01*
X147682Y71117D01*
Y71533D01*
X148098Y71950D01*
X147682Y72366D01*
Y72783D01*
X148098Y71950D02*
X148931D01*
X111066Y287999D02*
X109400D01*
Y286750D01*
X110233D01*
X109400D01*
Y285500D01*
X111899Y287999D02*
Y285500D01*
X113149D01*
X113565Y285916D01*
Y286333D01*
X113149Y286750D01*
X111899D01*
X113149D01*
X113565Y287166D01*
Y287583D01*
X113149Y287999D01*
X111899D01*
X114398Y285500D02*
X115231D01*
X114815D01*
Y287999D01*
X114398Y287583D01*
X77099Y364334D02*
Y366000D01*
X75850D01*
Y365167D01*
Y366000D01*
X74600D01*
X77099Y363501D02*
X74600D01*
Y362251D01*
X75016Y361835D01*
X75433D01*
X75850Y362251D01*
Y363501D01*
Y362251D01*
X76266Y361835D01*
X76683D01*
X77099Y362251D01*
Y363501D01*
X74600Y359335D02*
Y361002D01*
X76266Y359335D01*
X76683D01*
X77099Y359752D01*
Y360585D01*
X76683Y361002D01*
X87501Y151066D02*
Y149400D01*
X88750D01*
Y150233D01*
Y149400D01*
X90000D01*
X87501Y151899D02*
X90000D01*
Y153149D01*
X89583Y153565D01*
X89167D01*
X88750Y153149D01*
Y151899D01*
Y153149D01*
X88334Y153565D01*
X87917D01*
X87501Y153149D01*
Y151899D01*
X87917Y154398D02*
X87501Y154815D01*
Y155648D01*
X87917Y156064D01*
X88334D01*
X88750Y155648D01*
Y155231D01*
Y155648D01*
X89167Y156064D01*
X89583D01*
X90000Y155648D01*
Y154815D01*
X89583Y154398D01*
X117401Y32266D02*
Y30600D01*
X118650D01*
Y31433D01*
Y30600D01*
X119900D01*
X117401Y33099D02*
X119900D01*
Y34349D01*
X119483Y34765D01*
X119067D01*
X118650Y34349D01*
Y33099D01*
Y34349D01*
X118234Y34765D01*
X117817D01*
X117401Y34349D01*
Y33099D01*
X119900Y36848D02*
X117401D01*
X118650Y35598D01*
Y37264D01*
X203466Y38099D02*
X201800D01*
Y36850D01*
X202633D01*
X201800D01*
Y35600D01*
X204299Y38099D02*
Y35600D01*
X205549D01*
X205965Y36016D01*
Y36433D01*
X205549Y36850D01*
X204299D01*
X205549D01*
X205965Y37266D01*
Y37683D01*
X205549Y38099D01*
X204299D01*
X208465D02*
X206798D01*
Y36850D01*
X207631Y37266D01*
X208048D01*
X208465Y36850D01*
Y36016D01*
X208048Y35600D01*
X207215D01*
X206798Y36016D01*
X163466Y101399D02*
X161800D01*
Y100150D01*
X162633D01*
X161800D01*
Y98900D01*
X164299Y101399D02*
Y98900D01*
X165549D01*
X165965Y99317D01*
Y99733D01*
X165549Y100150D01*
X164299D01*
X165549D01*
X165965Y100566D01*
Y100983D01*
X165549Y101399D01*
X164299D01*
X168465D02*
X167631Y100983D01*
X166798Y100150D01*
Y99317D01*
X167215Y98900D01*
X168048D01*
X168465Y99317D01*
Y99733D01*
X168048Y100150D01*
X166798D01*
X147900Y78499D02*
Y76000D01*
X149566D01*
X150399D02*
X151232D01*
X150816D01*
Y78499D01*
X150399Y78083D01*
X148914Y119699D02*
Y117200D01*
X150580D01*
X153079Y119699D02*
X151413D01*
Y117200D01*
X153079D01*
X151413Y118450D02*
X152246D01*
X153912Y119699D02*
Y117200D01*
X155161D01*
X155578Y117616D01*
Y119283D01*
X155161Y119699D01*
X153912D01*
X156411Y117200D02*
X157244D01*
X156828D01*
Y119699D01*
X156411Y119283D01*
X253100Y436100D02*
Y438599D01*
X253933Y437766D01*
X254766Y438599D01*
Y436100D01*
X255599D02*
X256432D01*
X256016D01*
Y438599D01*
X255599Y438183D01*
X172700Y268700D02*
Y271199D01*
X173950D01*
X174366Y270783D01*
Y269950D01*
X173950Y269533D01*
X172700D01*
X173533D02*
X174366Y268700D01*
X175199D02*
X176032D01*
X175616D01*
Y271199D01*
X175199Y270783D01*
X181000Y286500D02*
Y288999D01*
X182250D01*
X182666Y288583D01*
Y287750D01*
X182250Y287333D01*
X181000D01*
X181833D02*
X182666Y286500D01*
X185165D02*
X183499D01*
X185165Y288166D01*
Y288583D01*
X184749Y288999D01*
X183916D01*
X183499Y288583D01*
X180800Y290600D02*
Y293099D01*
X182050D01*
X182466Y292683D01*
Y291850D01*
X182050Y291433D01*
X180800D01*
X181633D02*
X182466Y290600D01*
X183299Y292683D02*
X183716Y293099D01*
X184549D01*
X184965Y292683D01*
Y292266D01*
X184549Y291850D01*
X184132D01*
X184549D01*
X184965Y291433D01*
Y291017D01*
X184549Y290600D01*
X183716D01*
X183299Y291017D01*
X149700Y312700D02*
Y315199D01*
X150950D01*
X151366Y314783D01*
Y313950D01*
X150950Y313533D01*
X149700D01*
X150533D02*
X151366Y312700D01*
X153449D02*
Y315199D01*
X152199Y313950D01*
X153865D01*
X164900Y353900D02*
Y356399D01*
X166150D01*
X166566Y355983D01*
Y355150D01*
X166150Y354733D01*
X164900D01*
X165733D02*
X166566Y353900D01*
X169065Y356399D02*
X167399D01*
Y355150D01*
X168232Y355566D01*
X168649D01*
X169065Y355150D01*
Y354316D01*
X168649Y353900D01*
X167816D01*
X167399Y354316D01*
X164900Y361700D02*
Y364199D01*
X166150D01*
X166566Y363783D01*
Y362950D01*
X166150Y362533D01*
X164900D01*
X165733D02*
X166566Y361700D01*
X169065Y364199D02*
X168232Y363783D01*
X167399Y362950D01*
Y362117D01*
X167816Y361700D01*
X168649D01*
X169065Y362117D01*
Y362533D01*
X168649Y362950D01*
X167399D01*
X164900Y369600D02*
Y372099D01*
X166150D01*
X166566Y371683D01*
Y370850D01*
X166150Y370433D01*
X164900D01*
X165733D02*
X166566Y369600D01*
X167399Y372099D02*
X169065D01*
Y371683D01*
X167399Y370017D01*
Y369600D01*
X164900Y377500D02*
Y379999D01*
X166150D01*
X166566Y379583D01*
Y378750D01*
X166150Y378333D01*
X164900D01*
X165733D02*
X166566Y377500D01*
X167399Y379583D02*
X167816Y379999D01*
X168649D01*
X169065Y379583D01*
Y379166D01*
X168649Y378750D01*
X169065Y378333D01*
Y377917D01*
X168649Y377500D01*
X167816D01*
X167399Y377917D01*
Y378333D01*
X167816Y378750D01*
X167399Y379166D01*
Y379583D01*
X167816Y378750D02*
X168649D01*
X141500Y314600D02*
X139001D01*
Y315850D01*
X139417Y316266D01*
X140250D01*
X140667Y315850D01*
Y314600D01*
Y315433D02*
X141500Y316266D01*
X141084Y317099D02*
X141500Y317516D01*
Y318349D01*
X141084Y318765D01*
X139417D01*
X139001Y318349D01*
Y317516D01*
X139417Y317099D01*
X139834D01*
X140250Y317516D01*
Y318765D01*
X137634Y314839D02*
X135135D01*
Y316088D01*
X135551Y316505D01*
X136384D01*
X136801Y316088D01*
Y314839D01*
Y315672D02*
X137634Y316505D01*
Y317338D02*
Y318171D01*
Y317754D01*
X135135D01*
X135551Y317338D01*
Y319420D02*
X135135Y319837D01*
Y320670D01*
X135551Y321087D01*
X137217D01*
X137634Y320670D01*
Y319837D01*
X137217Y319420D01*
X135551D01*
X132500Y313264D02*
X130001D01*
Y314513D01*
X130417Y314930D01*
X131250D01*
X131667Y314513D01*
Y313264D01*
Y314097D02*
X132500Y314930D01*
Y315763D02*
Y316596D01*
Y316179D01*
X130001D01*
X130417Y315763D01*
X132500Y317846D02*
Y318679D01*
Y318262D01*
X130001D01*
X130417Y317846D01*
X117161Y296728D02*
Y299227D01*
X118411D01*
X118827Y298811D01*
Y297978D01*
X118411Y297561D01*
X117161D01*
X117994D02*
X118827Y296728D01*
X119661D02*
X120494D01*
X120077D01*
Y299227D01*
X119661Y298811D01*
X123409Y296728D02*
X121743D01*
X123409Y298394D01*
Y298811D01*
X122993Y299227D01*
X122160D01*
X121743Y298811D01*
X109200Y291300D02*
Y293799D01*
X110450D01*
X110866Y293383D01*
Y292550D01*
X110450Y292133D01*
X109200D01*
X110033D02*
X110866Y291300D01*
X111699D02*
X112532D01*
X112116D01*
Y293799D01*
X111699Y293383D01*
X113782D02*
X114198Y293799D01*
X115031D01*
X115448Y293383D01*
Y292966D01*
X115031Y292550D01*
X114615D01*
X115031D01*
X115448Y292133D01*
Y291717D01*
X115031Y291300D01*
X114198D01*
X113782Y291717D01*
X132300Y243300D02*
X134799D01*
Y242050D01*
X134383Y241634D01*
X133550D01*
X133133Y242050D01*
Y243300D01*
Y242467D02*
X132300Y241634D01*
Y240801D02*
Y239968D01*
Y240384D01*
X134799D01*
X134383Y240801D01*
X132300Y237469D02*
X134799D01*
X133550Y238718D01*
Y237052D01*
X137700Y248300D02*
X140199D01*
Y247050D01*
X139783Y246634D01*
X138950D01*
X138533Y247050D01*
Y248300D01*
Y247467D02*
X137700Y246634D01*
Y245801D02*
Y244968D01*
Y245384D01*
X140199D01*
X139783Y245801D01*
X140199Y242052D02*
Y243718D01*
X138950D01*
X139366Y242885D01*
Y242469D01*
X138950Y242052D01*
X138117D01*
X137700Y242469D01*
Y243302D01*
X138117Y243718D01*
X142000Y248300D02*
X144499D01*
Y247050D01*
X144083Y246634D01*
X143250D01*
X142833Y247050D01*
Y248300D01*
Y247467D02*
X142000Y246634D01*
Y245801D02*
Y244968D01*
Y245384D01*
X144499D01*
X144083Y245801D01*
X144499Y242052D02*
X144083Y242885D01*
X143250Y243718D01*
X142417D01*
X142000Y243302D01*
Y242469D01*
X142417Y242052D01*
X142833D01*
X143250Y242469D01*
Y243718D01*
X146000Y248300D02*
X148499D01*
Y247050D01*
X148083Y246634D01*
X147250D01*
X146833Y247050D01*
Y248300D01*
Y247467D02*
X146000Y246634D01*
Y245801D02*
Y244968D01*
Y245384D01*
X148499D01*
X148083Y245801D01*
X148499Y243718D02*
Y242052D01*
X148083D01*
X146416Y243718D01*
X146000D01*
X119700Y259300D02*
Y261799D01*
X120950D01*
X121366Y261383D01*
Y260550D01*
X120950Y260133D01*
X119700D01*
X120533D02*
X121366Y259300D01*
X122199D02*
X123032D01*
X122616D01*
Y261799D01*
X122199Y261383D01*
X124282D02*
X124698Y261799D01*
X125531D01*
X125948Y261383D01*
Y260966D01*
X125531Y260550D01*
X125948Y260133D01*
Y259717D01*
X125531Y259300D01*
X124698D01*
X124282Y259717D01*
Y260133D01*
X124698Y260550D01*
X124282Y260966D01*
Y261383D01*
X124698Y260550D02*
X125531D01*
X143500Y18400D02*
Y20899D01*
X144750D01*
X145166Y20483D01*
Y19650D01*
X144750Y19233D01*
X143500D01*
X144333D02*
X145166Y18400D01*
X147665D02*
X145999D01*
X147665Y20066D01*
Y20483D01*
X147249Y20899D01*
X146416D01*
X145999Y20483D01*
X148498D02*
X148915Y20899D01*
X149748D01*
X150164Y20483D01*
Y18816D01*
X149748Y18400D01*
X148915D01*
X148498Y18816D01*
Y20483D01*
X120400Y102700D02*
X117901D01*
Y103950D01*
X118317Y104366D01*
X119150D01*
X119567Y103950D01*
Y102700D01*
Y103533D02*
X120400Y104366D01*
Y106865D02*
Y105199D01*
X118734Y106865D01*
X118317D01*
X117901Y106449D01*
Y105616D01*
X118317Y105199D01*
X120400Y109364D02*
Y107698D01*
X118734Y109364D01*
X118317D01*
X117901Y108948D01*
Y108115D01*
X118317Y107698D01*
X213500Y420300D02*
Y422799D01*
X214750D01*
X215166Y422383D01*
Y421550D01*
X214750Y421133D01*
X213500D01*
X214333D02*
X215166Y420300D01*
X217665D02*
X215999D01*
X217665Y421966D01*
Y422383D01*
X217249Y422799D01*
X216416D01*
X215999Y422383D01*
X218498D02*
X218915Y422799D01*
X219748D01*
X220164Y422383D01*
Y421966D01*
X219748Y421550D01*
X219331D01*
X219748D01*
X220164Y421133D01*
Y420716D01*
X219748Y420300D01*
X218915D01*
X218498Y420716D01*
X114500Y102500D02*
X112001D01*
Y103750D01*
X112417Y104166D01*
X113250D01*
X113667Y103750D01*
Y102500D01*
Y103333D02*
X114500Y104166D01*
Y106665D02*
Y104999D01*
X112834Y106665D01*
X112417D01*
X112001Y106249D01*
Y105416D01*
X112417Y104999D01*
X114500Y108748D02*
X112001D01*
X113250Y107498D01*
Y109165D01*
X88600Y99100D02*
X86101D01*
Y100350D01*
X86517Y100766D01*
X87350D01*
X87767Y100350D01*
Y99100D01*
Y99933D02*
X88600Y100766D01*
Y103265D02*
Y101599D01*
X86934Y103265D01*
X86517D01*
X86101Y102849D01*
Y102016D01*
X86517Y101599D01*
X86101Y105764D02*
Y104098D01*
X87350D01*
X86934Y104931D01*
Y105348D01*
X87350Y105764D01*
X88183D01*
X88600Y105348D01*
Y104515D01*
X88183Y104098D01*
X237100Y41200D02*
Y43699D01*
X238350D01*
X238766Y43283D01*
Y42450D01*
X238350Y42033D01*
X237100D01*
X237933D02*
X238766Y41200D01*
X241265D02*
X239599D01*
X241265Y42866D01*
Y43283D01*
X240849Y43699D01*
X240016D01*
X239599Y43283D01*
X242098Y43699D02*
X243764D01*
Y43283D01*
X242098Y41616D01*
Y41200D01*
X134400Y43300D02*
Y45799D01*
X135650D01*
X136066Y45383D01*
Y44550D01*
X135650Y44133D01*
X134400D01*
X135233D02*
X136066Y43300D01*
X138565D02*
X136899D01*
X138565Y44966D01*
Y45383D01*
X138149Y45799D01*
X137316D01*
X136899Y45383D01*
X141065Y45799D02*
X140231Y45383D01*
X139398Y44550D01*
Y43716D01*
X139815Y43300D01*
X140648D01*
X141065Y43716D01*
Y44133D01*
X140648Y44550D01*
X139398D01*
X198800Y32600D02*
X196301D01*
Y33850D01*
X196717Y34266D01*
X197550D01*
X197967Y33850D01*
Y32600D01*
Y33433D02*
X198800Y34266D01*
Y36765D02*
Y35099D01*
X197134Y36765D01*
X196717D01*
X196301Y36349D01*
Y35516D01*
X196717Y35099D01*
Y37598D02*
X196301Y38015D01*
Y38848D01*
X196717Y39265D01*
X197134D01*
X197550Y38848D01*
X197967Y39265D01*
X198383D01*
X198800Y38848D01*
Y38015D01*
X198383Y37598D01*
X197967D01*
X197550Y38015D01*
X197134Y37598D01*
X196717D01*
X197550Y38015D02*
Y38848D01*
X159200Y33800D02*
Y36299D01*
X160450D01*
X160866Y35883D01*
Y35050D01*
X160450Y34633D01*
X159200D01*
X160033D02*
X160866Y33800D01*
X161699Y35883D02*
X162116Y36299D01*
X162949D01*
X163365Y35883D01*
Y35466D01*
X162949Y35050D01*
X162532D01*
X162949D01*
X163365Y34633D01*
Y34216D01*
X162949Y33800D01*
X162116D01*
X161699Y34216D01*
X164198Y33800D02*
X165031D01*
X164615D01*
Y36299D01*
X164198Y35883D01*
X145500Y50000D02*
Y52499D01*
X146750D01*
X147166Y52083D01*
Y51250D01*
X146750Y50833D01*
X145500D01*
X146333D02*
X147166Y50000D01*
X147999Y52083D02*
X148416Y52499D01*
X149249D01*
X149665Y52083D01*
Y51666D01*
X149249Y51250D01*
X148832D01*
X149249D01*
X149665Y50833D01*
Y50416D01*
X149249Y50000D01*
X148416D01*
X147999Y50416D01*
X150498Y52083D02*
X150915Y52499D01*
X151748D01*
X152164Y52083D01*
Y51666D01*
X151748Y51250D01*
X151331D01*
X151748D01*
X152164Y50833D01*
Y50416D01*
X151748Y50000D01*
X150915D01*
X150498Y50416D01*
D16*
X239799Y144989D02*
Y147613D01*
Y146301D01*
X231928D01*
X233240Y144989D01*
Y151548D02*
X231928Y152860D01*
Y155484D01*
X233240Y156796D01*
X234551D01*
X235863Y155484D01*
X237175Y156796D01*
X238487D01*
X239799Y155484D01*
Y152860D01*
X238487Y151548D01*
X237175D01*
X235863Y152860D01*
X234551Y151548D01*
X233240D01*
X235863Y152860D02*
Y155484D01*
X231928Y164668D02*
X233240Y162044D01*
X235863Y159420D01*
X238487D01*
X239799Y160732D01*
Y163356D01*
X238487Y164668D01*
X237175D01*
X235863Y163356D01*
Y159420D01*
X231928Y172539D02*
Y167291D01*
X235863D01*
X234551Y169915D01*
Y171227D01*
X235863Y172539D01*
X238487D01*
X239799Y171227D01*
Y168603D01*
X238487Y167291D01*
X233240Y175163D02*
X231928Y176475D01*
Y179099D01*
X233240Y180411D01*
X238487D01*
X239799Y179099D01*
Y176475D01*
X238487Y175163D01*
X233240D01*
X231928Y190906D02*
X239799D01*
Y194842D01*
X238487Y196153D01*
X237175D01*
X235863Y194842D01*
Y190906D01*
Y194842D01*
X234551Y196153D01*
X233240D01*
X231928Y194842D01*
Y190906D01*
X234551Y200089D02*
Y202713D01*
X235863Y204025D01*
X239799D01*
Y200089D01*
X238487Y198777D01*
X237175Y200089D01*
Y204025D01*
X233240Y207961D02*
X234551D01*
Y206649D01*
Y209273D01*
Y207961D01*
X238487D01*
X239799Y209273D01*
X233240Y214520D02*
X234551D01*
Y213208D01*
Y215832D01*
Y214520D01*
X238487D01*
X239799Y215832D01*
Y223704D02*
Y221080D01*
X238487Y219768D01*
X235863D01*
X234551Y221080D01*
Y223704D01*
X235863Y225016D01*
X237175D01*
Y219768D01*
X234551Y227639D02*
X239799D01*
X237175D01*
X235863Y228951D01*
X234551Y230263D01*
Y231575D01*
Y235511D02*
X238487D01*
X239799Y236823D01*
Y240758D01*
X241111D01*
X242423Y239447D01*
Y238135D01*
X239799Y240758D02*
X234551D01*
X231928Y251254D02*
X239799D01*
X235863D01*
Y256502D01*
X231928D01*
X239799D01*
Y260437D02*
Y263061D01*
X238487Y264373D01*
X235863D01*
X234551Y263061D01*
Y260437D01*
X235863Y259125D01*
X238487D01*
X239799Y260437D01*
Y266997D02*
Y269621D01*
Y268309D01*
X231928D01*
Y266997D01*
Y278804D02*
X239799D01*
Y274868D01*
X238487Y273556D01*
X235863D01*
X234551Y274868D01*
Y278804D01*
X239799Y285364D02*
Y282740D01*
X238487Y281428D01*
X235863D01*
X234551Y282740D01*
Y285364D01*
X235863Y286676D01*
X237175D01*
Y281428D01*
X234551Y289299D02*
X239799D01*
X237175D01*
X235863Y290611D01*
X234551Y291923D01*
Y293235D01*
D17*
X166502Y225832D02*
X167335Y224166D01*
X169001Y222500D01*
X170667D01*
X171500Y223333D01*
Y224999D01*
X170667Y225832D01*
X169834D01*
X169001Y224999D01*
Y222500D01*
X176502Y225832D02*
Y222500D01*
X179001D01*
X178168Y224166D01*
Y224999D01*
X179001Y225832D01*
X180667D01*
X181500Y224999D01*
Y223333D01*
X180667Y222500D01*
X171500Y189832D02*
Y186500D01*
X168168Y189832D01*
X167335D01*
X166502Y188999D01*
Y187333D01*
X167335Y186500D01*
X181500Y188500D02*
Y190166D01*
Y189333D01*
X176502D01*
X177335Y188500D01*
D18*
X207000Y411500D02*
D03*
X140436Y29287D02*
D03*
X151600Y100600D02*
D03*
X162000Y45300D02*
D03*
X93000Y369500D02*
D03*
X87500D02*
D03*
X130177Y27662D02*
D03*
X150602Y27862D02*
D03*
X108000Y86500D02*
D03*
X124500Y95267D02*
D03*
X81772Y363000D02*
D03*
X94500Y151300D02*
D03*
X124177Y27661D02*
D03*
X203102Y27362D02*
D03*
X154900Y67500D02*
D03*
X145500Y311000D02*
D03*
X121500Y270000D02*
D03*
X119000Y95268D02*
D03*
X216000Y412000D02*
D03*
X113319Y95268D02*
D03*
X92200Y102300D02*
D03*
X192500Y35153D02*
D03*
X168000D02*
D03*
X157100Y45300D02*
D03*
D19*
X180000Y21500D02*
D03*
X132000Y80768D02*
D03*
X103000Y63267D02*
D03*
X206500Y399500D02*
D03*
X112500Y281000D02*
D03*
X162000Y94500D02*
D03*
X175528Y275500D02*
D03*
X146500Y14500D02*
D03*
X133500Y39000D02*
D03*
D20*
X100000Y274500D02*
D03*
D21*
X101000Y260000D02*
D03*
M02*
