G04*
G04 #@! TF.GenerationSoftware,Altium Limited,Altium Designer,18.1.7 (191)*
G04*
G04 Layer_Color=255*
%FSLAX25Y25*%
%MOIN*%
G70*
G01*
G75*
%ADD14C,0.01000*%
%ADD43R,0.03937X0.03150*%
%ADD45R,0.05984X0.15984*%
%ADD59R,0.03937X0.03740*%
%ADD66R,0.03150X0.03937*%
%ADD114C,0.02559*%
%ADD130C,0.28000*%
%ADD131C,0.02500*%
%ADD132R,0.05906X0.05906*%
%ADD133C,0.05906*%
%ADD134C,0.06000*%
%ADD135C,0.13583*%
%ADD136C,0.09409*%
%ADD139R,0.02362X0.03937*%
D14*
X28500Y-500D02*
Y448500D01*
Y-500D02*
X28800D01*
X311500D01*
X311500Y448500D02*
X311500Y-500D01*
X28500Y448500D02*
X311500D01*
D43*
X209500Y387154D02*
D03*
Y393847D02*
D03*
D45*
X101000Y434642D02*
D03*
X81000D02*
D03*
D59*
X121100Y274850D02*
D03*
X121100Y281150D02*
D03*
X177700Y278650D02*
D03*
Y272350D02*
D03*
X115100Y274850D02*
D03*
Y281150D02*
D03*
X171700Y278650D02*
D03*
Y272350D02*
D03*
D66*
X177146Y14800D02*
D03*
X170454Y14800D02*
D03*
D114*
X229745Y22700D02*
D03*
X252500D02*
D03*
D130*
X292406Y17000D02*
D03*
X49000D02*
D03*
X292656Y428000D02*
D03*
X49000D02*
D03*
D131*
X283812Y22469D02*
D03*
X296000Y26531D02*
D03*
X301000Y22469D02*
D03*
X302562Y17000D02*
D03*
X301000Y11531D02*
D03*
X296000Y7469D02*
D03*
X288812D02*
D03*
X283812Y11531D02*
D03*
X282250Y17000D02*
D03*
X288812Y26531D02*
D03*
X40406Y22469D02*
D03*
X52594Y26531D02*
D03*
X57594Y22469D02*
D03*
X59156Y17000D02*
D03*
X57594Y11531D02*
D03*
X52594Y7469D02*
D03*
X45406D02*
D03*
X40406Y11531D02*
D03*
X38844Y17000D02*
D03*
X45406Y26531D02*
D03*
X284063Y433469D02*
D03*
X296250Y437531D02*
D03*
X301250Y433469D02*
D03*
X302813Y428000D02*
D03*
X301250Y422531D02*
D03*
X296250Y418469D02*
D03*
X289062D02*
D03*
X284063Y422531D02*
D03*
X282500Y428000D02*
D03*
X289062Y437531D02*
D03*
X40406Y433469D02*
D03*
X52594Y437531D02*
D03*
X57594Y433469D02*
D03*
X59156Y428000D02*
D03*
X57594Y422531D02*
D03*
X52594Y418469D02*
D03*
X45406D02*
D03*
X40406Y422531D02*
D03*
X38844Y428000D02*
D03*
X45406Y437531D02*
D03*
D132*
X179500Y196500D02*
D03*
D133*
X169500D02*
D03*
X179500Y206500D02*
D03*
X169500D02*
D03*
X179500Y216500D02*
D03*
X169500D02*
D03*
D134*
X104449Y139100D02*
D03*
X94567D02*
D03*
X84685D02*
D03*
X64882D02*
D03*
X74764D02*
D03*
X55000D02*
D03*
D135*
X205508Y327823D02*
D03*
X268500Y110500D02*
D03*
D136*
X268500Y360185D02*
D03*
D139*
X165040Y14773D02*
D03*
X157560Y14772D02*
D03*
X161300Y23828D02*
D03*
M02*
