M48
;Layer_Color=9474304
;FILE_FORMAT=2:5
INCH,LZ
;TYPE=PLATED
T1F00S00C0.01200
T2F00S00C0.01400
T3F00S00C0.02559
T4F00S00C0.03543
T5F00S00C0.03937
T6F00S00C0.09409
T7F00S00C0.12000
T8F00S00C0.13583
%
T01
X0040406Y0011531
X0038844Y0017
X0040406Y0022469
X0045406Y0026531
X0052594
X0057594Y0022469
X0059156Y0017
X0057594Y0011531
X0052594Y0007469
X0045406
X0283812Y0011531
X028225Y0017
X0283812Y0022469
X0288812Y0026531
X0296
X0301Y0022469
X0302562Y0017
X0301Y0011531
X0296Y0007469
X0288812
X0289062Y0418469
X029625
X030125Y0422531
X0302813Y0428
X030125Y0433469
X029625Y0437531
X0289062
X0284063Y0433469
X02825Y0428
X0284063Y0422531
X0057594
X0059156Y0428
X0057594Y0433469
X0052594Y0437531
X0045406
X0040406Y0433469
X0038844Y0428
X0040406Y0422531
X0045406Y0418469
X0052594
T02
X0036Y0004
X0066
X00735Y0019
X0066Y0034
X0051
X0036
X00435Y0049
X00585
X00735
X0066Y0064
X0051
X0036
X00435Y0079
X00585
X00735
X0066Y0094
X0051
X0036
X0081
X0096
X00961Y00796
X00885Y0079
X0081Y0064
Y0034
X0096
X01035Y0019
X01128Y00141
X0111Y0004
X0096
X0081
X00885Y0019
X01155Y00286
X01299Y00349
X01305Y00443
X0141Y0061
X01409Y00654
X0141Y006975
Y0076
Y0082
X0135484Y0080768
X01502Y00804
X01531Y00709
X01564Y0070984
X01566Y0064
X01537
X0169167Y0064911
X01692Y00689
X0169Y0054
X0172
X01755
X01785
X01815
X0185
X01762Y00495
X01712Y00435
X01803Y00349
X01886Y00443
X01972Y00428
X0201Y0064
X02085Y0079
X02235
X0231Y0094
X0216
X0201
X0186
X01935Y0079
X01442Y00889
X0141Y0094
X01241Y00884
X01166Y00886
X01335Y0019
X01485
X0153872Y0014772
X01544Y00312
X0156Y0034
X01504Y00355
X01744Y00081
X0201Y0004
X0211Y00066
X0216Y0004
X02129Y00138
X02178Y00183
X02212Y00178
X0216Y0034
X02289Y00367
X0231Y0004
X0246
X0261
X02698Y00078
Y00131
X02662Y0018
X02602Y00181
X02535Y0019
X0242087Y0022429
X02361Y00224
X0246Y0034
X02536Y00378
X0261Y0034
X0276
X0291
X02845Y0052658
X0281
X0277Y00525
X0273Y0052658
X0269
X0264Y00525
X02685Y0079
X02835
X02985
X0291Y0094
X0276
X0261
X0246
X02535Y0079
X0276Y0004
X02835Y0109
X02985
X0291Y0124
X0276
X0261
X0246
X02535Y0139
X02685
X02835
X02985
X0291Y0154
X0276
X0261
X0246
X02535Y0169
X02685
X02835
X02985
X0291Y0184
X0276
X0261
X0246
X02535Y0199
X02685
X02835
X02985
X0291Y0214
X0276
X0261
X0246
X02535Y0229
X02685
X02835
X02985
X0291Y0244
X0276
X0261
X0246
X02535Y0109
X02235
X02085
X01935
X01785
X01635
X01485
X01335
X01185
X01035
X01076Y00956
X0111Y0124
X0126
X0141
X0171
X0186
X0201
X0216
X0231
X02235Y0139
X02085
X01935
X01785
X01635
X0171Y0154
X0186
X0201
X0216
X0231
X02235Y0169
X02085
X01935
X01785
X01635
X01485
X01502Y01809
X0171Y0184
X0201
X0216
X0231
X02235Y0199
X02085
X01935
Y0229
X02085
X02235
X0231Y0244
X0216
Y0214
X0231
X0186Y0244
X01795Y024
Y025
X0156Y02445
X01565Y02405
X0157Y0217
X0126Y0214
X0111
X01185Y0229
X01335
X013Y02385
X01335Y02465
X01035Y0229
X00885
X0081Y0244
Y0214
X00885Y0199
X0096Y0184
X0111
X0112Y01715
X00915
X0126Y0184
X0141Y0154
X0096Y0124
X0081
X0066
X0051
X0036
X00435Y0139
X0051Y0154
X0066
X00735Y0169
X00585
X00435
X0051Y0184
X0066
X00735Y0199
X0066Y0214
X0051
X0036
X00435Y0229
X0051Y0244
X0036
X00735Y0229
X00435Y0199
X0036Y0184
Y0154
X00435Y0109
X00585
X00735
X00435Y0259
X0051Y0274
X0036
X00435Y0289
X0051Y0304
X0036
X00435Y0319
X0051Y0334
X0059Y03275
X0066Y0334
X0065Y03145
Y0282
X00585Y0349
X00435
X0051Y0364
X0066
X00585Y0379
X00435
X0051Y0394
X0066
X0036
Y0364
Y0334
X0081772Y0327394
X00885Y0319
X0096Y0334
X0111
X0126
X0141
X01445Y03215
X01405Y0311
X01367Y0312276
X0126Y0304
X012976Y0295253
X012535Y028115
X01198Y02853
X0115225Y0281025
X01167Y0267663
X01151Y02597
X01185Y0259
X00948Y02576
X00937Y02668
X00931Y0275
X0091Y0282
X0081Y0274
Y0304
X0111
X01035Y0289
X01444Y02875
X01485Y0289
X01486Y02827
X01446Y02809
X01517Y02704
X01549Y02689
X01582Y027
X016815Y027235
X01702Y02823
X01785Y0288
X0178Y0292
X01765Y02985
X01631Y02971
X0186Y0304
X0201
X0216
X0231
X02235Y0319
X02085
X01935
X0186Y0334
X01935Y0349
X0201Y0364
X0216
X02195Y039
X02094Y0387
X02097Y03938
X020335Y039235
X0186Y0394
X0171
X0163Y03971
X01617Y04022
X01553Y04034
X01489Y04031
X01459Y03988
X0141Y0394
X0126
X0113187Y0395382
X0113422Y0399376
X0112315Y040322
X0109978Y0406465
X011157Y0391724
X0108802Y0388836
X0094023Y0389728
X0091172Y0392534
X0088343Y0395363
X0085515Y0398191
X0082699Y0401032
X0080473Y0404356
X0081Y0394
X00815Y03722
X00868Y03774
X00937Y03778
X01185Y0379
X01335
X0141Y0364
X0126
X0111
X00885Y0349
X01485
X01623Y03438
X01628Y03382
X01559Y03367
X0169Y03475
X0172Y03585
X0173894Y0366606
X0172681Y0374819
X01635Y0379
X01935
X0186Y0364
X0216Y0334
X0231
X02235Y0289
X02085
X02Y02831
X01912
X0182Y02755
X01915Y0266
X02085Y0259
X02235
X0231Y0274
X0216
X01643Y02635
X01545Y0254
X02535Y0259
X02685
X02835
X02985
X0291Y0274
X0276
X0261
X0246
X02535Y0289
X02685
X02835
X02985
X0291Y0304
X0276
X0261
X0246
X02535Y0319
X02685
X02835
X02985
X0291Y0334
X0276
X0261
X0246
X02535Y0349
X02685
X02835
X02985
X0291Y0364
X0276
X0261
X02685Y0379
X02835
X02985
X0291Y0394
X0276
X0261
X02685Y0409
X02835
X02985
X0276Y0424
X0261
X02685Y0439
X02535
Y0409
X02204Y04143
X0224Y0419
X02186Y04322
X02185Y04372
X02192Y04421
X02085Y0439
X01935
X01785
X01635
X01485
X01335
X01185
X0126Y0424
X0141
X0156
X0171
X0186
X0202716Y04214
X01935Y0409
X01785
X01635
X01485
X01335
X01185
X010715Y0409294
X0104321Y0412122
X0102575Y0415721
Y0419721
Y0423721
X0111Y0424
X0079425Y042423
Y042023
Y041623
Y041223
X0079481Y040823
X00735Y0409
X00585
X00435
X0066Y0424
X00735Y0439
T03
X0229745Y00227
X02525
T04
X01695Y01965
X01795
Y02065
X01695
Y02165
X01795
T05
X0084685Y01391
X0094567
X0104449
X0074764
X0064882
X0055
T06
X02685Y0360185
T07
X0049Y0017
X0292406
X0292656Y0428
X0049
T08
X02685Y01105
X0205508Y0327823
M30
